<svg width="1341" height="611" viewBox="0 0 1341 611" fill="none" xmlns="http://www.w3.org/2000/svg">
<path d="M1325.62 682.868C1332.66 687.885 1331.9 695.03 1323.37 699.5L856.498 947.369C851.232 949.812 845.416 951.085 839.518 951.085C833.62 951.085 827.804 949.812 822.538 947.369L-69.6694 473.675C-78.3329 469.083 -79.0273 461.877 -71.6865 456.891C-76.0513 459.928 -79.6457 463.802 -82.2207 468.244C-84.7958 472.685 -86.2899 477.589 -86.5996 482.614V503.26C-86.2948 508.685 -84.5954 513.966 -81.6409 518.67C-78.6864 523.374 -74.561 527.367 -69.6033 530.321L822.472 1004.08C827.738 1006.54 833.562 1007.82 839.468 1007.82C845.375 1007.82 851.198 1006.54 856.465 1004.08L1323.33 756.268C1328.28 753.311 1332.39 749.321 1335.34 744.624C1338.29 739.926 1339.99 734.653 1340.3 729.237V708.561C1340 703.56 1338.53 698.678 1336 694.245C1333.47 689.811 1329.92 685.931 1325.62 682.868Z" fill="#455A64"/>
<path d="M1323.37 681.499L431.127 207.804C425.858 205.368 420.043 204.1 414.147 204.1C408.25 204.1 402.435 205.368 397.167 207.804L-69.6697 455.674C-79.0606 460.63 -79.0606 468.718 -69.6697 473.674L822.538 947.368C827.804 949.811 833.62 951.084 839.518 951.084C845.416 951.084 851.232 949.811 856.497 947.368L1323.37 699.499C1332.72 694.543 1332.72 686.333 1323.37 681.499Z" fill="#37474F"/>
<path d="M-71.6865 456.891C-76.0513 459.928 -79.6457 463.802 -82.2207 468.244C-84.7958 472.685 -86.2899 477.589 -86.5996 482.614V503.26C-86.2895 508.684 -84.5879 513.963 -81.6339 518.666C-78.6799 523.37 -74.5573 527.363 -69.6033 530.321L822.472 1004.08C827.71 1006.64 833.571 1007.92 839.501 1007.82V951.079C833.586 951.184 827.738 949.907 822.505 947.369L-69.6694 473.675C-78.3329 469.083 -79.0273 461.877 -71.6865 456.891Z" fill="#263238"/>
<path d="M158.554 375.038C163.316 372.514 163.316 368.409 158.554 365.916C155.883 364.657 152.925 364 149.924 364C146.922 364 143.964 364.657 141.293 365.916C136.499 368.44 136.499 372.545 141.293 375.038C143.969 376.283 146.925 376.932 149.924 376.932C152.922 376.932 155.879 376.283 158.554 375.038Z" fill="#F9FDFF"/>
<path d="M181.902 361.175L248.531 325.813C252.532 323.715 252.731 320.371 248.994 318.394C246.809 317.429 244.409 316.949 241.986 316.991C239.562 317.033 237.183 317.597 235.04 318.637L168.41 354.03C164.442 356.128 164.244 359.442 167.948 361.419C170.13 362.391 172.532 362.875 174.956 362.833C177.381 362.791 179.761 362.223 181.902 361.175Z" fill="#F9FDFF"/>
<path d="M461.351 245.811C453.349 241.554 444.818 244.017 436.948 248.305L0.466559 479.815C-7.56867 484.072 -7.60173 490.974 0.466559 495.262L792.383 915.776C796.898 917.876 801.888 918.971 806.948 918.971C812.009 918.971 816.999 917.876 821.514 915.776L1258 684.235C1266.06 679.978 1266.03 673.045 1258 668.789L461.351 245.811Z" fill="#144EF4"/>
<path opacity="0.96" d="M461.351 245.811C453.349 241.554 444.818 244.017 436.948 248.305L0.466559 479.815C-7.56867 484.072 -7.60173 490.974 0.466559 495.262L792.383 915.776C796.898 917.876 801.888 918.971 806.948 918.971C812.009 918.971 816.999 917.876 821.514 915.776L1258 684.235C1266.06 679.978 1266.03 673.045 1258 668.789L461.351 245.811Z" fill="white"/>
<g opacity="0.4">
<path opacity="0.4" d="M999.806 806.645L1245.39 676.264L1081.02 589.029L984.033 802.479L999.806 806.645Z" fill="#144EF4"/>
<path opacity="0.4" d="M1053.64 574.466L957.744 795.487C901.068 778.946 850.211 776.422 791.98 785.635L884.567 576.016L1019.08 556.131L1053.64 574.466Z" fill="#144EF4"/>
<path opacity="0.4" d="M917.175 502.102L998.85 545.369L891.02 561.393L917.175 502.102Z" fill="#144EF4"/>
<path opacity="0.4" d="M396.136 538.984C412.189 538.984 425.202 532.082 425.202 523.568C425.202 515.054 412.189 508.152 396.136 508.152C380.083 508.152 367.07 515.054 367.07 523.568C367.07 532.082 380.083 538.984 396.136 538.984Z" fill="#144EF4"/>
<path opacity="0.4" d="M844.063 577.507L440.351 533.51C436.086 542.449 428.811 544.456 411.848 547.861L524.473 666.445L792.975 695.452L844.063 577.507Z" fill="#144EF4"/>
<path opacity="0.4" d="M652.246 465.491L622.486 531.624L439.164 511.617C434.752 507.452 429.37 504.26 423.424 502.282L448.588 443.295L652.246 465.491Z" fill="#144EF4"/>
<path opacity="0.4" d="M885.859 485.411L854.347 556.895L653.301 534.973L684.88 463.488L885.859 485.411Z" fill="#144EF4"/>
<path opacity="0.4" d="M848.16 465.374L515.145 288.594L457.477 422.775L848.16 465.374Z" fill="#144EF4"/>
<path opacity="0.4" d="M371.772 545.761L494.747 675.078L450.934 719.775L213.217 593.59L359.802 540.684C363.559 542.806 367.577 544.511 371.772 545.761Z" fill="#144EF4"/>
<path opacity="0.4" d="M430.402 419.823L492.038 276.307L450.936 254.506L189.113 393.492L430.402 419.823Z" fill="#144EF4"/>
<path opacity="0.4" d="M154.059 411.768L12.5996 487.205L190.664 581.737L347.731 524.817C347.401 517.884 351.038 511.225 362.545 505.023C372.002 500.006 383.807 498.121 396.869 497.847L421.371 440.349L154.059 411.768Z" fill="#144EF4"/>
</g>
<path d="M471.201 414.928V369.896L546.825 378.137V423.137L471.201 414.928Z" fill="#144EF4"/>
<path d="M546.824 378.137L562.399 338.031V387.684L546.824 423.138V378.137Z" fill="#144EF4"/>
<path d="M562.399 338.034L488.396 329.824L471.201 369.899L546.825 378.139L562.399 338.034Z" fill="#144EF4"/>
<path opacity="0.8" d="M471.201 414.928V369.896L546.825 378.137V423.137L471.201 414.928Z" fill="white"/>
<path opacity="0.75" d="M546.824 378.137L562.399 338.031V387.684L546.824 423.138V378.137Z" fill="white"/>
<path opacity="0.9" d="M562.399 338.034L488.396 329.824L471.201 369.899L546.825 378.139L562.399 338.034Z" fill="white"/>
<path d="M520.77 511.071V490.912L596.426 499.122V519.311L520.77 511.071Z" fill="#144EF4"/>
<path d="M596.422 499.123L609.913 464.369V489.18L596.422 519.313V499.123Z" fill="#144EF4"/>
<path d="M609.918 464.368L535.881 456.158L520.77 490.912L596.426 499.122L609.918 464.368Z" fill="#144EF4"/>
<path opacity="0.8" d="M520.77 511.071V490.912L596.426 499.122V519.311L520.77 511.071Z" fill="white"/>
<path opacity="0.75" d="M596.422 499.123L609.913 464.369V489.18L596.422 519.313V499.123Z" fill="white"/>
<path opacity="0.9" d="M609.918 464.368L535.881 456.158L520.77 490.912L596.426 499.122L609.918 464.368Z" fill="white"/>
<path d="M665.139 435.179V418.607L703.43 422.773V439.344L665.139 435.179Z" fill="#144EF4"/>
<path d="M703.432 422.772L711.301 402.461V421.404L703.432 439.343V422.772Z" fill="#144EF4"/>
<path d="M711.3 402.461L673.835 398.326L665.139 418.607L703.43 422.773L711.3 402.461Z" fill="#144EF4"/>
<path opacity="0.8" d="M665.139 435.179V418.607L703.43 422.773V439.344L665.139 435.179Z" fill="white"/>
<path opacity="0.75" d="M703.432 422.772L711.301 402.461V421.404L703.432 439.343V422.772Z" fill="white"/>
<path opacity="0.9" d="M711.3 402.461L673.835 398.326L665.139 418.607L703.43 422.773L711.3 402.461Z" fill="white"/>
<path d="M386.121 356.978V332.836L441.806 338.887V363.029L386.121 356.978Z" fill="#144EF4"/>
<path d="M441.803 338.884L453.277 309.391V336.938L441.803 363.027V338.884Z" fill="#144EF4"/>
<path d="M453.28 309.389L398.786 303.338L386.121 332.832L441.806 338.882L453.28 309.389Z" fill="#144EF4"/>
<path opacity="0.8" d="M386.121 356.978V332.836L441.806 338.887V363.029L386.121 356.978Z" fill="white"/>
<path opacity="0.75" d="M441.803 338.884L453.277 309.391V336.938L441.803 363.027V338.884Z" fill="white"/>
<path opacity="0.9" d="M453.28 309.389L398.786 303.338L386.121 332.832L441.806 338.882L453.28 309.389Z" fill="white"/>
<path d="M671.787 529.134V507.637L721.453 513.019V534.546L671.787 529.134Z" fill="#144EF4"/>
<path d="M721.451 513.02L731.669 486.719V511.287L721.451 534.547V513.02Z" fill="#144EF4"/>
<path d="M731.671 486.722L683.096 481.34L671.787 507.641L721.453 513.023L731.671 486.722Z" fill="#144EF4"/>
<path opacity="0.8" d="M671.787 529.134V507.637L721.453 513.019V534.546L671.787 529.134Z" fill="white"/>
<path opacity="0.75" d="M721.451 513.02L731.669 486.719V511.287L721.451 534.547V513.02Z" fill="white"/>
<path opacity="0.9" d="M731.671 486.722L683.096 481.34L671.787 507.641L721.453 513.023L731.671 486.722Z" fill="white"/>
<path d="M446.531 503.475V481.34L497.619 486.874V509.04L446.531 503.475Z" fill="#144EF4"/>
<path d="M497.625 486.872L508.14 459.811V485.078L497.625 509.038V486.872Z" fill="#144EF4"/>
<path d="M508.135 459.809L458.171 454.275L446.531 481.337L497.619 486.871L508.135 459.809Z" fill="#144EF4"/>
<path opacity="0.8" d="M446.531 503.475V481.34L497.619 486.874V509.04L446.531 503.475Z" fill="white"/>
<path opacity="0.75" d="M497.625 486.872L508.14 459.811V485.078L497.625 509.038V486.872Z" fill="white"/>
<path opacity="0.9" d="M508.135 459.809L458.171 454.275L446.531 481.337L497.619 486.871L508.135 459.809Z" fill="white"/>
<path d="M736.033 535.945V514.418L785.699 519.83V541.358L736.033 535.945Z" fill="#144EF4"/>
<path d="M785.697 519.83L795.915 493.529V518.067L785.697 541.358V519.83Z" fill="#144EF4"/>
<path d="M795.917 493.527L747.342 488.115L736.033 514.416L785.699 519.829L795.917 493.527Z" fill="#144EF4"/>
<path opacity="0.8" d="M736.033 535.945V514.418L785.699 519.83V541.358L736.033 535.945Z" fill="white"/>
<path opacity="0.75" d="M785.697 519.83L795.915 493.529V518.067L785.697 541.358V519.83Z" fill="white"/>
<path opacity="0.9" d="M795.917 493.527L747.342 488.115L736.033 514.416L785.699 519.829L795.917 493.527Z" fill="white"/>
<path d="M800.281 542.756V521.229L849.915 526.641V548.138L800.281 542.756Z" fill="#144EF4"/>
<path d="M849.914 526.638L860.165 500.307V524.875L849.914 548.135V526.638Z" fill="#144EF4"/>
<path d="M860.165 500.308L811.59 494.926L800.281 521.227L849.915 526.639L860.165 500.308Z" fill="#144EF4"/>
<path opacity="0.8" d="M800.281 542.756V521.229L849.915 526.641V548.138L800.281 542.756Z" fill="white"/>
<path opacity="0.75" d="M849.914 526.638L860.165 500.307V524.875L849.914 548.135V526.638Z" fill="white"/>
<path opacity="0.9" d="M860.165 500.308L811.59 494.926L800.281 521.227L849.915 526.639L860.165 500.308Z" fill="white"/>
<path d="M206.076 470.967V449.439L255.742 454.852V476.379L206.076 470.967Z" fill="#144EF4"/>
<path d="M255.736 454.85L265.954 428.549V453.086L255.736 476.377V454.85Z" fill="#144EF4"/>
<path d="M265.96 428.551L217.385 423.139L206.076 449.44L255.742 454.852L265.96 428.551Z" fill="#144EF4"/>
<path opacity="0.8" d="M206.076 470.967V449.439L255.742 454.852V476.379L206.076 470.967Z" fill="white"/>
<path opacity="0.75" d="M255.736 454.85L265.954 428.549V453.086L255.736 476.377V454.85Z" fill="white"/>
<path opacity="0.9" d="M265.96 428.551L217.385 423.139L206.076 449.44L255.742 454.852L265.96 428.551Z" fill="white"/>
<path d="M270.322 477.781V456.254L319.989 461.666V483.163L270.322 477.781Z" fill="#144EF4"/>
<path d="M319.986 461.665L330.204 435.334V459.902L319.986 483.162V461.665Z" fill="#144EF4"/>
<path d="M330.206 435.333L281.631 429.951L270.322 456.252L319.989 461.665L330.206 435.333Z" fill="#144EF4"/>
<path opacity="0.8" d="M270.322 477.781V456.254L319.989 461.666V483.163L270.322 477.781Z" fill="white"/>
<path opacity="0.75" d="M319.986 461.665L330.204 435.334V459.902L319.986 483.162V461.665Z" fill="white"/>
<path opacity="0.9" d="M330.206 435.333L281.631 429.951L270.322 456.252L319.989 461.665L330.206 435.333Z" fill="white"/>
<path d="M334.57 484.558V463.061L384.204 468.473V489.97L334.57 484.558Z" fill="#144EF4"/>
<path d="M384.203 468.474L394.454 442.143V466.711L384.203 489.971V468.474Z" fill="#144EF4"/>
<path d="M394.454 442.145L345.846 436.764L334.57 463.065L384.204 468.477L394.454 442.145Z" fill="#144EF4"/>
<path opacity="0.8" d="M334.57 484.558V463.061L384.204 468.473V489.97L334.57 484.558Z" fill="white"/>
<path opacity="0.75" d="M384.203 468.474L394.454 442.143V466.711L384.203 489.971V468.474Z" fill="white"/>
<path opacity="0.9" d="M394.454 442.145L345.846 436.764L334.57 463.065L384.204 468.477L394.454 442.145Z" fill="white"/>
<path d="M975.67 401.918V389.117L1017.76 393.678V406.479L975.67 401.918Z" fill="#144EF4"/>
<path opacity="0.8" d="M975.67 401.918V389.117L1017.76 393.678V406.479L975.67 401.918Z" fill="white"/>
<path d="M1017.76 393.674L1023.91 377.072V392.64L1017.76 406.475V393.674Z" fill="#144EF4"/>
<path opacity="0.75" d="M1017.76 393.674L1023.91 377.072V392.64L1017.76 406.475V393.674Z" fill="white"/>
<path d="M1023.91 377.073L982.779 372.543L975.67 389.114L1017.76 393.675L1023.91 377.073Z" fill="#144EF4"/>
<path opacity="0.9" d="M1023.91 377.073L982.779 372.543L975.67 389.114L1017.76 393.675L1023.91 377.073Z" fill="white"/>
<path d="M1008.77 626.585L1019.02 600.254V624.822L1008.77 648.083V626.585Z" fill="#144EF4"/>
<path d="M1019.02 600.255L970.414 594.873L959.139 621.174L1008.77 626.586L1019.02 600.255Z" fill="#144EF4"/>
<path opacity="0.75" d="M1008.77 626.585L1019.02 600.254V624.822L1008.77 648.083V626.585Z" fill="white"/>
<path opacity="0.9" d="M1019.02 600.255L970.414 594.873L959.139 621.174L1008.77 626.586L1019.02 600.255Z" fill="white"/>
<path d="M924.48 617.553L934.731 591.252V615.789L924.48 639.08V617.553Z" fill="#144EF4"/>
<path d="M934.731 591.254L886.123 585.842L874.814 612.173L924.481 617.555L934.731 591.254Z" fill="#144EF4"/>
<path opacity="0.75" d="M924.48 617.553L934.731 591.252V615.789L924.48 639.08V617.553Z" fill="white"/>
<path opacity="0.9" d="M934.731 591.254L886.123 585.842L874.814 612.173L924.481 617.555L934.731 591.254Z" fill="white"/>
<path d="M602.441 663.836V583.199L664.012 589.889V670.495L602.441 663.836Z" fill="#144EF4"/>
<path opacity="0.8" d="M602.441 663.836V583.199L664.012 589.889V670.495L602.441 663.836Z" fill="white"/>
<path d="M664.018 589.884L671.987 570.211V654.861L664.018 670.49V589.884Z" fill="#144EF4"/>
<path opacity="0.75" d="M664.018 589.884L671.987 570.211V654.861L664.018 670.49V589.884Z" fill="white"/>
<path d="M671.981 570.212L611.832 563.584L602.441 583.196L664.012 589.885L671.981 570.212Z" fill="#144EF4"/>
<path opacity="0.9" d="M671.981 570.212L611.832 563.584L602.441 583.196L664.012 589.885L671.981 570.212Z" fill="white"/>
<path d="M291.223 392.822V297.469L326.703 301.117V396.44L291.223 392.822Z" fill="#144EF4"/>
<path opacity="0.8" d="M291.223 392.822V297.469L326.703 301.117V396.44L291.223 392.822Z" fill="white"/>
<path d="M326.703 301.122L334.672 281.449V380.816L326.703 396.445V301.122Z" fill="#144EF4"/>
<path opacity="0.75" d="M326.703 301.122L334.672 281.449V380.816L326.703 396.445V301.122Z" fill="white"/>
<path d="M334.672 281.449L300.614 277.861L291.223 297.473L326.703 301.122L334.672 281.449Z" fill="#144EF4"/>
<path opacity="0.9" d="M334.672 281.449L300.614 277.861L291.223 297.473L326.703 301.122L334.672 281.449Z" fill="white"/>
<path d="M330.67 389.479V305.406L349.452 307.261V391.364L330.67 389.479Z" fill="#144EF4"/>
<path opacity="0.8" d="M330.67 389.479V305.406L349.452 307.261V391.364L330.67 389.479Z" fill="white"/>
<path d="M349.449 307.263L352.392 298.658V386.167L349.449 391.366V307.263Z" fill="#144EF4"/>
<path opacity="0.75" d="M349.449 307.263L352.392 298.658V386.167L349.449 391.366V307.263Z" fill="white"/>
<path d="M352.395 298.654L334.803 296.799L330.67 305.404L349.452 307.258L352.395 298.654Z" fill="#144EF4"/>
<path opacity="0.9" d="M352.395 298.654L334.803 296.799L330.67 305.404L349.452 307.258L352.395 298.654Z" fill="white"/>
<path d="M528.836 655.775V575.139L590.406 581.798V662.434L528.836 655.775Z" fill="#144EF4"/>
<path opacity="0.8" d="M528.836 655.775V575.139L590.406 581.798V662.434L528.836 655.775Z" fill="white"/>
<path d="M590.412 581.798L598.414 562.156V646.806L590.412 662.435V581.798Z" fill="#144EF4"/>
<path opacity="0.75" d="M590.412 581.798L598.414 562.156V646.806L590.412 662.435V581.798Z" fill="white"/>
<path d="M598.408 562.15L538.26 555.521L528.836 575.133L590.406 581.792L598.408 562.15Z" fill="#144EF4"/>
<path opacity="0.9" d="M598.408 562.15L538.26 555.521L528.836 575.133L590.406 581.792L598.408 562.15Z" fill="white"/>
<path d="M367.107 401.916V377.773L422.759 383.824V407.967L367.107 401.916Z" fill="#144EF4"/>
<path d="M422.758 383.82L434.265 354.326V381.874L422.758 407.962V383.82Z" fill="#144EF4"/>
<path d="M434.266 354.328L379.772 348.277L367.107 377.771L422.759 383.822L434.266 354.328Z" fill="#144EF4"/>
<path opacity="0.8" d="M367.107 401.916V377.773L422.759 383.824V407.967L367.107 401.916Z" fill="white"/>
<path opacity="0.75" d="M422.758 383.82L434.265 354.326V381.874L422.758 407.962V383.82Z" fill="white"/>
<path opacity="0.9" d="M434.266 354.328L379.772 348.277L367.107 377.771L422.759 383.822L434.266 354.328Z" fill="white"/>
<path d="M318.532 574.895L278.653 596.057L246.711 579.212L288.64 556.955L318.532 574.895Z" fill="#144EF4"/>
<path opacity="0.9" d="M318.532 574.895L278.653 596.057L246.711 579.212L288.64 556.955L318.532 574.895Z" fill="white"/>
<path d="M246.711 596.668V579.215L278.653 596.06V613.604L246.711 596.668Z" fill="#144EF4"/>
<path opacity="0.8" d="M246.711 596.668V579.215L278.653 596.06V613.604L246.711 596.668Z" fill="white"/>
<path d="M318.531 574.895V592.439L278.652 613.601V596.057L318.531 574.895Z" fill="#144EF4"/>
<path opacity="0.75" d="M318.531 574.895V592.439L278.652 613.601V596.057L318.531 574.895Z" fill="white"/>
<path d="M363.106 599.069L323.228 620.232L291.318 603.387L333.247 581.16L363.106 599.069Z" fill="#144EF4"/>
<path opacity="0.9" d="M363.106 599.069L323.228 620.232L291.318 603.387L333.247 581.16L363.106 599.069Z" fill="white"/>
<path d="M291.318 620.838V603.385L323.228 620.23V637.774L291.318 620.838Z" fill="#144EF4"/>
<path opacity="0.8" d="M291.318 620.838V603.385L323.228 620.23V637.774L291.318 620.838Z" fill="white"/>
<path d="M363.107 599.066V616.611L323.229 637.773V620.229L363.107 599.066Z" fill="#144EF4"/>
<path opacity="0.75" d="M363.107 599.066V616.611L323.229 637.773V620.229L363.107 599.066Z" fill="white"/>
<path d="M408.606 623.027L368.728 644.16L336.785 627.345L378.714 605.088L408.606 623.027Z" fill="#144EF4"/>
<path opacity="0.9" d="M408.606 623.027L368.728 644.16L336.785 627.345L378.714 605.088L408.606 623.027Z" fill="white"/>
<path d="M234.708 535.093L191.489 549.961L159.547 533.147L204.848 517.184L234.708 535.093Z" fill="#144EF4"/>
<path opacity="0.9" d="M234.708 535.093L191.489 549.961L159.547 533.147L204.848 517.184L234.708 535.093Z" fill="white"/>
<path d="M159.547 550.571V533.148L191.489 549.963V567.538L159.547 550.571Z" fill="#144EF4"/>
<path opacity="0.8" d="M159.547 550.571V533.148L191.489 549.963V567.538L159.547 550.571Z" fill="white"/>
<path d="M234.708 535.096V552.64L191.49 567.539V549.964L234.708 535.096Z" fill="#144EF4"/>
<path opacity="0.75" d="M234.708 535.096V552.64L191.49 567.539V549.964L234.708 535.096Z" fill="white"/>
<path d="M304.014 510.769L260.763 525.667L228.82 508.823L274.122 492.859L304.014 510.769Z" fill="#144EF4"/>
<path opacity="0.9" d="M304.014 510.769L260.763 525.667L228.82 508.823L274.122 492.859L304.014 510.769Z" fill="white"/>
<path d="M228.82 526.277V508.824L260.763 525.669V543.213L228.82 526.277Z" fill="#144EF4"/>
<path opacity="0.8" d="M228.82 526.277V508.824L260.763 525.669V543.213L228.82 526.277Z" fill="white"/>
<path d="M304.015 510.771V528.346L260.764 543.215V525.67L304.015 510.771Z" fill="#144EF4"/>
<path opacity="0.75" d="M304.015 510.771V528.346L260.764 543.215V525.67L304.015 510.771Z" fill="white"/>
<path d="M566.398 423.503V398.084L647.214 406.841V432.26L566.398 423.503Z" fill="#144EF4"/>
<path opacity="0.75" d="M566.398 423.503V398.084L647.214 406.841V432.26L566.398 423.503Z" fill="white"/>
<path d="M647.219 406.841L664.281 362.904V393.432L647.219 432.26V406.841Z" fill="#144EF4"/>
<path opacity="0.65" d="M647.219 406.841L664.281 362.904V393.432L647.219 432.26V406.841Z" fill="white"/>
<path d="M664.276 362.905L585.246 354.148L566.398 398.085L647.214 406.842L664.276 362.905Z" fill="#144EF4"/>
<path opacity="0.9" d="M664.276 362.905L585.246 354.148L566.398 398.085L647.214 406.842L664.276 362.905Z" fill="white"/>
<path d="M576.783 391.763V267.768L640.073 274.609V398.604L576.783 391.763Z" fill="#144EF4"/>
<path opacity="0.75" d="M576.783 391.763V267.768L640.073 274.609V398.604L576.783 391.763Z" fill="white"/>
<path d="M640.074 274.602L653.896 239.027V367.128L640.074 398.598V274.602Z" fill="#144EF4"/>
<path opacity="0.65" d="M640.074 274.602L653.896 239.027V367.128L640.074 398.598V274.602Z" fill="white"/>
<path d="M653.895 239.031L592.06 232.189L576.783 267.764L640.073 274.606L653.895 239.031Z" fill="#144EF4"/>
<path opacity="0.9" d="M653.895 239.031L592.06 232.189L576.783 267.764L640.073 274.606L653.895 239.031Z" fill="white"/>
<path d="M596.527 259.764V192.172L631.049 195.912V263.504L596.527 259.764Z" fill="#144EF4"/>
<path opacity="0.75" d="M596.527 259.764V192.172L631.049 195.912V263.504L596.527 259.764Z" fill="white"/>
<path d="M631.047 195.919L638.586 176.52V246.362L631.047 263.511V195.919Z" fill="#144EF4"/>
<path opacity="0.65" d="M631.047 195.919L638.586 176.52V246.362L631.047 263.511V195.919Z" fill="white"/>
<path d="M638.588 176.519L604.827 172.779L596.527 192.178L631.049 195.918L638.588 176.519Z" fill="#144EF4"/>
<path opacity="0.9" d="M638.588 176.519L604.827 172.779L596.527 192.178L631.049 195.918L638.588 176.519Z" fill="white"/>
<path d="M962.543 601.865V406.477L1025.87 413.318V608.707L962.543 601.865Z" fill="#144EF4"/>
<path opacity="0.75" d="M962.543 601.865V406.477L1025.87 413.318V608.707L962.543 601.865Z" fill="white"/>
<path d="M1025.86 413.319L1035.12 388.416V587.91L1025.86 608.707V413.319Z" fill="#144EF4"/>
<path opacity="0.65" d="M1025.86 413.319L1035.12 388.416V587.91L1025.86 608.707V413.319Z" fill="white"/>
<path d="M1035.12 388.418L973.257 381.576L962.543 406.479L1025.87 413.32L1035.12 388.418Z" fill="#144EF4"/>
<path opacity="0.9" d="M1035.12 388.418L973.257 381.576L962.543 406.479L1025.87 413.32L1035.12 388.418Z" fill="white"/>
<path d="M1064.98 664.195V483.279L1120.17 488.904V669.85L1064.98 664.195Z" fill="#144EF4"/>
<path opacity="0.75" d="M1064.98 664.195V483.279L1120.17 488.904V669.85L1064.98 664.195Z" fill="white"/>
<path d="M1120.17 488.906L1132.6 458.348V645.527L1120.17 669.851V488.906Z" fill="#144EF4"/>
<path opacity="0.65" d="M1120.17 488.906L1132.6 458.348V645.527L1120.17 669.851V488.906Z" fill="white"/>
<path d="M1132.6 458.352L1079.6 452.727L1064.98 483.285L1120.17 488.91L1132.6 458.352Z" fill="#144EF4"/>
<path opacity="0.9" d="M1132.6 458.352L1079.6 452.727L1064.98 483.285L1120.17 488.91L1132.6 458.352Z" fill="white"/>
<path d="M1126.39 659.029V495.627L1155.62 498.516V661.917L1126.39 659.029Z" fill="#144EF4"/>
<path opacity="0.75" d="M1126.39 659.029V495.627L1155.62 498.516V661.917L1126.39 659.029Z" fill="white"/>
<path d="M1155.62 498.513L1160.15 485.104V653.887L1155.62 661.914V498.513Z" fill="#144EF4"/>
<path opacity="0.65" d="M1155.62 498.513L1160.15 485.104V653.887L1155.62 661.914V498.513Z" fill="white"/>
<path d="M1160.15 485.104L1132.8 482.246L1126.39 495.625L1155.62 498.513L1160.15 485.104Z" fill="#144EF4"/>
<path opacity="0.9" d="M1160.15 485.104L1132.8 482.246L1126.39 495.625L1155.62 498.513L1160.15 485.104Z" fill="white"/>
<path d="M37.498 464.889L118.115 507.67V530.93L37.498 488.149V464.889Z" fill="#144EF4"/>
<path opacity="0.35" d="M37.498 464.889L118.115 507.67V530.93L37.498 488.149V464.889Z" fill="#F9FDFF"/>
<path d="M198.699 488.149V464.889L118.115 507.67V530.93" fill="#144EF4"/>
<path opacity="0.15" d="M198.699 464.889L118.115 507.67V530.93L198.699 488.149V464.889Z" fill="#F9FDFF"/>
<path d="M198.699 464.887L118.115 422.105L37.498 464.887L118.115 507.668L198.699 464.887Z" fill="#144EF4"/>
<path opacity="0.5" d="M198.699 464.887L118.115 422.105L37.498 464.887L118.115 507.668L198.699 464.887Z" fill="#F9FDFF"/>
<path d="M37.498 461.295L118.115 504.076V496.961L37.498 454.18V461.295Z" fill="#144EF4"/>
<path opacity="0.35" d="M37.498 461.295L118.115 504.076V496.961L37.498 454.18V461.295Z" fill="#F9FDFF"/>
<path d="M118.115 504.076L198.699 461.295V454.18L118.115 496.961V504.076Z" fill="#144EF4"/>
<path opacity="0.15" d="M118.115 504.076L198.699 461.295V454.18L118.115 496.961V504.076Z" fill="#F9FDFF"/>
<path d="M198.699 454.185L118.115 411.404L37.498 454.185L118.115 496.967L198.699 454.185Z" fill="#144EF4"/>
<path opacity="0.5" d="M198.699 454.185L118.115 411.404L37.498 454.185L118.115 496.967L198.699 454.185Z" fill="#F9FDFF"/>
<path d="M37.498 449.804L118.115 492.586V485.471L37.498 442.689V449.804Z" fill="#144EF4"/>
<path opacity="0.35" d="M37.498 449.804L118.115 492.586V485.471L37.498 442.689V449.804Z" fill="#F9FDFF"/>
<path d="M118.115 492.586L198.699 449.804V442.689L118.115 485.471V492.586Z" fill="#144EF4"/>
<path opacity="0.15" d="M118.115 492.586L198.699 449.804V442.689L118.115 485.471V492.586Z" fill="#F9FDFF"/>
<path d="M198.699 442.687L118.115 399.906L37.498 442.687L118.115 485.469L198.699 442.687Z" fill="#144EF4"/>
<path opacity="0.5" d="M198.699 442.687L118.115 399.906L37.498 442.687L118.115 485.469L198.699 442.687Z" fill="#F9FDFF"/>
<path d="M118.118 477.446V297.808L50.959 262.172V441.78L118.118 477.446Z" fill="#144EF4"/>
<path d="M118.115 297.808L185.274 262.172V441.78L118.115 477.446V297.808Z" fill="#144EF4"/>
<path d="M185.276 262.17L118.118 226.504L50.959 262.17L118.118 297.806L185.276 262.17Z" fill="#144EF4"/>
<path opacity="0.4" d="M185.276 262.17L118.118 226.504L50.959 262.17L118.118 297.806L185.276 262.17Z" fill="#F9FDFF"/>
<path opacity="0.2" d="M118.118 477.446V297.808L50.959 262.172V441.78L118.118 477.446Z" fill="#F9FDFF"/>
<path d="M118.116 290.691V139.391L64.3828 110.201V262.17L118.116 290.691Z" fill="#144EF4"/>
<path d="M118.115 290.691V139.391L171.816 110.201V262.17L118.115 290.691Z" fill="#144EF4"/>
<path d="M171.817 110.206L118.116 82.0195L64.3828 110.206L118.116 139.396L171.817 110.206Z" fill="#144EF4"/>
<path opacity="0.4" d="M171.817 110.206L118.116 82.0195L64.3828 110.206L118.116 139.396L171.817 110.206Z" fill="#F9FDFF"/>
<path opacity="0.2" d="M118.116 290.691V139.391L64.3828 110.201V262.17L118.116 290.691Z" fill="#F9FDFF"/>
<path d="M118.115 128.357V106.981L151.678 89.1328V110.539L118.115 128.357Z" fill="#144EF4"/>
<path d="M84.5215 110.539V89.1328L118.117 106.981V128.357L84.5215 110.539Z" fill="#144EF4"/>
<path opacity="0.2" d="M84.5215 110.539V89.1328L118.117 106.981V128.357L84.5215 110.539Z" fill="#F9FDFF"/>
<path d="M151.68 89.1284L118.117 71.3105L84.5215 89.1284L118.117 106.977L151.68 89.1284Z" fill="#144EF4"/>
<path opacity="0.4" d="M151.68 89.1284L118.117 71.3105L84.5215 89.1284L118.117 106.977L151.68 89.1284Z" fill="#F9FDFF"/>
<path d="M118.115 99.8325V0.00976562L138.253 89.1296L118.115 99.8325Z" fill="#144EF4"/>
<path opacity="0.1" d="M118.115 99.8325V0.00976562L138.253 89.1296L118.115 99.8325Z" fill="#F9FDFF"/>
<path d="M97.7188 89.1296L118.121 0.00976562V99.8325L97.7188 89.1296Z" fill="#144EF4"/>
<path opacity="0.25" d="M97.7188 89.1296L118.121 0.00976562V99.8325L97.7188 89.1296Z" fill="#F9FDFF"/>
</svg>
