<svg width="993" height="608" viewBox="0 0 993 608" fill="none" xmlns="http://www.w3.org/2000/svg">
<path d="M25.2087 134.275V125.153C25.3694 113.461 27.4885 101.862 31.4914 90.7637C41.7091 61.7261 63.2355 33.935 88.1348 20.83C103.974 12.4076 118.424 11.3738 129.501 16.4212L107.71 4.89732C102.337 1.63882 96.0259 -0.0661396 89.5897 0.00196343C88.5732 -0.00721758 87.557 0.0435667 86.5476 0.153997C85.4894 0.153997 84.4313 0.336429 83.2409 0.488458C82.1272 0.606684 81.0228 0.789485 79.9342 1.03577C78.8172 1.25639 77.7135 1.53042 76.6275 1.85673C74.2935 2.48859 72.0069 3.26054 69.7827 4.16758C68.6254 4.62367 67.4681 5.17098 66.2777 5.68788C65.0872 6.20478 63.8969 6.84331 62.7395 7.45143C28.1847 25.8166 0.0449219 72.5202 0.0449219 112.048V121.17C0.0449219 160.485 57.548 203.266 57.548 203.266L80.6948 215.428C80.2876 215.181 79.9007 214.907 79.5374 214.607C62.508 199.678 25.2087 164.529 25.2087 134.275ZM93.8554 51.6009C94.058 52.6056 94.1905 53.6212 94.2521 54.6415C94.2521 55.0063 94.2521 55.3408 94.2521 55.7057C94.2857 56.3033 94.2857 56.9021 94.2521 57.4996C94.2521 75.9256 80.1988 98.3652 62.8056 107.578L60.9208 108.521C60.2926 108.825 59.6643 109.068 59.0691 109.311L57.2504 110.011H57.052C59.7635 124.119 72.5273 129.045 88.0025 120.896C105.363 111.774 119.416 89.2131 119.416 70.787C119.548 54.459 108.471 46.7055 93.8554 51.6009Z" fill="#144EF4"/>
<path opacity="0.3" d="M25.2087 134.275V125.153C25.3694 113.461 27.4885 101.862 31.4914 90.7637C41.7091 61.7261 63.2355 33.935 88.1348 20.83C103.974 12.4076 118.424 11.3738 129.501 16.4212L107.71 4.89732C102.337 1.63882 96.0259 -0.0661396 89.5897 0.00196343C88.5732 -0.00721758 87.557 0.0435667 86.5476 0.153997C85.4894 0.153997 84.4313 0.336429 83.2409 0.488458C82.1272 0.606684 81.0228 0.789485 79.9342 1.03577C78.8172 1.25639 77.7135 1.53042 76.6275 1.85673C74.2935 2.48859 72.0069 3.26054 69.7827 4.16758C68.6254 4.62367 67.4681 5.17098 66.2777 5.68788C65.0872 6.20478 63.8969 6.84331 62.7395 7.45143C28.1847 25.8166 0.0449219 72.5202 0.0449219 112.048V121.17C0.0449219 160.485 57.548 203.266 57.548 203.266L80.6948 215.428C80.2876 215.181 79.9007 214.907 79.5374 214.607C62.508 199.678 25.2087 164.529 25.2087 134.275Z" fill="black"/>
<path opacity="0.5" d="M93.8561 51.5945C94.0587 52.5992 94.1912 53.6148 94.2528 54.6351C94.2528 55 94.2528 55.3345 94.2528 55.6993C94.2864 56.2969 94.2864 56.8957 94.2528 57.4933C94.2528 75.9193 80.1995 98.3589 62.8063 107.572L60.9215 108.514C60.2933 108.819 59.665 109.062 59.0698 109.305L57.2511 110.004H57.0527C59.7642 124.113 72.528 129.039 88.0032 120.89C105.363 111.768 119.417 89.2067 119.417 70.7807C119.549 54.4527 108.472 46.6992 93.8561 51.5945Z" fill="black"/>
<path d="M150.996 58.5356C150.996 19.2207 122.856 2.28454 88.1687 20.741C53.4816 39.1974 25.3418 85.9921 25.3418 125.307V134.429C25.3418 164.835 62.6411 199.832 79.8028 214.397C80.7722 215.197 81.9295 215.781 83.1844 216.102C84.4394 216.424 85.7582 216.475 87.0382 216.252C88.3181 216.028 89.5247 215.536 90.5639 214.813C91.603 214.091 92.4468 213.157 93.0295 212.086C107.843 184.203 150.996 100.192 150.996 67.6269V58.5356ZM88.1687 120.898C70.8086 130.02 56.7222 122.662 56.7222 104.205C56.7222 85.7489 70.7425 63.4005 88.1025 54.2787C105.463 45.1569 119.549 52.5152 119.549 70.9716C119.549 89.428 105.463 111.685 88.1025 120.898H88.1687Z" fill="#144EF4"/>
<path d="M150.996 58.5356C150.996 19.2207 122.856 2.28454 88.1687 20.741C53.4816 39.1974 25.3418 85.9921 25.3418 125.307V134.429C25.3418 164.835 62.6411 199.832 79.8028 214.397C80.7722 215.197 81.9295 215.781 83.1844 216.102C84.4394 216.424 85.7582 216.475 87.0382 216.252C88.3181 216.028 89.5247 215.536 90.5639 214.813C91.603 214.091 92.4468 213.157 93.0295 212.086C107.843 184.203 150.996 100.192 150.996 67.6269V58.5356ZM88.1687 120.898C70.8086 130.02 56.7222 122.662 56.7222 104.205C56.7222 85.7489 70.7425 63.4005 88.1025 54.2787C105.463 45.1569 119.549 52.5152 119.549 70.9716C119.549 89.428 105.463 111.685 88.1025 120.898H88.1687Z" fill="#144EF4"/>
<path d="M565.983 381.598V378.557C566.039 374.711 566.741 370.895 568.066 367.246C571.161 357.812 577.747 349.669 586.683 344.229C588.632 342.954 590.899 342.152 593.275 341.897C595.65 341.642 598.057 341.942 600.273 342.77L593.098 338.969C591.34 337.912 589.279 337.361 587.179 337.388H586.021H584.996C584.628 337.419 584.262 337.48 583.905 337.57L582.847 337.813C582.077 338.023 581.325 338.288 580.598 338.604L579.441 339.09L578.251 339.668C566.843 345.749 557.584 360.952 557.584 374.027V377.067C557.584 389.99 576.498 404.037 576.498 404.037L584.137 408.021L583.773 407.747C578.251 403.065 565.983 391.541 565.983 381.598ZM588.568 354.415C588.586 354.749 588.586 355.084 588.568 355.418V355.753C588.584 355.955 588.584 356.159 588.568 356.361C588.369 359.658 587.329 362.865 585.531 365.723C583.733 368.581 581.227 371.009 578.218 372.811L577.622 373.115L576.994 373.388L576.399 373.601C577.259 378.223 581.458 379.834 586.551 377.159C589.552 375.352 592.05 372.922 593.842 370.065C595.634 367.207 596.67 364.003 596.867 360.709C597 355.297 593.362 352.803 588.568 354.415Z" fill="#144EF4"/>
<path opacity="0.6" d="M565.983 381.598V378.557C566.039 374.711 566.741 370.895 568.066 367.246C571.161 357.812 577.747 349.669 586.683 344.229C588.632 342.954 590.899 342.152 593.275 341.897C595.65 341.642 598.057 341.942 600.273 342.77L593.098 338.969C591.34 337.912 589.279 337.361 587.179 337.388H586.021H584.996C584.628 337.419 584.262 337.48 583.905 337.57L582.847 337.813C582.077 338.023 581.325 338.288 580.598 338.604L579.441 339.09L578.251 339.668C566.843 345.749 557.584 360.952 557.584 374.027V377.067C557.584 389.99 576.498 404.037 576.498 404.037L584.137 408.021L583.773 407.747C578.251 403.065 565.983 391.541 565.983 381.598Z" fill="white"/>
<path opacity="0.6" d="M588.467 354.417C588.486 354.752 588.486 355.087 588.467 355.421C588.467 355.421 588.467 355.634 588.467 355.755V356.363C588.276 359.658 587.241 362.865 585.449 365.723C583.656 368.581 581.156 371.01 578.151 372.813L577.522 373.117L576.927 373.391L576.299 373.604C577.192 378.225 581.391 379.837 586.45 377.161C589.456 375.358 591.956 372.929 593.748 370.071C595.541 367.213 596.575 364.006 596.767 360.711C596.899 355.299 593.295 352.806 588.467 354.417Z" fill="white"/>
<path d="M607.346 356.698C607.346 343.775 598.087 338.211 586.679 344.262C575.271 350.312 566.178 365.728 566.178 378.651V381.691C566.178 391.634 578.412 403.158 584.067 407.962C584.385 408.235 584.769 408.436 585.187 408.548C585.606 408.659 586.047 408.679 586.475 408.605C586.903 408.531 587.306 408.365 587.652 408.122C587.997 407.878 588.276 407.563 588.465 407.202C593.326 398.08 607.511 370.441 607.511 359.738L607.346 356.698ZM586.679 377.191C580.959 380.232 576.329 377.769 576.329 371.718C576.532 368.427 577.575 365.225 579.373 362.373C581.171 359.521 583.674 357.097 586.679 355.299C592.367 352.258 596.996 354.721 596.996 360.803C596.791 364.086 595.751 367.28 593.959 370.126C592.167 372.973 589.674 375.393 586.679 377.191Z" fill="#144EF4"/>
<path d="M607.346 356.698C607.346 343.775 598.087 338.211 586.679 344.262C575.271 350.312 566.178 365.728 566.178 378.651V381.691C566.178 391.634 578.412 403.158 584.067 407.962C584.385 408.235 584.769 408.436 585.187 408.548C585.606 408.659 586.047 408.679 586.475 408.605C586.903 408.531 587.306 408.365 587.652 408.122C587.997 407.878 588.276 407.563 588.465 407.202C593.326 398.08 607.511 370.441 607.511 359.738L607.346 356.698ZM586.679 377.191C580.959 380.232 576.329 377.769 576.329 371.718C576.532 368.427 577.575 365.225 579.373 362.373C581.171 359.521 583.674 357.097 586.679 355.299C592.367 352.258 596.996 354.721 596.996 360.803C596.791 364.086 595.751 367.28 593.959 370.126C592.167 372.973 589.674 375.393 586.679 377.191Z" fill="#144EF4"/>
<g opacity="0.8">
<path opacity="0.8" d="M607.346 356.698C607.346 343.775 598.087 338.211 586.679 344.262C575.271 350.312 566.178 365.728 566.178 378.651V381.691C566.178 391.634 578.412 403.158 584.067 407.962C584.385 408.235 584.769 408.436 585.187 408.548C585.606 408.659 586.047 408.679 586.475 408.605C586.903 408.531 587.306 408.365 587.652 408.122C587.997 407.878 588.276 407.563 588.465 407.202C593.326 398.08 607.511 370.441 607.511 359.738L607.346 356.698ZM586.679 377.191C580.959 380.232 576.329 377.769 576.329 371.718C576.532 368.427 577.575 365.225 579.373 362.373C581.171 359.521 583.674 357.097 586.679 355.299C592.367 352.258 596.996 354.721 596.996 360.803C596.791 364.086 595.751 367.28 593.959 370.126C592.167 372.973 589.674 375.393 586.679 377.191Z" fill="white"/>
</g>
<path d="M951.108 580.297V577.256C951.164 573.41 951.867 569.594 953.192 565.945C956.287 556.511 962.872 548.368 971.808 542.928C973.757 541.653 976.024 540.851 978.4 540.596C980.776 540.341 983.183 540.641 985.399 541.468L978.223 537.729C976.453 536.671 974.382 536.12 972.271 536.147H971.279H970.221L969.163 536.33L968.072 536.573C967.305 536.793 966.554 537.058 965.823 537.364L964.699 537.85L963.509 538.428C952.1 544.509 942.842 559.864 942.842 572.787V575.827C942.842 588.75 961.756 602.797 961.756 602.797L969.394 606.781L969.031 606.507C963.376 601.581 951.108 590.088 951.108 580.297ZM973.693 553.114C973.711 553.448 973.711 553.783 973.693 554.117V554.452C973.71 554.654 973.71 554.858 973.693 555.06C973.495 558.357 972.455 561.564 970.656 564.422C968.858 567.28 966.353 569.708 963.343 571.51L962.748 571.814L962.12 572.087L961.525 572.3C962.417 576.922 966.617 578.381 971.709 575.858C974.711 574.051 977.208 571.621 979 568.764C980.792 565.906 981.829 562.702 982.026 559.408C982.125 553.905 978.488 551.35 973.693 552.932V553.114Z" fill="#144EF4"/>
<path opacity="0.6" d="M951.108 580.297V577.256C951.164 573.41 951.867 569.594 953.192 565.945C956.287 556.511 962.872 548.368 971.808 542.928C973.757 541.653 976.024 540.851 978.4 540.596C980.776 540.341 983.183 540.641 985.399 541.468L978.223 537.729C976.453 536.671 974.382 536.12 972.271 536.147H971.279H970.221L969.163 536.33L968.072 536.573C967.305 536.793 966.554 537.058 965.823 537.364L964.699 537.85L963.509 538.428C952.1 544.509 942.842 559.864 942.842 572.787V575.827C942.842 588.75 961.756 602.797 961.756 602.797L969.394 606.781L969.031 606.507C963.376 601.581 951.108 590.088 951.108 580.297Z" fill="white"/>
<path opacity="0.6" d="M973.588 552.93C973.607 553.265 973.607 553.599 973.588 553.934C973.588 553.934 973.588 554.146 973.588 554.268V554.876C973.397 558.171 972.362 561.378 970.57 564.236C968.777 567.094 966.277 569.523 963.272 571.326L962.643 571.63L962.048 571.904L961.42 572.116C962.313 576.738 966.512 578.198 971.571 575.674C974.577 573.871 977.077 571.442 978.87 568.584C980.662 565.726 981.696 562.519 981.888 559.224C982.021 553.903 978.383 551.349 973.588 552.93Z" fill="white"/>
<path d="M992.474 555.245C992.474 542.322 983.215 536.758 971.807 542.809C960.399 548.859 951.107 564.275 951.107 577.198V580.238C951.107 590.181 963.375 601.705 969.03 606.509C969.348 606.782 969.732 606.983 970.15 607.094C970.569 607.206 971.01 607.226 971.438 607.152C971.866 607.078 972.269 606.912 972.614 606.669C972.96 606.425 973.239 606.11 973.427 605.749C978.288 596.627 992.474 568.988 992.474 558.285V555.245ZM971.807 575.738C966.087 578.779 961.457 576.316 961.457 570.265C961.65 566.963 962.688 563.75 964.487 560.886C966.285 558.022 968.793 555.589 971.807 553.785C977.495 550.745 982.124 553.207 982.124 559.289C981.93 562.583 980.894 565.788 979.102 568.646C977.31 571.504 974.811 573.934 971.807 575.738Z" fill="#144EF4"/>
<path d="M992.474 555.245C992.474 542.322 983.215 536.758 971.807 542.809C960.399 548.859 951.107 564.275 951.107 577.198V580.238C951.107 590.181 963.375 601.705 969.03 606.509C969.348 606.782 969.732 606.983 970.15 607.094C970.569 607.206 971.01 607.226 971.438 607.152C971.866 607.078 972.269 606.912 972.614 606.669C972.96 606.425 973.239 606.11 973.427 605.749C978.288 596.627 992.474 568.988 992.474 558.285V555.245ZM971.807 575.738C966.087 578.779 961.457 576.316 961.457 570.265C961.65 566.963 962.688 563.75 964.487 560.886C966.285 558.022 968.793 555.589 971.807 553.785C977.495 550.745 982.124 553.207 982.124 559.289C981.93 562.583 980.894 565.788 979.102 568.646C977.31 571.504 974.811 573.934 971.807 575.738Z" fill="#144EF4"/>
<g opacity="0.8">
<path opacity="0.8" d="M992.474 555.245C992.474 542.322 983.215 536.758 971.807 542.809C960.399 548.859 951.107 564.275 951.107 577.198V580.238C951.107 590.181 963.375 601.705 969.03 606.509C969.348 606.782 969.732 606.983 970.15 607.094C970.569 607.206 971.01 607.226 971.438 607.152C971.866 607.078 972.269 606.912 972.614 606.669C972.96 606.425 973.239 606.11 973.427 605.749C978.288 596.627 992.474 568.988 992.474 558.285V555.245ZM971.807 575.738C966.087 578.779 961.457 576.316 961.457 570.265C961.65 566.963 962.688 563.75 964.487 560.886C966.285 558.022 968.793 555.589 971.807 553.785C977.495 550.745 982.124 553.207 982.124 559.289C981.93 562.583 980.894 565.788 979.102 568.646C977.31 571.504 974.811 573.934 971.807 575.738Z" fill="white"/>
</g>
</svg>
