<svg width="436" height="438" viewBox="0 0 436 438" fill="none" xmlns="http://www.w3.org/2000/svg">
<g opacity="0.9">
<path opacity="0.9" d="M7.74609 195.51C-33.5755 89.0787 100.227 27.4083 177.479 39.068C208.162 43.7079 220.51 53.4183 250.811 41.8902C272.84 33.5192 284.016 7.71256 308.341 1.9844C361.687 -10.5721 418.057 38.8049 430.931 84.0442C444.294 130.97 431.469 179.569 389.681 196.67C359.105 209.191 327.872 193.226 309.99 200.951C273.211 216.82 274.872 241.885 253.178 268.613C173.511 366.721 45.2905 292.147 7.74609 195.51Z" fill="#407BFF"/>
</g>
<g opacity="0.9">
<path opacity="0.9" d="M7.74609 195.51C-33.5755 89.0787 100.227 27.4083 177.479 39.068C208.162 43.7079 220.51 53.4183 250.811 41.8902C272.84 33.5192 284.016 7.71256 308.341 1.9844C361.687 -10.5721 418.057 38.8049 430.931 84.0442C444.294 130.97 431.469 179.569 389.681 196.67C359.105 209.191 327.872 193.226 309.99 200.951C273.211 216.82 274.872 241.885 253.178 268.613C173.511 366.721 45.2905 292.147 7.74609 195.51Z" fill="white"/>
</g>
<path d="M408.877 95.0456L383.405 174.546C383.115 175.458 382.593 176.278 381.89 176.927C381.187 177.576 380.328 178.031 379.397 178.248C378.465 178.465 377.494 178.436 376.577 178.165C375.66 177.893 374.829 177.388 374.166 176.699L360.922 162.982C359.921 161.951 358.559 161.349 357.124 161.302C355.688 161.255 354.29 161.767 353.224 162.731L242.623 263.183C241.635 264.079 240.357 264.588 239.024 264.617C237.691 264.645 236.392 264.191 235.367 263.339L165.143 204.921C164.128 204.086 162.849 203.639 161.535 203.661C160.221 203.683 158.958 204.172 157.971 205.041L20.0215 327.353L25.2569 278.323C25.3913 276.939 26.0448 275.657 27.0857 274.735L157.266 159.311C158.255 158.446 159.519 157.961 160.832 157.941C162.146 157.921 163.423 158.369 164.438 159.203L234.375 217.513C235.4 218.366 236.699 218.82 238.032 218.792C239.365 218.763 240.643 218.254 241.631 217.358L328.888 138.061C329.436 137.562 329.879 136.959 330.19 136.286C330.501 135.613 330.673 134.884 330.696 134.144C330.72 133.403 330.594 132.665 330.326 131.973C330.059 131.282 329.655 130.652 329.139 130.12L316.11 116.559C315.429 115.855 314.946 114.982 314.712 114.031C314.479 113.079 314.501 112.082 314.779 111.142C315.056 110.202 315.577 109.352 316.29 108.68C317.003 108.008 317.881 107.537 318.835 107.315L402.363 87.9661C403.316 87.7427 404.31 87.7766 405.246 88.0642C406.181 88.3519 407.023 88.883 407.686 89.6032C408.349 90.3234 408.808 91.2068 409.017 92.1631C409.227 93.1194 409.178 94.1141 408.877 95.0456Z" fill="#407BFF"/>
<path opacity="0.1" d="M408.841 95.1775L383.453 174.463C383.155 175.386 382.622 176.216 381.908 176.872C381.194 177.528 380.322 177.988 379.377 178.207C378.432 178.426 377.447 178.397 376.517 178.122C375.587 177.848 374.744 177.337 374.07 176.639L360.922 163.078C359.907 162.03 358.525 161.416 357.066 161.367C355.608 161.318 354.188 161.837 353.104 162.815L242.623 263.184C241.533 264.179 240.093 264.704 238.618 264.643C237.382 264.603 236.194 264.148 235.248 263.351L165.179 205.005C164.144 204.155 162.841 203.7 161.502 203.719C160.163 203.739 158.874 204.233 157.864 205.113L20.0215 327.353L25.484 276.254L157.218 159.455C158.226 158.57 159.516 158.074 160.856 158.054C162.197 158.034 163.5 158.493 164.534 159.347L194.309 184.137L234.315 217.514C235.358 218.375 236.674 218.832 238.026 218.804C239.377 218.775 240.673 218.262 241.678 217.358L328.9 138.109C329.459 137.605 329.91 136.993 330.227 136.31C330.544 135.627 330.72 134.887 330.745 134.135C330.769 133.382 330.642 132.632 330.37 131.93C330.098 131.228 329.687 130.588 329.163 130.049L316.241 116.667C315.552 115.952 315.064 115.066 314.829 114.101C314.593 113.135 314.617 112.124 314.899 111.171C315.181 110.218 315.71 109.357 316.433 108.676C317.156 107.994 318.047 107.517 319.014 107.292L402.255 87.9904C403.22 87.7734 404.225 87.815 405.168 88.1109C406.112 88.4068 406.961 88.9466 407.629 89.6758C408.297 90.405 408.761 91.2976 408.974 92.2637C409.187 93.2297 409.141 94.2348 408.841 95.1775Z" fill="black"/>
<path d="M264.723 393.352H162.752V416.503H264.723V393.352Z" fill="#407BFF"/>
<path opacity="0.2" d="M175.662 393.352H172.9V416.503H175.662V393.352Z" fill="black"/>
<path opacity="0.2" d="M189.849 393.352H187.088V416.503H189.849V393.352Z" fill="black"/>
<path opacity="0.2" d="M204.027 416.503H201.266V393.352L204.027 393.758V416.503Z" fill="black"/>
<path opacity="0.2" d="M218.214 393.352H215.453V416.503H218.214V393.352Z" fill="black"/>
<path opacity="0.2" d="M232.402 393.352H229.641V416.503H232.402V393.352Z" fill="black"/>
<path opacity="0.2" d="M246.579 393.352H243.818V416.503H246.579V393.352Z" fill="black"/>
<path opacity="0.2" d="M260.767 393.352H258.006V416.503H260.767V393.352Z" fill="black"/>
<path opacity="0.09" d="M264.723 393.352H162.752V398.124H264.723V393.352Z" fill="black"/>
<path d="M280.622 370.188H178.65V393.339H280.622V370.188Z" fill="#407BFF"/>
<path opacity="0.2" d="M191.56 370.188H188.799V393.339H191.56V370.188Z" fill="black"/>
<path opacity="0.2" d="M205.748 370.188H202.986V393.339H205.748V370.188Z" fill="black"/>
<path opacity="0.2" d="M219.935 370.188H217.174V393.339H219.935V370.188Z" fill="black"/>
<path opacity="0.2" d="M234.113 370.188H231.352V393.339H234.113V370.188Z" fill="black"/>
<path opacity="0.2" d="M248.302 370.188H245.541V393.339H248.302V370.188Z" fill="black"/>
<path opacity="0.2" d="M262.476 370.188H259.715V393.339H262.476V370.188Z" fill="black"/>
<path opacity="0.2" d="M276.665 370.188H273.904V393.339H276.665V370.188Z" fill="black"/>
<path opacity="0.09" d="M280.622 370.188H178.65V374.96H280.622V370.188Z" fill="black"/>
<path d="M266.446 347.037H164.475V370.189H266.446V347.037Z" fill="#407BFF"/>
<path opacity="0.2" d="M177.384 347.037H174.623V370.189H177.384V347.037Z" fill="black"/>
<path opacity="0.2" d="M191.56 370.201H188.799V347.061L191.56 347.037V370.201Z" fill="black"/>
<path opacity="0.2" d="M205.748 347.037H202.986V370.189H205.748V347.037Z" fill="black"/>
<path opacity="0.2" d="M219.935 347.037H217.174V370.189H219.935V347.037Z" fill="black"/>
<path opacity="0.2" d="M234.113 370.201H231.352V347.037L234.113 347.061V370.201Z" fill="black"/>
<path opacity="0.2" d="M248.302 347.037H245.541V370.189H248.302V347.037Z" fill="black"/>
<path opacity="0.2" d="M262.476 347.037H259.715V370.189H262.476V347.037Z" fill="black"/>
<path opacity="0.09" d="M266.446 347.037H164.475V352.742H266.446V347.037Z" fill="black"/>
<path d="M280.622 323.895H178.65V347.046H280.622V323.895Z" fill="#407BFF"/>
<path opacity="0.2" d="M191.56 323.895H188.799V347.046H191.56V323.895Z" fill="black"/>
<path opacity="0.2" d="M205.748 323.895H202.986V347.046H205.748V323.895Z" fill="black"/>
<path opacity="0.2" d="M219.935 323.895H217.174V347.046H219.935V323.895Z" fill="black"/>
<path opacity="0.2" d="M234.113 323.895H231.352V347.046H234.113V323.895Z" fill="black"/>
<path opacity="0.2" d="M248.302 323.895H245.541V347.046H248.302V323.895Z" fill="black"/>
<path opacity="0.2" d="M262.476 347.034L259.715 347.058V323.895L262.476 324.313V347.034Z" fill="black"/>
<path opacity="0.2" d="M276.665 323.895H273.904V347.046H276.665V323.895Z" fill="black"/>
<path opacity="0.09" d="M280.622 323.895H178.65V328.667H280.622V323.895Z" fill="black"/>
<path d="M285.102 300.744H183.131V323.896H285.102V300.744Z" fill="#407BFF"/>
<path opacity="0.2" d="M196.04 300.744H193.279V323.896H196.04V300.744Z" fill="black"/>
<path opacity="0.2" d="M210.218 300.744H207.457V323.896H210.218V300.744Z" fill="black"/>
<path opacity="0.2" d="M224.408 300.744H221.646V323.896H224.408V300.744Z" fill="black"/>
<path opacity="0.2" d="M238.595 300.744H235.834V323.896H238.595V300.744Z" fill="black"/>
<path opacity="0.2" d="M252.771 300.744H250.01V323.896H252.771V300.744Z" fill="black"/>
<path opacity="0.2" d="M266.958 300.744H264.197V323.896H266.958V300.744Z" fill="black"/>
<path opacity="0.2" d="M281.136 300.744H278.375V323.896H281.136V300.744Z" fill="black"/>
<path opacity="0.09" d="M285.102 300.744H183.131V305.516H285.102V300.744Z" fill="black"/>
<path d="M272.971 277.592H171V300.744H272.971V277.592Z" fill="#407BFF"/>
<path opacity="0.2" d="M183.91 277.592H181.148V300.744H183.91V277.592Z" fill="black"/>
<path opacity="0.2" d="M198.099 277.592H195.338V300.744H198.099V277.592Z" fill="black"/>
<path opacity="0.2" d="M212.273 277.592H209.512V300.744H212.273V277.592Z" fill="black"/>
<path opacity="0.2" d="M226.462 277.592H223.701V300.744H226.462V277.592Z" fill="black"/>
<path opacity="0.2" d="M240.638 277.592H237.877V300.744H240.638V277.592Z" fill="black"/>
<path opacity="0.2" d="M254.828 277.592H252.066V300.744H254.828V277.592Z" fill="black"/>
<path opacity="0.2" d="M269.015 277.592H266.254V300.744H269.015V277.592Z" fill="black"/>
<path opacity="0.09" d="M272.971 277.592H171V282.364H272.971V277.592Z" fill="black"/>
<path d="M137.219 393.699H35.248V416.851H137.219V393.699Z" fill="#407BFF"/>
<path opacity="0.2" d="M48.1576 393.699H45.3965V416.851H48.1576V393.699Z" fill="black"/>
<path opacity="0.2" d="M62.3471 393.699H59.5859V416.851H62.3471V393.699Z" fill="black"/>
<path opacity="0.2" d="M76.5365 393.699H73.7754V416.851H76.5365V393.699Z" fill="black"/>
<path opacity="0.2" d="M90.7123 393.699H87.9512V416.851H90.7123V393.699Z" fill="black"/>
<path opacity="0.2" d="M104.898 393.699H102.137V416.851H104.898V393.699Z" fill="black"/>
<path opacity="0.2" d="M119.076 393.699H116.314V416.851H119.076V393.699Z" fill="black"/>
<path opacity="0.2" d="M133.265 393.699H130.504V416.851H133.265V393.699Z" fill="black"/>
<path opacity="0.09" d="M137.219 393.699H35.248V398.471H137.219V393.699Z" fill="black"/>
<path d="M142.038 370.545H40.0664V393.697H142.038V370.545Z" fill="#407BFF"/>
<path opacity="0.2" d="M52.976 370.545H50.2148V393.697H52.976V370.545Z" fill="black"/>
<path opacity="0.2" d="M67.1654 370.545H64.4043V393.697H67.1654V370.545Z" fill="black"/>
<path opacity="0.2" d="M81.3412 370.545H78.5801V393.697H81.3412V370.545Z" fill="black"/>
<path opacity="0.2" d="M95.5287 370.545H92.7676V393.697H95.5287V370.545Z" fill="black"/>
<path opacity="0.2" d="M109.704 370.545H106.943V393.697H109.704V370.545Z" fill="black"/>
<path opacity="0.2" d="M123.894 370.545H121.133V393.697H123.894V370.545Z" fill="black"/>
<path opacity="0.2" d="M138.083 370.545H135.322V393.697H138.083V370.545Z" fill="black"/>
<path opacity="0.09" d="M142.038 370.545H40.0664V374.91H142.038V370.545Z" fill="black"/>
<path d="M135.788 347.383H33.8164V370.535H135.788V347.383Z" fill="#407BFF"/>
<path opacity="0.2" d="M46.724 347.383H43.9629V370.535H46.724V347.383Z" fill="black"/>
<path opacity="0.2" d="M60.9135 347.383H58.1523V370.535H60.9135V347.383Z" fill="black"/>
<path opacity="0.2" d="M75.0893 347.383H72.3281V370.535H75.0893V347.383Z" fill="black"/>
<path opacity="0.2" d="M89.2767 347.383H86.5156V370.535H89.2767V347.383Z" fill="black"/>
<path opacity="0.2" d="M103.466 347.383H100.705V370.535H103.466V347.383Z" fill="black"/>
<path opacity="0.2" d="M117.642 347.383H114.881V370.535H117.642V347.383Z" fill="black"/>
<path opacity="0.2" d="M131.83 347.383H129.068V370.535H131.83V347.383Z" fill="black"/>
<path opacity="0.09" d="M135.788 347.383H33.8164V351.748H135.788V347.383Z" fill="black"/>
<path d="M359.785 335.771H337.445V417.472H359.785V335.771Z" fill="#407BFF"/>
<g opacity="0.4">
<path opacity="0.4" d="M359.785 357.512V374.122L337.445 396.473V378.607L359.785 357.512Z" fill="white"/>
<path opacity="0.4" d="M359.785 345.361V348.184L337.445 370.546V367.724L359.785 345.361Z" fill="white"/>
</g>
<path d="M387.291 362.092H364.951V417.472H387.291V362.092Z" fill="#407BFF"/>
<g opacity="0.4">
<path opacity="0.4" d="M387.291 378.416V394.859L364.951 417.198V399.523L387.291 378.416Z" fill="white"/>
<path opacity="0.4" d="M387.291 370.666V373.823L364.951 396.186V393.005L387.291 370.666Z" fill="white"/>
</g>
<path d="M332.27 296.512H309.93V417.473H332.27V296.512Z" fill="#407BFF"/>
<g opacity="0.4">
<path opacity="0.4" d="M332.282 319.223V335.749L309.93 358.1V340.33L332.282 319.223Z" fill="white"/>
<path opacity="0.4" d="M332.282 310.133V313.218L309.93 335.593V332.483L332.282 310.133Z" fill="white"/>
</g>
<path d="M323.819 306.629C323.484 307.167 322.996 307.593 322.418 307.854C321.84 308.115 321.198 308.198 320.573 308.093C319.948 307.988 319.368 307.701 318.906 307.266C318.445 306.831 318.122 306.269 317.98 305.651C317.838 305.033 317.882 304.387 318.107 303.794C318.332 303.201 318.728 302.688 319.244 302.321C319.76 301.953 320.374 301.747 321.008 301.728C321.641 301.709 322.266 301.879 322.803 302.216C323.52 302.669 324.028 303.387 324.219 304.213C324.409 305.04 324.265 305.908 323.819 306.629Z" fill="#263238"/>
<path d="M351.324 345.471C350.988 346.004 350.502 346.427 349.926 346.684C349.351 346.942 348.712 347.023 348.09 346.918C347.469 346.813 346.892 346.525 346.434 346.093C345.975 345.66 345.655 345.101 345.513 344.486C345.372 343.872 345.415 343.229 345.638 342.639C345.862 342.049 346.254 341.538 346.767 341.171C347.28 340.805 347.89 340.598 348.52 340.578C349.151 340.558 349.773 340.724 350.308 341.057C350.665 341.28 350.975 341.57 351.22 341.913C351.464 342.255 351.639 342.643 351.733 343.053C351.828 343.463 351.84 343.888 351.77 344.303C351.7 344.717 351.548 345.114 351.324 345.471Z" fill="#263238"/>
<path d="M378.829 371.78C378.495 372.316 378.009 372.74 377.434 373C376.858 373.259 376.219 373.342 375.596 373.237C374.974 373.133 374.396 372.847 373.936 372.414C373.477 371.981 373.156 371.422 373.014 370.807C372.871 370.191 372.915 369.548 373.138 368.957C373.362 368.366 373.755 367.855 374.269 367.489C374.783 367.122 375.394 366.916 376.025 366.896C376.656 366.877 377.278 367.045 377.813 367.379C378.17 367.6 378.48 367.89 378.724 368.231C378.969 368.573 379.143 368.959 379.237 369.368C379.332 369.777 379.345 370.201 379.274 370.615C379.204 371.029 379.053 371.425 378.829 371.78Z" fill="#263238"/>
<path d="M376.125 370.056L347.773 396.473L348.609 343.771L321.105 360.788V304.93" stroke="#263238" stroke-miterlimit="10"/>
<path d="M120.224 158.055C120.224 158.055 112.61 169.296 110.829 170.456C109.048 171.616 85.0107 167.048 73.213 160.89L67.1289 153.26L57.949 150.031L52.6777 160.507L59.9571 165.29C59.9571 165.29 64.6188 170.66 69.8423 169.165C69.8423 169.165 88.6324 181.434 102.115 184.568C115.598 187.701 118.718 184.077 122.651 180.872C126.583 177.667 136.994 162.468 136.994 162.468L120.224 158.055Z" fill="#B55B52"/>
<path d="M192.48 110.771C192.48 110.771 222.554 101.587 232.738 93.9695C232.738 93.9695 248.194 75.051 250.763 54.853L247.285 44.3414L249.126 32.3828L260.577 34.9419C260.577 34.9419 266.553 47.5224 259.274 57.3762C259.274 57.3762 257.326 86.6508 244.93 101.91C232.535 117.169 193.759 127.37 193.759 127.37L192.48 110.771Z" fill="#B55B52"/>
<path d="M159.167 97.7713C159.167 97.7713 144.07 99.3499 141.333 87.3315C141.333 87.3315 132.32 83.7439 138.727 74.8467C138.727 74.8467 130.432 62.4935 141.022 58.8223C142.47 55.3359 144.728 52.2456 147.61 49.808C150.491 47.3703 153.912 45.6558 157.589 44.8068C166.159 42.7021 163.733 47.3061 163.733 47.3061C163.733 47.3061 181.507 40.43 184.053 48.0954C186.599 55.7609 172.758 59.1571 172.758 59.1571L159.167 97.7713Z" fill="#263238"/>
<path d="M168.562 95.5349C168.607 96.2531 168.695 96.968 168.825 97.6755C169.435 101.263 171.897 106.979 177.874 108.869C177.874 108.869 178.699 115.255 168.825 114.154C158.952 113.054 154.255 111.296 154.255 111.296C155.767 103.571 155.669 95.6156 153.968 87.9293C153.968 87.9293 148.398 88.8621 145.254 85.6811C142.11 82.5001 143.246 74.452 153.083 79.0082C153.083 79.0082 155.211 67.2768 148.302 63.7491C148.302 63.7491 161.833 65.7103 172.65 59.1211C172.65 59.1211 181.986 71.0797 180.683 82.5001C179.38 93.9205 168.562 95.5349 168.562 95.5349Z" fill="#B55B52"/>
<path opacity="0.19" d="M168.826 97.7131C167.924 97.8773 166.999 97.847 166.11 97.6243C165.222 97.4015 164.391 96.9914 163.674 96.4214C165.503 96.2301 168.563 95.5723 168.563 95.5723C168.607 96.2905 168.695 97.0055 168.826 97.7131Z" fill="black"/>
<path d="M174.133 114.322L174.073 125.778L168.455 126.292C168.455 126.292 164.164 122.083 163.889 119.883C163.614 117.682 170.069 111.906 174.133 114.322Z" fill="#263238"/>
<path d="M173.26 124.607C173.26 124.607 181.699 155.7 185.751 171.246L181.137 180.442L173.367 172.681L169.172 125.122L173.26 124.607Z" fill="#263238"/>
<path d="M211.857 406.458L194.74 409.149C194.74 409.149 189.469 343.723 188.118 319.184C187.891 314.939 187.461 310.419 186.923 305.827C184.27 283.799 178.843 260.253 178.843 260.253C178.843 260.253 177.074 299.536 172.173 329.612C167.272 359.688 146.534 403.756 146.534 403.756L130.254 396.258C142.972 359.856 145.888 314.521 146.988 297.563C148.088 280.606 146.845 210.864 146.845 210.864L202.904 208.412C208.319 234.817 215.359 295.172 216.136 316.039C216.913 336.907 211.857 406.458 211.857 406.458Z" fill="#263238"/>
<path d="M208.821 411.434L209.729 425.186L199.605 427.47L198.541 412.091L208.821 411.434Z" fill="#B55B52"/>
<path d="M214.581 404.209L192.91 408.406L193.974 415.139L214.175 411.468L214.581 404.209Z" fill="#407BFF"/>
<path d="M143.03 405.636L137.054 418.384L127.432 414.665L133.85 401.379L143.03 405.636Z" fill="#B55B52"/>
<path d="M128.09 414.831L139.374 419.279C139.864 419.468 140.268 419.83 140.509 420.296C141.37 421.958 143.725 426.036 146.546 427.591C150.132 429.576 152.032 430.963 150.741 433.02C149.45 435.077 147.49 434.371 145.482 433.845C143.844 433.414 128.413 426.945 122.771 424.553C122.513 424.444 122.282 424.28 122.094 424.072C121.906 423.865 121.765 423.618 121.682 423.351C121.599 423.083 121.576 422.801 121.613 422.523C121.65 422.245 121.748 421.979 121.899 421.743L125.807 415.596C126.045 415.229 126.401 414.954 126.815 414.815C127.23 414.676 127.679 414.682 128.09 414.831Z" fill="#263238"/>
<path d="M199.391 426.944L211.344 424.553C211.856 424.454 212.386 424.544 212.838 424.804C214.463 425.724 218.635 427.901 221.85 427.698C225.926 427.435 228.281 427.578 228.305 430.006C228.329 432.433 226.297 432.9 224.313 433.533C222.711 434.048 206.228 436.918 200.144 437.97C199.868 438.019 199.585 438.007 199.315 437.934C199.044 437.862 198.793 437.731 198.579 437.551C198.364 437.371 198.192 437.146 198.074 436.892C197.956 436.638 197.896 436.361 197.896 436.081V428.786C197.906 428.357 198.058 427.943 198.329 427.61C198.599 427.276 198.973 427.042 199.391 426.944Z" fill="#263238"/>
<path d="M152.607 400.971L129.382 395.984L127.338 402.717L148.411 408.912L152.607 400.971Z" fill="#407BFF"/>
<path opacity="0.61" d="M186.91 306.008C184.257 283.992 178.83 260.434 178.83 260.434L176.535 231.123C176.535 231.123 189.492 281.756 186.91 306.008Z" fill="black"/>
<path d="M154.853 107.805C159.107 110.725 163.835 112.885 168.826 114.191L165.145 125.037C165.145 125.037 156.144 120.899 151.578 117.156L154.853 107.805Z" fill="white"/>
<path d="M168.826 114.193L174.886 123.592C177.663 119.748 179.672 115.403 180.803 110.797L173.99 105.846C173.99 105.846 171.121 112.112 168.826 114.193Z" fill="white"/>
</svg>
