<svg width="306" height="322" viewBox="0 0 306 322" fill="none" xmlns="http://www.w3.org/2000/svg">
<path d="M140.875 186.981C176.433 177.857 215.059 209.804 251.877 203.519C287.384 197.492 316.551 166.711 302.314 125.006C288.517 84.5776 248.276 58.1522 210.849 58.3819C187.668 58.5197 175.545 58.1338 155.001 40.9977C139.099 27.785 126.663 11.09 107.244 3.94152C69.5136 -9.95111 51.6839 14.8572 49.2745 47.4663C46.6706 82.7675 21.0969 101.594 15.196 135.499C10.1996 164.175 20.3614 202.518 55.0909 212.184C87.5293 221.207 113.365 194.037 140.875 186.981Z" fill="#E2EDF3"/>
<path d="M67.8255 50.7554C68.0129 48.5758 77.4019 40.5379 87.2052 46.1496C97.0085 51.7614 89.9174 68.7248 100.579 70.3718C93.675 77.2755 71.1886 85.7079 64.275 77.7884C57.3614 69.8688 56.4738 47.6882 67.8255 50.7554Z" fill="#263238"/>
<path d="M107.313 105.451C107.569 109.1 107.954 112.966 108.467 116.655C108.926 120.29 109.664 123.884 110.676 127.405C110.794 127.829 110.942 128.233 111.08 128.628L111.455 129.673C111.532 129.9 111.645 130.114 111.79 130.305C112.017 130.64 113.329 130.946 114.867 130.748C118.382 130.15 121.793 129.05 124.996 127.484L127.501 131.163C126.704 131.863 125.872 132.522 125.006 133.135C124.158 133.747 123.29 134.338 122.373 134.871C120.47 136.036 118.42 136.941 116.278 137.563C115.038 137.91 113.758 138.096 112.471 138.116C110.874 138.128 109.298 137.745 107.885 137.001C106.357 136.164 105.104 134.904 104.275 133.372L104.009 132.849L103.841 132.474L103.496 131.705C103.259 131.202 103.032 130.719 102.855 130.186C101.381 126.256 100.301 122.189 99.6299 118.046C98.9416 114.02 98.51 109.955 98.3379 105.875L107.313 105.451Z" fill="#FFC3BD"/>
<path d="M102.491 95.6496C110.489 101.764 110.164 113.303 110.164 113.303L95.8335 116.726C95.8335 116.726 91.4447 105.127 93.2298 100.877C95.1135 96.4485 97.9933 92.1978 102.491 95.6496Z" fill="#144EF4"/>
<path d="M124.219 128.343L129.475 123.076L132.306 131.311C132.306 131.311 127.868 133.708 123.617 131.44L124.219 128.343Z" fill="#FFC3BD"/>
<path d="M136.751 122.27L137.718 128.769L132.303 131.304L129.473 123.078L136.751 122.27Z" fill="#FFC3BD"/>
<path d="M56.1445 313.286L64.1923 314.065L72.5655 294.922L64.5178 294.133L56.1445 313.286Z" fill="#FFC3BD"/>
<path d="M4.33984 284.981L10.3757 290.652L23.4237 276.321L17.378 270.641L4.33984 284.981Z" fill="#FFC3BD"/>
<path d="M13.166 287.928L8.62926 279.752C8.55342 279.61 8.42842 279.5 8.27772 279.444C8.12701 279.388 7.96095 279.388 7.81067 279.446L0.818196 282.109C0.645174 282.182 0.489476 282.291 0.361198 282.428C0.23292 282.565 0.134922 282.728 0.0735532 282.906C0.0121847 283.083 -0.0111843 283.272 0.00496028 283.459C0.0211048 283.646 0.0764023 283.828 0.16727 283.992C1.80444 286.813 2.73151 288.095 4.73359 291.695C5.95653 293.904 8.35311 298.983 10.0494 302.041C11.7458 305.098 14.8525 303.579 14.4185 302.159C12.446 295.768 12.8504 292.218 13.4323 289.397C13.522 288.891 13.4275 288.37 13.166 287.928Z" fill="#263238"/>
<path d="M65.2588 311.576H55.3963C55.2184 311.577 55.0455 311.636 54.9047 311.745C54.7638 311.854 54.6628 312.006 54.6172 312.178L52.4376 319.999C52.385 320.183 52.3764 320.377 52.4126 320.565C52.4487 320.753 52.5285 320.93 52.6456 321.082C52.7627 321.233 52.9137 321.355 53.0866 321.438C53.2595 321.52 53.4493 321.561 53.6408 321.557C57.1223 321.557 58.7693 321.557 63.1186 321.557H76.3935C80.0031 321.557 80.7626 317.908 79.2635 317.612C72.5669 316.133 68.7106 314.091 66.6395 312.138C66.2661 311.784 65.7732 311.584 65.2588 311.576Z" fill="#263238"/>
<path opacity="0.2" d="M72.5563 294.932L68.2465 304.794H59.8535L64.5086 294.143L72.5563 294.932Z" fill="black"/>
<path opacity="0.2" d="M17.3766 270.65L23.4124 276.321L16.6862 283.708L10.6504 278.037L17.3766 270.65Z" fill="black"/>
<path d="M100.075 94.4566C100.075 94.4566 103.724 96.0148 91.5635 144.045L57.8733 141.136C59.6288 127.466 60.3685 119.014 56.2559 90.3045C61.0564 89.7371 65.8919 89.5196 70.7241 89.6536C75.8477 89.733 80.9594 90.1746 86.0208 90.9751C90.7608 91.8994 95.4514 93.0613 100.075 94.4566Z" fill="#144EF4"/>
<path d="M76.7499 106.684C76.7212 106.694 76.69 106.694 76.6612 106.684C69.3728 100.688 64.8262 91.4366 66.2859 89.257C66.3044 89.2259 66.3344 89.2032 66.3695 89.194C66.4045 89.1848 66.4418 89.1897 66.4733 89.2077C66.5051 89.2281 66.528 89.2599 66.5372 89.2965C66.5464 89.3332 66.5411 89.372 66.5226 89.405C65.201 91.4465 69.718 100.53 76.6809 106.329C78.4364 101.033 81.4248 98.9124 81.4543 98.8927C81.4856 98.8788 81.5206 98.8762 81.5536 98.8852C81.5865 98.8943 81.6153 98.9145 81.6351 98.9424C81.6548 98.9703 81.6643 99.0041 81.6619 99.0382C81.6596 99.0723 81.6454 99.1045 81.622 99.1294C81.622 99.1294 78.6041 101.27 76.8782 106.615C76.8714 106.636 76.8599 106.655 76.8445 106.67C76.829 106.685 76.8102 106.697 76.7894 106.704L76.7499 106.684Z" fill="white"/>
<path d="M88.4089 107.01C88.3847 107.005 88.3625 106.993 88.345 106.975C88.3275 106.958 88.3155 106.936 88.3103 106.912C86.7816 101.408 83.7341 99.2188 83.7045 99.1991C83.6821 99.1711 83.6699 99.1363 83.6699 99.1005C83.6699 99.0646 83.6821 99.0298 83.7045 99.0018C83.7317 98.9776 83.7668 98.9642 83.8032 98.9642C83.8396 98.9642 83.8747 98.9776 83.9018 99.0018C83.9018 99.0018 86.969 101.201 88.547 106.616C92.206 102.128 90.125 93.5972 88.7048 91.4077C88.6863 91.3748 88.681 91.336 88.6902 91.2993C88.6994 91.2626 88.7223 91.2308 88.7541 91.2105C88.7796 91.1869 88.8131 91.1738 88.8478 91.1738C88.8825 91.1738 88.916 91.1869 88.9415 91.2105C90.411 93.4887 92.5709 102.424 88.5864 106.99C88.5623 107.011 88.5324 107.024 88.5007 107.028C88.4691 107.031 88.437 107.025 88.4089 107.01Z" fill="white"/>
<path d="M73.7307 72.5625C74.2633 77.5628 74.4507 86.6658 70.7227 89.6541C74.3456 93.0142 78.3903 95.8885 82.7549 98.2049C88.6132 94.1613 86.0193 90.9757 86.0193 90.9757C80.6443 89.1906 81.0881 85.1371 82.4294 81.3894L73.7307 72.5625Z" fill="#FFC3BD"/>
<path opacity="0.2" d="M77.2702 76.1621L82.4184 81.3892C82.107 82.2578 81.8727 83.1522 81.7181 84.0619C79.647 83.5787 76.6488 81.4287 76.6094 79.2096C76.6533 78.1634 76.8768 77.1325 77.2702 76.1621Z" fill="black"/>
<path d="M69.3229 64.7411C71.4137 72.7395 72.1238 76.1618 77.0255 79.5347C84.4026 84.5745 93.7916 80.2646 94.1171 71.8026C94.4228 64.1888 90.9611 52.3933 82.4005 50.7265C80.5175 50.3518 78.57 50.4643 76.7426 51.0532C74.9152 51.6422 73.2686 52.688 71.9587 54.0917C70.6489 55.4954 69.7192 57.2104 69.2579 59.0741C68.7967 60.9378 68.819 62.8884 69.3229 64.7411Z" fill="#FFC3BD"/>
<path d="M71.6006 70.7273C74.3128 74.6722 81.3842 51.17 72.222 51.9097C63.0598 52.6494 64.1643 62.6006 71.6006 70.7273Z" fill="#263238"/>
<path d="M72.8137 53.2506C78.1098 55.943 93.5248 59.168 91.4143 54.8779C90.2626 52.7257 88.5475 50.9271 86.4524 49.6745C84.3573 48.422 81.9611 47.7626 79.5202 47.7671C74.4903 47.6882 68.1389 50.8836 72.8137 53.2506Z" fill="#263238"/>
<path d="M68.6636 71.515C69.0311 72.2178 69.5341 72.8411 70.1434 73.3489C70.7527 73.8566 71.4565 74.2389 72.2141 74.4737C74.2458 75.0852 75.301 73.2803 74.7685 71.3473C74.2951 69.6016 72.6677 67.1853 70.6164 67.4023C70.1677 67.4617 69.741 67.6323 69.3752 67.8988C69.0094 68.1652 68.716 68.5189 68.5219 68.9278C68.3278 69.3366 68.2391 69.7875 68.2638 70.2394C68.2886 70.6913 68.426 71.1298 68.6636 71.515Z" fill="#FFC3BD"/>
<path d="M91.5629 144.044C91.5629 144.044 102.964 194.471 95.3599 230.025C90.261 253.833 71.8774 301.932 71.8774 301.932L57.5078 301.568C57.5078 301.568 71.4237 251.091 74.274 231.238C79.2052 197.282 66.8771 141.914 66.8771 141.914L91.5629 144.044Z" fill="#263238"/>
<path opacity="0.2" d="M78.4162 154.203L71.2363 165.545C73.4017 178.984 74.7749 192.539 75.349 206.139C85.4481 188.061 80.6648 163.809 78.4162 154.203Z" fill="black"/>
<path d="M73.897 302.681L56.1445 302.227L57.1801 296.773L75.2876 297.631L73.897 302.681Z" fill="#144EF4"/>
<path d="M84.1945 143.512C84.1945 143.512 77.5077 196.986 63.0099 226.179C51.3032 249.77 20.0589 283.332 20.0589 283.332L12.0703 275.107C12.0703 275.107 33.176 238.616 41.8746 222.954C63.217 184.55 45.8196 155.238 57.8716 141.096L84.1945 143.512Z" fill="#263238"/>
<path d="M20.8688 284.435L10.5625 274.386L13.9848 269.73L24.9124 280.648L20.8688 284.435Z" fill="#144EF4"/>
<path d="M57.5396 139.113L55.7644 141.992C55.6263 142.219 55.8827 142.476 56.2674 142.515L91.6046 145.572C91.9103 145.572 92.1766 145.464 92.2062 145.277L92.7683 142.318C92.7683 142.111 92.5612 141.913 92.2357 141.884L58.1116 138.925C58.0082 138.905 57.9015 138.912 57.8014 138.945C57.7014 138.978 57.6113 139.035 57.5396 139.113Z" fill="#144EF4"/>
<path opacity="0.3" d="M57.5396 139.113L55.7644 141.992C55.6263 142.219 55.8827 142.476 56.2674 142.515L91.6046 145.572C91.9103 145.572 92.1766 145.464 92.2062 145.277L92.7683 142.318C92.7683 142.111 92.5612 141.913 92.2357 141.884L58.1116 138.925C58.0082 138.905 57.9015 138.912 57.8014 138.945C57.7014 138.978 57.6113 139.035 57.5396 139.113Z" fill="black"/>
<path d="M61.7873 143.352L60.8799 143.274C60.6925 143.274 60.5643 143.145 60.584 143.037L61.3533 139.151C61.3533 139.043 61.5407 138.964 61.7281 138.973L62.6354 139.052C62.8228 139.052 62.951 139.181 62.9313 139.289L62.162 143.175C62.1423 143.254 61.9746 143.352 61.7873 143.352Z" fill="#263238"/>
<path d="M89.008 145.675L88.0908 145.596C87.9133 145.596 87.7752 145.478 87.8048 145.359L88.5642 141.483C88.5642 141.365 88.7614 141.286 88.939 141.306L89.8562 141.385C90.0337 141.385 90.1619 141.503 90.1422 141.621L89.3729 145.497C89.3532 145.616 89.1855 145.695 89.008 145.675Z" fill="#263238"/>
<path d="M75.3986 144.497L74.4814 144.418C74.3039 144.418 74.1756 144.3 74.1954 144.181L74.9646 140.306C74.9646 140.187 75.152 140.108 75.3296 140.128L76.2468 140.207C76.4341 140.207 76.5624 140.325 76.5426 140.434L75.7734 144.32C75.7386 144.386 75.6832 144.439 75.6156 144.471C75.548 144.503 75.4719 144.512 75.3986 144.497Z" fill="#263238"/>
<path d="M61.0592 102.919C59.7377 105.108 58.3372 107.357 57.0255 109.605C55.7138 111.854 54.3626 114.083 53.0805 116.342C51.7984 118.6 50.605 120.859 49.5892 123.107C49.313 123.669 49.0961 124.222 48.8396 124.774C48.5832 125.326 48.4254 125.849 48.2183 126.391C48.1241 126.637 48.0547 126.891 48.0112 127.151C48.0112 127.279 48.0112 127.24 47.952 127.22C47.8928 127.2 48.1197 127.595 48.9383 127.94C49.89 128.318 50.8831 128.583 51.897 128.729C54.3263 129.079 56.7812 129.221 59.2347 129.153C64.419 129.012 69.5916 128.584 74.7286 127.871L75.7148 132.2C70.4748 133.843 65.0979 135.011 59.6489 135.692C56.788 136.062 53.8983 136.158 51.0192 135.978C49.3848 135.872 47.7706 135.557 46.2162 135.041C45.2669 134.718 44.3648 134.27 43.5336 133.709C42.4566 133 41.5697 132.038 40.9508 130.906C40.3318 129.775 39.9996 128.509 39.9832 127.22C39.9707 126.149 40.117 125.082 40.4171 124.054C40.6341 123.334 40.8412 122.584 41.0779 121.894C41.3146 121.204 41.5513 120.513 41.8176 119.843C42.863 117.18 44.0169 114.675 45.2694 112.229C46.522 109.783 47.8139 107.386 49.1552 105.029C50.4965 102.672 51.897 100.374 53.4454 98.0664L61.0592 102.919Z" fill="#FFC3BD"/>
<path d="M72.7158 128.874L79.294 125.393L79.5406 132.72C79.5406 132.72 74.9447 134.377 72.2227 132.247L72.7158 128.874Z" fill="#FFC3BD"/>
<path d="M83.2953 125.915L82.309 132.405L79.5377 132.72L79.2812 125.393L83.2953 125.915Z" fill="#FFC3BD"/>
<path d="M56.2576 90.3044C52.1252 91.0836 46.3359 102.918 46.3359 102.918L59.1571 114.014C59.1571 114.014 65.0253 103.303 64.5914 97.9182C64.2166 93.3125 61.5143 89.3773 56.2576 90.3044Z" fill="#144EF4"/>
<path d="M127.392 125.817C123.984 101.435 141.484 78.9742 166.48 75.6496C191.476 72.325 214.502 89.3955 217.911 113.778C221.319 138.16 203.819 160.621 178.823 163.946C153.827 167.27 130.8 150.2 127.392 125.817Z" fill="#E2810E"/>
<path d="M136.395 151.271C118.556 133.87 118.556 105.658 136.395 88.2568C154.234 70.856 183.156 70.856 200.995 88.2568C218.834 105.658 218.834 133.87 200.995 151.271C183.156 168.671 154.234 168.671 136.395 151.271Z" fill="#FFB93E"/>
<path d="M198.12 148.996C205.981 141.327 210.311 131.135 210.311 120.289C210.311 109.447 205.981 99.2516 198.12 91.583C190.258 83.9143 179.809 79.6914 168.691 79.6914C157.575 79.6914 147.123 83.9143 139.261 91.583C131.4 99.2516 127.071 109.444 127.071 120.289C127.071 131.132 131.4 141.327 139.261 148.996C147.123 156.664 157.572 160.887 168.691 160.887C179.809 160.884 190.261 156.662 198.12 148.996ZM207.826 120.289C207.826 141.339 190.27 158.464 168.691 158.464C147.111 158.464 129.555 141.339 129.555 120.289C129.555 99.2398 147.111 82.1146 168.691 82.1146C190.27 82.1146 207.826 99.2398 207.826 120.289Z" fill="#FFA412"/>
<path d="M173.745 134.162C173.391 134.786 172.906 135.306 172.297 135.723C171.685 136.139 170.955 136.435 170.107 136.612C169.255 136.789 168.292 136.813 167.21 136.689C166.265 136.58 165.356 136.352 164.475 136.009C163.596 135.663 162.836 135.152 162.193 134.478C161.551 133.802 161.078 132.945 160.776 131.904C160.47 130.864 160.409 129.605 160.588 128.125L150.614 126.969C150.312 129.469 150.463 131.665 151.075 133.553C151.684 135.442 152.608 137.055 153.844 138.394C155.08 139.733 156.552 140.817 158.261 141.648C159.967 142.478 161.763 143.099 163.651 143.506L162.896 149.697L168.383 150.333L169.14 144.112C171.234 144.165 173.166 143.964 174.936 143.515C176.705 143.066 178.253 142.378 179.577 141.453C180.901 140.528 181.982 139.375 182.816 137.992C183.649 136.609 184.176 135.001 184.4 133.166C184.645 131.145 184.497 129.351 183.952 127.788C183.406 126.225 182.546 124.809 181.37 123.541C180.195 122.274 178.744 121.109 177.02 120.042C175.296 118.976 173.366 117.909 171.234 116.836C169.913 116.177 168.816 115.557 167.943 114.98C167.068 114.404 166.38 113.816 165.883 113.219C165.383 112.622 165.056 111.998 164.905 111.345C164.75 110.692 164.72 109.983 164.814 109.212C164.908 108.44 165.111 107.734 165.42 107.093C165.732 106.452 166.159 105.917 166.701 105.479C167.244 105.045 167.907 104.732 168.689 104.537C169.47 104.342 170.379 104.303 171.415 104.424C173.324 104.646 174.772 105.444 175.763 106.815C176.75 108.186 177.093 110.125 176.787 112.625L186.76 113.78C187.014 111.697 186.936 109.779 186.533 108.03C186.127 106.28 185.436 104.726 184.458 103.366C183.479 102.007 182.231 100.846 180.716 99.8882C179.198 98.9308 177.468 98.2126 175.52 97.7339L176.344 90.9489L170.825 90.3105L170.01 97.001C167.916 96.9478 165.995 97.1665 164.244 97.6482C162.493 98.1329 160.954 98.848 159.627 99.7937C158.3 100.739 157.225 101.904 156.404 103.29C155.583 104.676 155.065 106.254 154.85 108.024C154.601 110.066 154.75 111.871 155.295 113.435C155.84 114.998 156.701 116.408 157.876 117.666C159.052 118.922 160.509 120.081 162.248 121.139C163.984 122.197 165.935 123.24 168.095 124.274C169.352 124.862 170.41 125.442 171.261 126.003C172.112 126.567 172.794 127.153 173.303 127.761C173.812 128.37 174.151 129.023 174.324 129.718C174.496 130.415 174.53 131.198 174.421 132.076C174.327 132.841 174.1 133.539 173.745 134.162Z" fill="#FFA412"/>
<path d="M256.224 95.1928C256.174 95.8733 256.115 96.3566 256.046 96.9187C255.977 97.4809 255.898 97.9839 255.809 98.5066C255.632 99.5619 255.425 100.597 255.198 101.633C254.737 103.696 254.167 105.734 253.492 107.738C252.116 111.787 250.247 115.653 247.929 119.247L247.022 120.589L246.795 120.914L246.657 121.111L246.45 121.387C246.149 121.743 245.82 122.073 245.464 122.374C244.304 123.416 242.921 124.179 241.42 124.603C239.118 125.222 236.724 125.432 234.349 125.224C230.153 124.878 226.029 123.934 222.1 122.423L223.165 118.172C226.874 118.551 230.608 118.627 234.329 118.399C235.903 118.31 237.453 117.977 238.925 117.413C239.307 117.255 239.645 117.008 239.911 116.693C239.803 116.841 240.463 115.707 240.897 114.997C242.623 111.812 244.014 108.457 245.05 104.986C245.582 103.231 246.036 101.455 246.43 99.6802C246.628 98.7827 246.805 97.8853 246.963 96.9976L247.17 95.6662L247.348 94.4531L256.224 95.1928Z" fill="#B55B52"/>
<path d="M258.279 89.4012C258.496 94.9242 256.356 104.885 256.356 104.885L242.686 103.228C242.686 103.228 242.183 88.6517 244.836 85.1308C249.284 79.2429 258.082 84.1741 258.279 89.4012Z" fill="#263238"/>
<path d="M225.032 118.751L216.846 115.842L218.552 121.976C218.552 121.976 222.379 124.215 224.568 121.671L225.032 118.751Z" fill="#B55B52"/>
<path d="M214.033 117.41L212.908 121.74L218.559 121.976L216.853 115.842L214.033 117.41Z" fill="#B55B52"/>
<path d="M236.225 67.8887C235.801 72.6917 237.409 80.5521 241.038 83.2248C241.038 83.2248 238.306 88.2744 229.558 89.448C219.932 90.74 224.449 85.3255 224.449 85.3255C229.568 83.353 229.026 79.5362 227.724 76.0252L236.225 67.8887Z" fill="#B55B52"/>
<path d="M218.738 95.0817C217.693 100.081 216.376 105.019 214.794 109.875C213.247 114.766 211.396 119.556 209.251 124.215L208.846 125.103C208.679 125.448 208.462 125.853 208.265 126.217C207.877 126.9 207.449 127.559 206.982 128.19C206.126 129.315 205.194 130.379 204.191 131.376C202.314 133.23 200.318 134.96 198.215 136.553C194.14 139.64 189.83 142.404 185.324 144.818L182.908 141.149C186.646 138.033 190.384 134.778 193.836 131.445C195.538 129.827 197.151 128.118 198.668 126.326C199.362 125.5 200.001 124.631 200.582 123.722C200.83 123.327 201.057 122.919 201.262 122.499L201.499 121.937L201.824 121.099C202.692 118.87 203.462 116.582 204.241 114.294C205.02 112.006 205.7 109.678 206.381 107.39C207.712 102.735 208.965 97.9517 210.06 93.3262L218.738 95.0817Z" fill="#B55B52"/>
<path d="M185.768 144.474L181.231 147.432L178.982 143.576C178.982 143.576 183.44 138.25 186.133 142.037L185.768 144.474Z" fill="#B55B52"/>
<path d="M184.594 140.5L182.03 140.115L179.15 140.727L178.41 141.565L180.284 141.841L180.777 142.581L181.408 142.985L184.594 140.5Z" fill="#B55B52"/>
<path d="M176.726 147.819L174.23 145.807L178.984 143.598L181.233 147.454L176.726 147.819Z" fill="#B55B52"/>
<path d="M250.435 311.418L242.476 312.009L240.109 293.734L248.068 293.143L250.435 311.418Z" fill="#B55B52"/>
<path d="M301.393 288.199L294.499 292.391L283.039 278.07L289.933 273.879L301.393 288.199Z" fill="#B55B52"/>
<path d="M292.44 290.852L298.979 284.56C299.087 284.449 299.232 284.382 299.386 284.371C299.541 284.36 299.694 284.406 299.817 284.501L305.389 288.801C305.524 288.92 305.631 289.067 305.705 289.231C305.779 289.395 305.817 289.573 305.817 289.753C305.817 289.933 305.779 290.11 305.705 290.274C305.631 290.438 305.524 290.585 305.389 290.704C303.071 292.864 301.848 293.791 298.969 296.563C297.203 298.269 294.787 300.932 292.341 303.289C289.895 305.646 287.518 303.417 288.327 302.224C291.976 296.878 291.424 294.876 291.759 292.144C291.827 291.647 292.068 291.189 292.44 290.852Z" fill="#263238"/>
<path d="M241.983 310.871H250.928C251.082 310.869 251.232 310.923 251.35 311.023C251.468 311.122 251.546 311.261 251.569 311.414L252.773 318.485C252.798 318.662 252.785 318.842 252.735 319.013C252.685 319.184 252.598 319.342 252.481 319.477C252.364 319.612 252.219 319.72 252.057 319.794C251.895 319.868 251.718 319.906 251.54 319.905C248.413 319.905 246.904 319.668 242.969 319.668C240.553 319.668 235.553 319.915 232.209 319.915C228.866 319.915 228.609 316.611 229.99 316.315C236.194 314.974 238.61 313.12 240.661 311.384C241.027 311.061 241.495 310.879 241.983 310.871Z" fill="#263238"/>
<path opacity="0.2" d="M240.119 293.732L241.431 303.891L249.291 302.569L248.078 293.15L240.119 293.732Z" fill="black"/>
<path opacity="0.2" d="M289.933 273.879L283.039 278.08L287.783 283.998L294.825 279.984L289.933 273.879Z" fill="black"/>
<path d="M254.449 131.18L222.218 135.51C209.732 90.3003 213.421 89.0774 213.421 89.0774C215.833 87.9395 218.313 86.9514 220.847 86.1186L221.291 85.9806C223.372 85.3592 223.806 85.2705 226.577 84.6393C231.341 83.801 235.759 83.15 241.213 82.6668L242.2 82.5879C243.186 82.5188 244.172 82.4695 245.158 82.4399C245.799 82.4399 246.431 82.4399 247.032 82.3906H250.178C250.795 82.4049 251.402 82.5469 251.961 82.8078C252.52 83.0686 253.018 83.4426 253.425 83.9061C253.832 84.3696 254.139 84.9124 254.325 85.5004C254.511 86.0883 254.574 86.7086 254.508 87.3219C251.766 111.199 252.644 119.01 254.449 131.18Z" fill="#263238"/>
<path opacity="0.2" d="M219.112 102.914C219.754 107.589 219.155 112.351 217.376 116.721C215.226 107.904 214.072 101.928 213.49 97.7854C215.916 97.6769 218.481 98.6237 219.112 102.914Z" fill="black"/>
<path d="M213.699 88.9501C208.186 92.1061 204.349 99.6311 203.195 104L214.941 114.75C214.941 114.75 222.536 100.134 220.553 96.1793C218.482 92.0666 215.79 87.7567 213.699 88.9501Z" fill="#263238"/>
<path d="M238.945 59.0248C238.343 66.9148 238.265 70.2089 234.201 74.2919C228.096 80.4362 218.49 78.2369 216.705 70.4554C215.108 63.4333 216.34 51.7167 224.151 48.541C225.822 47.7946 227.659 47.4963 229.48 47.6757C231.302 47.8552 233.045 48.506 234.538 49.5642C236.031 50.6224 237.223 52.0513 237.996 53.7103C238.768 55.3692 239.096 57.2009 238.945 59.0248Z" fill="#B55B52"/>
<path d="M222.683 62.191C223.491 59.3999 217.219 56.2242 216.548 51.9439C215.68 46.3914 219.98 41.9039 223.994 44.5175C225.622 40.7993 236.668 39.2312 242.733 43.837C249.558 49.0049 241.195 54.4687 248 59.0449C253.424 62.694 254.164 64.9624 250.811 69.3314C248.266 72.6551 254.844 71.945 253.178 77.5666C251.511 83.1882 217.485 85.2494 222.002 72.6354C226.016 61.4908 221.085 67.8915 222.683 62.191Z" fill="#263238"/>
<path d="M224.596 61.5695C224.547 63.0326 224.048 64.4449 223.166 65.6131C221.943 67.27 220.513 66.8262 220.207 65.2976C219.891 63.9267 220.158 61.4117 221.706 60.2677C223.254 59.1237 224.586 59.9324 224.596 61.5695Z" fill="#B55B52"/>
<path d="M250.467 69.6274C250.437 69.627 250.408 69.6168 250.385 69.5983C250.361 69.5799 250.344 69.5542 250.336 69.5253C250.328 69.4963 250.33 69.4655 250.341 69.4377C250.353 69.4099 250.373 69.3865 250.398 69.371C252.539 68.1382 253.683 66.4123 253.633 64.6173C253.574 62.3095 251.661 59.9819 248.534 58.3941C244.806 56.5005 245.092 53.9363 245.378 51.4904C245.664 49.0445 245.95 46.4211 242.311 44.3105C242.279 44.2902 242.256 44.2591 242.245 44.2229C242.234 44.1867 242.237 44.1478 242.252 44.1133C242.272 44.0814 242.304 44.0585 242.341 44.0493C242.377 44.0402 242.416 44.0454 242.449 44.0639C246.256 46.2731 245.95 48.936 245.655 51.52C245.359 54.1039 245.102 56.3821 248.613 58.187C251.838 59.8143 253.801 62.2306 253.87 64.6469C253.87 66.6194 252.726 68.3749 250.497 69.6471C250.486 69.6421 250.476 69.6354 250.467 69.6274Z" fill="#263238"/>
<path d="M230.732 134.363C230.732 134.363 243.248 187.246 249.096 217.632C255.26 249.685 284.867 283.079 284.867 283.079L294.917 277.477C294.917 277.477 276.287 247.002 270.261 217.07C257.992 156.317 266.316 144.088 254.481 131.188L230.732 134.363Z" fill="#144EF4"/>
<path d="M283.873 284.017L296.418 277.025L294.583 273.316L280.51 279.796L283.873 284.017Z" fill="#263238"/>
<path opacity="0.2" d="M237.377 145.854C247.111 154.306 246.056 184.318 245.04 197.79C240.957 178.578 236.045 157.196 233.205 144.819C234.191 144.049 235.592 144.335 237.377 145.854Z" fill="black"/>
<path d="M222.703 135.527C222.703 135.527 217.072 198.322 220.099 222.248C223.295 247.16 239.558 301.355 239.558 301.355L251.028 299.875C251.028 299.875 241.708 246.164 240.051 221.508C238.246 194.613 246.264 132.342 246.264 132.342L222.703 135.527Z" fill="#144EF4"/>
<path d="M237.153 302.035L253.515 299.924L253.258 295.092L235.516 296.808L237.153 302.035Z" fill="#263238"/>
<path d="M254.727 129.238L256.483 131.911C256.621 132.118 256.384 132.374 256.009 132.423L222.211 136.96C221.925 136.96 221.668 136.891 221.629 136.714L221.037 133.893C221.037 133.696 221.224 133.489 221.55 133.449L254.175 129.07C254.274 129.049 254.376 129.053 254.473 129.082C254.57 129.112 254.657 129.165 254.727 129.238Z" fill="#144EF4"/>
<path opacity="0.5" d="M254.727 129.238L256.483 131.911C256.621 132.118 256.384 132.374 256.009 132.423L222.211 136.96C221.925 136.96 221.668 136.891 221.629 136.714L221.037 133.893C221.037 133.696 221.224 133.489 221.55 133.449L254.175 129.07C254.274 129.049 254.376 129.053 254.473 129.082C254.57 129.112 254.657 129.165 254.727 129.238Z" fill="white"/>
<path d="M250.732 133.486L251.61 133.367C251.778 133.367 251.906 133.239 251.877 133.131L251.078 129.462C251.078 129.363 250.89 129.294 250.713 129.314L249.845 129.432C249.667 129.432 249.539 129.56 249.569 129.669L250.368 133.338C250.397 133.397 250.555 133.486 250.732 133.486Z" fill="#144EF4"/>
<path d="M228.658 136.444L229.526 136.326C229.704 136.326 229.822 136.198 229.802 136.089L228.994 132.42C228.994 132.312 228.816 132.243 228.639 132.272L227.761 132.381C227.593 132.381 227.465 132.519 227.494 132.628L228.293 136.287C228.323 136.444 228.481 136.444 228.658 136.444Z" fill="#144EF4"/>
</svg>
