<svg width="18" height="6" viewBox="0 0 18 6" fill="none" xmlns="http://www.w3.org/2000/svg">
<path d="M17.0447 1.0515L17.174 0.969172C17.4257 0.801214 17.4849 0.469603 17.3107 0.228352C17.1349 -0.0150493 16.7893 -0.0699825 16.5428 0.0956798C7.91817 5.91294 1.64006 0.381967 1.37632 0.144302C1.15376 -0.0566439 0.803042 -0.0464608 0.595794 0.166964C0.387505 0.381249 0.397615 0.716448 0.617946 0.918111C0.62984 0.929012 0.826235 1.10242 1.18468 1.35902L0.0799033 3.11676C-0.0776886 3.36747 0.00497264 3.69478 0.264999 3.84811C0.353905 3.89974 0.454853 3.92571 0.55253 3.92571C0.738221 3.92571 0.919006 3.83463 1.02412 3.67069L2.10437 1.95339C2.71005 2.3091 3.48671 2.69751 4.41205 3.02568L3.87965 4.74283C3.79149 5.02553 3.95637 5.32043 4.24762 5.40448L4.4064 5.42714C4.64174 5.42714 4.86178 5.27797 4.93344 5.04719L5.46063 3.35356C6.31475 3.57889 7.27026 3.73107 8.30145 3.76722V5.46802C8.30145 5.76234 8.5478 6 8.85287 6C9.15765 6 9.40415 5.76234 9.40415 5.46802V3.75775C10.3039 3.71013 11.2575 3.56082 12.2531 3.28687L12.9318 5.01348C13.0164 5.22619 13.226 5.35643 13.4474 5.35643L13.6425 5.32286C13.9272 5.21845 14.0715 4.91165 13.9633 4.63712L13.3025 2.95482C14.2091 2.62995 15.1461 2.20224 16.114 1.63483L17.0074 2.78529C17.1162 2.92427 17.2823 2.99886 17.4482 2.99886C17.5638 2.99886 17.6794 2.96501 17.7785 2.892C18.0229 2.71558 18.0723 2.38211 17.8903 2.14731L17.0447 1.0515Z" fill="#6A8FB1"/>
</svg>
