<svg width="13" height="18" viewBox="0 0 13 18" fill="none" xmlns="http://www.w3.org/2000/svg">
<path d="M6.24147 0C2.79991 0 0 2.79991 0 6.24147C0 7.64919 0.987504 9.96922 2.93506 13.1371C4.35895 15.4532 5.803 17.4079 5.81741 17.4273C6.02835 17.7122 6.45458 17.7122 6.66552 17.4273C6.67994 17.4079 8.12398 15.4532 9.54788 13.1371C11.4954 9.96922 12.4829 7.64919 12.4829 6.24147C12.4829 2.79991 9.68302 0 6.24147 0ZM6.24147 9.71388C4.27342 9.71388 2.67233 8.11276 2.67233 6.14475C2.67233 4.1767 4.27345 2.57562 6.24147 2.57562C8.20948 2.57562 9.8106 4.17674 9.8106 6.14475C9.8106 8.11276 8.20951 9.71388 6.24147 9.71388Z" fill="#6A8FB1"/>
</svg>
