<svg width="155" height="49" viewBox="0 0 155 49" fill="none" xmlns="http://www.w3.org/2000/svg">
<path fill-rule="evenodd" clip-rule="evenodd" d="M38.6269 16.9858C40.4931 15.0866 41.4967 12.5573 41.4179 9.9517C41.4818 7.34355 40.469 4.81633 38.599 2.91758C37.6635 1.99451 36.5437 1.26061 35.3061 0.759427C34.0685 0.258248 32.7383 0 31.3944 0C30.0505 0 28.7203 0.258248 27.4827 0.759427C26.2451 1.26061 25.1254 1.99451 24.1898 2.91758C22.3801 4.84617 21.379 7.34655 21.379 9.93835C21.379 12.5302 22.3801 15.0305 24.1898 16.9591C25.1304 17.8772 26.2525 18.607 27.4908 19.1061C28.7291 19.6051 30.0589 19.8634 31.4025 19.8659C32.7462 19.8684 34.077 19.615 35.3173 19.1206C36.5576 18.6261 37.6827 17.9004 38.6269 16.9858ZM34.8113 6.49186C35.6663 7.44561 36.1209 8.66895 36.0872 9.925C36.0997 11.1645 35.6292 12.3639 34.7675 13.2895C34.3487 13.76 33.8295 14.1393 33.2448 14.4019C32.6601 14.6645 32.0234 14.8042 31.3776 14.8118C30.7317 14.8194 30.0916 14.6946 29.5003 14.4459C28.9091 14.1971 28.3803 13.8301 27.9496 13.3696C27.1269 12.4009 26.6848 11.1872 26.7001 9.93913C26.7154 8.69108 27.1871 7.48758 28.0333 6.53765C28.437 6.0572 28.949 5.67036 29.5311 5.40612C30.1132 5.14187 30.7502 5.00707 31.3944 5.01181C32.0436 4.99708 32.6879 5.12249 33.2794 5.37873C33.871 5.63496 34.3946 6.01542 34.8113 6.49186ZM19.6602 19.5952C19.9118 19.5952 20.0414 19.4537 20.0414 19.167C20.0516 18.1561 20.016 16.6437 19.9347 14.6298C19.8534 12.6159 19.8127 11.1062 19.8127 10.1005C19.8127 9.01371 19.8508 7.3861 19.9271 5.21769C20.0033 3.04928 20.0414 1.42166 20.0414 0.334838C20.0414 0.114855 19.8623 0.000944767 19.6374 0.000944767C19.4125 0.000944767 19.0694 0.0245115 18.6081 0.0716508C18.1469 0.11879 17.8533 0.142357 17.5827 0.142357H17.5826C17.3119 0.142357 16.9193 0.142357 16.3933 0.0991516C15.8673 0.0559406 15.4746 0.0559344 15.2154 0.0559344C15.0363 0.0559344 14.8723 0.236637 14.7199 0.598038C12.946 4.50274 11.6054 7.42538 10.6982 9.36595C10.378 10.0573 10.1683 10.403 10.0692 10.403C9.87858 10.403 9.64605 10.1045 9.36777 9.50344L5.4452 0.625539C5.26603 0.23664 5.12499 0.04415 5.02969 0.04415L4.93054 0.0441167C4.43793 0.0438717 3.73456 0.043522 2.81109 0.0912874C1.82377 0.142355 1.08424 0.142357 0.592493 0.142357C0.207478 0.142357 0.0283087 0.232712 0.0283087 0.417341V0.653028C0.109632 2.16934 0.150296 3.30986 0.150296 4.07456C0.239244 7.01815 0.283714 9.0268 0.283714 10.1005C0.283714 11.0983 0.234159 12.6146 0.142671 14.6338C0.051182 16.6529 0.00162753 18.1653 0.00162753 19.1709C-0.00629515 19.2782 0.0148143 19.3856 0.0626155 19.4813C0.104548 19.5441 0.215101 19.5716 0.394266 19.5716H4.87721C5.13134 19.5716 5.25841 19.4105 5.25841 19.0884C5.25841 18.1849 5.23173 16.8218 5.1898 15.0148C5.14786 13.2078 5.12499 11.8486 5.12499 10.9451C5.1154 10.8076 5.14736 10.6704 5.21648 10.5523C5.26747 10.592 5.30916 10.643 5.33846 10.7016C5.76795 11.6155 6.40329 13.0978 7.24448 15.1484C8.02975 17.0889 8.66509 18.566 9.15049 19.5795C9.22292 19.7641 9.51644 19.8584 9.98532 19.8584C10.1643 19.8697 10.3438 19.8697 10.5228 19.8584C10.6562 19.823 10.7668 19.6973 10.8583 19.4852C11.5038 17.851 12.148 16.2129 12.791 14.5709C13.8939 11.7714 14.4949 10.3441 14.5941 10.2891C14.6741 10.3244 14.716 10.4502 14.716 10.7173C14.7135 11.6522 14.6792 13.052 14.6131 14.9166C14.547 16.7812 14.514 18.1797 14.514 19.112C14.514 19.4341 14.6411 19.5952 14.8952 19.5952H19.6602ZM61.4653 0.722177C61.4653 1.77454 61.4203 3.3636 61.3304 5.48936C61.2404 7.61513 61.1967 9.20815 61.1994 10.2684V19.4358C61.1994 19.6883 61.0644 19.8107 60.8025 19.8107C60.5405 19.8107 60.2428 19.8107 59.7903 19.8383C59.3378 19.8659 58.9965 19.8659 58.7742 19.8659C58.5519 19.8659 58.1669 19.8659 57.6827 19.8107C57.1985 19.7554 56.8333 19.7554 56.5912 19.7554H56.5911C56.4244 19.7554 56.222 19.6015 55.9918 19.2977C55.317 18.3979 53.8047 16.4037 51.4549 13.315C50.8119 12.452 49.8329 11.1813 48.5177 9.50281C48.4613 9.43122 48.3894 9.37321 48.3074 9.33312C48.2678 9.37355 48.2374 9.42194 48.2182 9.47504C48.199 9.52814 48.1915 9.58471 48.1962 9.64093C48.1962 10.7196 48.2266 12.3337 48.2875 14.4831C48.3484 16.6325 48.3775 18.2466 48.3748 19.3253C48.3748 19.6489 48.2518 19.8107 47.9978 19.8107H43.1553C42.8854 19.8107 42.7584 19.6686 42.7584 19.3805C42.7584 18.3782 42.8073 16.8667 42.9052 14.8462C43.0032 12.8256 43.0521 11.3089 43.0521 10.296C43.0521 9.22525 43.0084 7.62961 42.9211 5.5091C42.8338 3.3886 42.7822 1.79295 42.7663 0.722177C42.7663 0.520913 42.9489 0.418312 43.3141 0.418312C43.8539 0.418312 44.5048 0.382796 45.2987 0.307815C45.4852 0.288083 45.8544 0.228879 46.4021 0.126274C46.7671 0.0538859 47.1375 0.0116566 47.5095 0C47.6207 0 47.7953 0.157847 48.0255 0.473555L53.2451 7.57699C53.7134 8.2163 54.4186 9.15289 55.3607 10.3868C55.5948 10.6749 55.7933 10.8169 55.964 10.8169C56.1347 10.8169 56.1426 10.4578 56.1426 9.73169C56.1426 8.75826 56.0897 7.29285 55.9838 5.33546C55.878 3.37807 55.8237 1.9074 55.8211 0.923445C55.8211 0.580112 55.9203 0.410412 56.1148 0.410412C56.6731 0.410412 57.5173 0.386737 58.6472 0.33938C59.7784 0.292024 60.6318 0.272287 61.1835 0.272287C61.374 0.276233 61.4653 0.418308 61.4653 0.722177ZM80.0496 16.9858C81.9158 15.0866 82.9193 12.5573 82.8405 9.9517C82.9079 7.34298 81.8947 4.81453 80.0217 2.91758C79.0861 1.99451 77.9664 1.26061 76.7288 0.759427C75.4912 0.258248 74.161 0 72.8171 0C71.4732 0 70.143 0.258248 68.9054 0.759427C67.6678 1.26061 66.548 1.99451 65.6125 2.91758C63.8027 4.84617 62.8017 7.34655 62.8017 9.93835C62.8017 12.5302 63.8027 15.0305 65.6125 16.9591C66.553 17.8772 67.6752 18.607 68.9135 19.1061C70.1518 19.6051 71.4815 19.8634 72.8252 19.8659C74.1689 19.8684 75.4996 19.615 76.7399 19.1206C77.9802 18.6261 79.1053 17.9004 80.0496 16.9858ZM76.234 6.49186C77.0917 7.4443 77.548 8.66821 77.5138 9.925C77.5249 11.1649 77.053 12.3643 76.1901 13.2895C75.7714 13.76 75.2522 14.1393 74.6675 14.4019C74.0828 14.6645 73.4461 14.8042 72.8002 14.8118C72.1543 14.8194 71.5143 14.6946 70.923 14.4459C70.3317 14.1971 69.803 13.8301 69.3723 13.3696C68.5496 12.4009 68.1075 11.1872 68.1228 9.93913C68.1381 8.69108 68.6098 7.48758 69.456 6.53765C69.86 6.05762 70.3721 5.67108 70.9541 5.40688C71.5361 5.14267 72.1729 5.00763 72.8171 5.01181C73.4662 4.99708 74.1105 5.12249 74.7021 5.37873C75.2936 5.63496 75.8172 6.01542 76.234 6.49186ZM101.552 7.53225C101.552 9.80576 100.94 11.6475 99.7179 13.0574C98.4134 14.5527 96.6096 15.3003 94.3064 15.3003C93.9216 15.3003 93.3444 15.2763 92.5667 15.2363C91.7889 15.1963 91.2158 15.1723 90.831 15.1723C90.4463 15.1723 90.2088 15.3443 90.2088 15.6921C90.2088 16.1279 90.2539 16.7715 90.3398 17.6231C90.4258 18.4746 90.4667 19.1183 90.4667 19.5421C90.4667 19.758 90.3685 19.8659 90.1638 19.8659C89.5798 19.8659 88.6997 19.8499 87.5235 19.818C86.3487 19.786 85.4768 19.766 84.8833 19.766C84.8279 19.7724 84.7718 19.7665 84.7191 19.7487C84.6665 19.7309 84.6187 19.7016 84.5792 19.6631C84.5398 19.6246 84.5099 19.5779 84.4916 19.5265C84.4734 19.475 84.4673 19.4202 84.4739 19.3662C84.4739 18.3214 84.4903 16.7542 84.523 14.6646C84.5558 12.575 84.5722 11.0078 84.5722 9.963C84.5722 7.01251 84.4425 3.91144 84.1833 0.659768V0.46386C84.1614 0.285285 84.2979 0.177341 84.5926 0.140027C85.3458 0.0440758 87.0009 -0.00255723 89.558 0.000108077H89.5585C91.0688 0.000108076 92.5177 0.000108075 93.9052 0.0560731C96.1866 0.12004 98.0232 0.819682 99.415 2.155C100.807 3.49032 101.519 5.28274 101.552 7.53225ZM95.7964 7.75614C95.7964 5.56792 94.7048 4.47381 92.5216 4.47381C90.9825 4.47381 90.1747 4.55777 90.0983 4.72568C90.0287 4.84962 89.996 5.92506 89.996 7.98401C89.996 8.27586 89.996 8.70364 90.0328 9.27135C90.0696 9.83906 90.0696 10.2708 90.0696 10.5627C90.0696 10.7493 90.9347 10.8439 92.6649 10.8465C94.7498 10.8412 95.7936 9.81109 95.7964 7.75614ZM120.136 16.9858C122.002 15.0866 123.005 12.5573 122.927 9.9517C122.994 7.34298 121.981 4.81453 120.108 2.91758C119.172 1.99451 118.052 1.26061 116.815 0.759427C115.577 0.258248 114.247 0 112.903 0C111.559 0 110.229 0.258248 108.991 0.759427C107.754 1.26061 106.634 1.99451 105.699 2.91758C103.889 4.84617 102.888 7.34655 102.888 9.93835C102.888 12.5302 103.889 15.0305 105.699 16.9591C106.639 17.8772 107.761 18.607 108.999 19.1061C110.238 19.6051 111.568 19.8634 112.911 19.8659C114.255 19.8684 115.586 19.615 116.826 19.1206C118.066 18.6261 119.191 17.9004 120.136 16.9858ZM116.32 6.49186C117.175 7.44561 117.63 8.66895 117.596 9.925C117.608 11.1645 117.138 12.3639 116.276 13.2895C115.857 13.76 115.338 14.1393 114.754 14.4019C114.169 14.6645 113.532 14.8042 112.886 14.8118C112.24 14.8194 111.6 14.6946 111.009 14.4459C110.418 14.1971 109.889 13.8301 109.458 13.3696C108.636 12.4009 108.194 11.1872 108.209 9.93913C108.224 8.69108 108.696 7.48758 109.542 6.53765C109.946 6.0572 110.458 5.67036 111.04 5.40612C111.622 5.14187 112.259 5.00707 112.903 5.01181C113.552 4.99708 114.197 5.12249 114.788 5.37873C115.38 5.63496 115.903 6.01542 116.32 6.49186ZM136.442 19.8608H136.442C135.684 19.8608 134.68 19.8608 133.452 19.8053L130.459 19.7378L126.465 19.6782C126.064 19.6782 125.488 19.6782 124.741 19.6226C124.688 19.6229 124.636 19.6115 124.588 19.5894C124.54 19.5672 124.496 19.5348 124.461 19.494C124.425 19.4533 124.398 19.4052 124.381 19.3528C124.364 19.3005 124.358 19.245 124.362 19.1899C124.362 18.1737 124.378 16.6506 124.408 14.6207C124.438 12.5909 124.453 11.0678 124.453 10.0515C124.453 8.96646 124.423 7.34414 124.362 5.18459C124.302 3.02503 124.27 1.40404 124.268 0.321621C124.268 0.119163 124.4 0.0159531 124.669 0.0159531C124.938 0.0159531 125.332 0.0159556 125.863 0.0556532C126.393 0.0953509 126.787 0.0993149 127.045 0.0993149C127.303 0.0993149 127.776 0.0993129 128.356 0.047706C128.898 -0.000565518 129.315 -0.00021056 129.605 3.69746e-05L129.663 7.06705e-05C129.8 7.06705e-05 129.86 0.0913807 129.853 0.266051V0.448656C129.747 2.20329 129.62 4.83923 129.474 8.35644V12.0523V14.6684C129.474 14.7382 129.481 14.8096 129.489 14.8807C129.493 14.9226 129.497 14.9645 129.5 15.0058C129.505 15.0601 129.527 15.111 129.564 15.1495C129.601 15.1881 129.649 15.2117 129.701 15.2162H130.05C130.85 15.2162 132.05 15.1712 133.649 15.0812C135.248 14.9939 136.446 14.9502 137.249 14.9502C137.488 14.9502 137.628 15.0574 137.628 15.2718C137.646 16.6561 137.535 18.039 137.294 19.4003C137.249 19.6425 137.158 19.7973 137.014 19.833C136.825 19.8636 136.633 19.8729 136.442 19.8608ZM154.771 6.1666C154.929 5.8367 155.008 5.47534 155 5.11084C155 4.60296 154.979 3.85912 154.951 2.85535C154.922 1.85157 154.922 1.10374 154.922 0.603855C154.922 0.199946 154.828 0 154.637 0C154.052 0 153.183 0.0253164 152.028 0.0759716C150.873 0.126627 150.007 0.151955 149.431 0.151955H149.072C148.987 0.179949 148.942 0.295925 148.942 0.491881C148.942 0.963774 148.978 1.67161 149.052 2.6274C149.125 3.58318 149.158 4.29502 149.158 4.76291C149.158 5.00019 148.75 5.68271 147.935 6.81046C147.283 7.70892 146.761 8.38476 146.369 8.83799C145.94 8.3581 145.388 7.67692 144.714 6.79446C143.872 5.66671 143.451 4.96153 143.451 4.67893C143.451 4.19904 143.475 3.4792 143.516 2.51542C143.557 1.55164 143.581 0.831801 143.581 0.35191C143.581 0.207943 143.471 0.139959 143.251 0.139959C142.656 0.139959 141.767 0.115967 140.577 0.0679778C139.386 0.0199886 138.502 0 137.919 0C137.727 0 137.629 0.151955 137.629 0.463884C137.629 1.03176 137.658 1.87823 137.715 3.00331C137.772 4.12839 137.801 4.97353 137.801 5.53873C137.831 5.86258 137.944 6.17357 138.131 6.44253C140.289 9.76978 141.946 12.2332 143.104 13.8329C143.314 14.1164 143.435 14.4544 143.451 14.8046C143.448 15.3112 143.404 16.075 143.32 17.0961C143.236 18.1172 143.194 18.8757 143.194 19.3716C143.194 19.5995 143.332 19.7355 143.601 19.7715C144.486 19.8493 145.375 19.8786 146.263 19.8595C147.126 19.8802 147.989 19.8509 148.848 19.7715C148.978 19.7556 149.108 19.7329 149.235 19.7035C149.313 19.6635 149.353 19.5596 149.353 19.3916C149.353 18.9037 149.321 18.1599 149.264 17.1641C149.207 16.1683 149.178 15.4205 149.178 14.9246C149.21 14.5279 149.371 14.1518 149.639 13.8529C151.605 11.4636 153.324 8.88888 154.771 6.1666ZM50.018 33.107V47.0252H56.1203V48.9998H48.103V33.107H50.018ZM68.1461 48.9998V33.107H65.4737V48.9998H68.1461ZM79.5934 41.9057V48.9998H77.4997V33.107H86.8531V35.0387H79.5706V39.9789H86.3661V41.9106L79.5934 41.9057ZM96.352 47.0258V41.717L105.867 41.7025V39.7962H96.352V35.0375H106.467V33.107H93.5338V48.9998H106.896V47.0258H96.352Z" fill="#E2EDF3"/>
</svg>
