<svg xmlns="http://www.w3.org/2000/svg" viewBox="0 0 583.48 149.55"><defs><style>.cls-1{fill:#144ef4;}.cls-2{fill:#e2810e;}.cls-3{fill:#ffb93e;}.cls-4{fill:#ffa412;}</style></defs><title>pacman_2</title><g id="Слой_2" data-name="Слой 2"><g id="Слой_1-2" data-name="Слой 1"><circle class="cls-1" cx="28.48" cy="38" r="3" transform="translate(-18.53 31.27) rotate(-45)"/><circle class="cls-1" cx="220.48" cy="38" r="3" transform="translate(37.71 167.03) rotate(-45)"/><circle class="cls-1" cx="412.48" cy="38" r="3" transform="translate(93.94 302.8) rotate(-45)"/><circle class="cls-1" cx="124.48" cy="38" r="3" transform="translate(9.59 99.15) rotate(-45)"/><circle class="cls-1" cx="316.48" cy="38" r="3" transform="translate(65.83 234.92) rotate(-45)"/><circle class="cls-1" cx="508.48" cy="38" r="3" transform="translate(122.06 370.68) rotate(-45)"/><circle class="cls-1" cx="76.48" cy="38" r="3" transform="translate(-4.47 65.21) rotate(-45)"/><circle class="cls-1" cx="268.48" cy="38" r="3" transform="translate(51.77 200.97) rotate(-45)"/><circle class="cls-1" cx="460.48" cy="38" r="3" transform="translate(108 336.74) rotate(-45)"/><circle class="cls-1" cx="172.48" cy="38" r="3" transform="translate(23.65 133.09) rotate(-45)"/><circle class="cls-1" cx="364.48" cy="38" r="3" transform="translate(79.88 268.86) rotate(-45)"/><circle class="cls-1" cx="556.48" cy="38" r="3" transform="translate(136.12 404.62) rotate(-45)"/><circle class="cls-1" cx="40.48" cy="38" r="3" transform="translate(-15.01 39.75) rotate(-45)"/><circle class="cls-1" cx="232.48" cy="38" r="3" transform="translate(41.22 175.52) rotate(-45)"/><circle class="cls-1" cx="424.48" cy="38" r="3" transform="translate(97.46 311.28) rotate(-45)"/><circle class="cls-1" cx="136.48" cy="38" r="3" transform="translate(13.1 107.64) rotate(-45)"/><circle class="cls-1" cx="328.48" cy="38" r="3" transform="translate(69.34 243.4) rotate(-45)"/><circle class="cls-1" cx="520.48" cy="38" r="3" transform="translate(125.58 379.17) rotate(-45)"/><circle class="cls-1" cx="88.48" cy="38" r="3" transform="translate(-0.95 73.7) rotate(-45)"/><circle class="cls-1" cx="280.48" cy="38" r="3" transform="translate(55.28 209.46) rotate(-45)"/><circle class="cls-1" cx="472.48" cy="38" r="3" transform="translate(111.52 345.22) rotate(-45)"/><circle class="cls-1" cx="184.48" cy="38" r="3" transform="translate(27.16 141.58) rotate(-45)"/><circle class="cls-1" cx="376.48" cy="38" r="3" transform="translate(83.4 277.34) rotate(-45)"/><circle class="cls-1" cx="568.48" cy="38" r="3" transform="translate(139.63 413.11) rotate(-45)"/><circle class="cls-1" cx="52.48" cy="38" r="3" transform="translate(-11.5 48.24) rotate(-45)"/><circle class="cls-1" cx="244.48" cy="38" r="3" transform="translate(44.74 184) rotate(-45)"/><circle class="cls-1" cx="436.48" cy="38" r="3" transform="translate(100.97 319.77) rotate(-45)"/><circle class="cls-1" cx="148.48" cy="38" r="3" transform="translate(16.62 116.12) rotate(-45)"/><circle class="cls-1" cx="340.48" cy="38" r="3" transform="translate(72.85 251.89) rotate(-45)"/><circle class="cls-1" cx="532.48" cy="38" r="3" transform="translate(129.09 387.65) rotate(-45)"/><circle class="cls-1" cx="100.48" cy="38" r="3" transform="translate(2.56 82.18) rotate(-45)"/><circle class="cls-1" cx="292.48" cy="38" r="3" transform="translate(58.8 217.95) rotate(-45)"/><circle class="cls-1" cx="484.48" cy="38" r="3" transform="translate(115.03 353.71) rotate(-45)"/><circle class="cls-1" cx="196.48" cy="38" r="3" transform="translate(30.68 150.06) rotate(-45)"/><circle class="cls-1" cx="388.48" cy="38" r="3" transform="translate(86.91 285.83) rotate(-45)"/><circle class="cls-1" cx="580.48" cy="38" r="3" transform="translate(143.15 421.59) rotate(-45)"/><circle class="cls-1" cx="16.48" cy="38" r="3" transform="translate(-22.04 22.78) rotate(-45)"/><circle class="cls-1" cx="208.48" cy="38" r="3" transform="translate(34.19 158.55) rotate(-45)"/><circle class="cls-1" cx="400.48" cy="38" r="3" transform="translate(90.43 294.31) rotate(-45)"/><circle class="cls-1" cx="112.48" cy="38" r="3" transform="translate(6.07 90.67) rotate(-45)"/><circle class="cls-1" cx="304.48" cy="38" r="3" transform="translate(62.31 226.43) rotate(-45)"/><circle class="cls-1" cx="496.48" cy="38" r="3" transform="translate(118.55 362.2) rotate(-45)"/><circle class="cls-1" cx="64.48" cy="38" r="3" transform="translate(-7.98 56.72) rotate(-45)"/><circle class="cls-1" cx="256.48" cy="38" r="3" transform="translate(48.25 192.49) rotate(-45)"/><circle class="cls-1" cx="448.48" cy="38" r="3" transform="translate(104.49 328.25) rotate(-45)"/><circle class="cls-1" cx="160.48" cy="38" r="3" transform="translate(20.13 124.61) rotate(-45)"/><circle class="cls-1" cx="352.48" cy="38" r="3" transform="translate(76.37 260.37) rotate(-45)"/><circle class="cls-1" cx="544.48" cy="38" r="3" transform="translate(132.6 396.14) rotate(-45)"/><path class="cls-2" d="M28.34,144.93a15.79,15.79,0,1,0-22.34,0A15.78,15.78,0,0,0,28.34,144.93Z"/><path class="cls-3" d="M27,144.93a15.78,15.78,0,1,0-22.33,0A15.76,15.76,0,0,0,27,144.93Z"/><path class="cls-4" d="M15.79,148.34A14.38,14.38,0,1,1,26,123.8a14.38,14.38,0,0,1-10.18,24.54Zm0-27.89A13.52,13.52,0,1,0,29.32,134,13.54,13.54,0,0,0,15.79,120.45Z"/><path class="cls-4" d="M17.78,138.14a2.55,2.55,0,0,0,0-.84,1.74,1.74,0,0,0-.35-.69,2.93,2.93,0,0,0-.71-.62,8.62,8.62,0,0,0-1.09-.62,19.71,19.71,0,0,1-2-1.11A6.8,6.8,0,0,1,12.05,133a4,4,0,0,1-1-3.41,4.16,4.16,0,0,1,.54-1.68,3.84,3.84,0,0,1,1.11-1.23,4.84,4.84,0,0,1,1.6-.76,6.63,6.63,0,0,1,2-.23l.28-2.37,1.91.22L18.15,126a5.85,5.85,0,0,1,1.8.76,4.64,4.64,0,0,1,1.3,1.23,4.72,4.72,0,0,1,.71,1.65,6,6,0,0,1,.08,2l-3.45-.41a2.91,2.91,0,0,0-.35-2.06,2,2,0,0,0-1.5-.84,2.45,2.45,0,0,0-.95,0,1.6,1.6,0,0,0-.68.33,1.59,1.59,0,0,0-.45.57,3,3,0,0,0-.21.75,2.06,2.06,0,0,0,0,.75,1.56,1.56,0,0,0,.33.67,3.26,3.26,0,0,0,.72.62,11.41,11.41,0,0,0,1.13.66c.74.38,1.41.76,2,1.13a7.31,7.31,0,0,1,1.51,1.24,4.22,4.22,0,0,1,.89,1.51,4.72,4.72,0,0,1-.39,3.61,4,4,0,0,1-1.12,1.23,5.05,5.05,0,0,1-1.61.73,7.1,7.1,0,0,1-2,.21l-.26,2.2-1.9-.22.26-2.2a7.63,7.63,0,0,1-1.86-.66,5,5,0,0,1-1.53-1.15,4.48,4.48,0,0,1-1-1.71,5.66,5.66,0,0,1-.16-2.33l3.45.41a3.33,3.33,0,0,0,.07,1.33,2.2,2.2,0,0,0,.49.92,2.06,2.06,0,0,0,.79.54,3.82,3.82,0,0,0,.94.24,3.26,3.26,0,0,0,1,0,1.93,1.93,0,0,0,.76-.31,1.64,1.64,0,0,0,.5-.55A2.22,2.22,0,0,0,17.78,138.14Z"/><circle class="cls-1" cx="16.48" cy="109" r="3" transform="translate(-72.25 43.58) rotate(-45)"/><circle class="cls-1" cx="16.48" cy="50" r="3" transform="translate(-30.53 26.3) rotate(-45)"/><circle class="cls-1" cx="16.48" cy="61" r="3" transform="translate(-38.31 29.52) rotate(-45)"/><circle class="cls-1" cx="16.48" cy="73" r="3" transform="translate(-46.79 33.03) rotate(-45)"/><circle class="cls-1" cx="16.48" cy="85" r="3" transform="translate(-55.28 36.55) rotate(-45)"/><circle class="cls-1" cx="16.48" cy="97" r="3" transform="translate(-63.76 40.06) rotate(-45)"/><circle class="cls-1" cx="580.48" cy="3" r="3" transform="translate(167.9 411.34) rotate(-45)"/><circle class="cls-1" cx="580.48" cy="14" r="3" transform="translate(160.12 414.56) rotate(-45)"/><circle class="cls-1" cx="580.48" cy="26" r="3" transform="translate(151.63 418.08) rotate(-45)"/></g></g></svg>