<svg xmlns="http://www.w3.org/2000/svg" viewBox="0 0 881.54 234.32"><defs><style>.cls-1,.cls-4{fill:#ffb93e;}.cls-1{fill-rule:evenodd;}.cls-2{fill:#144ef4;}.cls-3{fill:#e2810e;}.cls-5{fill:#ffa412;}</style></defs><title>pacman</title><g id="Слой_2" data-name="Слой 2"><g id="Слой_1-2" data-name="Слой 1"><path class="cls-1" d="M125.45,46.42,63.88,64.67l58,26.28-.11.23A65.69,65.69,0,0,1,91,122.91a63.39,63.39,0,0,1-43.46,4.59A62.69,62.69,0,0,1,11.7,102.81,64.62,64.62,0,0,1,.22,60.35,66.08,66.08,0,0,1,18.43,19.93,64.63,64.63,0,0,1,57.85.39a62.6,62.6,0,0,1,42.23,10.46A63.4,63.4,0,0,1,125.45,46.42ZM82,41a8.78,8.78,0,1,1-4.26-11.8A8.87,8.87,0,0,1,82,41Z"/><circle class="cls-2" cx="121.41" cy="67.56" r="3" transform="translate(-12.21 105.64) rotate(-45)"/><circle class="cls-2" cx="313.41" cy="67.56" r="3" transform="translate(44.02 241.41) rotate(-45)"/><circle class="cls-2" cx="505.41" cy="67.56" r="3" transform="translate(100.26 377.17) rotate(-45)"/><circle class="cls-2" cx="217.41" cy="67.56" r="3" transform="translate(15.9 173.52) rotate(-45)"/><circle class="cls-2" cx="409.41" cy="67.56" r="3" transform="translate(72.14 309.29) rotate(-45)"/><circle class="cls-2" cx="601.41" cy="67.56" r="3" transform="translate(128.37 445.05) rotate(-45)"/><circle class="cls-2" cx="169.41" cy="67.56" r="3" transform="translate(1.84 139.58) rotate(-45)"/><circle class="cls-2" cx="361.41" cy="67.56" r="3" transform="translate(58.08 275.35) rotate(-45)"/><circle class="cls-2" cx="553.41" cy="67.56" r="3" transform="translate(114.32 411.11) rotate(-45)"/><circle class="cls-2" cx="265.41" cy="67.56" r="3" transform="translate(29.96 207.46) rotate(-45)"/><circle class="cls-2" cx="457.41" cy="67.56" r="3" transform="translate(86.2 343.23) rotate(-45)"/><circle class="cls-2" cx="649.41" cy="67.56" r="3" transform="translate(142.43 478.99) rotate(-45)"/><circle class="cls-2" cx="133.41" cy="67.56" r="3" transform="translate(-8.7 114.13) rotate(-45)"/><circle class="cls-2" cx="325.41" cy="67.56" r="3" transform="translate(47.54 249.89) rotate(-45)"/><circle class="cls-2" cx="517.41" cy="67.56" r="3" transform="translate(103.77 385.66) rotate(-45)"/><circle class="cls-2" cx="229.41" cy="67.56" r="3" transform="translate(19.42 182.01) rotate(-45)"/><circle class="cls-2" cx="421.41" cy="67.56" r="3" transform="translate(75.65 317.77) rotate(-45)"/><circle class="cls-2" cx="613.41" cy="67.56" r="3" transform="translate(131.89 453.54) rotate(-45)"/><circle class="cls-2" cx="181.41" cy="67.56" r="3" transform="translate(5.36 148.07) rotate(-45)"/><circle class="cls-2" cx="373.41" cy="67.56" r="3" transform="translate(61.6 283.83) rotate(-45)"/><circle class="cls-2" cx="565.41" cy="67.56" r="3" transform="translate(117.83 419.6) rotate(-45)"/><circle class="cls-2" cx="277.41" cy="67.56" r="3" transform="translate(33.48 215.95) rotate(-45)"/><circle class="cls-2" cx="469.41" cy="67.56" r="3" transform="translate(89.71 351.71) rotate(-45)"/><circle class="cls-2" cx="661.41" cy="67.56" r="3" transform="translate(145.95 487.48) rotate(-45)"/><circle class="cls-2" cx="145.41" cy="67.56" r="3" transform="translate(-5.18 122.61) rotate(-45)"/><circle class="cls-2" cx="337.41" cy="67.56" r="3" transform="translate(51.05 258.38) rotate(-45)"/><circle class="cls-2" cx="529.41" cy="67.56" r="3" transform="translate(107.29 394.14) rotate(-45)"/><circle class="cls-2" cx="241.41" cy="67.56" r="3" transform="translate(22.93 190.49) rotate(-45)"/><circle class="cls-2" cx="433.41" cy="67.56" r="3" transform="translate(79.17 326.26) rotate(-45)"/><circle class="cls-2" cx="625.41" cy="67.56" r="3" transform="translate(135.4 462.02) rotate(-45)"/><circle class="cls-2" cx="193.41" cy="67.56" r="3" transform="translate(8.87 156.55) rotate(-45)"/><circle class="cls-2" cx="385.41" cy="67.56" r="3" transform="translate(65.11 292.32) rotate(-45)"/><circle class="cls-2" cx="577.41" cy="67.56" r="3" transform="translate(121.35 428.08) rotate(-45)"/><circle class="cls-2" cx="289.41" cy="67.56" r="3" transform="translate(36.99 224.44) rotate(-45)"/><circle class="cls-2" cx="481.41" cy="67.56" r="3" transform="translate(93.23 360.2) rotate(-45)"/><circle class="cls-2" cx="673.41" cy="67.56" r="3" transform="translate(149.46 495.96) rotate(-45)"/><circle class="cls-2" cx="109.41" cy="67.56" r="3" transform="translate(-15.73 97.16) rotate(-45)"/><circle class="cls-2" cx="301.41" cy="67.56" r="3" transform="translate(40.51 232.92) rotate(-45)"/><circle class="cls-2" cx="493.41" cy="67.56" r="3" transform="translate(96.74 368.68) rotate(-45)"/><circle class="cls-2" cx="205.41" cy="67.56" r="3" transform="translate(12.39 165.04) rotate(-45)"/><circle class="cls-2" cx="397.41" cy="67.56" r="3" transform="translate(68.62 300.8) rotate(-45)"/><circle class="cls-2" cx="589.41" cy="67.56" r="3" transform="translate(124.86 436.57) rotate(-45)"/><circle class="cls-2" cx="157.41" cy="67.56" r="3" transform="translate(-1.67 131.1) rotate(-45)"/><circle class="cls-2" cx="349.41" cy="67.56" r="3" transform="translate(54.57 266.86) rotate(-45)"/><circle class="cls-2" cx="541.41" cy="67.56" r="3" transform="translate(110.8 402.63) rotate(-45)"/><circle class="cls-2" cx="253.41" cy="67.56" r="3" transform="translate(26.45 198.98) rotate(-45)"/><circle class="cls-2" cx="445.41" cy="67.56" r="3" transform="translate(82.68 334.74) rotate(-45)"/><circle class="cls-2" cx="637.41" cy="67.56" r="3" transform="translate(138.92 470.51) rotate(-45)"/><circle class="cls-2" cx="697.41" cy="67.56" r="3" transform="translate(156.49 512.93) rotate(-45)"/><circle class="cls-2" cx="865.41" cy="80.56" r="3" transform="translate(196.51 635.54) rotate(-45)"/><circle class="cls-2" cx="793.41" cy="67.56" r="3" transform="translate(184.61 580.82) rotate(-45)"/><circle class="cls-2" cx="867.02" cy="176.55" r="3" transform="translate(129.1 664.78) rotate(-45)"/><circle class="cls-2" cx="745.41" cy="67.56" r="3" transform="translate(170.55 546.88) rotate(-45)"/><circle class="cls-2" cx="841.41" cy="67.56" r="3" transform="translate(198.67 614.76) rotate(-45)"/><circle class="cls-2" cx="866.22" cy="128.56" r="3" transform="translate(162.8 650.16) rotate(-45)"/><circle class="cls-2" cx="709.41" cy="67.56" r="3" transform="translate(160.01 521.42) rotate(-45)"/><circle class="cls-2" cx="805.41" cy="67.56" r="3" transform="translate(188.13 589.3) rotate(-45)"/><circle class="cls-2" cx="866.82" cy="164.55" r="3" transform="translate(137.53 661.13) rotate(-45)"/><circle class="cls-2" cx="757.41" cy="67.56" r="3" transform="translate(174.07 555.36) rotate(-45)"/><circle class="cls-2" cx="853.41" cy="67.56" r="3" transform="translate(202.18 623.24) rotate(-45)"/><circle class="cls-2" cx="866.02" cy="116.56" r="3" transform="translate(171.23 646.5) rotate(-45)"/><circle class="cls-2" cx="721.41" cy="67.56" r="3" transform="translate(163.52 529.91) rotate(-45)"/><circle class="cls-2" cx="817.41" cy="67.56" r="3" transform="translate(191.64 597.79) rotate(-45)"/><circle class="cls-2" cx="866.62" cy="152.55" r="3" transform="translate(145.95 657.47) rotate(-45)"/><circle class="cls-2" cx="769.41" cy="67.56" r="3" transform="translate(177.58 563.85) rotate(-45)"/><circle class="cls-2" cx="865.41" cy="67.56" r="3" transform="translate(205.7 631.73) rotate(-45)"/><circle class="cls-2" cx="865.82" cy="104.56" r="3" transform="translate(179.65 642.85) rotate(-45)"/><circle class="cls-2" cx="685.41" cy="67.56" r="3" transform="translate(152.98 504.45) rotate(-45)"/><circle class="cls-2" cx="865.61" cy="92.56" r="3" transform="translate(188.08 639.19) rotate(-45)"/><circle class="cls-2" cx="781.41" cy="67.56" r="3" transform="translate(181.1 572.33) rotate(-45)"/><circle class="cls-2" cx="867.22" cy="188.55" r="3" transform="translate(120.68 668.44) rotate(-45)"/><circle class="cls-2" cx="733.41" cy="67.56" r="3" transform="translate(167.04 538.39) rotate(-45)"/><circle class="cls-2" cx="829.41" cy="67.56" r="3" transform="translate(195.15 606.27) rotate(-45)"/><circle class="cls-2" cx="866.42" cy="140.56" r="3" transform="translate(154.38 653.82) rotate(-45)"/><path class="cls-3" d="M876.92,229.7a15.79,15.79,0,1,0-22.34,0A15.78,15.78,0,0,0,876.92,229.7Z"/><path class="cls-4" d="M875.54,229.7a15.79,15.79,0,1,0-22.34,0A15.78,15.78,0,0,0,875.54,229.7Z"/><path class="cls-5" d="M864.37,233.1a14.37,14.37,0,1,1,10.18-4.21A14.26,14.26,0,0,1,864.37,233.1Zm0-27.89a13.52,13.52,0,1,0,13.53,13.52A13.54,13.54,0,0,0,864.37,205.21Z"/><path class="cls-5" d="M866.35,222.9a2.26,2.26,0,0,0,0-.83,1.74,1.74,0,0,0-.36-.7,3.35,3.35,0,0,0-.7-.62,8.88,8.88,0,0,0-1.1-.61c-.74-.37-1.42-.74-2-1.11a7,7,0,0,1-1.51-1.23,4.1,4.1,0,0,1-.89-1.5,4.36,4.36,0,0,1-.16-1.91,4.49,4.49,0,0,1,.54-1.68,4.15,4.15,0,0,1,1.12-1.24,5.32,5.32,0,0,1,1.59-.76,7,7,0,0,1,2-.23l.28-2.36,1.91.22-.29,2.4a6,6,0,0,1,1.8.77,4.74,4.74,0,0,1,1.29,1.23,4.56,4.56,0,0,1,.72,1.65,5.91,5.91,0,0,1,.08,2l-3.45-.4a2.9,2.9,0,0,0-.35-2.06,2.06,2.06,0,0,0-1.51-.85,2.62,2.62,0,0,0-.94,0,1.72,1.72,0,0,0-.69.34,1.68,1.68,0,0,0-.44.57,2.18,2.18,0,0,0-.21.75,2.32,2.32,0,0,0,0,.75,1.85,1.85,0,0,0,.34.67,3.46,3.46,0,0,0,.71.62q.46.3,1.14.66c.74.38,1.41.75,2,1.13a7.31,7.31,0,0,1,1.51,1.24,4.42,4.42,0,0,1,.89,1.5,4.79,4.79,0,0,1-.4,3.62,3.74,3.74,0,0,1-1.12,1.22,4.7,4.7,0,0,1-1.6.73,7.48,7.48,0,0,1-2,.22l-.27,2.2-1.89-.23.26-2.19a7.7,7.7,0,0,1-1.87-.66,5.09,5.09,0,0,1-1.52-1.15,4.48,4.48,0,0,1-1-1.71,5.69,5.69,0,0,1-.16-2.34l3.45.41a3.6,3.6,0,0,0,.06,1.34,2.17,2.17,0,0,0,.5.91,2.26,2.26,0,0,0,.78.55,3.9,3.9,0,0,0,1,.24,3.27,3.27,0,0,0,1,0,2,2,0,0,0,.76-.32,1.55,1.55,0,0,0,.5-.55A2,2,0,0,0,866.35,222.9Z"/></g></g></svg>