<svg width="488" height="428" viewBox="0 0 488 428" fill="none" xmlns="http://www.w3.org/2000/svg">
<path d="M168.12 425.869L2.71848 337.684C-0.906128 335.752 -0.906128 332.623 2.71848 330.692L306.755 169.294C308.789 168.342 311.037 167.846 313.318 167.846C315.598 167.846 317.846 168.342 319.88 169.294L485.282 257.43C488.906 259.41 488.906 262.5 485.282 264.431L181.235 425.85C179.204 426.804 176.958 427.304 174.68 427.307C172.401 427.311 170.154 426.818 168.12 425.869Z" fill="#E0E0E0"/>
<path d="M17.2365 310.667C14.9524 312.301 15.199 314.628 17.9657 316.084L169.373 396.813C171.08 397.609 172.966 398.023 174.879 398.023C176.792 398.023 178.678 397.609 180.386 396.813L469.731 242.535C472.54 241.039 472.765 238.692 470.385 237.068C471.8 238.058 472.966 239.319 473.801 240.766C474.636 242.213 475.121 243.81 475.221 245.446V252.17C475.122 253.937 474.571 255.657 473.613 257.189C472.655 258.721 471.317 260.022 469.709 260.984L180.407 415.282C178.699 416.083 176.811 416.501 174.895 416.501C172.98 416.501 171.091 416.083 169.383 415.282L17.9764 334.573C16.3726 333.61 15.0382 332.311 14.0821 330.78C13.126 329.25 12.5754 327.533 12.4752 325.769V319.035C12.5724 317.407 13.0479 315.816 13.8694 314.372C14.6909 312.929 15.8393 311.665 17.2365 310.667Z" fill="#455A64"/>
<path d="M17.9638 310.221L307.319 155.943C309.028 155.15 310.914 154.736 312.826 154.736C314.738 154.736 316.624 155.15 318.332 155.943L469.729 236.672C472.774 238.286 472.774 240.92 469.729 242.534L180.384 396.813C178.676 397.608 176.79 398.023 174.877 398.023C172.964 398.023 171.078 397.608 169.371 396.813L17.9638 316.084C14.929 314.47 14.929 311.796 17.9638 310.221Z" fill="#37474F"/>
<path d="M470.385 237.068C471.8 238.058 472.966 239.319 473.801 240.766C474.636 242.213 475.121 243.81 475.221 245.446V252.17C475.121 253.937 474.569 255.656 473.611 257.188C472.653 258.72 471.316 260.021 469.709 260.984L180.407 415.282C178.709 416.115 176.808 416.535 174.885 416.5V398.021C176.803 398.055 178.699 397.64 180.397 396.813L469.731 242.535C472.54 241.039 472.765 238.692 470.385 237.068Z" fill="#263238"/>
<path d="M395.717 210.411C394.172 209.589 394.172 208.253 395.717 207.44C396.583 207.03 397.542 206.816 398.515 206.816C399.489 206.816 400.448 207.03 401.314 207.44C402.869 208.262 402.869 209.599 401.314 210.411C400.447 210.817 399.488 211.028 398.515 211.028C397.543 211.028 396.584 210.817 395.717 210.411Z" fill="#F9FDFF"/>
<path d="M388.145 205.895L366.537 194.378C365.239 193.695 365.175 192.606 366.387 191.962C367.095 191.648 367.874 191.491 368.659 191.505C369.445 191.518 370.217 191.702 370.912 192.041L392.52 203.568C393.807 204.251 393.871 205.331 392.67 205.974C391.962 206.291 391.184 206.449 390.397 206.435C389.611 206.421 388.839 206.236 388.145 205.895Z" fill="#F9FDFF"/>
<path d="M297.518 168.321C300.113 166.934 302.88 167.736 305.432 169.133L446.984 244.534C449.59 245.92 449.601 248.168 446.984 249.564L190.164 386.522C188.699 387.206 187.081 387.563 185.44 387.563C183.799 387.563 182.181 387.206 180.716 386.522L39.1646 311.111C36.548 309.725 36.5587 307.467 39.1646 306.081L297.518 168.321Z" fill="#144EF4"/>
<path opacity="0.96" d="M297.518 168.321C300.113 166.934 302.88 167.736 305.432 169.133L446.984 244.534C449.59 245.92 449.601 248.168 446.984 249.564L190.164 386.522C188.699 387.206 187.081 387.563 185.44 387.563C183.799 387.563 182.181 387.206 180.716 386.522L39.1646 311.111C36.548 309.725 36.5587 307.467 39.1646 306.081L297.518 168.321Z" fill="white"/>
<g opacity="0.4">
<path opacity="0.4" d="M185.407 384.306L132.068 355.885L141.022 353.498C155.049 349.762 169.749 348.677 184.241 350.309C198.733 351.941 212.719 356.256 225.363 362.995L185.407 384.306Z" fill="#144EF4"/>
<path opacity="0.4" d="M122.898 350.983L43.2536 308.519L96.5608 280.107L128.013 349.626L122.898 350.983Z" fill="#144EF4"/>
<path opacity="0.4" d="M105.44 275.362L136.538 347.347C154.919 341.96 171.412 341.138 190.296 344.138L160.27 275.867L116.646 269.391L105.44 275.362Z" fill="#144EF4"/>
<path opacity="0.4" d="M204.055 346.902L193.159 322.144L277.801 312.875L292.01 327.472L233.03 358.924C223.986 353.756 214.244 349.714 204.055 346.902Z" fill="#144EF4"/>
<path opacity="0.4" d="M149.695 251.795L123.207 265.887L158.177 271.106L149.695 251.795Z" fill="#144EF4"/>
<path opacity="0.4" d="M173.404 276.353L304.329 262.023C305.712 264.935 308.072 265.589 313.573 266.698L277.048 305.319L189.972 314.767L173.404 276.353Z" fill="#144EF4"/>
<path opacity="0.4" d="M235.611 239.87L245.263 261.409L304.714 254.893C306.145 253.536 307.89 252.496 309.819 251.852L301.658 232.641L235.611 239.87Z" fill="#144EF4"/>
<path opacity="0.4" d="M159.85 246.357L170.069 269.639L235.269 262.499L225.028 239.217L159.85 246.357Z" fill="#144EF4"/>
<path opacity="0.4" d="M172.076 239.832L280.073 182.256L298.775 225.958L172.076 239.832Z" fill="#144EF4"/>
<path opacity="0.4" d="M326.573 266.013L286.692 308.13L300.901 322.688L377.993 281.591L330.455 264.359C329.237 265.051 327.934 265.606 326.573 266.013Z" fill="#144EF4"/>
<path opacity="0.4" d="M307.557 224.997L287.568 178.255L300.898 171.154L385.808 216.421L307.557 224.997Z" fill="#144EF4"/>
<path opacity="0.4" d="M397.175 222.375L443.051 246.944L385.304 277.733L334.367 259.194C334.474 256.936 333.294 254.768 329.563 252.747C326.496 251.113 322.667 250.499 318.432 250.41L310.485 231.684L397.175 222.375Z" fill="#144EF4"/>
</g>
<path d="M294.327 223.401V208.734L269.802 211.418V226.074L294.327 223.401Z" fill="#144EF4"/>
<path d="M269.804 211.417L264.753 198.355V214.527L269.804 226.074V211.417Z" fill="#144EF4"/>
<path d="M264.751 198.357L288.75 195.684L294.327 208.736L269.802 211.419L264.751 198.357Z" fill="#144EF4"/>
<path opacity="0.8" d="M294.327 223.401V208.734L269.802 211.418V226.074L294.327 223.401Z" fill="white"/>
<path opacity="0.75" d="M269.804 211.417L264.753 198.355V214.527L269.804 226.074V211.417Z" fill="white"/>
<path opacity="0.9" d="M264.751 198.357L288.75 195.684L294.327 208.736L269.802 211.419L264.751 198.357Z" fill="white"/>
<path d="M278.252 254.712V248.146L253.716 250.82V257.396L278.252 254.712Z" fill="#144EF4"/>
<path d="M253.717 250.821L249.342 239.502V247.583L253.717 257.397V250.821Z" fill="#144EF4"/>
<path d="M249.341 239.502L273.351 236.828L278.252 248.147L253.716 250.821L249.341 239.502Z" fill="#144EF4"/>
<path opacity="0.8" d="M278.252 254.712V248.146L253.716 250.82V257.396L278.252 254.712Z" fill="white"/>
<path opacity="0.75" d="M253.717 250.821L249.342 239.502V247.583L253.717 257.397V250.821Z" fill="white"/>
<path opacity="0.9" d="M249.341 239.502L273.351 236.828L278.252 248.147L253.716 250.821L249.341 239.502Z" fill="white"/>
<path d="M231.016 341.178V326.521L206.491 329.195V343.862L231.016 341.178Z" fill="#144EF4"/>
<path d="M206.487 329.195L201.426 316.143V332.314L206.487 343.861V329.195Z" fill="#144EF4"/>
<path d="M201.429 316.145L225.429 313.471L231.016 326.523L206.491 329.197L201.429 316.145Z" fill="#144EF4"/>
<path opacity="0.8" d="M231.016 341.178V326.521L206.491 329.195V343.862L231.016 341.178Z" fill="white"/>
<path opacity="0.75" d="M206.487 329.195L201.426 316.143V332.314L206.487 343.861V329.195Z" fill="white"/>
<path opacity="0.9" d="M201.429 316.145L225.429 313.471L231.016 326.523L206.491 329.197L201.429 316.145Z" fill="white"/>
<path d="M231.432 229.999V224.602L219.014 225.958V231.355L231.432 229.999Z" fill="#144EF4"/>
<path d="M219.013 225.955L216.461 219.34V225.509L219.013 231.352V225.955Z" fill="#144EF4"/>
<path d="M216.462 219.339L228.612 217.992L231.432 224.597L219.014 225.954L216.462 219.339Z" fill="#144EF4"/>
<path opacity="0.8" d="M231.432 229.999V224.602L219.014 225.958V231.355L231.432 229.999Z" fill="white"/>
<path opacity="0.75" d="M219.013 225.955L216.461 219.34V225.509L219.013 231.352V225.955Z" fill="white"/>
<path opacity="0.9" d="M216.462 219.339L228.612 217.992L231.432 224.597L219.014 225.954L216.462 219.339Z" fill="white"/>
<path d="M321.919 204.529V196.666L303.861 198.637V206.5L321.919 204.529Z" fill="#144EF4"/>
<path d="M303.861 198.633L300.14 189.027V197.999L303.861 206.496V198.633Z" fill="#144EF4"/>
<path d="M300.14 189.025L317.812 187.055L321.919 196.661L303.861 198.631L300.14 189.025Z" fill="#144EF4"/>
<path opacity="0.8" d="M321.919 204.529V196.666L303.861 198.637V206.5L321.919 204.529Z" fill="white"/>
<path opacity="0.75" d="M303.861 198.633L300.14 189.027V197.999L303.861 206.496V198.633Z" fill="white"/>
<path opacity="0.9" d="M300.14 189.025L317.812 187.055L321.919 196.661L303.861 198.631L300.14 189.025Z" fill="white"/>
<path d="M229.276 260.597V253.596L213.169 255.349V262.36L229.276 260.597Z" fill="#144EF4"/>
<path d="M213.17 255.349L209.856 246.783V254.785L213.17 262.361V255.349Z" fill="#144EF4"/>
<path d="M209.855 246.784L225.608 245.031L229.276 253.597L213.169 255.35L209.855 246.784Z" fill="#144EF4"/>
<path opacity="0.8" d="M229.276 260.597V253.596L213.169 255.349V262.36L229.276 260.597Z" fill="white"/>
<path opacity="0.75" d="M213.17 255.349L209.856 246.783V254.785L213.17 262.361V255.349Z" fill="white"/>
<path opacity="0.9" d="M209.855 246.784L225.608 245.031L229.276 253.597L213.169 255.35L209.855 246.784Z" fill="white"/>
<path d="M302.328 252.241V245.031L285.76 246.834V254.053L302.328 252.241Z" fill="#144EF4"/>
<path d="M285.757 246.833L282.347 238.02V246.249L285.757 254.052V246.833Z" fill="#144EF4"/>
<path d="M282.35 238.019L298.553 236.217L302.328 245.03L285.76 246.833L282.35 238.019Z" fill="#144EF4"/>
<path opacity="0.8" d="M302.328 252.241V245.031L285.76 246.834V254.053L302.328 252.241Z" fill="white"/>
<path opacity="0.75" d="M285.757 246.833L282.347 238.02V246.249L285.757 254.052V246.833Z" fill="white"/>
<path opacity="0.9" d="M282.35 238.019L298.553 236.217L302.328 245.03L285.76 246.833L282.35 238.019Z" fill="white"/>
<path d="M208.44 262.816V255.805L192.334 257.567V264.579L208.44 262.816Z" fill="#144EF4"/>
<path d="M192.336 257.57L189.022 249.004V256.996L192.336 264.581V257.57Z" fill="#144EF4"/>
<path d="M189.02 248.999L204.773 247.236L208.44 255.802L192.334 257.565L189.02 248.999Z" fill="#144EF4"/>
<path opacity="0.8" d="M208.44 262.816V255.805L192.334 257.567V264.579L208.44 262.816Z" fill="white"/>
<path opacity="0.75" d="M192.336 257.57L189.022 249.004V256.996L192.336 264.581V257.57Z" fill="white"/>
<path opacity="0.9" d="M189.02 248.999L204.773 247.236L208.44 255.802L192.334 257.565L189.02 248.999Z" fill="white"/>
<path d="M187.606 265.035V258.023L171.51 259.786V266.788L187.606 265.035Z" fill="#144EF4"/>
<path d="M171.51 259.787L168.185 251.211V259.213L171.51 266.788V259.787Z" fill="#144EF4"/>
<path d="M168.185 251.21L183.938 249.457L187.606 258.023L171.51 259.786L168.185 251.21Z" fill="#144EF4"/>
<path opacity="0.8" d="M187.606 265.035V258.023L171.51 259.786V266.788L187.606 265.035Z" fill="white"/>
<path opacity="0.75" d="M171.51 259.787L168.185 251.211V259.213L171.51 266.788V259.787Z" fill="white"/>
<path opacity="0.9" d="M168.185 251.21L183.938 249.457L187.606 258.023L171.51 259.786L168.185 251.21Z" fill="white"/>
<path d="M380.309 241.652V234.641L364.202 236.403V243.415L380.309 241.652Z" fill="#144EF4"/>
<path d="M364.203 236.402L360.889 227.836V235.828L364.203 243.413V236.402Z" fill="#144EF4"/>
<path d="M360.888 227.839L376.641 226.076L380.309 234.642L364.202 236.405L360.888 227.839Z" fill="#144EF4"/>
<path opacity="0.8" d="M380.309 241.652V234.641L364.202 236.403V243.415L380.309 241.652Z" fill="white"/>
<path opacity="0.75" d="M364.203 236.402L360.889 227.836V235.828L364.203 243.413V236.402Z" fill="white"/>
<path opacity="0.9" d="M360.888 227.839L376.641 226.076L380.309 234.642L364.202 236.405L360.888 227.839Z" fill="white"/>
<path d="M359.474 243.871V236.859L343.367 238.622V245.624L359.474 243.871Z" fill="#144EF4"/>
<path d="M343.366 238.623L340.053 230.047V238.048L343.366 245.624V238.623Z" fill="#144EF4"/>
<path d="M340.053 230.046L355.806 228.293L359.474 236.859L343.367 238.622L340.053 230.046Z" fill="#144EF4"/>
<path opacity="0.8" d="M359.474 243.871V236.859L343.367 238.622V245.624L359.474 243.871Z" fill="white"/>
<path opacity="0.75" d="M343.366 238.623L340.053 230.047V238.048L343.366 245.624V238.623Z" fill="white"/>
<path opacity="0.9" d="M340.053 230.046L355.806 228.293L359.474 236.859L343.367 238.622L340.053 230.046Z" fill="white"/>
<path d="M338.639 246.078V239.076L322.542 240.839V247.84L338.639 246.078Z" fill="#144EF4"/>
<path d="M322.541 240.842L319.217 232.266V240.267L322.541 247.843V240.842Z" fill="#144EF4"/>
<path d="M319.218 232.266L334.982 230.514L338.639 239.08L322.543 240.842L319.218 232.266Z" fill="#144EF4"/>
<path opacity="0.8" d="M338.639 246.078V239.076L322.542 240.839V247.84L338.639 246.078Z" fill="white"/>
<path opacity="0.75" d="M322.541 240.842L319.217 232.266V240.267L322.541 247.843V240.842Z" fill="white"/>
<path opacity="0.9" d="M319.218 232.266L334.982 230.514L338.639 239.08L322.543 240.842L319.218 232.266Z" fill="white"/>
<path d="M130.729 219.163V214.994L117.077 216.48V220.649L130.729 219.163Z" fill="#144EF4"/>
<path opacity="0.8" d="M130.729 219.163V214.994L117.077 216.48V220.649L130.729 219.163Z" fill="white"/>
<path d="M117.077 216.477L115.082 211.07V216.141L117.077 220.646V216.477Z" fill="#144EF4"/>
<path opacity="0.75" d="M117.077 216.477L115.082 211.07V216.141L117.077 220.646V216.477Z" fill="white"/>
<path d="M115.083 211.071L128.423 209.596L130.729 214.993L117.077 216.478L115.083 211.071Z" fill="#144EF4"/>
<path opacity="0.9" d="M115.083 211.071L128.423 209.596L130.729 214.993L117.077 216.478L115.083 211.071Z" fill="white"/>
<path d="M227.519 307.365V300.354L211.412 302.116V309.128L227.519 307.365Z" fill="#144EF4"/>
<path d="M211.412 302.119L208.099 293.543V301.545L211.412 309.13V302.119Z" fill="#144EF4"/>
<path d="M208.098 293.544L223.851 291.791L227.519 300.357L211.412 302.12L208.098 293.544Z" fill="#144EF4"/>
<path opacity="0.8" d="M227.519 307.365V300.354L211.412 302.116V309.128L227.519 307.365Z" fill="white"/>
<path opacity="0.75" d="M211.412 302.119L208.099 293.543V301.545L211.412 309.13V302.119Z" fill="white"/>
<path opacity="0.9" d="M208.098 293.544L223.851 291.791L227.519 300.357L211.412 302.12L208.098 293.544Z" fill="white"/>
<path d="M207.424 309.58V302.578L191.317 304.331V311.342L207.424 309.58Z" fill="#144EF4"/>
<path d="M191.314 304.328L187.99 295.762V303.753L191.314 311.339V304.328Z" fill="#144EF4"/>
<path d="M187.993 295.763L203.756 294.01L207.424 302.576L191.317 304.329L187.993 295.763Z" fill="#144EF4"/>
<path opacity="0.8" d="M207.424 309.58V302.578L191.317 304.331V311.342L207.424 309.58Z" fill="white"/>
<path opacity="0.75" d="M191.314 304.328L187.99 295.762V303.753L191.314 311.339V304.328Z" fill="white"/>
<path opacity="0.9" d="M187.993 295.763L203.756 294.01L207.424 302.576L191.317 304.329L187.993 295.763Z" fill="white"/>
<path d="M278.391 330.849V323.848L262.284 325.6V332.612L278.391 330.849Z" fill="#144EF4"/>
<path d="M262.284 325.597L258.97 317.031V325.033L262.284 332.609V325.597Z" fill="#144EF4"/>
<path d="M258.971 317.036L274.724 315.273L278.391 323.849L262.284 325.602L258.971 317.036Z" fill="#144EF4"/>
<path opacity="0.8" d="M278.391 330.849V323.848L262.284 325.6V332.612L278.391 330.849Z" fill="white"/>
<path opacity="0.75" d="M262.284 325.597L258.97 317.031V325.033L262.284 332.609V325.597Z" fill="white"/>
<path opacity="0.9" d="M258.971 317.036L274.724 315.273L278.391 323.849L262.284 325.602L258.971 317.036Z" fill="white"/>
<path d="M258.296 333.066V326.055L242.189 327.817V334.819L258.296 333.066Z" fill="#144EF4"/>
<path d="M242.19 327.82L238.866 319.244V327.246L242.19 334.822V327.82Z" fill="#144EF4"/>
<path d="M238.865 319.241L254.629 317.488L258.296 326.054L242.189 327.817L238.865 319.241Z" fill="#144EF4"/>
<path opacity="0.8" d="M258.296 333.066V326.055L242.189 327.817V334.819L258.296 333.066Z" fill="white"/>
<path opacity="0.75" d="M242.19 327.82L238.866 319.244V327.246L242.19 334.822V327.82Z" fill="white"/>
<path opacity="0.9" d="M238.865 319.241L254.629 317.488L258.296 326.054L242.189 327.817L238.865 319.241Z" fill="white"/>
<path d="M136.088 297.584V290.572L119.992 292.335V299.336L136.088 297.584Z" fill="#144EF4"/>
<path d="M119.992 292.338L116.668 283.762V291.763L119.992 299.339V292.338Z" fill="#144EF4"/>
<path d="M116.668 283.759L132.432 282.006L136.088 290.572L119.992 292.335L116.668 283.759Z" fill="#144EF4"/>
<path opacity="0.8" d="M136.088 297.584V290.572L119.992 292.335V299.336L136.088 297.584Z" fill="white"/>
<path opacity="0.75" d="M119.992 292.338L116.668 283.762V291.763L119.992 299.339V292.338Z" fill="white"/>
<path opacity="0.9" d="M116.668 283.759L132.432 282.006L136.088 290.572L119.992 292.335L116.668 283.759Z" fill="white"/>
<path d="M142.405 312.023V305.012L126.309 306.774V313.786L142.405 312.023Z" fill="#144EF4"/>
<path d="M126.311 306.773L122.986 298.197V306.199L126.311 313.785V306.773Z" fill="#144EF4"/>
<path d="M122.985 298.2L138.749 296.447L142.405 305.013L126.309 306.776L122.985 298.2Z" fill="#144EF4"/>
<path opacity="0.8" d="M142.405 312.023V305.012L126.309 306.774V313.786L142.405 312.023Z" fill="white"/>
<path opacity="0.75" d="M126.311 306.773L122.986 298.197V306.199L126.311 313.785V306.773Z" fill="white"/>
<path opacity="0.9" d="M122.985 298.2L138.749 296.447L142.405 305.013L126.309 306.776L122.985 298.2Z" fill="white"/>
<path d="M148.732 326.461V319.449L132.625 321.212V328.223L148.732 326.461Z" fill="#144EF4"/>
<path d="M132.625 321.213L129.301 312.637V320.638L132.625 328.224V321.213Z" fill="#144EF4"/>
<path d="M129.301 312.636L145.064 310.883L148.732 319.449L132.625 321.212L129.301 312.636Z" fill="#144EF4"/>
<path opacity="0.8" d="M148.732 326.461V319.449L132.625 321.212V328.223L148.732 326.461Z" fill="white"/>
<path opacity="0.75" d="M132.625 321.213L129.301 312.637V320.638L132.625 328.224V321.213Z" fill="white"/>
<path opacity="0.9" d="M129.301 312.636L145.064 310.883L148.732 319.449L132.625 321.212L129.301 312.636Z" fill="white"/>
<path d="M155.049 340.9V333.898L138.942 335.651V342.663L155.049 340.9Z" fill="#144EF4"/>
<path d="M138.941 335.65L135.617 327.084V335.076L138.941 342.661V335.65Z" fill="#144EF4"/>
<path d="M135.618 327.085L151.381 325.322L155.049 333.898L138.942 335.651L135.618 327.085Z" fill="#144EF4"/>
<path opacity="0.8" d="M155.049 340.9V333.898L138.942 335.651V342.663L155.049 340.9Z" fill="white"/>
<path opacity="0.75" d="M138.941 335.65L135.617 327.084V335.076L138.941 342.661V335.65Z" fill="white"/>
<path opacity="0.9" d="M135.618 327.085L151.381 325.322L155.049 333.898L138.942 335.651L135.618 327.085Z" fill="white"/>
<path d="M163.434 294.644V287.643L147.327 289.395V296.407L163.434 294.644Z" fill="#144EF4"/>
<path d="M147.328 289.394L144.004 280.828V288.82L147.328 296.405V289.394Z" fill="#144EF4"/>
<path d="M144.002 280.827L159.766 279.064L163.434 287.64L147.327 289.393L144.002 280.827Z" fill="#144EF4"/>
<path opacity="0.8" d="M163.434 294.644V287.643L147.327 289.395V296.407L163.434 294.644Z" fill="white"/>
<path opacity="0.75" d="M147.328 289.394L144.004 280.828V288.82L147.328 296.405V289.394Z" fill="white"/>
<path opacity="0.9" d="M144.002 280.827L159.766 279.064L163.434 287.64L147.327 289.393L144.002 280.827Z" fill="white"/>
<path d="M169.75 309.081V302.08L153.644 303.833V310.844L169.75 309.081Z" fill="#144EF4"/>
<path d="M153.642 303.834L150.318 295.268V303.269L153.642 310.845V303.834Z" fill="#144EF4"/>
<path d="M150.319 295.266L166.083 293.514L169.75 302.08L153.644 303.833L150.319 295.266Z" fill="#144EF4"/>
<path opacity="0.8" d="M169.75 309.081V302.08L153.644 303.833V310.844L169.75 309.081Z" fill="white"/>
<path opacity="0.75" d="M153.642 303.834L150.318 295.268V303.269L153.642 310.845V303.834Z" fill="white"/>
<path opacity="0.9" d="M150.319 295.266L166.083 293.514L169.75 302.08L153.644 303.833L150.319 295.266Z" fill="white"/>
<path d="M176.066 323.531V316.52L159.96 318.282V325.284L176.066 323.531Z" fill="#144EF4"/>
<path d="M159.958 318.281L156.634 309.705V317.707L159.958 325.282V318.281Z" fill="#144EF4"/>
<path d="M156.635 309.706L172.399 307.953L176.066 316.519L159.96 318.282L156.635 309.706Z" fill="#144EF4"/>
<path opacity="0.8" d="M176.066 323.531V316.52L159.96 318.282V325.284L176.066 323.531Z" fill="white"/>
<path opacity="0.75" d="M159.958 318.281L156.634 309.705V317.707L159.958 325.282V318.281Z" fill="white"/>
<path opacity="0.9" d="M156.635 309.706L172.399 307.953L176.066 316.519L159.96 318.282L156.635 309.706Z" fill="white"/>
<path d="M182.382 337.966V330.955L166.275 332.718V339.719L182.382 337.966Z" fill="#144EF4"/>
<path d="M166.274 332.719L162.95 324.143V332.144L166.274 339.72V332.719Z" fill="#144EF4"/>
<path d="M162.951 324.143L178.715 322.391L182.382 330.957L166.275 332.719L162.951 324.143Z" fill="#144EF4"/>
<path opacity="0.8" d="M182.382 337.966V330.955L166.275 332.718V339.719L182.382 337.966Z" fill="white"/>
<path opacity="0.75" d="M166.274 332.719L162.95 324.143V332.144L166.274 339.72V332.719Z" fill="white"/>
<path opacity="0.9" d="M162.951 324.143L178.715 322.391L182.382 330.957L166.275 332.719L162.951 324.143Z" fill="white"/>
<path d="M109.41 321.051V315.545L96.7348 316.931V322.437L109.41 321.051Z" fill="#144EF4"/>
<path d="M96.7334 316.933L94.1276 310.189V316.478L96.7334 322.439V316.933Z" fill="#144EF4"/>
<path d="M94.129 310.189L106.525 308.803L109.41 315.547L96.7348 316.933L94.129 310.189Z" fill="#144EF4"/>
<path opacity="0.8" d="M109.41 321.051V315.545L96.7348 316.931V322.437L109.41 321.051Z" fill="white"/>
<path opacity="0.75" d="M96.7334 316.933L94.1276 310.189V316.478L96.7334 322.439V316.933Z" fill="white"/>
<path opacity="0.9" d="M94.129 310.189L106.525 308.803L109.41 315.547L96.7348 316.933L94.129 310.189Z" fill="white"/>
<path d="M115.735 337.295V331.779L103.071 333.166V338.672L115.735 337.295Z" fill="#144EF4"/>
<path d="M103.071 333.166L100.455 326.422V332.71L103.071 338.672V333.166Z" fill="#144EF4"/>
<path d="M100.454 326.424L112.851 325.037L115.735 331.781L103.071 333.167L100.454 326.424Z" fill="#144EF4"/>
<path opacity="0.8" d="M115.735 337.295V331.779L103.071 333.166V338.672L115.735 337.295Z" fill="white"/>
<path opacity="0.75" d="M103.071 333.166L100.455 326.422V332.71L103.071 338.672V333.166Z" fill="white"/>
<path opacity="0.9" d="M100.454 326.424L112.851 325.037L115.735 331.781L103.071 333.167L100.454 326.424Z" fill="white"/>
<path d="M251.764 304.468V278.205L231.796 280.384V306.637L251.764 304.468Z" fill="#144EF4"/>
<path opacity="0.8" d="M251.764 304.468V278.205L231.796 280.384V306.637L251.764 304.468Z" fill="white"/>
<path d="M231.795 280.384L229.211 273.977V301.546L231.795 306.637V280.384Z" fill="#144EF4"/>
<path opacity="0.75" d="M231.795 280.384L229.211 273.977V301.546L231.795 306.637V280.384Z" fill="white"/>
<path d="M229.212 273.975L248.718 271.816L251.764 278.204L231.796 280.382L229.212 273.975Z" fill="#144EF4"/>
<path opacity="0.9" d="M229.212 273.975L248.718 271.816L251.764 278.204L231.796 280.382L229.212 273.975Z" fill="white"/>
<path d="M352.695 216.198V185.143L341.189 186.331V217.377L352.695 216.198Z" fill="#144EF4"/>
<path opacity="0.8" d="M352.695 216.198V185.143L341.189 186.331V217.377L352.695 216.198Z" fill="white"/>
<path d="M341.186 186.335L338.602 179.928V212.291L341.186 217.381V186.335Z" fill="#144EF4"/>
<path opacity="0.75" d="M341.186 186.335L338.602 179.928V212.291L341.186 217.381V186.335Z" fill="white"/>
<path d="M338.604 179.928L349.65 178.76L352.695 185.147L341.189 186.336L338.604 179.928Z" fill="#144EF4"/>
<path opacity="0.9" d="M338.604 179.928L349.65 178.76L352.695 185.147L341.189 186.336L338.604 179.928Z" fill="white"/>
<path d="M339.9 215.112V187.73L333.809 188.335V215.726L339.9 215.112Z" fill="#144EF4"/>
<path opacity="0.8" d="M339.9 215.112V187.73L333.809 188.335V215.726L339.9 215.112Z" fill="white"/>
<path d="M333.813 188.336L332.859 185.533V214.034L333.813 215.727V188.336Z" fill="#144EF4"/>
<path opacity="0.75" d="M333.813 188.336L332.859 185.533V214.034L333.813 215.727V188.336Z" fill="white"/>
<path d="M332.854 185.532L338.559 184.928L339.9 187.73L333.809 188.334L332.854 185.532Z" fill="#144EF4"/>
<path opacity="0.9" d="M332.854 185.532L338.559 184.928L339.9 187.73L333.809 188.334L332.854 185.532Z" fill="white"/>
<path d="M275.635 301.845V275.582L255.667 277.751V304.013L275.635 301.845Z" fill="#144EF4"/>
<path opacity="0.8" d="M275.635 301.845V275.582L255.667 277.751V304.013L275.635 301.845Z" fill="white"/>
<path d="M255.665 277.749L253.07 271.352V298.921L255.665 304.012V277.749Z" fill="#144EF4"/>
<path opacity="0.75" d="M255.665 277.749L253.07 271.352V298.921L255.665 304.012V277.749Z" fill="white"/>
<path d="M253.072 271.35L272.579 269.191L275.635 275.579L255.667 277.748L253.072 271.35Z" fill="#144EF4"/>
<path opacity="0.9" d="M253.072 271.35L272.579 269.191L275.635 275.579L255.667 277.748L253.072 271.35Z" fill="white"/>
<path d="M328.083 219.164V211.301L310.035 213.271V221.134L328.083 219.164Z" fill="#144EF4"/>
<path d="M310.038 213.27L306.306 203.664V212.636L310.038 221.133V213.27Z" fill="#144EF4"/>
<path d="M306.303 203.666L323.975 201.695L328.083 211.301L310.035 213.272L306.303 203.666Z" fill="#144EF4"/>
<path opacity="0.8" d="M328.083 219.164V211.301L310.035 213.271V221.134L328.083 219.164Z" fill="white"/>
<path opacity="0.75" d="M310.038 213.27L306.306 203.664V212.636L310.038 221.133V213.27Z" fill="white"/>
<path opacity="0.9" d="M306.303 203.666L323.975 201.695L328.083 211.301L310.035 213.272L306.303 203.666Z" fill="white"/>
<path d="M343.839 275.501L356.772 282.393L367.131 276.907L353.533 269.658L343.839 275.501Z" fill="#144EF4"/>
<path opacity="0.9" d="M343.839 275.501L356.772 282.393L367.131 276.907L353.533 269.658L343.839 275.501Z" fill="white"/>
<path d="M367.131 282.591V276.906L356.772 282.392V288.106L367.131 282.591Z" fill="#144EF4"/>
<path opacity="0.8" d="M367.131 282.591V276.906L356.772 282.392V288.106L367.131 282.591Z" fill="white"/>
<path d="M343.837 275.502V281.216L356.77 288.108V282.394L343.837 275.502Z" fill="#144EF4"/>
<path opacity="0.75" d="M343.837 275.502V281.216L356.77 288.108V282.394L343.837 275.502Z" fill="white"/>
<path d="M329.382 283.376L342.315 290.268L352.663 284.782L339.066 277.543L329.382 283.376Z" fill="#144EF4"/>
<path opacity="0.9" d="M329.382 283.376L342.315 290.268L352.663 284.782L339.066 277.543L329.382 283.376Z" fill="white"/>
<path d="M352.663 290.466V284.781L342.315 290.267V295.981L352.663 290.466Z" fill="#144EF4"/>
<path opacity="0.8" d="M352.663 290.466V284.781L342.315 290.267V295.981L352.663 290.466Z" fill="white"/>
<path d="M329.381 283.373V289.087L342.314 295.98V290.266L329.381 283.373Z" fill="#144EF4"/>
<path opacity="0.75" d="M329.381 283.373V289.087L342.314 295.98V290.266L329.381 283.373Z" fill="white"/>
<path d="M314.625 291.177L327.558 298.059L337.917 292.583L324.319 285.334L314.625 291.177Z" fill="#144EF4"/>
<path opacity="0.9" d="M314.625 291.177L327.558 298.059L337.917 292.583L324.319 285.334L314.625 291.177Z" fill="white"/>
<path d="M337.917 298.26V292.586L327.558 298.062V303.786L337.917 298.26Z" fill="#144EF4"/>
<path opacity="0.8" d="M337.917 298.26V292.586L327.558 298.062V303.786L337.917 298.26Z" fill="white"/>
<path d="M314.625 291.178V296.892L327.558 303.784V298.06L314.625 291.178Z" fill="#144EF4"/>
<path opacity="0.75" d="M314.625 291.178V296.892L327.558 303.784V298.06L314.625 291.178Z" fill="white"/>
<path d="M293.697 294.694L306.629 301.587L316.988 296.1L303.391 288.861L293.697 294.694Z" fill="#144EF4"/>
<path opacity="0.9" d="M293.697 294.694L306.629 301.587L316.988 296.1L303.391 288.861L293.697 294.694Z" fill="white"/>
<path d="M316.988 309.778V296.102L306.629 301.588V315.303L316.988 309.778Z" fill="#144EF4"/>
<path opacity="0.8" d="M316.988 309.778V296.102L306.629 301.588V315.303L316.988 309.778Z" fill="white"/>
<path d="M293.694 294.691V308.397L306.627 315.299V301.584L293.694 294.691Z" fill="#144EF4"/>
<path opacity="0.75" d="M293.694 294.691V308.397L306.627 315.299V301.584L293.694 294.691Z" fill="white"/>
<path d="M371.022 262.54L385.037 267.382L395.396 261.906L380.705 256.707L371.022 262.54Z" fill="#144EF4"/>
<path opacity="0.9" d="M371.022 262.54L385.037 267.382L395.396 261.906L380.705 256.707L371.022 262.54Z" fill="white"/>
<path d="M395.396 267.579V261.904L385.037 267.381V273.105L395.396 267.579Z" fill="#144EF4"/>
<path opacity="0.8" d="M395.396 267.579V261.904L385.037 267.381V273.105L395.396 267.579Z" fill="white"/>
<path d="M371.021 262.541V268.255L385.037 273.107V267.384L371.021 262.541Z" fill="#144EF4"/>
<path opacity="0.75" d="M371.021 262.541V268.255L385.037 273.107V267.384L371.021 262.541Z" fill="white"/>
<path d="M348.547 254.614L362.574 259.467L372.933 253.98L358.241 248.781L348.547 254.614Z" fill="#144EF4"/>
<path opacity="0.9" d="M348.547 254.614L362.574 259.467L372.933 253.98L358.241 248.781L348.547 254.614Z" fill="white"/>
<path d="M372.933 259.669V253.984L362.574 259.471V265.185L372.933 259.669Z" fill="#144EF4"/>
<path opacity="0.8" d="M372.933 259.669V253.984L362.574 259.471V265.185L372.933 259.669Z" fill="white"/>
<path d="M348.546 254.617V260.341L362.572 265.184V259.47L348.546 254.617Z" fill="#144EF4"/>
<path opacity="0.75" d="M348.546 254.617V260.341L362.572 265.184V259.47L348.546 254.617Z" fill="white"/>
<path d="M263.453 226.195V217.916L237.245 220.768V229.047L263.453 226.195Z" fill="#144EF4"/>
<path opacity="0.75" d="M263.453 226.195V217.916L237.245 220.768V229.047L263.453 226.195Z" fill="white"/>
<path d="M237.243 220.769L231.71 206.459V216.402L237.243 229.048V220.769Z" fill="#144EF4"/>
<path opacity="0.65" d="M237.243 220.769L231.71 206.459V216.402L237.243 229.048V220.769Z" fill="white"/>
<path d="M231.711 206.458L257.341 203.605L263.453 217.915L237.245 220.767L231.711 206.458Z" fill="#144EF4"/>
<path opacity="0.9" d="M231.711 206.458L257.341 203.605L263.453 217.915L237.245 220.767L231.711 206.458Z" fill="white"/>
<path d="M260.086 215.857V175.473L239.561 177.701V218.085L260.086 215.857Z" fill="#144EF4"/>
<path opacity="0.75" d="M260.086 215.857V175.473L239.561 177.701V218.085L260.086 215.857Z" fill="white"/>
<path d="M239.563 177.698L235.081 166.111V207.833L239.563 218.082V177.698Z" fill="#144EF4"/>
<path opacity="0.65" d="M239.563 177.698L235.081 166.111V207.833L239.563 218.082V177.698Z" fill="white"/>
<path d="M235.078 166.113L255.132 163.885L260.086 175.471L239.561 177.699L235.078 166.113Z" fill="#144EF4"/>
<path opacity="0.9" d="M235.078 166.113L255.132 163.885L260.086 175.471L239.561 177.699L235.078 166.113Z" fill="white"/>
<path d="M253.684 172.866V150.852L242.488 152.07V174.084L253.684 172.866Z" fill="#144EF4"/>
<path opacity="0.75" d="M253.684 172.866V150.852L242.488 152.07V174.084L253.684 172.866Z" fill="white"/>
<path d="M242.488 152.07L240.043 145.752V168.499L242.488 174.084V152.07Z" fill="#144EF4"/>
<path opacity="0.65" d="M242.488 152.07L240.043 145.752V168.499L242.488 174.084V152.07Z" fill="white"/>
<path d="M240.043 145.753L250.992 144.535L253.684 150.853L242.488 152.071L240.043 145.753Z" fill="#144EF4"/>
<path opacity="0.9" d="M240.043 145.753L250.992 144.535L253.684 150.853L242.488 152.071L240.043 145.753Z" fill="white"/>
<path d="M134.984 284.285V220.648L114.449 222.877V286.513L134.984 284.285Z" fill="#144EF4"/>
<path opacity="0.75" d="M134.984 284.285V220.648L114.449 222.877V286.513L134.984 284.285Z" fill="white"/>
<path d="M114.449 222.876L111.447 214.766V279.739L114.449 286.513V222.876Z" fill="#144EF4"/>
<path opacity="0.65" d="M114.449 222.876L111.447 214.766V279.739L114.449 286.513V222.876Z" fill="white"/>
<path d="M111.446 214.767L131.51 212.539L134.984 220.65L114.449 222.878L111.446 214.767Z" fill="#144EF4"/>
<path opacity="0.9" d="M111.446 214.767L131.51 212.539L134.984 220.65L114.449 222.878L111.446 214.767Z" fill="white"/>
<path d="M101.762 304.585V245.662L83.8645 247.494V306.427L101.762 304.585Z" fill="#144EF4"/>
<path opacity="0.75" d="M101.762 304.585V245.662L83.8645 247.494V306.427L101.762 304.585Z" fill="white"/>
<path d="M83.8662 247.495L79.8341 237.543V298.506L83.8662 306.428V247.495Z" fill="#144EF4"/>
<path opacity="0.65" d="M83.8662 247.495L79.8341 237.543V298.506L83.8662 306.428V247.495Z" fill="white"/>
<path d="M79.8324 237.545L97.0224 235.713L101.762 245.665L83.8645 247.497L79.8324 237.545Z" fill="#144EF4"/>
<path opacity="0.9" d="M79.8324 237.545L97.0224 235.713L101.762 245.665L83.8645 247.497L79.8324 237.545Z" fill="white"/>
<path d="M81.8477 302.902V249.684L72.3679 250.624V303.843L81.8477 302.902Z" fill="#144EF4"/>
<path opacity="0.75" d="M81.8477 302.902V249.684L72.3679 250.624V303.843L81.8477 302.902Z" fill="white"/>
<path d="M72.3691 250.625L70.9 246.258V301.229L72.3691 303.844V250.625Z" fill="#144EF4"/>
<path opacity="0.65" d="M72.3691 250.625L70.9 246.258V301.229L72.3691 303.844V250.625Z" fill="white"/>
<path d="M70.8988 246.259L79.7673 245.328L81.8477 249.685L72.3679 250.626L70.8988 246.259Z" fill="#144EF4"/>
<path opacity="0.9" d="M70.8988 246.259L79.7673 245.328L81.8477 249.685L72.3679 250.626L70.8988 246.259Z" fill="white"/>
<path d="M434.977 239.674L408.833 253.607V261.183L434.977 247.25V239.674Z" fill="#144EF4"/>
<path opacity="0.35" d="M434.977 239.674L408.833 253.607V261.183L434.977 247.25V239.674Z" fill="#F9FDFF"/>
<path d="M382.701 247.25V239.674L408.835 253.607V261.183" fill="#144EF4"/>
<path opacity="0.15" d="M382.701 239.674L408.835 253.607V261.183L382.701 247.25V239.674Z" fill="#F9FDFF"/>
<path d="M382.699 239.672L408.833 225.738L434.977 239.672L408.833 253.605L382.699 239.672Z" fill="#144EF4"/>
<path opacity="0.5" d="M382.699 239.672L408.833 225.738L434.977 239.672L408.833 253.605L382.699 239.672Z" fill="#F9FDFF"/>
<path d="M434.977 238.503L408.833 252.436V250.119L434.977 236.186V238.503Z" fill="#144EF4"/>
<path opacity="0.35" d="M434.977 238.503L408.833 252.436V250.119L434.977 236.186V238.503Z" fill="#F9FDFF"/>
<path d="M408.835 252.436L382.701 238.503V236.186L408.835 250.119V252.436Z" fill="#144EF4"/>
<path opacity="0.15" d="M408.835 252.436L382.701 238.503V236.186L408.835 250.119V252.436Z" fill="#F9FDFF"/>
<path d="M382.699 236.189L408.833 222.256L434.977 236.189L408.833 250.123L382.699 236.189Z" fill="#144EF4"/>
<path opacity="0.5" d="M382.699 236.189L408.833 222.256L434.977 236.189L408.833 250.123L382.699 236.189Z" fill="#F9FDFF"/>
<path d="M434.977 234.761L408.833 248.694V246.377L434.977 232.443V234.761Z" fill="#144EF4"/>
<path opacity="0.35" d="M434.977 234.761L408.833 248.694V246.377L434.977 232.443V234.761Z" fill="#F9FDFF"/>
<path d="M408.835 248.694L382.701 234.761V232.443L408.835 246.377V248.694Z" fill="#144EF4"/>
<path opacity="0.15" d="M408.835 248.694L382.701 234.761V232.443L408.835 246.377V248.694Z" fill="#F9FDFF"/>
<path d="M382.699 232.443L408.833 218.51L434.977 232.443L408.833 246.377L382.699 232.443Z" fill="#144EF4"/>
<path opacity="0.5" d="M382.699 232.443L408.833 218.51L434.977 232.443L408.833 246.377L382.699 232.443Z" fill="#F9FDFF"/>
<path d="M408.831 243.763V185.257L430.61 173.65V232.147L408.831 243.763Z" fill="#144EF4"/>
<path d="M408.835 185.257L387.055 173.65V232.147L408.835 243.763V185.257Z" fill="#144EF4"/>
<path d="M387.051 173.647L408.831 162.031L430.61 173.647L408.831 185.254L387.051 173.647Z" fill="#144EF4"/>
<path opacity="0.4" d="M387.051 173.647L408.831 162.031L430.61 173.647L408.831 185.254L387.051 173.647Z" fill="#F9FDFF"/>
<path opacity="0.2" d="M408.831 243.763V185.257L430.61 173.65V232.147L408.831 243.763Z" fill="#F9FDFF"/>
<path d="M408.834 182.938V133.661L426.26 124.154V173.649L408.834 182.938Z" fill="#144EF4"/>
<path d="M408.835 182.938V133.661L391.42 124.154V173.649L408.835 182.938Z" fill="#144EF4"/>
<path d="M391.419 124.155L408.834 114.975L426.26 124.155L408.834 133.661L391.419 124.155Z" fill="#144EF4"/>
<path opacity="0.4" d="M391.419 124.155L408.834 114.975L426.26 124.155L408.834 133.661L391.419 124.155Z" fill="#F9FDFF"/>
<path opacity="0.2" d="M408.834 182.938V133.661L426.26 124.154V173.649L408.834 182.938Z" fill="#F9FDFF"/>
<path d="M408.835 130.068V123.106L397.95 117.293V124.265L408.835 130.068Z" fill="#144EF4"/>
<path d="M419.729 124.265V117.293L408.833 123.106V130.068L419.729 124.265Z" fill="#144EF4"/>
<path opacity="0.2" d="M419.729 124.265V117.293L408.833 123.106V130.068L419.729 124.265Z" fill="#F9FDFF"/>
<path d="M397.949 117.291L408.833 111.488L419.729 117.291L408.833 123.104L397.949 117.291Z" fill="#144EF4"/>
<path opacity="0.4" d="M397.949 117.291L408.833 111.488L419.729 117.291L408.833 123.104L397.949 117.291Z" fill="#F9FDFF"/>
<path d="M408.835 120.777V88.2656L402.304 117.291L408.835 120.777Z" fill="#144EF4"/>
<path opacity="0.1" d="M408.835 120.777V88.2656L402.304 117.291L408.835 120.777Z" fill="#F9FDFF"/>
<path d="M415.45 117.291L408.833 88.2656V120.777L415.45 117.291Z" fill="#144EF4"/>
<path opacity="0.25" d="M415.45 117.291L408.833 88.2656V120.777L415.45 117.291Z" fill="#F9FDFF"/>
<path d="M427.612 43.7321V40.7612C427.56 36.9533 426.872 33.1756 425.574 29.561C422.261 20.1037 415.28 11.0523 407.205 6.78417C402.068 4.04105 397.382 3.70435 393.789 5.34824L400.856 1.59502C402.599 0.53375 404.646 -0.0215411 406.733 0.000639472C407.063 -0.0023507 407.392 0.0141893 407.719 0.0501554C408.063 0.0501554 408.406 0.109572 408.792 0.159087C409.153 0.197592 409.511 0.257128 409.864 0.33734C410.226 0.409196 410.584 0.498444 410.937 0.604721C411.694 0.810514 412.435 1.06193 413.156 1.35735C413.532 1.50589 413.907 1.68414 414.293 1.85249C414.679 2.02084 415.065 2.22881 415.44 2.42687C426.647 8.40825 435.772 23.6192 435.772 36.493V39.4639C435.772 52.2685 417.124 66.2019 417.124 66.2019L409.618 70.1631C409.75 70.0826 409.875 69.9933 409.993 69.8957C415.516 65.0334 427.612 53.5856 427.612 43.7321ZM405.35 16.806C405.284 17.1332 405.241 17.464 405.221 17.7963C405.221 17.9151 405.221 18.024 405.221 18.1429C405.21 18.3375 405.21 18.5325 405.221 18.7271C405.221 24.7283 409.778 32.0367 415.419 35.0373L416.03 35.3443C416.234 35.4433 416.438 35.5226 416.631 35.6018L417.221 35.8296H417.285C416.406 40.4245 412.266 42.0288 407.248 39.3748C401.618 36.4039 397.06 29.0559 397.06 23.0547C397.017 17.7368 400.61 15.2116 405.35 16.806Z" fill="#144EF4"/>
<path opacity="0.3" d="M427.612 43.7321V40.7612C427.56 36.9533 426.872 33.1756 425.574 29.561C422.261 20.1037 415.28 11.0523 407.205 6.78417C402.068 4.04105 397.382 3.70435 393.789 5.34824L400.856 1.59502C402.599 0.53375 404.646 -0.0215411 406.733 0.000639472C407.063 -0.0023507 407.392 0.0141893 407.719 0.0501554C408.063 0.0501554 408.406 0.109572 408.792 0.159087C409.153 0.197592 409.511 0.257128 409.864 0.33734C410.226 0.409196 410.584 0.498444 410.937 0.604721C411.694 0.810514 412.435 1.06193 413.156 1.35735C413.532 1.50589 413.907 1.68414 414.293 1.85249C414.679 2.02084 415.065 2.22881 415.44 2.42687C426.647 8.40825 435.772 23.6192 435.772 36.493V39.4639C435.772 52.2685 417.124 66.2019 417.124 66.2019L409.618 70.1631C409.75 70.0826 409.875 69.9933 409.993 69.8957C415.516 65.0334 427.612 53.5856 427.612 43.7321Z" fill="black"/>
<path opacity="0.5" d="M405.351 16.801C405.286 17.1282 405.243 17.459 405.223 17.7913C405.223 17.9101 405.223 18.0191 405.223 18.1379C405.212 18.3325 405.212 18.5276 405.223 18.7222C405.223 24.7234 409.78 32.0318 415.421 35.0324L416.032 35.3394C416.236 35.4384 416.439 35.5176 416.632 35.5968L417.222 35.8246H417.287C416.407 40.4196 412.268 42.0239 407.249 39.3699C401.619 36.399 397.062 29.051 397.062 23.0498C397.019 17.7319 400.611 15.2066 405.351 16.801Z" fill="black"/>
<path d="M386.82 19.0657C386.82 6.26118 395.945 0.74523 407.194 6.75633C418.444 12.7674 427.569 28.0081 427.569 40.8126V43.7835C427.569 53.6864 415.473 65.0848 409.908 69.8283C409.593 70.0889 409.218 70.2791 408.811 70.3839C408.404 70.4887 407.976 70.5053 407.561 70.4325C407.146 70.3596 406.755 70.1993 406.418 69.964C406.081 69.7286 405.807 69.4246 405.618 69.0756C400.814 59.9946 386.82 32.6328 386.82 22.0267V19.0657ZM407.194 39.3767C412.824 42.3476 417.393 39.951 417.393 33.9399C417.393 27.9288 412.846 20.6502 407.216 17.6793C401.586 14.7084 397.018 17.1049 397.018 23.116C397.018 29.1271 401.586 36.3761 407.216 39.3767H407.194Z" fill="#144EF4"/>
<path d="M386.82 19.0657C386.82 6.26118 395.945 0.74523 407.194 6.75633C418.444 12.7674 427.569 28.0081 427.569 40.8126V43.7835C427.569 53.6864 415.473 65.0848 409.908 69.8283C409.593 70.0889 409.218 70.2791 408.811 70.3839C408.404 70.4887 407.976 70.5053 407.561 70.4325C407.146 70.3596 406.755 70.1993 406.418 69.964C406.081 69.7286 405.807 69.4246 405.618 69.0756C400.814 59.9946 386.82 32.6328 386.82 22.0267V19.0657ZM407.194 39.3767C412.824 42.3476 417.393 39.951 417.393 33.9399C417.393 27.9288 412.846 20.6502 407.216 17.6793C401.586 14.7084 397.018 17.1049 397.018 23.116C397.018 29.1271 401.586 36.3761 407.216 39.3767H407.194Z" fill="#144EF4"/>
<path d="M252.237 124.282V123.292C252.219 122.039 251.991 120.796 251.562 119.608C250.558 116.535 248.422 113.883 245.524 112.111C244.892 111.696 244.157 111.435 243.386 111.352C242.616 111.269 241.835 111.366 241.117 111.636L243.444 110.398C244.014 110.054 244.682 109.874 245.363 109.883H245.739H246.071C246.191 109.893 246.309 109.913 246.425 109.943L246.768 110.022C247.018 110.09 247.262 110.176 247.497 110.279L247.873 110.438L248.259 110.626C251.958 112.606 254.961 117.558 254.961 121.816V122.806C254.961 127.015 248.827 131.59 248.827 131.59L246.35 132.888L246.468 132.799C248.259 131.274 252.237 127.52 252.237 124.282ZM244.913 115.429C244.907 115.538 244.907 115.647 244.913 115.756V115.864C244.908 115.93 244.908 115.997 244.913 116.063C244.977 117.136 245.315 118.181 245.898 119.112C246.481 120.043 247.293 120.833 248.269 121.42L248.462 121.519L248.666 121.608L248.859 121.678C248.58 123.183 247.218 123.708 245.567 122.836C244.594 122.248 243.784 121.456 243.202 120.526C242.621 119.595 242.285 118.551 242.221 117.479C242.178 115.716 243.358 114.904 244.913 115.429Z" fill="#144EF4"/>
<path opacity="0.6" d="M252.237 124.282V123.292C252.219 122.039 251.991 120.796 251.562 119.608C250.558 116.535 248.422 113.883 245.524 112.111C244.892 111.696 244.157 111.435 243.386 111.352C242.616 111.269 241.835 111.366 241.117 111.636L243.444 110.398C244.014 110.054 244.682 109.874 245.363 109.883H245.739H246.071C246.191 109.893 246.309 109.913 246.425 109.943L246.768 110.022C247.018 110.09 247.262 110.176 247.497 110.279L247.873 110.438L248.259 110.626C251.958 112.606 254.961 117.558 254.961 121.816V122.806C254.961 127.015 248.827 131.59 248.827 131.59L246.35 132.888L246.468 132.799C248.259 131.274 252.237 127.52 252.237 124.282Z" fill="white"/>
<path opacity="0.6" d="M244.948 115.429C244.942 115.538 244.942 115.647 244.948 115.756C244.948 115.756 244.948 115.825 244.948 115.865V116.063C245.01 117.136 245.346 118.18 245.927 119.111C246.509 120.042 247.319 120.833 248.294 121.42L248.498 121.519L248.691 121.609L248.895 121.678C248.605 123.183 247.243 123.708 245.602 122.836C244.628 122.249 243.817 121.458 243.236 120.527C242.654 119.596 242.319 118.552 242.257 117.479C242.214 115.716 243.383 114.904 244.948 115.429Z" fill="white"/>
<path d="M238.824 116.173C238.824 111.964 241.827 110.152 245.527 112.123C249.226 114.093 252.175 119.114 252.175 123.323V124.313C252.175 127.551 248.208 131.305 246.374 132.869C246.271 132.958 246.146 133.024 246.01 133.06C245.875 133.096 245.732 133.103 245.593 133.079C245.454 133.054 245.323 133.001 245.211 132.921C245.099 132.842 245.009 132.739 244.948 132.622C243.371 129.651 238.771 120.649 238.771 117.163L238.824 116.173ZM245.527 122.847C247.382 123.838 248.883 123.036 248.883 121.065C248.817 119.993 248.479 118.95 247.896 118.021C247.313 117.092 246.501 116.303 245.527 115.717C243.682 114.727 242.181 115.529 242.181 117.51C242.247 118.579 242.585 119.619 243.166 120.546C243.747 121.474 244.555 122.262 245.527 122.847Z" fill="#144EF4"/>
<path d="M238.824 116.173C238.824 111.964 241.827 110.152 245.527 112.123C249.226 114.093 252.175 119.114 252.175 123.323V124.313C252.175 127.551 248.208 131.305 246.374 132.869C246.271 132.958 246.146 133.024 246.01 133.06C245.875 133.096 245.732 133.103 245.593 133.079C245.454 133.054 245.323 133.001 245.211 132.921C245.099 132.842 245.009 132.739 244.948 132.622C243.371 129.651 238.771 120.649 238.771 117.163L238.824 116.173ZM245.527 122.847C247.382 123.838 248.883 123.036 248.883 121.065C248.817 119.993 248.479 118.95 247.896 118.021C247.313 117.092 246.501 116.303 245.527 115.717C243.682 114.727 242.181 115.529 242.181 117.51C242.247 118.579 242.585 119.619 243.166 120.546C243.747 121.474 244.555 122.262 245.527 122.847Z" fill="#144EF4"/>
<g opacity="0.8">
<path opacity="0.8" d="M238.824 116.173C238.824 111.964 241.827 110.152 245.527 112.123C249.226 114.093 252.175 119.114 252.175 123.323V124.313C252.175 127.551 248.208 131.305 246.374 132.869C246.271 132.958 246.146 133.024 246.01 133.06C245.875 133.096 245.732 133.103 245.593 133.079C245.454 133.054 245.323 133.001 245.211 132.921C245.099 132.842 245.009 132.739 244.948 132.622C243.371 129.651 238.771 120.649 238.771 117.163L238.824 116.173ZM245.527 122.847C247.382 123.838 248.883 123.036 248.883 121.065C248.817 119.993 248.479 118.95 247.896 118.021C247.313 117.092 246.501 116.303 245.527 115.717C243.682 114.727 242.181 115.529 242.181 117.51C242.247 118.579 242.585 119.619 243.166 120.546C243.747 121.474 244.555 122.262 245.527 122.847Z" fill="white"/>
</g>
<path d="M127.344 188.997V188.006C127.325 186.754 127.098 185.511 126.668 184.322C125.664 181.25 123.528 178.598 120.631 176.826C119.998 176.411 119.263 176.15 118.493 176.066C117.722 175.983 116.942 176.081 116.223 176.351L118.55 175.132C119.124 174.788 119.796 174.609 120.48 174.617H120.802H121.145L121.488 174.677L121.842 174.756C122.091 174.828 122.334 174.914 122.572 175.014L122.936 175.172L123.322 175.36C127.022 177.341 130.024 182.342 130.024 186.551V187.541C130.024 191.75 123.89 196.325 123.89 196.325L121.413 197.622L121.531 197.533C123.365 195.929 127.344 192.185 127.344 188.997ZM120.019 180.143C120.013 180.252 120.013 180.361 120.019 180.47V180.579C120.014 180.645 120.014 180.711 120.019 180.777C120.084 181.851 120.421 182.896 121.004 183.826C121.587 184.757 122.4 185.548 123.376 186.135L123.569 186.234L123.773 186.323L123.966 186.392C123.676 187.897 122.314 188.373 120.663 187.551C119.689 186.962 118.879 186.171 118.298 185.24C117.717 184.31 117.381 183.266 117.317 182.193C117.285 180.401 118.464 179.569 120.019 180.084V180.143Z" fill="#144EF4"/>
<path opacity="0.6" d="M127.344 188.997V188.006C127.325 186.754 127.098 185.511 126.668 184.322C125.664 181.25 123.528 178.598 120.631 176.826C119.998 176.411 119.263 176.15 118.493 176.066C117.722 175.983 116.942 176.081 116.223 176.351L118.55 175.132C119.124 174.788 119.796 174.609 120.48 174.617H120.802H121.145L121.488 174.677L121.842 174.756C122.091 174.828 122.334 174.914 122.572 175.014L122.936 175.172L123.322 175.36C127.022 177.341 130.024 182.342 130.024 186.551V187.541C130.024 191.75 123.89 196.325 123.89 196.325L121.413 197.622L121.531 197.533C123.365 195.929 127.344 192.185 127.344 188.997Z" fill="white"/>
<path opacity="0.6" d="M120.054 180.085C120.048 180.193 120.048 180.302 120.054 180.411C120.054 180.411 120.054 180.481 120.054 180.52V180.718C120.116 181.791 120.451 182.836 121.033 183.767C121.614 184.698 122.425 185.489 123.399 186.076L123.603 186.175L123.796 186.264L124 186.333C123.71 187.839 122.349 188.314 120.708 187.492C119.733 186.905 118.922 186.114 118.341 185.183C117.76 184.252 117.424 183.208 117.362 182.134C117.319 180.401 118.499 179.57 120.054 180.085Z" fill="white"/>
<path d="M113.928 180.837C113.928 176.628 116.931 174.816 120.63 176.787C124.33 178.757 127.343 183.778 127.343 187.987V188.977C127.343 192.215 123.365 195.969 121.531 197.533C121.428 197.622 121.303 197.688 121.168 197.724C121.032 197.76 120.889 197.767 120.75 197.743C120.611 197.719 120.481 197.665 120.368 197.585C120.256 197.506 120.166 197.403 120.105 197.286C118.528 194.315 113.928 185.313 113.928 181.827V180.837ZM120.63 187.512C122.485 188.502 123.987 187.7 123.987 185.729C123.924 184.654 123.588 183.607 123.004 182.674C122.421 181.742 121.608 180.949 120.63 180.362C118.786 179.371 117.284 180.173 117.284 182.154C117.348 183.227 117.683 184.271 118.265 185.202C118.846 186.133 119.656 186.924 120.63 187.512Z" fill="#144EF4"/>
<path d="M113.928 180.837C113.928 176.628 116.931 174.816 120.63 176.787C124.33 178.757 127.343 183.778 127.343 187.987V188.977C127.343 192.215 123.365 195.969 121.531 197.533C121.428 197.622 121.303 197.688 121.168 197.724C121.032 197.76 120.889 197.767 120.75 197.743C120.611 197.719 120.481 197.665 120.368 197.585C120.256 197.506 120.166 197.403 120.105 197.286C118.528 194.315 113.928 185.313 113.928 181.827V180.837ZM120.63 187.512C122.485 188.502 123.987 187.7 123.987 185.729C123.924 184.654 123.588 183.607 123.004 182.674C122.421 181.742 121.608 180.949 120.63 180.362C118.786 179.371 117.284 180.173 117.284 182.154C117.348 183.227 117.683 184.271 118.265 185.202C118.846 186.133 119.656 186.924 120.63 187.512Z" fill="#144EF4"/>
<g opacity="0.8">
<path opacity="0.8" d="M113.928 180.837C113.928 176.628 116.931 174.816 120.63 176.787C124.33 178.757 127.343 183.778 127.343 187.987V188.977C127.343 192.215 123.365 195.969 121.531 197.533C121.428 197.622 121.303 197.688 121.168 197.724C121.032 197.76 120.889 197.767 120.75 197.743C120.611 197.719 120.481 197.665 120.368 197.585C120.256 197.506 120.166 197.403 120.105 197.286C118.528 194.315 113.928 185.313 113.928 181.827V180.837ZM120.63 187.512C122.485 188.502 123.987 187.7 123.987 185.729C123.924 184.654 123.588 183.607 123.004 182.674C122.421 181.742 121.608 180.949 120.63 180.362C118.786 179.371 117.284 180.173 117.284 182.154C117.348 183.227 117.683 184.271 118.265 185.202C118.846 186.133 119.656 186.924 120.63 187.512Z" fill="white"/>
</g>
<path d="M270.705 185.233C270.882 185.756 271.053 186.206 271.242 186.681C271.43 187.155 271.625 187.612 271.827 188.066C272.235 188.991 272.688 189.895 273.18 190.788C273.678 191.695 274.229 192.572 274.832 193.413C275.464 194.304 276.188 195.126 276.994 195.865C277.21 196.056 277.429 196.246 277.673 196.423C277.802 196.517 277.896 196.596 278.053 196.697C278.21 196.797 278.36 196.887 278.524 196.974C279.199 197.329 279.953 197.509 280.717 197.497C281.416 197.483 282.105 197.327 282.742 197.039C283.292 196.79 283.811 196.476 284.286 196.104C285.132 195.429 285.884 194.647 286.524 193.777C286.842 193.368 287.124 192.935 287.396 192.503C287.668 192.07 287.912 191.64 288.152 191.152L286.531 190.151C286.252 190.473 285.932 190.844 285.618 191.162C285.304 191.481 284.973 191.81 284.645 192.118C284.023 192.712 283.336 193.237 282.599 193.684C281.902 194.085 281.205 194.286 280.783 194.217C280.573 194.186 280.372 194.108 280.197 193.988L280.051 193.877C280.009 193.846 279.922 193.763 279.856 193.711C279.716 193.593 279.577 193.455 279.441 193.316C278.283 192.017 277.314 190.564 276.561 188.998C276.139 188.191 275.756 187.356 275.379 186.515C275.195 186.095 275.013 185.669 274.843 185.243C274.672 184.818 274.494 184.374 274.348 183.986L270.705 185.233Z" fill="#E4897B"/>
<path d="M269.658 183.995C269.114 186.346 274.305 192.358 274.305 192.358L278.973 188.985C277.939 187.037 276.698 185.205 275.27 183.52C273.144 181.106 270.258 181.414 269.658 183.995Z" fill="#144EF4"/>
<path opacity="0.7" d="M269.658 183.995C269.114 186.346 274.305 192.358 274.305 192.358L278.973 188.985C277.939 187.037 276.698 185.205 275.27 183.52C273.144 181.106 270.258 181.414 269.658 183.995Z" fill="white"/>
<path d="M258.296 183.641C259.216 186.311 259.933 189.045 260.443 191.821C260.809 193.757 261.074 195.61 261.273 197.293C261.74 201.238 261.848 204.261 262.033 205.276L275.496 203.475C276.409 189.033 272.414 181.878 272.414 181.878C271.332 181.748 270.242 181.684 269.151 181.688C268.921 181.688 268.688 181.688 268.454 181.705C266.533 181.85 264.622 182.106 262.73 182.47C262.382 182.536 262.009 182.612 261.656 182.692C259.861 183.094 258.296 183.641 258.296 183.641Z" fill="#144EF4"/>
<path opacity="0.7" d="M258.296 183.641C259.216 186.311 259.933 189.045 260.443 191.821C260.809 193.757 261.074 195.61 261.273 197.293C261.74 201.238 261.848 204.261 262.033 205.276L275.496 203.475C276.409 189.033 272.414 181.878 272.414 181.878C271.332 181.748 270.242 181.684 269.151 181.688C268.921 181.688 268.688 181.688 268.454 181.705C266.533 181.85 264.622 182.106 262.73 182.47C262.382 182.536 262.009 182.612 261.656 182.692C259.861 183.094 258.296 183.641 258.296 183.641Z" fill="white"/>
<path d="M260.447 191.822C260.813 193.758 261.078 195.611 261.276 197.294L263.096 193.118L260.447 191.822Z" fill="#144EF4"/>
<path opacity="0.5" d="M260.447 191.822C260.813 193.758 261.078 195.611 261.276 197.294L263.096 193.118L260.447 191.822Z" fill="white"/>
<path d="M282.208 259.738L284.606 258.91L283.32 253.168L280.922 253.996L282.208 259.738Z" fill="#E4897B"/>
<path d="M259.13 261.092H261.668L263.648 255.246H261.107L259.13 261.092Z" fill="#E4897B"/>
<path d="M283.32 253.172L283.986 256.13L281.584 256.957L280.922 253.996L283.32 253.172Z" fill="#CE6F64"/>
<path d="M261.107 255.248H263.648L262.627 258.261H260.085L261.107 255.248Z" fill="#CE6F64"/>
<path d="M284.697 255.271L280.629 256.656C280.629 256.656 276.651 241.071 275.399 233.303C275.023 230.941 274.172 227.672 273.147 224.181C271.858 219.782 270.285 215.038 269.01 211.325C267.66 207.415 266.649 204.651 266.649 204.651L275.501 203.467C275.501 203.467 282.243 224.004 283.003 231.668C283.797 239.648 284.697 255.271 284.697 255.271Z" fill="#144EF4"/>
<path opacity="0.4" d="M273.144 224.191C271.854 219.793 270.281 215.048 269.006 211.336L269.797 209.303C272.171 211.765 273.29 219.786 273.144 224.191Z" fill="black"/>
<path d="M270.724 204.119C270.724 204.119 271.16 225.737 270.563 233.107C269.908 241.176 263.821 257.696 263.821 257.696H259.168C259.168 257.696 262.274 242.593 263.225 234.755C264.309 225.827 262.037 205.297 262.037 205.297L270.724 204.119Z" fill="#144EF4"/>
<path d="M262.011 260.797H258.912C258.862 260.797 258.813 260.815 258.774 260.846C258.735 260.877 258.707 260.921 258.696 260.97L258.194 263.214C258.183 263.269 258.184 263.325 258.197 263.38C258.211 263.434 258.236 263.484 258.272 263.527C258.308 263.57 258.353 263.604 258.404 263.628C258.455 263.651 258.511 263.662 258.567 263.661C259.564 263.644 260.289 263.588 261.544 263.588C262.318 263.588 264.647 263.668 265.71 263.668C266.773 263.668 266.916 262.629 266.481 262.525C264.525 262.099 263.05 261.514 262.423 260.953C262.309 260.853 262.163 260.797 262.011 260.797Z" fill="#263238"/>
<path d="M284.495 258.639L281.874 259.54C281.826 259.557 281.785 259.589 281.758 259.632C281.731 259.675 281.719 259.725 281.724 259.775L281.989 262.058C281.995 262.113 282.014 262.167 282.044 262.214C282.074 262.261 282.114 262.301 282.162 262.33C282.209 262.359 282.263 262.378 282.319 262.383C282.375 262.389 282.431 262.382 282.484 262.363C283.422 262.016 284.771 261.497 285.97 261.088C287.364 260.61 288.584 260.274 290.216 259.703C291.199 259.356 291.129 258.279 290.683 258.317C288.665 258.556 287.117 259.038 285.147 258.601C284.931 258.555 284.705 258.568 284.495 258.639Z" fill="#263238"/>
<path d="M286.523 191.158L285.498 188.595L288.74 188.484C288.951 188.958 289.004 189.486 288.891 189.991C288.778 190.497 288.506 190.953 288.113 191.293L286.523 191.158Z" fill="#E4897B"/>
<path d="M285.146 186.869L287.687 187.357L288.74 188.483L285.498 188.594L285.146 186.869Z" fill="#E4897B"/>
<path d="M262.427 175.996C263.033 177.78 263.849 181.084 262.727 182.476C263.373 182.988 264.123 183.356 264.926 183.555C265.728 183.754 266.564 183.779 267.377 183.629C268.956 183.383 268.887 182.272 268.451 181.711C266.331 181.499 266.178 179.979 266.359 178.507L262.427 175.996Z" fill="#E4897B"/>
<path d="M264.026 177.016L266.344 178.501C266.301 178.846 266.288 179.194 266.305 179.54C265.504 179.54 264.311 178.82 264.116 178.017C264.024 177.691 263.993 177.352 264.026 177.016Z" fill="#CE6F64"/>
<path d="M267.089 168.844C269.055 168.684 269.738 173.391 268.511 174.295C267.284 175.199 263.404 169.142 267.089 168.844Z" fill="#263238"/>
<path d="M261.836 173.271C262.324 175.726 262.485 177.191 263.928 178.293C266.082 179.952 269.007 178.407 269.265 175.868C269.499 173.569 268.658 169.939 266.086 169.288C265.52 169.139 264.926 169.136 264.359 169.279C263.792 169.422 263.271 169.706 262.845 170.105C262.42 170.504 262.104 171.004 261.927 171.558C261.751 172.112 261.719 172.701 261.836 173.271Z" fill="#E4897B"/>
<path d="M262.339 175.671C263.559 176.426 264.73 169.718 261.349 169.874C257.204 170.068 259.748 174.089 262.339 175.671Z" fill="#263238"/>
<path d="M261.448 171.072C263.072 170.175 265.498 171.3 267.161 170.514C268.824 169.728 271.676 170.417 270.337 168.01C269.933 168.703 268.197 168.744 267.294 167.761C266.391 166.777 265.202 166.493 264.505 167.57C263.808 168.648 261.873 166.493 260.224 167.879C258.795 169.067 258.997 172.426 261.448 171.072Z" fill="#263238"/>
<path d="M260.111 170.502C260.111 170.502 258.64 170.454 258.368 169.695C258.351 170.443 258.717 170.935 260.111 170.502Z" fill="#263238"/>
<path d="M261.077 176.169C261.485 176.652 262.067 176.956 262.698 177.014C263.535 177.08 263.796 176.301 263.43 175.598C263.103 174.964 262.269 174.168 261.496 174.427C261.327 174.487 261.175 174.587 261.056 174.72C260.936 174.852 260.851 175.012 260.81 175.185C260.768 175.359 260.771 175.539 260.817 175.711C260.864 175.883 260.954 176.041 261.077 176.169Z" fill="#E4897B"/>
<path d="M264.38 257.779H258.9V256.151L265.025 256.047L264.38 257.779Z" fill="#144EF4"/>
<path d="M285.236 255.188L280.394 256.853L279.854 255.302L285.24 253.355L285.236 255.188Z" fill="#144EF4"/>
<path d="M256.889 186.581C256.934 187.094 256.986 187.547 257.056 188.018C257.126 188.49 257.199 188.954 257.279 189.404C257.447 190.335 257.645 191.26 257.886 192.174C258.126 193.089 258.412 194.01 258.743 194.924L259.001 195.617L259.294 196.31C259.385 196.535 259.5 196.76 259.611 197.002L259.775 197.349L259.817 197.435L259.89 197.57C259.943 197.668 260.001 197.763 260.065 197.854C260.452 198.391 260.94 198.85 261.501 199.205C261.947 199.495 262.413 199.754 262.895 199.981C263.777 200.394 264.685 200.748 265.614 201.04C267.408 201.61 269.244 202.04 271.105 202.325L271.586 200.493C269.934 199.835 268.26 199.129 266.678 198.381C265.905 198.019 265.152 197.618 264.422 197.179C264.094 196.982 263.779 196.764 263.481 196.524C263.28 196.375 263.107 196.191 262.972 195.981L262.944 195.908L262.832 195.624C262.756 195.433 262.679 195.246 262.616 195.046L262.414 194.457L262.229 193.854C261.996 193.044 261.783 192.216 261.602 191.371C261.421 190.526 261.253 189.674 261.114 188.819C260.974 187.963 260.842 187.087 260.734 186.27L256.889 186.581Z" fill="#E4897B"/>
<path d="M256.411 185.074C254.989 187.03 256.631 193.063 256.631 193.063L263.296 193.275C262.964 190.931 262.454 188.615 261.769 186.348C260.709 183.113 258.154 182.701 256.411 185.074Z" fill="#144EF4"/>
<path opacity="0.7" d="M256.411 185.074C254.989 187.03 256.631 193.063 256.631 193.063L263.296 193.275C262.964 190.931 262.454 188.615 261.769 186.348C260.709 183.113 258.154 182.701 256.411 185.074Z" fill="white"/>
<path d="M305.618 162.126C310.333 160.095 315.416 159.044 320.555 159.037C338.683 159.037 353.021 172.135 354.994 189.324L352.746 188.247L318.582 195.402L305.618 162.126Z" fill="#FFA412"/>
<path d="M298.592 159.591L311.56 192.866L279.345 211.914L277.097 210.837C277.097 210.837 274.608 199.28 274.957 192.852C275.741 178.514 296.35 158.5 296.35 158.5L298.592 159.591Z" fill="#144EF4"/>
<path opacity="0.1" d="M298.592 159.591L311.56 192.866L279.345 211.914L277.097 210.837C277.097 210.837 274.608 199.28 274.957 192.852C275.741 178.514 296.35 158.5 296.35 158.5L298.592 159.591Z" fill="white"/>
<path d="M296.35 158.504L309.314 191.786L277.096 210.834C273.835 205.031 272.314 198.421 272.711 191.786C273.52 176.925 283.19 164.153 296.35 158.504Z" fill="#144EF4"/>
<g style="mix-blend-mode:color-dodge" opacity="0.4">
<path d="M277.936 208.03C277.951 208.034 277.967 208.034 277.982 208.03L306.773 190.994C306.791 190.983 306.804 190.966 306.81 190.946C306.817 190.927 306.816 190.905 306.808 190.886L295.304 161.324C295.3 161.312 295.293 161.301 295.284 161.292C295.276 161.283 295.265 161.276 295.254 161.272C295.242 161.267 295.23 161.265 295.217 161.266C295.205 161.266 295.193 161.27 295.182 161.275C289.362 164.193 284.405 168.562 280.795 173.954C277.195 179.296 275.099 185.497 274.726 191.915C274.406 197.45 275.484 202.976 277.863 207.991C277.868 208.003 277.876 208.014 277.885 208.022C277.895 208.03 277.906 208.036 277.919 208.04L277.936 208.03ZM306.612 190.862L277.968 207.811C275.629 202.844 274.571 197.376 274.889 191.901C275.587 179.052 283.357 167.391 295.164 161.452L306.612 190.862Z" fill="#FAFAFA"/>
</g>
<g style="mix-blend-mode:color-dodge" opacity="0.4">
<path d="M317.669 192.079L350.414 186.617C350.436 186.613 350.456 186.6 350.469 186.582C350.478 186.561 350.478 186.538 350.469 186.517C349.191 179.055 345.288 172.287 339.457 167.417C333.501 162.55 326.018 159.908 318.307 159.95C314.116 159.95 309.957 160.688 306.026 162.132C306.014 162.134 306.004 162.14 305.995 162.148C305.987 162.156 305.981 162.166 305.977 162.177C305.968 162.199 305.968 162.224 305.977 162.246L317.578 192.03C317.586 192.047 317.599 192.06 317.616 192.069C317.632 192.078 317.651 192.081 317.669 192.079ZM350.295 186.461L317.725 191.895L306.183 162.263C310.071 160.848 314.18 160.123 318.321 160.123C334.409 160.123 347.548 170.949 350.295 186.461Z" fill="#FAFAFA"/>
</g>
<path d="M318.582 195.401L352.746 188.246L355.005 189.33C355.236 191.348 355.295 193.381 355.182 195.408C354.088 215.495 336.811 231.773 316.595 231.773C303.418 231.773 292.245 224.846 286.368 214.456L318.582 195.401Z" fill="#FFA412"/>
<g style="mix-blend-mode:color-dodge" opacity="0.4">
<path d="M314.352 228.695C333.487 228.695 349.91 213.224 350.956 194.214C351.017 193.032 351.017 191.847 350.956 190.664C350.956 190.652 350.954 190.64 350.948 190.629C350.943 190.618 350.934 190.609 350.924 190.602C350.915 190.593 350.904 190.587 350.892 190.583C350.88 190.58 350.867 190.579 350.855 190.581L317.064 196.22H317.036L286.966 214.014C286.955 214.02 286.946 214.028 286.939 214.037C286.932 214.047 286.927 214.058 286.924 214.069C286.916 214.091 286.916 214.114 286.924 214.135C289.848 218.626 293.869 222.309 298.613 224.84C303.462 227.388 308.867 228.712 314.352 228.695ZM350.778 190.768C350.83 191.911 350.827 193.065 350.778 194.204C349.732 213.124 333.41 228.522 314.366 228.522C303.054 228.522 293.133 223.275 287.137 214.128L317.117 196.389L350.778 190.768Z" fill="#FAFAFA"/>
</g>
<path d="M270.908 200.458L273.397 199.793L272.857 202.969C272.857 202.969 270.612 203.069 270.417 201.892L270.908 200.458Z" fill="#E4897B"/>
<path d="M275.357 200.6L274.785 203.208L272.857 202.969L273.398 199.793L275.357 200.6Z" fill="#E4897B"/>
</svg>
