<svg width="635" height="329" viewBox="0 0 635 329" fill="none" xmlns="http://www.w3.org/2000/svg">
<path d="M386.799 278.835C386.797 278.787 387.065 273.338 384.432 272.083L384.617 271.904C385.824 272.324 387.159 273.628 387.694 275.465C388.093 276.831 387.791 277.131 387.791 277.181L386.799 278.835Z" fill="#A4C8FC"/>
<path d="M369.354 264.714C369.354 264.714 370.254 271.729 374.53 273.781C378.806 275.833 384.839 272.149 384.839 272.149C384.839 272.149 383.939 265.134 379.663 263.082C375.389 261.028 369.354 264.714 369.354 264.714Z" fill="#A4C8FC"/>
<path d="M386.349 289.057C386.299 288.782 385.35 282.366 387.778 275.216C390.112 268.345 388.818 262.518 388.808 262.46H390.524C390.568 262.709 390.688 268.427 388.859 276.263C387.213 283.314 390.285 289.057 389.631 289.057H386.349Z" fill="#A4C8FC"/>
<path d="M389.956 270.113C389.966 270.077 390.784 265.374 392.99 264.841C392.005 264.969 390.753 265.676 390.053 266.989C389.532 267.967 389.715 268.242 389.705 268.281L389.956 270.113Z" fill="#A4C8FC"/>
<path d="M397.028 270.598C393.731 269.932 391.893 265.271 391.893 265.271C391.893 265.271 395.397 261.688 398.691 262.352C401.987 263.018 403.826 267.68 403.826 267.68C403.826 267.68 400.324 271.265 397.028 270.598Z" fill="#A4C8FC"/>
<path d="M371.431 255.404C366.185 247.436 368.388 236.717 376.357 231.469C384.325 226.221 395.038 228.425 400.284 236.396C405.531 244.365 403.327 255.083 395.359 260.331C387.39 265.582 376.678 263.375 371.431 255.404Z" fill="#FFB93E"/>
<path d="M394.625 259.221C391.114 261.534 386.912 262.34 382.795 261.493C378.678 260.645 375.135 258.243 372.824 254.731C370.512 251.219 369.706 247.016 370.553 242.898C371.4 238.779 373.801 235.236 377.312 232.923C380.823 230.61 385.025 229.804 389.142 230.651C393.259 231.499 396.802 233.901 399.113 237.413C401.425 240.925 402.231 245.128 401.384 249.246C400.537 253.365 398.136 256.906 394.625 259.221ZM377.829 233.707C371.014 238.198 369.122 247.397 373.61 254.214C378.099 261.032 387.296 262.924 394.111 258.437C400.926 253.946 402.818 244.747 398.332 237.93C393.84 231.112 384.644 229.217 377.829 233.707Z" fill="#FFA412"/>
<path d="M390.291 248.697C390.139 248.39 389.96 248.144 389.757 247.953C389.555 247.762 389.308 247.622 389.016 247.531C388.724 247.439 388.387 247.391 387.996 247.386C387.607 247.381 387.151 247.415 386.627 247.485C385.725 247.601 384.887 247.666 384.113 247.685C383.338 247.705 382.631 247.632 381.991 247.47C381.352 247.309 380.78 247.031 380.273 246.638C379.769 246.244 379.337 245.691 378.98 244.977C378.671 244.359 378.497 243.738 378.461 243.12C378.425 242.502 378.516 241.901 378.734 241.317C378.951 240.735 379.286 240.183 379.735 239.661C380.184 239.14 380.746 238.669 381.417 238.251L380.247 235.915L382.127 234.973L383.314 237.341C384.031 237.09 384.733 236.965 385.416 236.957C386.099 236.953 386.741 237.068 387.339 237.305C387.938 237.542 388.488 237.901 388.987 238.384C389.489 238.867 389.921 239.47 390.286 240.199L386.89 241.901C386.453 241.027 385.932 240.472 385.326 240.233C384.723 239.994 384.093 240.038 383.444 240.364C383.092 240.54 382.812 240.743 382.607 240.967C382.402 241.194 382.259 241.433 382.18 241.686C382.1 241.94 382.081 242.203 382.119 242.476C382.158 242.749 382.245 243.019 382.38 243.289C382.515 243.56 382.677 243.782 382.863 243.963C383.051 244.142 383.287 244.277 383.572 244.366C383.857 244.455 384.2 244.504 384.598 244.506C384.996 244.511 385.476 244.484 386.034 244.422C386.936 244.325 387.774 244.269 388.546 244.255C389.318 244.243 390.025 244.318 390.667 244.484C391.309 244.651 391.881 244.928 392.388 245.322C392.892 245.715 393.322 246.266 393.676 246.971C393.997 247.61 394.173 248.243 394.205 248.863C394.236 249.486 394.142 250.082 393.92 250.659C393.698 251.234 393.355 251.779 392.894 252.294C392.431 252.808 391.864 253.274 391.193 253.694L392.282 255.866L390.414 256.803L389.332 254.64C388.65 254.901 387.95 255.072 387.233 255.159C386.516 255.246 385.821 255.2 385.146 255.024C384.47 254.848 383.835 254.517 383.239 254.034C382.643 253.549 382.127 252.871 381.69 251.997L385.085 250.295C385.343 250.811 385.633 251.207 385.949 251.48C386.268 251.753 386.598 251.934 386.946 252.018C387.293 252.105 387.641 252.113 387.993 252.04C388.345 251.97 388.681 251.852 389.002 251.692C389.371 251.509 389.67 251.299 389.9 251.065C390.131 250.831 390.298 250.582 390.402 250.321C390.505 250.061 390.546 249.79 390.527 249.515C390.503 249.24 390.426 248.967 390.291 248.697Z" fill="#FFA412"/>
<path d="M403.612 287.388L403.61 287.403L403.267 292.697L401.988 312.349H378.08L376.673 292.965L376.284 287.622L376.268 287.388H403.612Z" fill="#B4C9F7"/>
<path d="M403.609 287.402L403.264 292.696C401.464 292.069 396.459 290.56 389.936 290.56C381.702 290.56 376.668 292.964 376.668 292.964L376.279 287.622L403.609 287.402Z" fill="#9BB8EA"/>
<path d="M404.442 290.185H375.401L375.068 286.808H404.812L404.442 290.185Z" fill="#B4C9F7"/>
<path d="M402.354 313.398H377.566L377.283 312.22H402.671L402.354 313.398Z" fill="#B4C9F7"/>
<path d="M552.052 186.854L549.731 188.74C549.731 188.74 543.382 186.461 541.948 194.01C541.948 194.01 541.567 197.227 543.604 197.232C545.641 197.237 544.801 196.88 547.685 196.964C550.568 197.049 552.96 195.528 553.382 193.186L554.763 191.202L552.052 186.854Z" fill="#EA8E50"/>
<path d="M552.316 190.903C550.465 188.969 550.612 187.538 550.612 187.538C550.612 187.538 572.056 169.976 574.231 168.545C575.712 167.569 591.505 153.563 598.887 145.027C602.548 140.793 607.084 142.435 612.273 143.924L616.547 145.15C621.706 146.63 623.048 153.85 618.815 157.358C606.891 167.239 587.055 178.353 583.341 180.687C574.127 186.485 556.09 193.375 556.09 193.375C556.09 193.375 553.906 192.564 552.316 190.903Z" fill="#1E3D70"/>
<path d="M527.844 298.803C527.844 298.803 522.638 302.704 514.665 300.642C514.665 300.642 508.236 299.177 506.824 302.385C506.824 302.385 516.685 307.397 519.18 308.765C521.06 309.798 523.024 311.428 524.41 312.688C525.508 313.685 527.219 313.55 528.155 312.398C528.589 311.865 529.084 311.23 529.629 310.491C531.15 308.43 534.692 301.772 534.692 301.772L527.844 298.803Z" fill="#1D2942"/>
<path d="M586.903 161.256C589.618 141.339 575.678 122.991 555.767 120.275C535.856 117.56 517.514 131.504 514.799 151.421C512.084 171.339 526.024 189.686 545.935 192.402C565.846 195.118 584.188 181.174 586.903 161.256Z" fill="#E2810E"/>
<path d="M579.732 182.048C593.942 167.834 593.942 144.788 579.732 130.574C565.523 116.36 542.484 116.36 528.274 130.574C514.064 144.788 514.064 167.834 528.274 182.048C542.484 196.263 565.523 196.263 579.732 182.048Z" fill="#FFB93E"/>
<path d="M530.566 180.189C524.304 173.925 520.855 165.599 520.855 156.74C520.855 147.883 524.304 139.554 530.566 133.29C536.829 127.026 545.152 123.576 554.009 123.576C562.863 123.576 571.188 127.026 577.451 133.29C583.713 139.554 587.162 147.88 587.162 156.74C587.162 165.597 583.713 173.925 577.451 180.189C571.188 186.454 562.865 189.903 554.009 189.903C545.152 189.901 536.826 186.451 530.566 180.189ZM522.834 156.74C522.834 173.935 536.819 187.924 554.009 187.924C571.198 187.924 585.183 173.935 585.183 156.74C585.183 139.545 571.198 125.556 554.009 125.556C536.819 125.556 522.834 139.545 522.834 156.74Z" fill="#FFA412"/>
<path d="M549.98 168.073C550.262 168.583 550.648 169.008 551.133 169.348C551.621 169.688 552.202 169.93 552.878 170.075C553.556 170.219 554.324 170.239 555.185 170.137C555.938 170.048 556.662 169.862 557.364 169.582C558.064 169.3 558.67 168.882 559.182 168.332C559.693 167.779 560.07 167.079 560.311 166.229C560.555 165.379 560.603 164.351 560.461 163.142L568.405 162.198C568.646 164.24 568.526 166.033 568.038 167.576C567.553 169.119 566.817 170.437 565.832 171.53C564.848 172.624 563.675 173.51 562.314 174.188C560.955 174.866 559.524 175.373 558.021 175.706L558.622 180.764L554.251 181.283L553.648 176.201C551.98 176.245 550.441 176.081 549.031 175.714C547.622 175.347 546.389 174.784 545.334 174.029C544.28 173.273 543.418 172.332 542.755 171.202C542.091 170.072 541.671 168.759 541.493 167.26C541.297 165.609 541.415 164.143 541.85 162.866C542.284 161.589 542.969 160.433 543.906 159.397C544.842 158.362 545.998 157.411 547.371 156.539C548.744 155.668 550.282 154.796 551.98 153.92C553.033 153.382 553.906 152.875 554.601 152.404C555.299 151.933 555.846 151.453 556.242 150.965C556.64 150.478 556.901 149.968 557.022 149.435C557.145 148.901 557.169 148.322 557.094 147.692C557.019 147.062 556.858 146.485 556.611 145.961C556.363 145.437 556.023 145 555.591 144.643C555.159 144.288 554.63 144.032 554.008 143.873C553.385 143.714 552.661 143.682 551.836 143.781C550.315 143.962 549.162 144.614 548.373 145.734C547.586 146.854 547.313 148.438 547.557 150.48L539.613 151.424C539.41 149.722 539.473 148.155 539.794 146.726C540.117 145.297 540.667 144.027 541.447 142.917C542.226 141.807 543.22 140.858 544.427 140.076C545.636 139.294 547.014 138.707 548.566 138.316L547.909 132.773L552.306 132.252L552.955 137.717C554.623 137.674 556.153 137.852 557.548 138.246C558.943 138.642 560.169 139.226 561.226 139.998C562.283 140.771 563.139 141.722 563.793 142.854C564.447 143.986 564.86 145.275 565.031 146.721C565.229 148.39 565.111 149.865 564.677 151.142C564.242 152.419 563.557 153.57 562.62 154.598C561.684 155.624 560.523 156.571 559.138 157.435C557.755 158.299 556.201 159.151 554.481 159.996C553.479 160.476 552.637 160.95 551.959 161.408C551.281 161.869 550.738 162.347 550.332 162.845C549.927 163.342 549.656 163.875 549.519 164.443C549.381 165.012 549.355 165.652 549.442 166.369C549.517 166.994 549.698 167.564 549.98 168.073Z" fill="#FFA412"/>
<path d="M524.791 296.819C524.791 296.819 527.96 304.129 535.274 302.784C535.274 302.784 550.2 290.453 560.439 277.645C563.765 273.483 566.596 269.273 568.261 265.42C575.049 249.695 593.375 226.243 605.027 214.357L575.877 203.808C575.877 203.808 566.54 222.596 554.117 245.674C545.161 262.304 534.608 281.159 524.791 296.819Z" fill="#144EF4"/>
<path d="M554.115 245.674L560.44 277.645C563.766 273.483 566.597 269.273 568.262 265.42C575.05 249.695 593.376 226.243 605.027 214.357L575.878 203.808C575.875 203.808 566.539 222.596 554.115 245.674Z" fill="#144EF4"/>
<path d="M577.942 303.043C577.942 303.043 578.26 308.875 571.192 309.652C571.192 309.652 567.152 309.674 567.143 313.384L587.687 313.45C587.687 313.45 588.283 311.953 588.427 308.745C588.538 306.282 586.041 299.844 586.041 299.844L577.942 303.043Z" fill="#1D2942"/>
<path d="M585.436 203.81C585.436 203.81 572.451 218.084 564.207 243.8C559.721 257.791 572.426 292.971 574.905 305.193C574.905 305.193 583.428 305.917 589.256 303.662C589.256 303.662 589.7 278.417 586.29 258.96C584.384 248.07 603.388 235.672 611.695 215.995C617.344 202.61 610.471 202.837 602.025 202.516L585.436 203.81Z" fill="#144EF4"/>
<path d="M600.428 140.127C607.653 144.209 622.444 140.443 622.444 140.443C622.444 140.443 616.437 133.573 619.167 122.51L613.493 125.392L607.4 128.487C607.4 128.487 607.006 130.44 606.731 133.95C606.661 134.853 606.598 135.864 606.555 136.967C602.848 138.092 600.428 140.127 600.428 140.127Z" fill="#FFB07B"/>
<path d="M573.932 203.073C573.932 204.343 575.394 204.951 575.705 205.014C578.621 205.548 586.756 208.712 594.087 209.439C600.26 210.086 605.989 209.473 612.285 208.208C613.12 208.039 615.075 207.513 615.215 206.714C615.389 205.84 639.497 157.55 620.756 136.804C620.317 136.317 616.617 137.195 613.234 137.997C610.109 138.738 607.244 138.325 604.684 137.297L601.51 138.967C597.613 141.14 590.24 148.855 589.379 154.909C588.94 157.989 587.18 160.268 586.671 162.977C586.483 163.979 586.29 164.959 586.092 165.912C585.708 167.783 585.312 169.562 584.905 171.257C583.802 175.836 582.639 179.778 581.497 183.184C580.281 186.801 579.089 189.808 578.022 192.324C576.639 195.588 575.474 198.026 574.742 199.892C574.228 201.205 573.932 202.236 573.932 203.073Z" fill="#D2E3FC"/>
<path d="M574.744 199.891C608.778 183.852 620.564 153.052 620.564 153.052C620.564 153.052 592.913 163.256 586.094 165.912C585.71 167.782 585.314 169.562 584.906 171.256C583.803 175.836 582.64 179.778 581.499 183.184C580.283 186.8 579.09 189.808 578.024 192.323C576.641 195.585 575.475 198.023 574.744 199.891Z" fill="#A4C8FC"/>
<path d="M554.832 190.595L551.89 191.674C551.89 191.674 546.002 187.507 542.334 194.283C542.334 194.283 541.006 197.243 543.106 197.885C545.206 198.527 544.443 197.923 547.392 198.906C550.343 199.888 553.249 199.181 554.364 197.071L556.362 195.604L554.832 190.595Z" fill="#FFB07B"/>
<path d="M552.411 194.756C551.323 191.918 550.828 190.633 550.828 190.633C550.828 190.633 573.049 172.514 575.315 170.959C576.857 169.899 592.22 158.414 599.708 149.463C603.422 145.023 609.282 142.993 614.946 144.181L619.61 145.158C625.243 146.339 627.072 153.472 622.704 157.219C610.399 167.773 589.643 180.012 585.772 182.558C576.165 188.878 554.914 197.735 554.914 197.735C554.914 197.735 553.266 196.985 552.411 194.756Z" fill="#D2E3FC"/>
<path d="M606.732 133.952C613.837 134.35 618.458 128.484 618.458 128.484C618.458 128.484 615.246 126.705 613.494 125.395L607.401 128.489C607.398 128.489 607.005 130.442 606.732 133.952Z" fill="#EA8E50"/>
<path d="M603.704 126.655C603.704 126.655 614.47 134.382 619.178 127.603C623.886 120.822 628.447 117.255 621.772 112.033C615.097 106.812 611.95 108.463 609.829 110.343C607.708 112.221 601.025 124.47 603.704 126.655Z" fill="#FFB07B"/>
<path d="M608.691 104.219C609.077 101.612 609.946 99.7798 609.946 99.7798C609.946 99.7798 610.621 102.58 615.735 102.194C620.849 101.808 628.955 102.696 631.657 108.526C631.829 108.897 631.983 109.279 632.118 109.67C632.608 108.378 632.724 106.44 632.724 106.44C633.697 108.951 632.724 112.089 632.724 112.089C632.739 112.181 632.751 112.272 632.765 112.364C633.895 113.317 634.843 116.287 634.843 116.287C634.503 115.459 633.67 114.918 632.932 114.587C632.953 119.123 631.114 123.558 627.888 124.878C623.168 126.809 623.206 125.337 618.457 128.485C618.457 128.485 617.183 126.903 618.052 125.841C618.92 124.779 622.2 123.234 620.368 121.692C618.537 120.149 617.859 121.885 617.183 120.823C616.507 119.76 619.886 116.673 615.542 113.776C611.2 110.879 608.305 106.824 608.691 104.219Z" fill="#1D2942"/>
<path d="M145.163 307.446V311.651C145.163 311.987 145.042 312.298 144.832 312.556C144.613 312.829 144.296 313.044 143.927 313.162C143.814 313.201 143.696 313.227 143.575 313.244C143.464 313.261 143.35 313.271 143.235 313.271H63.4697C62.4416 313.271 61.5946 312.585 61.5415 311.733C61.5415 311.707 61.5391 311.678 61.5391 311.651V307.446C61.5391 307.417 61.5391 307.39 61.5415 307.361C61.5946 306.509 62.4416 305.824 63.4697 305.824H143.232C143.348 305.824 143.461 305.833 143.572 305.85C143.693 305.867 143.811 305.896 143.925 305.932C144.294 306.053 144.61 306.266 144.83 306.538C145.04 306.801 145.163 307.11 145.163 307.446Z" fill="#FFB93E"/>
<path d="M105.995 313.273H63.2641C62.347 313.273 61.5893 312.588 61.5434 311.736C61.5434 311.709 61.541 311.68 61.541 311.654V307.448C61.541 307.419 61.541 307.393 61.5434 307.364C61.5893 306.512 62.347 305.826 63.2641 305.826H100.749C101.345 308.018 102.74 311.05 105.995 313.273Z" fill="#FFA412"/>
<path d="M135.456 305.827H134.549V313.277H135.456V305.827Z" fill="#FFA412"/>
<path d="M132.39 305.827H131.482V313.277H132.39V305.827Z" fill="#FFA412"/>
<path d="M128.71 305.827H127.803V313.277H128.71V305.827Z" fill="#FFA412"/>
<path d="M123.069 305.827H122.162V313.277H123.069V305.827Z" fill="#FFA412"/>
<path d="M117.103 305.827H116.195V313.277H117.103V305.827Z" fill="#FFA412"/>
<path d="M107.96 305.827H107.053V313.277H107.96V305.827Z" fill="#FFA412"/>
<path d="M99.3976 305.827H98.4902V313.277H99.3976V305.827Z" fill="#FFA412"/>
<path d="M91.7531 305.828H90.8457V313.278H91.7531V305.828Z" fill="#FFA412"/>
<path d="M138.378 305.827H137.471V313.277H138.378V305.827Z" fill="#FFA412"/>
<path d="M140.308 305.827H139.4V313.277H140.308V305.827Z" fill="#FFA412"/>
<path d="M142.171 305.827H141.264V313.277H142.171V305.827Z" fill="#FFA412"/>
<path d="M143.571 305.854V313.25C143.46 313.267 143.347 313.277 143.231 313.277H142.664V305.827H143.231C143.347 305.827 143.46 305.834 143.571 305.854Z" fill="#FFA412"/>
<path d="M144.833 306.542V312.558C144.613 312.83 144.297 313.045 143.928 313.164V305.934C144.297 306.057 144.613 306.272 144.833 306.542Z" fill="#FFA412"/>
<path d="M136.635 299.998V304.203C136.635 304.538 136.514 304.85 136.304 305.108C136.085 305.381 135.769 305.596 135.399 305.714C135.286 305.753 135.168 305.779 135.047 305.796C134.936 305.813 134.823 305.823 134.707 305.823H54.9443C53.9162 305.823 53.0692 305.137 53.0161 304.285C53.0161 304.256 53.0137 304.229 53.0137 304.203V299.998C53.0137 299.969 53.0137 299.942 53.0161 299.913C53.0692 299.061 53.9162 298.375 54.9443 298.375H134.707C134.757 298.375 134.808 298.378 134.859 298.38C134.881 298.38 134.902 298.383 134.924 298.385C134.948 298.388 134.972 298.39 134.996 298.392C135.013 298.395 135.03 298.397 135.047 298.4C135.168 298.417 135.288 298.446 135.399 298.484C135.416 298.489 135.433 298.494 135.45 298.501C135.467 298.506 135.484 298.513 135.498 298.518C135.53 298.53 135.564 298.544 135.595 298.557C135.614 298.564 135.631 298.573 135.65 298.583C135.667 298.59 135.684 298.598 135.699 298.607C135.73 298.622 135.759 298.639 135.79 298.656C135.824 298.675 135.858 298.697 135.889 298.718C135.916 298.735 135.94 298.752 135.964 298.769C135.964 298.769 135.967 298.771 135.969 298.774C135.986 298.786 136.003 298.798 136.017 298.81C136.065 298.849 136.114 298.89 136.157 298.931C136.172 298.943 136.184 298.955 136.196 298.969C136.208 298.981 136.22 298.996 136.232 299.008C136.256 299.035 136.28 299.063 136.304 299.09C136.512 299.351 136.635 299.662 136.635 299.998Z" fill="#FFB93E"/>
<path d="M97.4681 305.826H54.7367C53.8173 305.826 53.0619 305.14 53.0161 304.288C53.0161 304.259 53.0137 304.233 53.0137 304.206V300.001C53.0137 299.972 53.0137 299.946 53.0161 299.917C53.0619 299.064 53.8173 298.379 54.7367 298.379H92.2192C92.2361 298.439 92.253 298.5 92.2723 298.562C92.8974 300.737 94.3019 303.663 97.4681 305.826Z" fill="#FFA412"/>
<path d="M126.929 298.376H126.021V305.826H126.929V298.376Z" fill="#FFA412"/>
<path d="M123.86 298.376H122.953V305.826H123.86V298.376Z" fill="#FFA412"/>
<path d="M120.181 298.376H119.273V305.826H120.181V298.376Z" fill="#FFA412"/>
<path d="M114.54 298.376H113.633V305.826H114.54V298.376Z" fill="#FFA412"/>
<path d="M108.575 298.376H107.668V305.826H108.575V298.376Z" fill="#FFA412"/>
<path d="M99.4308 298.376H98.5234V305.826H99.4308V298.376Z" fill="#FFA412"/>
<path d="M90.8703 298.376H89.9629V305.826H90.8703V298.376Z" fill="#FFA412"/>
<path d="M83.2257 298.375H82.3184V305.825H83.2257V298.375Z" fill="#FFA412"/>
<path d="M129.851 298.376H128.943V305.826H129.851V298.376Z" fill="#FFA412"/>
<path d="M131.778 298.376H130.871V305.826H131.778V298.376Z" fill="#FFA412"/>
<path d="M133.642 298.376H132.734V305.826H133.642V298.376Z" fill="#FFA412"/>
<path d="M135.044 298.403V305.8C134.933 305.816 134.82 305.826 134.704 305.826H134.137V298.376H134.704C134.82 298.376 134.933 298.386 135.044 298.403Z" fill="#FFA412"/>
<path d="M136.303 299.093V305.109C136.084 305.382 135.768 305.596 135.398 305.715V298.485C135.768 298.606 136.084 298.82 136.303 299.093Z" fill="#FFA412"/>
<path d="M140.757 292.733V296.938C140.757 297.273 140.636 297.585 140.426 297.843C140.206 298.116 139.89 298.331 139.521 298.449C139.407 298.488 139.289 298.514 139.169 298.531C139.058 298.548 138.944 298.558 138.828 298.558H59.0634C58.7424 298.558 58.4408 298.492 58.1729 298.374C57.6082 298.125 57.2052 297.65 57.1425 297.092C57.1401 297.068 57.1376 297.044 57.1352 297.02C57.1352 296.993 57.1328 296.964 57.1328 296.938V292.733C57.1328 292.704 57.1328 292.677 57.1352 292.648C57.1883 291.796 58.0354 291.11 59.0634 291.11H138.826C138.942 291.11 139.055 291.12 139.166 291.137C139.287 291.154 139.405 291.183 139.519 291.221C139.888 291.342 140.204 291.555 140.423 291.827C140.633 292.088 140.757 292.397 140.757 292.733Z" fill="#FFB93E"/>
<path d="M101.587 298.561H58.8559C58.5711 298.561 58.3008 298.496 58.0619 298.378C57.5575 298.129 57.198 297.654 57.1425 297.096C57.1401 297.072 57.1376 297.048 57.1352 297.024C57.1352 296.997 57.1328 296.968 57.1328 296.942V292.736C57.1328 292.707 57.1328 292.681 57.1352 292.652C57.1811 291.8 57.9388 291.114 58.8559 291.114H96.3408C96.9224 293.246 98.2593 296.174 101.327 298.378C101.413 298.441 101.5 298.501 101.587 298.561Z" fill="#FFA412"/>
<path d="M131.05 291.112H130.143V298.562H131.05V291.112Z" fill="#FFA412"/>
<path d="M127.982 291.112H127.074V298.562H127.982V291.112Z" fill="#FFA412"/>
<path d="M124.302 291.112H123.395V298.562H124.302V291.112Z" fill="#FFA412"/>
<path d="M118.659 291.112H117.752V298.562H118.659V291.112Z" fill="#FFA412"/>
<path d="M112.696 291.112H111.789V298.562H112.696V291.112Z" fill="#FFA412"/>
<path d="M103.552 291.112H102.645V298.562H103.552V291.112Z" fill="#FFA412"/>
<path d="M94.9914 291.112H94.084V298.562H94.9914V291.112Z" fill="#FFA412"/>
<path d="M87.3449 291.112H86.4375V298.562H87.3449V291.112Z" fill="#FFA412"/>
<path d="M133.97 291.112H133.062V298.562H133.97V291.112Z" fill="#FFA412"/>
<path d="M135.9 291.112H134.992V298.562H135.9V291.112Z" fill="#FFA412"/>
<path d="M137.763 291.112H136.855V298.562H137.763V291.112Z" fill="#FFA412"/>
<path d="M139.165 291.136V298.532C139.054 298.549 138.941 298.559 138.825 298.559H138.258V291.109H138.825C138.941 291.112 139.054 291.119 139.165 291.136Z" fill="#FFA412"/>
<path d="M140.424 291.826V297.842C140.205 298.115 139.889 298.329 139.52 298.448V291.218C139.889 291.341 140.202 291.553 140.424 291.826Z" fill="#FFA412"/>
<path d="M142.666 285.285V289.493C142.666 289.828 142.546 290.14 142.336 290.398C142.116 290.671 141.8 290.886 141.431 291.004C141.317 291.043 141.199 291.069 141.078 291.089C140.967 291.105 140.854 291.115 140.738 291.115H60.9755C59.9475 291.115 59.1004 290.43 59.0473 289.577C59.0473 289.548 59.0449 289.522 59.0449 289.495V285.288C59.0449 285.259 59.0449 285.232 59.0473 285.206C59.0956 284.416 59.8244 283.772 60.7463 283.68C60.8211 283.673 60.8959 283.668 60.9755 283.668H140.738C140.854 283.668 140.967 283.678 141.078 283.695C141.199 283.711 141.317 283.74 141.431 283.779C141.8 283.9 142.116 284.112 142.336 284.385C142.546 284.638 142.666 284.95 142.666 285.285Z" fill="#FFB93E"/>
<path d="M103.499 291.113H60.768C59.8509 291.113 59.0932 290.427 59.0473 289.575C59.0473 289.546 59.0449 289.519 59.0449 289.493V285.285C59.0449 285.256 59.0449 285.23 59.0473 285.203C59.0908 284.414 59.7399 283.769 60.5653 283.678C60.6304 283.67 60.7004 283.666 60.768 283.666H98.2529C98.2529 283.668 98.2553 283.673 98.2553 283.678C98.8562 285.867 100.251 288.892 103.499 291.113Z" fill="#FFA412"/>
<path d="M132.964 283.664H132.057V291.111H132.964V283.664Z" fill="#FFA412"/>
<path d="M129.894 283.664H128.986V291.111H129.894V283.664Z" fill="#FFA412"/>
<path d="M126.214 283.664H125.307V291.111H126.214V283.664Z" fill="#FFA412"/>
<path d="M120.573 283.664H119.666V291.111H120.573V283.664Z" fill="#FFA412"/>
<path d="M114.611 283.664H113.703V291.111H114.611V283.664Z" fill="#FFA412"/>
<path d="M105.464 283.664H104.557V291.111H105.464V283.664Z" fill="#FFA412"/>
<path d="M96.9054 283.664H95.998V291.111H96.9054V283.664Z" fill="#FFA412"/>
<path d="M89.259 283.664H88.3516V291.111H89.259V283.664Z" fill="#FFA412"/>
<path d="M135.884 283.664H134.977V291.111H135.884V283.664Z" fill="#FFA412"/>
<path d="M137.814 283.664H136.906V291.111H137.814V283.664Z" fill="#FFA412"/>
<path d="M139.677 283.664H138.77V291.111H139.677V283.664Z" fill="#FFA412"/>
<path d="M141.079 283.691V291.087C140.968 291.104 140.855 291.114 140.739 291.114H140.172V283.664H140.739C140.855 283.664 140.968 283.674 141.079 283.691Z" fill="#FFA412"/>
<path d="M142.337 284.382V290.397C142.117 290.67 141.801 290.885 141.432 291.003V283.773C141.801 283.894 142.117 284.109 142.337 284.382Z" fill="#FFA412"/>
<path d="M136.801 277.847V282.052C136.801 282.388 136.68 282.699 136.47 282.958C136.251 283.231 135.935 283.445 135.565 283.564C135.452 283.602 135.334 283.629 135.213 283.646C135.177 283.651 135.138 283.655 135.102 283.66C135.083 283.663 135.061 283.663 135.039 283.665C135.02 283.667 134.998 283.667 134.977 283.667C134.943 283.67 134.909 283.67 134.875 283.67H55.1103C54.0822 283.67 53.2352 282.984 53.1821 282.132C53.1821 282.103 53.1797 282.077 53.1797 282.05V277.845C53.1797 277.816 53.1797 277.789 53.1821 277.76C53.1821 277.736 53.1845 277.715 53.1869 277.693C53.2642 277.007 53.8578 276.44 54.6325 276.273C54.6518 276.269 54.6711 276.266 54.6904 276.261C54.8255 276.237 54.9655 276.223 55.1079 276.223H134.87C134.928 276.223 134.986 276.225 135.044 276.23C135.071 276.232 135.095 276.235 135.121 276.237C135.15 276.24 135.182 276.244 135.211 276.249C135.331 276.266 135.45 276.295 135.563 276.334C135.932 276.454 136.248 276.667 136.468 276.94C136.68 277.2 136.801 277.512 136.801 277.847Z" fill="#FFB93E"/>
<path d="M97.634 283.676H54.9027C53.9857 283.676 53.228 282.991 53.1821 282.138C53.1821 282.109 53.1797 282.083 53.1797 282.056V277.851C53.1797 277.822 53.1797 277.796 53.1821 277.767C53.1821 277.743 53.1845 277.721 53.1869 277.699C53.2569 276.997 53.8071 276.422 54.5239 276.27C54.548 276.263 54.5721 276.26 54.5987 276.256C54.6976 276.239 54.799 276.229 54.9027 276.229H92.3876C92.3925 276.246 92.3973 276.263 92.4021 276.282C93.0078 278.467 94.4027 281.463 97.6171 283.667C97.622 283.669 97.6292 283.671 97.634 283.676Z" fill="#FFA412"/>
<path d="M127.097 276.225H126.189V283.674H127.097V276.225Z" fill="#FFA412"/>
<path d="M124.027 276.225H123.119V283.674H124.027V276.225Z" fill="#FFA412"/>
<path d="M120.345 276.225H119.438V283.674H120.345V276.225Z" fill="#FFA412"/>
<path d="M114.706 276.225H113.799V283.674H114.706V276.225Z" fill="#FFA412"/>
<path d="M108.743 276.225H107.836V283.674H108.743V276.225Z" fill="#FFA412"/>
<path d="M99.5988 276.225H98.6914V283.674H99.5988V276.225Z" fill="#FFA412"/>
<path d="M91.0363 276.225H90.1289V283.674H91.0363V276.225Z" fill="#FFA412"/>
<path d="M83.3917 276.226H82.4844V283.675H83.3917V276.226Z" fill="#FFA412"/>
<path d="M130.017 276.225H129.109V283.674H130.017V276.225Z" fill="#FFA412"/>
<path d="M131.946 276.225H131.039V283.674H131.946V276.225Z" fill="#FFA412"/>
<path d="M133.81 276.225H132.902V283.674H133.81V276.225Z" fill="#FFA412"/>
<path d="M135.212 276.251V283.648C135.101 283.665 134.988 283.674 134.872 283.674H134.305V276.225H134.872C134.988 276.225 135.101 276.234 135.212 276.251Z" fill="#FFA412"/>
<path d="M136.467 276.941V282.957C136.248 283.23 135.932 283.445 135.562 283.563V276.333C135.932 276.454 136.248 276.669 136.467 276.941Z" fill="#FFA412"/>
<path d="M136.635 270.452V274.658C136.635 274.993 136.514 275.304 136.304 275.563C136.084 275.836 135.768 276.05 135.399 276.169C135.31 276.198 135.218 276.222 135.124 276.239H135.121C135.095 276.244 135.071 276.248 135.047 276.253C134.936 276.27 134.822 276.28 134.706 276.28H54.9438C54.8593 276.28 54.7749 276.275 54.6952 276.265C54.6639 276.263 54.6301 276.258 54.6011 276.253C53.7348 276.123 53.0639 275.498 53.018 274.742C53.018 274.713 53.0156 274.686 53.0156 274.66V270.455C53.0156 270.426 53.0156 270.399 53.018 270.37C53.0711 269.518 53.9182 268.833 54.9462 268.833H134.709C134.759 268.833 134.81 268.835 134.861 268.837C134.883 268.84 134.904 268.84 134.926 268.842C134.95 268.845 134.974 268.847 134.998 268.849C135.015 268.852 135.032 268.854 135.049 268.857C135.17 268.874 135.29 268.903 135.401 268.941C135.418 268.946 135.435 268.951 135.452 268.958C135.469 268.963 135.486 268.97 135.5 268.975C135.534 268.987 135.565 269.001 135.597 269.014C135.633 269.03 135.667 269.045 135.701 269.064C135.732 269.079 135.761 269.096 135.792 269.113C135.826 269.132 135.86 269.154 135.891 269.175C135.918 269.192 135.942 269.209 135.966 269.226C135.966 269.226 135.968 269.228 135.971 269.231C135.988 269.243 136.005 269.255 136.019 269.267C136.067 269.306 136.116 269.347 136.159 269.388C136.174 269.4 136.186 269.412 136.198 269.426C136.21 269.441 136.222 269.453 136.234 269.465C136.258 269.492 136.282 269.521 136.306 269.547C136.511 269.808 136.635 270.117 136.635 270.452Z" fill="#FFB93E"/>
<path d="M97.4681 276.28H54.7367C54.7029 276.28 54.6692 276.28 54.6354 276.277C54.5992 276.275 54.5606 276.272 54.5244 276.268C53.7039 276.174 53.0571 275.529 53.0161 274.742C53.0161 274.713 53.0137 274.686 53.0137 274.66V270.455C53.0137 270.426 53.0137 270.399 53.0161 270.37C53.0619 269.518 53.8173 268.833 54.7367 268.833H92.2192C92.2361 268.893 92.253 268.953 92.2723 269.016C92.8925 271.174 94.2802 274.071 97.3908 276.229C97.4174 276.246 97.4415 276.263 97.4681 276.28Z" fill="#FFA412"/>
<path d="M126.929 268.832H126.021V276.279H126.929V268.832Z" fill="#FFA412"/>
<path d="M123.862 268.832H122.955V276.279H123.862V268.832Z" fill="#FFA412"/>
<path d="M120.181 268.832H119.273V276.279H120.181V268.832Z" fill="#FFA412"/>
<path d="M114.54 268.832H113.633V276.279H114.54V268.832Z" fill="#FFA412"/>
<path d="M108.575 268.832H107.668V276.279H108.575V268.832Z" fill="#FFA412"/>
<path d="M99.4308 268.832H98.5234V276.279H99.4308V268.832Z" fill="#FFA412"/>
<path d="M90.8703 268.832H89.9629V276.279H90.8703V268.832Z" fill="#FFA412"/>
<path d="M83.2257 268.832H82.3184V276.279H83.2257V268.832Z" fill="#FFA412"/>
<path d="M129.851 268.832H128.943V276.279H129.851V268.832Z" fill="#FFA412"/>
<path d="M131.778 268.832H130.871V276.279H131.778V268.832Z" fill="#FFA412"/>
<path d="M133.642 268.832H132.734V276.279H133.642V268.832Z" fill="#FFA412"/>
<path d="M135.044 268.859V276.255C134.933 276.272 134.82 276.282 134.704 276.282H134.137V268.832H134.704C134.82 268.832 134.933 268.842 135.044 268.859Z" fill="#FFA412"/>
<path d="M136.303 269.547V275.562C136.084 275.835 135.768 276.05 135.398 276.168V268.938C135.768 269.062 136.084 269.276 136.303 269.547Z" fill="#FFA412"/>
<path d="M140.757 263.187V267.392C140.757 267.727 140.636 268.039 140.426 268.297C140.206 268.57 139.89 268.785 139.521 268.903C139.407 268.942 139.289 268.968 139.169 268.985C139.058 269.002 138.944 269.012 138.828 269.012H59.0634C58.7424 269.012 58.4408 268.946 58.1729 268.828C57.6082 268.58 57.2052 268.104 57.1425 267.546C57.1401 267.522 57.1376 267.498 57.1352 267.474C57.1352 267.447 57.1328 267.418 57.1328 267.392V263.187C57.1328 263.158 57.1328 263.131 57.1352 263.102C57.1883 262.25 58.0354 261.564 59.0634 261.564H138.826C138.942 261.564 139.055 261.574 139.166 261.591C139.287 261.608 139.405 261.637 139.519 261.675C139.888 261.796 140.204 262.009 140.423 262.281C140.633 262.54 140.757 262.851 140.757 263.187Z" fill="#FFB93E"/>
<path d="M101.587 269.016H58.8559C58.5711 269.016 58.3008 268.95 58.0619 268.832C57.5575 268.583 57.198 268.108 57.1425 267.55C57.1401 267.526 57.1376 267.502 57.1352 267.478C57.1352 267.451 57.1328 267.422 57.1328 267.396V263.191C57.1328 263.162 57.1328 263.135 57.1352 263.106C57.1811 262.254 57.9388 261.568 58.8559 261.568H96.3408C96.9224 263.7 98.2593 266.628 101.327 268.832C101.413 268.892 101.5 268.955 101.587 269.016Z" fill="#FFA412"/>
<path d="M131.052 261.564H130.145V269.014H131.052V261.564Z" fill="#FFA412"/>
<path d="M127.984 261.564H127.076V269.014H127.984V261.564Z" fill="#FFA412"/>
<path d="M124.304 261.564H123.396V269.014H124.304V261.564Z" fill="#FFA412"/>
<path d="M118.661 261.564H117.754V269.014H118.661V261.564Z" fill="#FFA412"/>
<path d="M112.698 261.564H111.791V269.014H112.698V261.564Z" fill="#FFA412"/>
<path d="M103.554 261.564H102.646V269.014H103.554V261.564Z" fill="#FFA412"/>
<path d="M94.9933 261.564H94.0859V269.014H94.9933V261.564Z" fill="#FFA412"/>
<path d="M87.3468 261.564H86.4395V269.014H87.3468V261.564Z" fill="#FFA412"/>
<path d="M133.972 261.564H133.064V269.014H133.972V261.564Z" fill="#FFA412"/>
<path d="M135.902 261.564H134.994V269.014H135.902V261.564Z" fill="#FFA412"/>
<path d="M137.765 261.564H136.857V269.014H137.765V261.564Z" fill="#FFA412"/>
<path d="M139.167 261.591V268.988C139.056 269.004 138.943 269.014 138.827 269.014H138.26V261.564H138.827C138.943 261.564 139.056 261.574 139.167 261.591Z" fill="#FFA412"/>
<path d="M140.426 262.281V268.297C140.207 268.57 139.891 268.784 139.521 268.903V261.673C139.891 261.794 140.204 262.008 140.426 262.281Z" fill="#FFA412"/>
<path d="M147.274 255.738V259.946C147.274 260.282 147.153 260.593 146.943 260.851C146.723 261.124 146.407 261.339 146.038 261.457C145.925 261.496 145.806 261.522 145.686 261.542C145.575 261.559 145.461 261.568 145.345 261.568H65.5829C64.5549 261.568 63.7078 260.883 63.6548 260.031C63.6548 260.002 63.6523 259.975 63.6523 259.948V255.741C63.6523 255.714 63.6523 255.685 63.6548 255.659C63.703 254.869 64.4318 254.225 65.3537 254.133C65.4285 254.126 65.5057 254.121 65.5829 254.121H145.345C145.461 254.121 145.575 254.131 145.686 254.148C145.806 254.165 145.925 254.194 146.038 254.232C146.407 254.353 146.723 254.565 146.943 254.838C147.153 255.094 147.274 255.403 147.274 255.738Z" fill="#FFB93E"/>
<path d="M108.107 261.567H65.3754C64.4584 261.567 63.7006 260.882 63.6548 260.03C63.6548 260.001 63.6523 259.974 63.6523 259.948V255.74C63.6523 255.713 63.6523 255.684 63.6548 255.658C63.6982 254.868 64.3474 254.224 65.1727 254.132C65.2378 254.125 65.3078 254.12 65.3754 254.12H102.86C102.86 254.123 102.863 254.127 102.863 254.132C103.464 256.324 104.858 259.349 108.107 261.567Z" fill="#FFA412"/>
<path d="M137.57 254.121H136.662V261.571H137.57V254.121Z" fill="#FFA412"/>
<path d="M134.503 254.121H133.596V261.571H134.503V254.121Z" fill="#FFA412"/>
<path d="M130.821 254.121H129.914V261.571H130.821V254.121Z" fill="#FFA412"/>
<path d="M125.183 254.121H124.275V261.571H125.183V254.121Z" fill="#FFA412"/>
<path d="M119.218 254.121H118.311V261.571H119.218V254.121Z" fill="#FFA412"/>
<path d="M110.073 254.121H109.166V261.571H110.073V254.121Z" fill="#FFA412"/>
<path d="M101.511 254.121H100.604V261.571H101.511V254.121Z" fill="#FFA412"/>
<path d="M93.8664 254.12H92.959V261.57H93.8664V254.12Z" fill="#FFA412"/>
<path d="M140.493 254.121H139.586V261.571H140.493V254.121Z" fill="#FFA412"/>
<path d="M142.421 254.121H141.514V261.571H142.421V254.121Z" fill="#FFA412"/>
<path d="M144.284 254.121H143.377V261.571H144.284V254.121Z" fill="#FFA412"/>
<path d="M145.685 254.145V261.541C145.574 261.558 145.46 261.568 145.344 261.568H144.777V254.118H145.344C145.46 254.121 145.574 254.128 145.685 254.145Z" fill="#FFA412"/>
<path d="M146.946 254.835V260.851C146.726 261.123 146.41 261.338 146.041 261.457V254.227C146.41 254.35 146.726 254.562 146.946 254.835Z" fill="#FFA412"/>
<path d="M136.801 248.303V252.508C136.801 252.844 136.68 253.155 136.47 253.413C136.251 253.686 135.935 253.901 135.565 254.019C135.452 254.058 135.334 254.084 135.213 254.101C135.177 254.106 135.138 254.111 135.102 254.116C135.073 254.118 135.042 254.121 135.013 254.123C134.998 254.123 134.984 254.125 134.967 254.125C134.936 254.125 134.904 254.128 134.873 254.128H55.1103C54.0822 254.128 53.2352 253.442 53.1821 252.59C53.1821 252.561 53.1797 252.535 53.1797 252.508V248.303C53.1797 248.274 53.1797 248.247 53.1821 248.218C53.2352 247.366 54.0822 246.681 55.1103 246.681H134.873C134.907 246.681 134.94 246.681 134.974 246.683C135.056 246.688 135.133 246.695 135.213 246.707C135.334 246.724 135.452 246.753 135.565 246.792C135.623 246.811 135.679 246.83 135.732 246.854C135.766 246.869 135.799 246.883 135.831 246.9C135.833 246.9 135.838 246.903 135.841 246.905C135.874 246.922 135.906 246.939 135.937 246.956C135.944 246.958 135.949 246.963 135.954 246.966C135.983 246.982 136.012 246.999 136.041 247.019C136.108 247.062 136.174 247.108 136.234 247.159C136.253 247.173 136.27 247.19 136.289 247.207C136.292 247.209 136.297 247.212 136.299 247.217C136.311 247.226 136.321 247.236 136.333 247.248C136.335 247.25 136.338 247.253 136.34 247.255C136.359 247.275 136.379 247.294 136.396 247.316C136.422 247.345 136.449 247.374 136.473 247.402C136.68 247.656 136.801 247.967 136.801 248.303Z" fill="#FFB93E"/>
<path d="M97.634 254.132H54.9027C53.9857 254.132 53.228 253.446 53.1821 252.594C53.1821 252.565 53.1797 252.539 53.1797 252.512V248.307C53.1797 248.278 53.1797 248.251 53.1821 248.222C53.228 247.37 53.9857 246.685 54.9027 246.685H92.3876C92.4021 246.74 92.419 246.798 92.4359 246.856C93.0585 249.029 94.4606 251.957 97.6171 254.12C97.622 254.122 97.6292 254.127 97.634 254.132Z" fill="#FFA412"/>
<path d="M127.097 246.682H126.189V254.131H127.097V246.682Z" fill="#FFA412"/>
<path d="M124.027 246.682H123.119V254.131H124.027V246.682Z" fill="#FFA412"/>
<path d="M120.345 246.682H119.438V254.131H120.345V246.682Z" fill="#FFA412"/>
<path d="M114.706 246.682H113.799V254.131H114.706V246.682Z" fill="#FFA412"/>
<path d="M108.743 246.682H107.836V254.131H108.743V246.682Z" fill="#FFA412"/>
<path d="M99.5988 246.682H98.6914V254.131H99.5988V246.682Z" fill="#FFA412"/>
<path d="M91.0363 246.682H90.1289V254.131H91.0363V246.682Z" fill="#FFA412"/>
<path d="M83.3917 246.683H82.4844V254.132H83.3917V246.683Z" fill="#FFA412"/>
<path d="M130.017 246.682H129.109V254.131H130.017V246.682Z" fill="#FFA412"/>
<path d="M131.946 246.682H131.039V254.131H131.946V246.682Z" fill="#FFA412"/>
<path d="M133.81 246.682H132.902V254.131H133.81V246.682Z" fill="#FFA412"/>
<path d="M135.212 246.708V254.105C135.101 254.122 134.988 254.131 134.872 254.131H134.305V246.682H134.872C134.988 246.682 135.101 246.691 135.212 246.708Z" fill="#FFA412"/>
<path d="M136.469 247.398V253.414C136.25 253.687 135.934 253.902 135.564 254.02V246.79C135.934 246.911 136.25 247.126 136.469 247.398Z" fill="#FFA412"/>
<path d="M142.668 241.026V245.234C142.668 245.569 142.547 245.881 142.337 246.139C142.118 246.412 141.801 246.627 141.432 246.745C141.319 246.783 141.2 246.81 141.08 246.829C140.969 246.846 140.855 246.856 140.74 246.856H60.977C60.6681 246.856 60.3737 246.793 60.1155 246.685C59.5339 246.441 59.1188 245.953 59.0561 245.386C59.0537 245.364 59.0512 245.342 59.0512 245.321C59.0512 245.292 59.0488 245.265 59.0488 245.239V241.031C59.0488 241.002 59.0488 240.975 59.0512 240.949C59.0995 240.159 59.8283 239.515 60.7502 239.423C60.825 239.416 60.8998 239.411 60.9794 239.411H140.742C140.858 239.411 140.971 239.421 141.082 239.438C141.203 239.455 141.321 239.484 141.435 239.52C141.804 239.64 142.12 239.853 142.34 240.126C142.547 240.382 142.668 240.691 142.668 241.026Z" fill="#FFB93E"/>
<path d="M103.499 246.853H60.768C60.4905 246.853 60.2298 246.791 59.9981 246.682C59.4793 246.438 59.1077 245.951 59.0522 245.383C59.0497 245.362 59.0473 245.34 59.0473 245.318C59.0473 245.289 59.0449 245.263 59.0449 245.236V241.029C59.0449 241 59.0449 240.973 59.0473 240.946C59.0908 240.157 59.7399 239.513 60.5653 239.421C60.6304 239.414 60.7004 239.409 60.768 239.409H98.2529C98.2529 239.411 98.2553 239.416 98.2553 239.421C98.8393 241.557 100.181 244.483 103.253 246.684C103.335 246.74 103.417 246.798 103.499 246.853Z" fill="#FFA412"/>
<path d="M132.964 239.404H132.057V246.854H132.964V239.404Z" fill="#FFA412"/>
<path d="M129.894 239.404H128.986V246.854H129.894V239.404Z" fill="#FFA412"/>
<path d="M126.214 239.404H125.307V246.854H126.214V239.404Z" fill="#FFA412"/>
<path d="M120.573 239.404H119.666V246.854H120.573V239.404Z" fill="#FFA412"/>
<path d="M114.611 239.404H113.703V246.854H114.611V239.404Z" fill="#FFA412"/>
<path d="M105.464 239.404H104.557V246.854H105.464V239.404Z" fill="#FFA412"/>
<path d="M96.9054 239.404H95.998V246.854H96.9054V239.404Z" fill="#FFA412"/>
<path d="M89.259 239.406H88.3516V246.856H89.259V239.406Z" fill="#FFA412"/>
<path d="M135.884 239.404H134.977V246.854H135.884V239.404Z" fill="#FFA412"/>
<path d="M137.814 239.404H136.906V246.854H137.814V239.404Z" fill="#FFA412"/>
<path d="M139.677 239.404H138.77V246.854H139.677V239.404Z" fill="#FFA412"/>
<path d="M141.079 239.429V246.826C140.968 246.843 140.855 246.852 140.739 246.852H140.172V239.403H140.739C140.855 239.405 140.968 239.412 141.079 239.429Z" fill="#FFA412"/>
<path d="M142.337 240.119V246.135C142.117 246.408 141.801 246.622 141.432 246.741V239.511C141.801 239.634 142.117 239.846 142.337 240.119Z" fill="#FFA412"/>
<path d="M145.163 233.587V237.795C145.163 238.13 145.042 238.442 144.832 238.7C144.613 238.973 144.296 239.188 143.927 239.306C143.814 239.344 143.696 239.371 143.575 239.39C143.539 239.395 143.5 239.4 143.464 239.405C143.445 239.407 143.423 239.407 143.401 239.41C143.382 239.412 143.36 239.412 143.338 239.412C143.305 239.414 143.271 239.414 143.237 239.414H63.4697C62.4416 239.414 61.5946 238.729 61.5415 237.877C61.5415 237.848 61.5391 237.821 61.5391 237.795V233.587C61.5391 233.558 61.5391 233.532 61.5415 233.505C61.5946 232.653 62.4416 231.967 63.4697 231.967H143.232C143.348 231.967 143.461 231.977 143.572 231.994C143.693 232.011 143.811 232.04 143.925 232.078C144.294 232.199 144.61 232.411 144.83 232.684C145.04 232.943 145.163 233.254 145.163 233.587Z" fill="#FFB93E"/>
<path d="M105.995 239.414H63.2641C62.347 239.414 61.5893 238.729 61.5434 237.877C61.5434 237.848 61.541 237.821 61.541 237.795V233.587C61.541 233.558 61.541 233.532 61.5434 233.505C61.5893 232.653 62.347 231.967 63.2641 231.967H100.749C101.347 234.157 102.737 237.182 105.978 239.405C105.983 239.407 105.988 239.412 105.995 239.414Z" fill="#FFA412"/>
<path d="M135.456 231.967H134.549V239.416H135.456V231.967Z" fill="#FFA412"/>
<path d="M132.39 231.967H131.482V239.416H132.39V231.967Z" fill="#FFA412"/>
<path d="M128.71 231.967H127.803V239.416H128.71V231.967Z" fill="#FFA412"/>
<path d="M123.069 231.967H122.162V239.416H123.069V231.967Z" fill="#FFA412"/>
<path d="M117.103 231.967H116.195V239.416H117.103V231.967Z" fill="#FFA412"/>
<path d="M107.96 231.967H107.053V239.416H107.96V231.967Z" fill="#FFA412"/>
<path d="M99.3976 231.967H98.4902V239.416H99.3976V231.967Z" fill="#FFA412"/>
<path d="M91.7531 231.967H90.8457V239.417H91.7531V231.967Z" fill="#FFA412"/>
<path d="M138.378 231.967H137.471V239.416H138.378V231.967Z" fill="#FFA412"/>
<path d="M140.306 231.967H139.398V239.416H140.306V231.967Z" fill="#FFA412"/>
<path d="M142.171 231.967H141.264V239.416H142.171V231.967Z" fill="#FFA412"/>
<path d="M143.571 231.993V239.39C143.46 239.407 143.347 239.416 143.231 239.416H142.664V231.967H143.231C143.347 231.967 143.46 231.976 143.571 231.993Z" fill="#FFA412"/>
<path d="M144.833 232.683V238.698C144.613 238.971 144.297 239.186 143.928 239.304V232.074C144.297 232.197 144.613 232.412 144.833 232.683Z" fill="#FFA412"/>
<path d="M83.7174 302.187C98.521 287.379 98.521 263.37 83.7174 248.562C68.9139 233.754 44.9125 233.754 30.1089 248.562C15.3054 263.37 15.3054 287.379 30.1089 302.187C44.9125 316.995 68.9138 316.995 83.7174 302.187Z" fill="#E2810E"/>
<path d="M80.4125 302.186C95.216 287.378 95.216 263.369 80.4125 248.561C65.609 233.753 41.6077 233.753 26.8042 248.561C12.0006 263.369 12.0006 287.378 26.8042 302.186C41.6077 316.994 65.609 316.994 80.4125 302.186Z" fill="#FFB93E"/>
<path d="M53.6106 310.372C44.3848 310.372 35.7116 306.778 29.1886 300.253C22.6656 293.728 19.0723 285.052 19.0723 275.823C19.0723 266.594 22.6656 257.918 29.1886 251.393C35.7116 244.868 44.3848 241.274 53.6106 241.274C62.8364 241.274 71.5096 244.868 78.0326 251.393C84.5556 257.918 88.1489 266.594 88.1489 275.823C88.1489 285.052 84.5556 293.728 78.0326 300.253C71.5096 306.78 62.8364 310.372 53.6106 310.372ZM53.6106 243.338C35.7019 243.338 21.1332 257.911 21.1332 275.825C21.1332 293.74 35.7019 308.313 53.6106 308.313C71.5193 308.313 86.088 293.74 86.088 275.825C86.088 257.911 71.5193 243.338 53.6106 243.338Z" fill="#FFA412"/>
<path d="M58.365 285.85C58.4543 285.104 58.4253 284.435 58.2829 283.844C58.1405 283.25 57.8582 282.695 57.4359 282.178C57.0135 281.659 56.4489 281.162 55.7394 280.682C55.0323 280.201 54.1563 279.711 53.1113 279.209C51.3183 278.33 49.7014 277.442 48.2583 276.542C46.8152 275.641 45.6061 274.656 44.6312 273.587C43.6538 272.517 42.9395 271.318 42.4882 269.988C42.037 268.657 41.9139 267.122 42.119 265.384C42.2976 263.875 42.7271 262.533 43.4101 261.355C44.0906 260.177 44.9835 259.185 46.0864 258.381C47.1892 257.577 48.4658 256.969 49.9186 256.556C51.3714 256.143 52.9665 255.96 54.7041 256.003L55.3798 250.309L59.9625 250.852L59.2772 256.626C60.894 257.034 62.3299 257.645 63.5896 258.461C64.8469 259.277 65.8822 260.262 66.6955 261.42C67.5063 262.579 68.0807 263.902 68.4161 265.389C68.7516 266.878 68.8143 268.508 68.6044 270.282L60.3293 269.3C60.5827 267.17 60.298 265.522 59.4775 264.356C58.657 263.19 57.4552 262.509 55.8697 262.323C55.0106 262.222 54.2552 262.253 53.6085 262.42C52.9593 262.584 52.4091 262.852 51.9602 263.221C51.5089 263.59 51.1542 264.047 50.8984 264.592C50.6402 265.138 50.4712 265.739 50.394 266.395C50.3168 267.052 50.3409 267.658 50.4688 268.211C50.5967 268.766 50.867 269.297 51.2821 269.806C51.6948 270.313 52.2667 270.813 52.9931 271.306C53.7195 271.796 54.6293 272.322 55.7249 272.884C57.4938 273.797 59.0962 274.704 60.5272 275.612C61.9583 276.52 63.1625 277.512 64.1374 278.591C65.1124 279.67 65.8267 280.875 66.278 282.205C66.7293 283.535 66.8548 285.063 66.6496 286.782C66.4638 288.344 66.027 289.712 65.3344 290.888C64.6418 292.066 63.7465 293.048 62.6461 293.833C61.5456 294.62 60.2618 295.207 58.7921 295.588C57.3249 295.972 55.7201 296.141 53.9849 296.097L53.3575 301.394L48.8037 300.853L49.4287 295.583C47.8625 295.236 46.3711 294.707 44.9546 294C43.538 293.292 42.3169 292.37 41.2888 291.231C40.2632 290.094 39.4958 288.72 38.989 287.112C38.4822 285.505 38.3568 283.636 38.6077 281.51L46.8827 282.492C46.7331 283.752 46.7838 284.824 47.0396 285.707C47.293 286.593 47.6839 287.322 48.2173 287.899C48.7482 288.476 49.3805 288.911 50.1093 289.203C50.8381 289.497 51.5958 289.688 52.3777 289.782C53.2754 289.889 54.0766 289.867 54.7813 289.717C55.486 289.567 56.0917 289.314 56.5985 288.962C57.1053 288.609 57.5059 288.165 57.8003 287.634C58.0995 287.1 58.2877 286.509 58.365 285.85Z" fill="#FFA412"/>
<path d="M123.315 223.31C119.434 230.066 114.552 232.676 114.552 232.676H94.2422C94.2422 232.676 126.276 218.153 123.315 223.31Z" fill="#144EF4"/>
<path d="M107.716 275.595C107.187 276.201 107.12 276.88 107.38 277.604C107.38 277.606 107.383 277.611 107.385 277.613C107.87 278.953 109.47 280.447 111.328 281.942C111.565 282.132 111.777 282.309 111.961 282.47C112.009 282.514 112.057 282.555 112.103 282.598C112.142 282.632 112.175 282.666 112.212 282.697C113.944 284.295 113.293 284.662 116.408 287.907C119.96 291.602 122.405 291.67 123.1 291.332C123.689 291.045 122.492 289.085 121.169 286.881C121.104 286.774 121.042 286.666 120.976 286.56C120.8 286.268 120.624 285.968 120.45 285.674C118.899 283.023 119.297 281.778 119.664 277.831C119.963 274.625 124.652 259.916 124.652 259.916L117.846 258.743C117.846 258.743 115.798 270.456 113.539 272.259C112.332 273.22 110.981 273.232 109.82 273.944C109.738 273.995 109.658 274.045 109.579 274.096C108.92 274.536 108.247 274.987 107.716 275.595Z" fill="#FFB27D"/>
<path d="M107.716 275.595C107.187 276.201 107.12 276.879 107.38 277.603C107.38 277.606 107.383 277.611 107.385 277.613C107.979 278.95 109.538 280.438 111.336 281.927C111.57 282.122 111.777 282.301 111.963 282.468C112.011 282.511 112.059 282.552 112.105 282.596C112.144 282.629 112.178 282.663 112.214 282.695C113.947 284.293 113.295 284.66 116.411 287.904C119.963 291.6 122.407 291.667 123.102 291.33C123.691 291.042 122.494 289.082 121.172 286.878C120.479 286.625 117.27 285.319 114.842 282.212C112.704 279.482 111.278 275.976 109.822 273.944C109.74 273.995 109.661 274.045 109.581 274.096C108.92 274.535 108.247 274.987 107.716 275.595Z" fill="#1D2942"/>
<path d="M162.591 271.344C163.011 273.444 166.005 273.094 169.35 272.278C172.695 271.46 171.901 272.432 176.662 271.906C181.424 271.38 182.867 269.603 183.012 268.896C183.142 268.268 180.789 268.046 178.265 267.754C177.949 267.718 177.628 267.679 177.309 267.641C174.459 267.283 172.374 265.444 169.787 263.933C167.335 262.501 163.677 256.674 163.677 256.674L157.146 257.19C157.146 257.19 160.573 262.397 161.898 264.659C162.678 265.989 162.637 267.752 162.54 269.111C162.489 269.847 162.441 270.603 162.591 271.344Z" fill="#FFB27D"/>
<path d="M169.35 272.276C172.695 271.457 171.901 272.43 176.662 271.904C181.424 271.378 182.867 269.601 183.012 268.894C183.142 268.266 180.789 268.044 178.265 267.752L178.241 267.8C178.241 267.8 175.386 269.826 171.423 269.92C168.194 269.999 164.772 269.072 162.54 269.109C162.489 269.847 162.441 270.603 162.591 271.344C163.011 273.444 166.005 273.094 169.35 272.276Z" fill="#1D2942"/>
<path d="M137.568 229.579L131.465 246.008L123.496 267.462C123.496 267.462 121.334 267.672 119.263 267.075C117.357 266.525 115.168 265.081 115.168 265.081C115.168 265.081 117.381 242.047 121.508 228.826C122.565 225.431 123.752 222.687 125.06 221.142C131.46 213.576 137.568 229.579 137.568 229.579Z" fill="#144EF4"/>
<path d="M131.363 203.487C127.365 202.198 115.96 203.854 104.502 206.096L102.103 202.137L77.3573 200.204C77.3573 200.204 69.1909 218.318 73.6627 229.86C74.3191 231.557 75.9456 232.271 78.1706 232.307L78.173 232.31C78.173 232.31 92.9396 232.67 97.7227 232.67C110.03 232.67 123.769 224.206 125.545 223.851C128.453 223.269 129.619 229.09 132.527 235.199C135.434 241.309 159.871 262.263 159.871 262.263C159.871 262.263 163.626 262.299 165.178 261.717C166.845 261.092 167.456 260.278 167.456 260.278C167.456 260.278 140.379 206.398 131.363 203.487Z" fill="#144EF4"/>
<path d="M99.4723 129.447C97.6165 128.341 95.809 128.182 94.7134 128.218C93.9242 128.244 93.1327 128.167 92.3508 128.063C82.9729 126.803 77.3284 140.433 76.9977 144.563C76.3848 152.177 72.3595 153.336 66.6932 158.103C55.3316 167.663 58.6619 178.772 64.876 182.897C68.6045 185.374 75.1757 182.897 75.1757 182.897C75.2674 182.963 93.1448 172.901 101.958 168.046C115.168 166.171 104.781 132.609 99.4723 129.447Z" fill="#1D2942"/>
<path d="M94.5708 163.916C94.6094 163.94 90.2342 165.434 87.3094 164.138C84.5583 162.921 82.4732 158.393 82.5143 158.39C83.7667 158.332 85.1399 157.239 86.1993 150.055L86.7326 150.245L95.6954 153.471C95.6954 153.471 95.0463 156.348 94.6264 159.085C94.2716 161.388 94.0809 163.592 94.5708 163.916Z" fill="#FFB27D"/>
<path d="M95.6952 153.473C95.6952 153.473 95.0461 156.35 94.6262 159.088C89.4787 158.161 87.4588 153.031 86.7324 150.245L95.6952 153.473Z" fill="#ED975D"/>
<path d="M97.0312 156.328C97.0312 156.328 84.7695 154.681 85.911 147.058C87.0524 139.434 86.2392 134.087 94.1184 134.816C101.995 135.545 103.079 138.681 103.315 141.32C103.552 143.958 100.25 156.559 97.0312 156.328Z" fill="#FFB27D"/>
<path d="M102.865 137.143C102.865 137.143 95.0149 143.909 89.6768 144.455C84.3363 145 82.3164 143.286 82.3164 143.286C82.3164 143.286 85.4633 140.672 87.3577 136.455C87.9151 135.211 89.0952 134.357 90.4539 134.241C94.2644 133.913 101.492 133.761 102.865 137.143Z" fill="#1D2942"/>
<path d="M97.959 136.536C97.959 136.536 100.585 139.076 101.412 140.961C102.211 142.779 102.45 147.126 101.815 148.855C101.815 148.855 105.906 140.896 103.591 137.031C101.132 132.93 97.959 136.536 97.959 136.536Z" fill="#1D2942"/>
<path d="M104.898 181.987C104.526 206.817 104.796 201.627 102.081 203.983C101.428 204.55 99.5886 204.888 97.1681 205.048C89.5568 205.552 76.1777 204.299 75.6685 202.892C73.9141 198.023 75.1521 196.512 73.6873 189.057C73.5352 188.265 73.3446 187.406 73.125 186.472C71.9039 181.352 70.7142 179.611 75.0483 171.387C78.9771 163.937 83.0603 157.89 83.4271 158.11C93.7944 164.266 94.6294 159.092 94.6294 159.092C94.6294 159.092 105.079 169.873 104.898 181.987Z" fill="#D2E3FC"/>
<path d="M131.465 246.009L123.496 267.462C123.496 267.462 121.334 267.672 119.263 267.076C117.357 266.526 115.168 265.082 115.168 265.082C115.168 265.082 117.381 242.048 121.508 228.826L131.465 246.009Z" fill="#144EF4"/>
<path d="M94.625 159.091C94.625 159.091 105.292 160.899 106.544 165.495C107.796 170.089 115.167 197.097 115.167 197.097C115.167 197.097 109.744 198.072 107.239 195.566C104.734 193.061 98.5224 172.317 98.5224 172.317L94.625 159.091Z" fill="#D2E3FC"/>
<path d="M97.1645 205.048C89.5531 205.552 76.1741 204.299 75.6649 202.892C73.9104 198.023 75.1484 196.512 73.6836 189.057L77.3541 178.716C77.3541 178.716 76.746 190.231 80.1414 193.26C83.532 196.29 94.0417 199.107 95.69 201.637C96.4887 202.851 97.0124 204.07 97.1645 205.048Z" fill="#A4C8FC"/>
<path d="M88.4453 200.205C88.4453 200.205 95.9553 198.532 97.1668 199.199C98.3782 199.865 101.339 202.294 101.711 203.138C102.083 203.983 99.0129 202.496 98.0162 202.228C97.3695 202.055 95.6682 202.646 94.8259 202.926C91.2809 204.107 89.1114 203.501 89.1114 203.501L88.4453 200.205Z" fill="#FFB27D"/>
<path d="M83.4174 158.103C83.4174 158.103 73.3349 158.723 69.8454 163.595C64.932 170.451 55.1849 199.662 60.7715 203.559C67.0629 207.947 89.4023 204.705 89.4023 204.705C89.4023 204.705 90.1456 201.229 89.1103 199.549C88.075 197.869 71.2668 195.151 70.4921 194.376C69.7174 193.601 80.1885 179.242 80.1885 176.915C80.1885 174.588 83.4174 158.103 83.4174 158.103Z" fill="#D2E3FC"/>
<path d="M97.5293 201.289C97.5293 201.289 99.1027 203.319 99.6192 203.561C100.136 203.802 100.469 203.742 100.469 203.742L99.4092 201.832L97.5293 201.289Z" fill="#FFB27D"/>
<path d="M97.166 199.198L101.742 201.421C101.742 201.421 101.546 201.74 100.984 201.714C100.421 201.687 99.0001 201.168 99.0001 201.168L97.166 199.198Z" fill="#FFB27D"/>
<path d="M99.6191 206.672H135.803L146.689 179.596H110.561L99.6191 206.672Z" fill="#F99746"/>
<path d="M136.228 205.617H88.4453V206.672H135.803L136.228 205.617Z" fill="#ED7D2B"/>
<path d="M126.668 193.134C126.941 192.183 126.391 191.411 125.44 191.411C124.489 191.411 123.495 192.183 123.222 193.134C122.949 194.085 123.5 194.858 124.451 194.858C125.404 194.858 126.396 194.085 126.668 193.134Z" fill="white"/>
<path d="M307.252 209.267C307.247 209.122 308.051 192.704 300.121 188.927L300.681 188.388C304.313 189.658 308.338 193.578 309.95 199.116C311.147 203.232 310.237 204.135 310.242 204.292L307.252 209.267Z" fill="#A4C8FC"/>
<path d="M286.547 176.75C286.547 176.75 285.642 185.195 290.063 188.787C294.487 192.379 302.561 189.757 302.561 189.757C302.561 189.757 303.466 181.313 299.045 177.721C294.624 174.129 286.547 176.75 286.547 176.75Z" fill="#A4C8FC"/>
<path d="M305.899 240.065C305.749 239.239 302.89 219.903 310.204 198.356C317.234 177.653 313.341 160.101 313.31 159.927H318.482C318.614 160.678 318.974 177.907 313.467 201.516C308.51 222.761 317.767 240.062 315.796 240.062H305.899V240.065Z" fill="#A4C8FC"/>
<path d="M316.76 182.986C316.787 182.875 319.256 168.709 325.897 167.097C322.929 167.483 319.157 169.61 317.048 173.569C315.479 176.511 316.029 177.347 316 177.462L316.76 182.986Z" fill="#A4C8FC"/>
<path d="M290.181 145.413C290.181 145.413 283.018 135.295 274.881 132.324C274.881 132.324 277.924 156.056 273.474 156.348C269.024 156.642 271.99 129.659 271.99 129.659C271.99 129.659 250.797 117.888 242.189 118.214C242.189 118.214 254.373 141.927 249.988 141.116C245.604 140.305 231.778 116.218 231.778 116.218C231.778 116.218 209.661 110.764 205.295 123.81C200.93 136.855 206.34 143.822 209.603 144.845C212.868 145.869 234.141 146.837 233.426 149.567C232.712 152.297 218.097 155.872 210.237 152.918C210.237 152.918 217.793 175.252 229.454 174.825C241.112 174.4 245.123 167.431 252.332 167.298C259.542 167.165 264.673 169.408 260.971 171.129C257.269 172.852 245.198 170.839 239.112 175.431C233.026 180.022 228.156 182.784 238.791 185.623C249.429 188.464 265.484 185.256 273.102 180.177C273.124 180.162 279.341 179.667 284.235 208.452C286.122 219.549 284.672 236.01 284.672 236.01L288.62 235.409C290.811 203.143 279.169 176.321 279.169 176.321C279.169 176.321 298.922 161.719 290.181 145.413Z" fill="#A4C8FC"/>
<path d="M354.774 187.992C354.774 187.992 330.977 177.991 339.496 159.794C339.496 159.794 346.668 148.403 355.315 144.702C355.315 144.702 353.411 170.612 358.254 170.669C363.098 170.727 358.293 141.644 358.293 141.644C358.293 141.644 380.582 127.633 389.933 127.481C389.933 127.481 378.115 153.909 382.823 152.772C387.529 151.635 401.104 124.705 401.104 124.705C401.104 124.705 424.766 117.491 430.265 131.379C435.765 145.267 430.311 153.139 426.831 154.44C423.351 155.741 400.344 158.044 401.277 160.96C402.211 163.876 418.269 166.896 426.617 163.23C426.617 163.23 419.736 187.891 407.069 188.115C394.402 188.34 389.646 181.021 381.819 181.301C373.993 181.583 368.561 184.313 372.676 185.965C376.79 187.616 389.761 184.724 396.63 189.342C403.498 193.96 408.942 196.671 397.576 200.376C386.209 204.082 365.154 204.953 359.963 196.473C354.774 187.992 354.774 187.992 354.774 187.992Z" fill="#D2E3FC"/>
<path d="M419.73 137.107C419.73 137.107 359.368 164.499 354.773 187.992C354.773 187.992 356.221 198.107 351.271 210.457L351.778 214.935C351.778 214.935 356.619 198.969 359.964 196.475C359.964 196.475 343.711 178.363 419.73 137.107Z" fill="#A4C8FC"/>
<path d="M351.272 210.457C351.272 210.457 343.27 226.23 350.802 243.473L353.213 242.524C353.213 242.524 348.572 223.118 352.508 212.646C356.442 202.177 351.272 210.457 351.272 210.457Z" fill="#A4C8FC"/>
<path d="M264.044 79.6504C273.796 90.033 268.723 110.651 268.723 110.651C268.723 110.651 247.836 114.436 238.082 104.054C228.33 93.6709 233.403 73.0529 233.403 73.0529C233.403 73.0529 254.292 69.2678 264.044 79.6504Z" fill="#A4C8FC"/>
<path d="M264.043 79.6504C273.795 90.033 268.723 110.651 268.723 110.651L233.402 73.0529C233.402 73.0529 254.291 69.2678 264.043 79.6504Z" fill="#D2E3FC"/>
<path d="M389.829 119.192C384.74 125.09 373.238 123.504 373.238 123.504C373.238 123.504 369.99 112.353 375.079 106.456C380.169 100.559 391.67 102.145 391.67 102.145C391.67 102.145 394.919 113.295 389.829 119.192Z" fill="#A4C8FC"/>
<path d="M329.673 171.075C326.261 172.021 322.312 168.521 322.312 168.521C322.312 168.521 323.896 163.485 327.308 162.539C330.72 161.592 334.668 165.093 334.668 165.093C334.668 165.093 333.085 170.128 329.673 171.075Z" fill="#A4C8FC"/>
<path d="M269.422 60.3962C271.76 65.9436 266.721 73.3667 266.721 73.3667C266.721 73.3667 257.889 71.7951 255.551 66.2478C253.212 60.7004 258.253 53.2773 258.253 53.2773C258.253 53.2773 267.083 54.8489 269.422 60.3962Z" fill="#A4C8FC"/>
<path d="M353.186 144.106C373.51 123.775 373.51 90.8127 353.186 70.4821C332.862 50.1514 299.91 50.1514 279.585 70.4821C259.261 90.8127 259.261 123.775 279.585 144.106C299.91 164.436 332.862 164.436 353.186 144.106Z" fill="#E2810E"/>
<path d="M348.68 144.674C369.005 124.343 369.005 91.3806 348.68 71.05C328.356 50.7194 295.404 50.7194 275.08 71.05C254.755 91.3806 254.755 124.343 275.08 144.674C295.404 165.004 328.356 165.004 348.68 144.674Z" fill="#FFB93E"/>
<path d="M317.885 155.53C305.319 157.114 292.889 153.705 282.883 145.937C272.878 138.167 266.497 126.966 264.914 114.396C263.331 101.826 266.739 89.3917 274.505 79.3833C282.273 69.3748 293.47 62.9922 306.036 61.4086C318.602 59.825 331.032 63.2336 341.038 71.0018C351.043 78.7725 357.424 89.9735 359.007 102.543C360.59 115.113 357.182 127.547 349.417 137.556C341.648 147.564 330.451 153.949 317.885 155.53ZM306.391 64.2161C281.995 67.2891 264.649 89.6403 267.721 114.043C270.793 138.447 293.137 155.798 317.533 152.725C341.926 149.652 359.275 127.301 356.203 102.898C353.131 78.4949 330.784 61.1431 306.391 64.2161Z" fill="#FFA412"/>
<path d="M320.157 121.313C320.15 120.282 319.998 119.377 319.701 118.594C319.404 117.812 318.924 117.103 318.26 116.47C317.596 115.838 316.74 115.253 315.695 114.722C314.647 114.191 313.371 113.672 311.862 113.168C309.268 112.279 306.913 111.345 304.794 110.368C302.675 109.39 300.858 108.255 299.345 106.966C297.832 105.677 296.652 104.166 295.81 102.43C294.965 100.695 294.535 98.6259 294.518 96.2215C294.504 94.1382 294.859 92.2336 295.585 90.51C296.312 88.7888 297.356 87.2849 298.72 86.0006C300.083 84.7164 301.72 83.6687 303.626 82.8576C305.535 82.0465 307.676 81.5227 310.05 81.2861L309.995 73.414L316.329 73.3682L316.387 81.3513C318.658 81.6289 320.722 82.2155 322.577 83.1087C324.431 84.0018 326.009 85.1702 327.314 86.6065C328.618 88.0453 329.626 89.7496 330.341 91.717C331.055 93.6868 331.419 95.898 331.436 98.3506L319.995 98.4327C319.973 95.4901 319.305 93.2933 317.987 91.8425C316.67 90.3941 314.915 89.6747 312.726 89.6916C311.539 89.7013 310.516 89.8727 309.662 90.2106C308.805 90.5462 308.103 91.0073 307.552 91.5866C307.002 92.1684 306.597 92.8516 306.339 93.6385C306.08 94.4255 305.955 95.2728 305.962 96.1805C305.969 97.0881 306.107 97.9089 306.375 98.6427C306.643 99.3766 307.104 100.055 307.755 100.675C308.407 101.296 309.268 101.877 310.342 102.423C311.416 102.969 312.746 103.529 314.334 104.106C316.899 105.045 319.237 106.008 321.342 106.998C323.446 107.99 325.256 109.134 326.772 110.435C328.285 111.736 329.465 113.255 330.309 114.99C331.154 116.726 331.584 118.783 331.6 121.163C331.615 123.321 331.253 125.262 330.514 126.983C329.774 128.707 328.721 130.196 327.358 131.456C325.994 132.716 324.346 133.735 322.411 134.51C320.475 135.285 318.323 135.789 315.948 136.028L316.001 143.35L309.705 143.396L309.652 136.113C307.458 135.908 305.337 135.444 303.288 134.725C301.237 134.003 299.415 132.955 297.822 131.582C296.23 130.208 294.95 128.47 293.985 126.365C293.02 124.263 292.528 121.74 292.506 118.797L303.947 118.715C303.959 120.456 304.213 121.909 304.71 123.07C305.207 124.231 305.866 125.158 306.688 125.853C307.511 126.546 308.445 127.031 309.49 127.304C310.535 127.579 311.597 127.712 312.681 127.705C313.921 127.695 315.009 127.529 315.943 127.203C316.877 126.877 317.659 126.43 318.289 125.861C318.919 125.293 319.389 124.62 319.701 123.845C320.012 123.063 320.164 122.223 320.157 121.313Z" fill="#FFA412"/>
<path d="M357.912 235.035L357.907 235.076L356.871 251.026L353.017 310.236H280.985L276.742 251.837L275.574 235.74L275.523 235.035H357.912Z" fill="#739AF0"/>
<path d="M357.907 235.076L356.869 251.023C351.442 249.13 336.361 244.59 316.715 244.59C291.905 244.59 276.742 251.834 276.742 251.834L275.574 235.738L357.907 235.076Z" fill="#618DD8"/>
<path d="M360.414 243.466H272.912L271.908 233.291H361.526L360.414 243.466Z" fill="#739AF0"/>
<path d="M354.126 313.399H279.438L278.584 309.853H355.074L354.126 313.399Z" fill="#618DD8"/>
<path d="M224.926 280.412C224.859 280.04 223.573 271.342 226.864 261.65C230.026 252.337 228.276 244.443 228.262 244.363H230.588C230.648 244.701 230.81 252.45 228.332 263.069C226.102 272.626 230.265 280.409 229.379 280.409H224.926V280.412Z" fill="#A4C8FC"/>
<path d="M229.812 254.737C229.824 254.689 230.934 248.316 233.922 247.592C232.587 247.766 230.891 248.722 229.942 250.503C229.237 251.826 229.484 252.203 229.472 252.256L229.812 254.737Z" fill="#A4C8FC"/>
<path d="M224.292 253.246C224.292 253.246 221.369 248.498 217.802 246.929C217.802 246.929 218.481 257.669 216.475 257.671C214.47 257.674 216.581 245.65 216.581 245.65C216.581 245.65 207.409 239.752 203.535 239.648C203.535 239.648 208.318 250.647 206.373 250.154C204.428 249.662 198.921 238.451 198.921 238.451C198.921 238.451 189.15 235.363 186.814 241.092C184.478 246.82 186.703 250.106 188.139 250.659C189.575 251.211 199.095 252.264 198.697 253.469C198.296 254.673 191.633 255.856 188.192 254.301C188.192 254.301 190.938 264.544 196.182 264.691C201.426 264.838 203.429 261.826 206.67 261.975C209.911 262.125 212.148 263.279 210.437 263.945C208.726 264.611 203.366 263.359 200.502 265.244C197.637 267.127 195.371 268.228 200.063 269.811C204.754 271.395 212.054 270.42 215.621 268.36C215.63 268.353 218.435 268.312 219.798 281.374C220.324 286.41 219.195 293.756 219.195 293.756L220.985 293.599C222.904 279.18 218.454 266.803 218.454 266.803C218.454 266.803 227.743 260.819 224.292 253.246Z" fill="#A4C8FC"/>
<path d="M235.62 249.379C234.085 249.804 232.309 248.23 232.309 248.23C232.309 248.23 233.02 245.965 234.555 245.538C236.09 245.113 237.866 246.687 237.866 246.687C237.866 246.687 237.154 248.954 235.62 249.379Z" fill="#A4C8FC"/>
<path d="M253.275 214.761C247.915 218.271 247.961 227.823 247.961 227.823C247.961 227.823 256.694 231.683 262.054 228.171C267.414 224.661 267.368 215.108 267.368 215.108C267.368 215.108 258.632 211.251 253.275 214.761Z" fill="#A4C8FC"/>
<path d="M253.275 214.761C247.915 218.271 247.961 227.823 247.961 227.823L267.368 215.108C267.368 215.108 258.632 211.251 253.275 214.761Z" fill="#D2E3FC"/>
<path d="M252.951 205.774C251.344 207.954 252.766 211.729 252.766 211.729C252.766 211.729 256.793 211.973 258.401 209.796C260.008 207.616 258.586 203.838 258.586 203.838C258.586 203.838 254.559 203.597 252.951 205.774Z" fill="#A4C8FC"/>
<path d="M246.193 237.247C255.335 228.102 255.335 213.275 246.193 204.129C237.05 194.984 222.227 194.984 213.085 204.129C203.943 213.275 203.943 228.102 213.085 237.247C222.227 246.393 237.05 246.393 246.193 237.247Z" fill="#E2810E"/>
<path d="M229.138 244.327C242.041 243.485 251.818 232.34 250.976 219.434C250.134 206.527 238.993 196.747 226.09 197.589C213.188 198.431 203.411 209.576 204.253 222.483C205.094 235.389 216.236 245.169 229.138 244.327Z" fill="#FFB93E"/>
<path d="M230.315 242.388C224.663 243.1 219.072 241.567 214.571 238.072C210.07 234.576 207.201 229.538 206.489 223.885C205.777 218.231 207.309 212.638 210.804 208.136C214.298 203.634 219.335 200.764 224.986 200.051C230.638 199.339 236.23 200.872 240.73 204.368C245.231 207.863 248.1 212.901 248.812 218.555C249.524 224.208 247.992 229.802 244.497 234.304C241.005 238.806 235.969 241.676 230.315 242.388ZM225.146 201.314C214.173 202.697 206.371 212.749 207.751 223.726C209.131 234.702 219.183 242.506 230.156 241.126C241.129 239.745 248.931 229.691 247.55 218.714C246.17 207.738 236.119 199.931 225.146 201.314Z" fill="#FFA412"/>
<path d="M231.338 226.997C231.335 226.533 231.265 226.125 231.133 225.773C231 225.42 230.783 225.102 230.486 224.817C230.187 224.532 229.803 224.271 229.332 224.03C228.862 223.791 228.287 223.557 227.609 223.33C226.444 222.929 225.384 222.509 224.431 222.07C223.478 221.63 222.662 221.121 221.979 220.539C221.299 219.96 220.768 219.279 220.389 218.5C220.01 217.72 219.815 216.788 219.807 215.707C219.8 214.77 219.962 213.913 220.288 213.138C220.613 212.363 221.084 211.687 221.697 211.11C222.31 210.533 223.046 210.06 223.905 209.696C224.764 209.331 225.727 209.095 226.794 208.988L226.769 205.447L229.62 205.428L229.646 209.017C230.667 209.143 231.596 209.406 232.431 209.809C233.264 210.212 233.975 210.736 234.562 211.383C235.148 212.03 235.602 212.798 235.923 213.681C236.244 214.567 236.408 215.562 236.415 216.665L231.268 216.701C231.258 215.378 230.956 214.388 230.365 213.737C229.772 213.085 228.985 212.761 227.998 212.769C227.465 212.774 227.004 212.851 226.62 213.003C226.236 213.155 225.92 213.36 225.671 213.621C225.423 213.882 225.242 214.191 225.126 214.543C225.01 214.898 224.952 215.277 224.957 215.687C224.96 216.095 225.022 216.465 225.143 216.795C225.264 217.126 225.471 217.43 225.763 217.71C226.055 217.99 226.444 218.251 226.926 218.495C227.409 218.739 228.008 218.992 228.722 219.25C229.875 219.673 230.928 220.107 231.874 220.551C232.819 220.998 233.635 221.512 234.316 222.099C234.996 222.683 235.527 223.366 235.906 224.148C236.285 224.93 236.478 225.855 236.488 226.924C236.495 227.895 236.331 228.769 235.998 229.541C235.665 230.316 235.192 230.987 234.579 231.554C233.966 232.122 233.223 232.58 232.354 232.928C231.483 233.276 230.515 233.503 229.446 233.611L229.47 236.904L226.639 236.923L226.615 233.647C225.628 233.556 224.675 233.348 223.753 233.022C222.831 232.699 222.011 232.228 221.294 231.608C220.577 230.99 220.003 230.207 219.568 229.261C219.134 228.315 218.912 227.18 218.902 225.857L224.05 225.821C224.055 226.606 224.17 227.258 224.392 227.779C224.614 228.3 224.911 228.718 225.283 229.029C225.652 229.341 226.072 229.558 226.543 229.684C227.013 229.807 227.491 229.867 227.979 229.865C228.536 229.86 229.026 229.785 229.446 229.64C229.866 229.493 230.218 229.293 230.5 229.037C230.783 228.781 230.995 228.479 231.135 228.129C231.273 227.784 231.34 227.405 231.338 226.997Z" fill="#FFA412"/>
<path d="M248.321 278.147L248.319 278.167L247.853 285.341L246.121 311.975H213.718L211.811 285.706L211.285 278.466L211.264 278.147H248.321Z" fill="#B4C9F7"/>
<path d="M248.319 278.168L247.853 285.342C245.411 284.493 238.63 282.448 229.792 282.448C218.631 282.448 211.811 285.707 211.811 285.707L211.285 278.467L248.319 278.168Z" fill="#9BB8EA"/>
<path d="M249.446 281.941H210.088L209.637 277.364H249.948L249.446 281.941Z" fill="#B4C9F7"/>
<path d="M246.617 313.398H213.022L212.639 311.803H247.044L246.617 313.398Z" fill="#B4C9F7"/>
<path d="M381.829 176.492C381.829 176.492 378.13 175.77 377.283 176.492C376.436 177.214 372.425 181.294 373.284 182.631C374.143 183.971 378.262 181.523 379.119 181.291C379.976 181.059 382.37 180.125 382.37 180.125L381.829 176.492Z" fill="#FFB27D"/>
<path d="M421.148 307.349L425.116 308.827C425.116 308.827 442.344 284.926 444.465 263.895C444.844 260.141 444.719 256.503 443.898 253.143C443.898 253.143 444.067 252.18 444.361 250.48C444.497 249.686 444.666 248.73 444.856 247.637C445.416 244.426 446.186 240.035 447.069 235.033C449.096 223.523 451.722 208.81 453.763 197.995L452.694 197.652L441.13 193.92L438.741 186.328L430.131 184.062C430.131 184.062 428.207 187.825 426.487 205.606C426.17 207.938 425.881 210.512 425.664 213.3C424.993 221.812 424.944 232.373 426.484 244.445C426.88 247.535 427.377 250.727 427.997 254.005C428.451 256.409 428.518 259.682 428.328 263.443C427.457 280.634 421.148 307.349 421.148 307.349Z" fill="#144EF4"/>
<path d="M425.662 213.298L444.36 250.483C444.495 249.689 444.664 248.733 444.855 247.64C445.415 244.429 446.184 240.038 447.068 235.036C449.095 223.526 451.72 208.813 453.762 197.998L452.693 197.655L441.129 193.923L438.739 186.331L430.129 184.064C430.129 184.064 428.206 187.828 426.485 205.609C426.169 207.937 425.879 210.51 425.662 213.298Z" fill="#144EF4"/>
<path d="M433.889 188.833L434.321 185.121C441.572 187.047 460.948 179.737 460.948 179.737C460.948 179.737 467.973 185.915 467.051 200.722C466.6 207.95 465.78 238.661 464.921 247.749C464.609 251.042 464.339 253.386 464.228 254.323C464.226 254.327 464.226 254.33 464.226 254.332C464.192 254.617 464.291 254.888 464.436 255.136C465.7 257.282 466.747 259.518 467.607 261.806C476.036 284.278 466.308 311.952 466.308 311.952L463.784 310.933C463.784 310.933 458.248 280.136 453.75 266.53C452.987 264.222 452.253 262.41 451.583 261.326C449.628 258.168 447.811 253.009 446.165 246.873C443.052 235.271 440.544 220.179 438.877 208.529C438.645 208.536 433.889 188.833 433.889 188.833Z" fill="#144EF4"/>
<path d="M381.83 176.492L382.371 180.125C382.371 180.125 382.61 180.125 383.032 180.094C384.352 180.004 387.564 179.823 391.196 179.432C396.659 178.892 403.141 177.931 405.724 176.34C409.655 173.938 416.11 166.583 420.312 159.225C420.432 159.044 420.522 158.865 420.611 158.684C422.802 154.78 424.332 150.906 424.453 147.814C424.542 145.921 424.332 144.301 423.944 142.889C423.434 141.028 422.592 139.555 421.721 138.445C421.6 138.264 421.48 138.085 421.301 137.933C419.86 136.222 418.449 135.502 418.449 135.502C417.727 135.201 416.948 135.563 416.137 136.432V136.461C415.476 137.151 414.756 138.201 414.066 139.524C414.037 139.553 414.006 139.584 414.006 139.613C413.856 139.884 413.707 140.183 413.526 140.514C413.465 140.574 413.436 140.663 413.405 140.724C413.074 141.414 412.744 142.136 412.413 142.887C408.721 150.935 404.79 163.126 401.517 166.759C400.106 168.321 393.653 171.384 388.52 173.665C384.832 175.292 381.83 176.492 381.83 176.492Z" fill="#FFB27D"/>
<path d="M420.033 143.794C422.309 144.851 425.06 145.568 428.385 145.752C440.852 146.435 443.683 135.502 444.197 128.246C442.399 127.594 440.826 127.656 439.918 127.705C439.035 127.753 438.111 127.845 437.351 127.939C435.825 127.142 433.086 123.27 431.503 116.796L430.965 117.045L421.969 121.274C421.969 121.274 422.924 124.202 423.629 127.005C424.179 129.197 424.575 131.316 424.244 131.91C423.535 132.197 423.11 132.381 423.11 132.381C423.11 132.381 423.11 132.383 423.108 132.39C423.018 132.62 421.064 137.605 420.033 143.794Z" fill="#FFB27D"/>
<path d="M416.916 151.978C417.01 152.227 417.114 152.471 417.227 152.719C420.384 159.522 426.229 187.701 426.229 187.701C425.396 192.768 464.29 186.706 464.392 182.093C465.763 177.202 459.532 169.342 456.018 165.4C455.579 164.905 455.183 164.374 454.84 163.812C453.971 162.407 453.421 160.818 453.247 159.16C452.557 152.62 452.82 146.494 452.762 142.766C452.077 142.257 451.411 141.789 450.793 141.342C449.847 140.652 449.012 140.007 448.397 139.353C447.721 138.641 447.296 137.912 447.248 137.089C447.212 136.466 447.231 135.829 447.296 135.191C447.325 134.89 447.364 134.588 447.41 134.288C447.895 131.124 449.217 128.253 449.217 128.253C445.873 126.899 439.924 127.705 439.924 127.705C439.924 127.705 439.931 128.036 439.934 128.577C439.953 130.75 439.934 136.331 439.236 137.388C438.365 138.704 422.43 144.466 421.588 142.682C420.758 140.927 423.029 132.702 423.113 132.391C423.116 132.384 423.116 132.381 423.116 132.381C417.78 134.477 415.871 136.237 415.871 136.237C419.086 138.322 414.428 145.381 416.916 151.978Z" fill="#F99746"/>
<path d="M427.649 93.1996C427.668 92.6589 428.086 86.8315 436.959 86.5273C436.959 86.5273 432.596 87.0488 431.843 88.9655C431.843 88.9655 434.814 86.5949 437.232 87.3578C439.65 88.1206 441.071 92.3596 441.086 93.7549C441.1 95.1502 439.756 99.645 438.221 100.026C437.64 100.171 436.971 100.133 436.361 100.029C436.769 100.666 437.169 101.371 437.553 102.156C441.093 109.424 437.442 116.529 434.445 115.744C432.524 115.242 431.978 118.522 431.978 118.522L413.305 103.401C413.305 103.401 420.166 89.2045 427.649 93.1996Z" fill="#1D2942"/>
<path d="M421.969 121.277C421.969 121.277 422.924 124.203 423.629 127.008C428.888 125.54 430.485 120.012 430.965 117.048L421.969 121.277Z" fill="#ED985F"/>
<path d="M420.865 124.376C420.865 124.376 433.445 121.464 431.512 113.655C429.579 105.846 429.9 100.212 421.787 101.74C413.673 103.27 412.855 106.633 412.867 109.397C412.877 112.161 417.542 124.931 420.865 124.376Z" fill="#FFB27D"/>
<path d="M412.158 104.963C413.51 102.134 415.102 102.283 416.099 102.786C422.012 97.3155 427.808 101.784 427.808 101.784C430.04 107.177 434.877 109.381 434.877 109.381C434.877 109.381 432.944 111.36 427.342 111.317C425.631 111.302 423.911 110.518 422.345 109.434C425.364 112.475 428.904 114.327 428.904 114.327C421.891 112.985 417.19 104.864 416.707 104.002C416.114 104.881 414.977 106.747 414.88 108.326C414.75 110.469 415.489 114.631 414.26 114.79C414.263 114.79 410.129 109.209 412.158 104.963Z" fill="#1D2942"/>
<path d="M415.869 136.234C415.869 136.234 412.84 141.521 412.387 142.88C412.387 142.88 416.315 142.728 417.901 145.75C417.901 145.75 418.28 136.947 415.869 136.234Z" fill="#F99746"/>
<path d="M436.702 178.233C444.374 178.151 450.87 170.182 454.84 163.814C453.971 162.409 453.421 160.821 453.247 159.162C452.557 152.623 452.82 146.496 452.762 142.769C452.077 142.26 451.411 141.791 450.793 141.345C449.847 140.654 449.012 140.01 448.397 139.355C442.112 149.977 426.301 178.344 436.702 178.233Z" fill="#ED7D2B"/>
<path d="M407.705 182.407L408.755 186.25C408.755 186.25 410.075 186.011 412.177 185.62C412.807 185.499 413.166 185.41 413.166 185.41C414.846 185.079 416.859 184.63 419.05 184.15H419.081C422.834 183.249 427.035 182.168 430.578 180.966C433.068 180.094 435.231 179.165 436.7 178.233C436.85 178.144 436.97 178.052 437.12 177.931C440.631 175.38 444.804 167.872 448.047 159.826C448.499 158.716 448.918 157.605 449.338 156.524C450.839 152.5 452.039 148.536 452.76 145.113C453.212 143.071 453.511 141.209 453.571 139.679C453.603 139.138 453.632 138.629 453.603 138.149C453.542 129.441 449.22 128.239 449.22 128.239C449.131 128.21 449.039 128.179 448.921 128.15C448.17 128.029 447.391 128.541 446.58 129.531C445.559 130.762 444.478 132.773 443.368 135.206C441.657 139.08 439.857 144.094 438.175 149.079C437.243 151.812 436.343 154.544 435.443 157.067C434.934 158.598 434.422 160.039 433.942 161.362C433.01 163.884 432.171 165.926 431.42 167.215C430.94 168.056 429.559 169.226 427.728 170.549C424.547 172.862 419.894 175.655 415.84 177.936C414.158 178.897 412.568 179.768 411.248 180.488C409.117 181.658 407.705 182.407 407.705 182.407Z" fill="#FFB27D"/>
<path d="M443.375 135.218C449.155 133.624 453.612 138.136 453.612 138.136C453.54 129.443 449.213 128.253 449.213 128.253C447.473 127.534 445.455 130.549 443.375 135.218Z" fill="#F99746"/>
<path d="M451.629 314.011H471.606C471.606 314.011 472.084 310.964 471.041 308.654C470.042 306.436 468.476 305.429 468.85 302.747C467.58 304.055 465.512 305.518 462.624 305.13C462.269 305.704 460.338 308.775 459.158 309.625C457.853 310.564 452.032 310.23 451.629 314.011Z" fill="#1D2942"/>
<path d="M408.734 314.011H428.711C428.711 314.011 429.457 310.824 428.147 308.654C426.986 306.735 427.43 305.641 428.291 304.053C427.386 304.425 426.216 304.76 424.927 304.688C423.933 304.63 422.878 304.178 421.957 303.643C421.097 304.623 417.415 308.796 416.264 309.624C414.958 310.564 409.137 310.23 408.734 314.011Z" fill="#1D2942"/>
<path d="M406.515 200.214L401.768 188.629C401.15 187.118 399.492 186.334 397.953 186.758C396.382 183.801 394.215 181.397 391.758 179.71C389.171 177.928 386.265 176.946 383.398 176.958C381.885 176.965 380.377 177.25 378.936 177.841C372.186 180.608 369.16 189.139 371.639 197.518L371.269 197.67C371.269 197.67 370.116 197.59 368.18 197.59C362.068 197.59 348.17 198.404 338.418 205.177C338.418 205.177 337.805 205.829 337.781 206.826C337.769 207.154 337.824 207.524 337.986 207.92C337.986 207.92 353.638 197.781 368.113 208.2C369.003 208.837 369.863 209.428 370.705 209.976L372.003 213.146C374.156 218.404 380.215 220.938 385.469 218.785L398.727 213.349L401.49 212.217C406.175 210.297 408.436 204.895 406.515 200.214ZM380.811 190.824L375.411 193.04C373.943 193.641 373.171 195.236 373.55 196.736L372.971 196.972C370.775 189.339 373.453 181.641 379.482 179.171C380.329 178.824 381.198 178.597 382.078 178.486C384.854 178.119 387.745 178.867 390.346 180.489C392.817 182.029 395.021 184.359 396.608 187.282L395.812 187.608C395.03 186.278 393.363 185.682 391.895 186.28L386.492 188.497C386.07 187.466 385.068 186.841 384.016 186.841C383.683 186.841 383.343 186.906 383.017 187.038L382.269 187.345C380.91 187.903 380.256 189.467 380.811 190.824Z" fill="#4B80F7"/>
<path d="M370.707 209.974C369.867 209.426 369.006 208.835 368.115 208.198C353.638 197.779 337.989 207.917 337.989 207.917C337.827 207.524 337.769 207.155 337.783 206.824C339.975 205.38 348.187 200.579 358.361 202.22C370.285 204.144 372.44 205.803 370.707 209.974Z" fill="#144EF4"/>
<path d="M401.495 212.214L398.732 213.346C402.873 211.084 397.745 201.527 394.745 195.22C391.746 188.909 387.206 191.794 387.206 191.794C386.166 189.679 383.939 189.793 383.939 189.793C383.823 187.755 382.269 187.345 382.269 187.345L383.017 187.039C383.343 186.906 383.685 186.841 384.016 186.841C385.068 186.841 386.072 187.466 386.492 188.497L391.895 186.281C393.362 185.679 395.03 186.278 395.812 187.608L396.608 187.282C395.02 184.359 392.817 182.029 390.346 180.489C387.747 178.867 384.853 178.119 382.078 178.486C382.513 178.136 382.981 177.646 383.398 176.96C386.265 176.948 389.171 177.931 391.758 179.712C394.212 181.399 396.379 183.801 397.952 186.761C399.492 186.336 401.15 187.121 401.768 188.632L406.515 200.217C408.436 204.895 406.174 210.297 401.495 212.214Z" fill="#144EF4"/>
<path d="M395.277 186.131C397.198 186.943 399.898 189.765 404.223 188.053C407.314 186.851 410.586 186.011 412.177 185.62C412.806 185.499 413.166 185.41 413.166 185.41L411.455 180.425C411.455 180.425 411.395 180.454 411.245 180.485C410.135 180.724 404.49 181.926 401.85 181.325C398.88 180.635 393.896 184.208 393.896 184.208C393.896 184.208 393.356 185.349 395.277 186.131Z" fill="#FFB27D"/>
<path d="M341.046 216.284C341.046 214.481 337.781 208.914 337.781 208.914C337.781 208.914 334.516 214.481 334.516 216.284C334.516 218.087 335.978 219.55 337.781 219.55C339.583 219.55 341.046 218.087 341.046 216.284Z" fill="#AFCDFB"/>
<path d="M429.689 0.025417L424.899 1.07068L424.785 1.09723C424.204 1.22759 423.81 1.77074 423.876 2.35976L424.308 6.43217C424.315 6.49977 424.317 6.56494 424.312 6.63012C424.279 7.08154 423.987 7.48951 423.55 7.63676C420.985 8.55167 418.634 9.95903 416.624 11.7937C416.539 11.8685 416.448 11.9289 416.351 11.9771C415.984 12.1558 415.535 12.1292 415.186 11.8975L412.352 9.988C411.978 9.73935 411.496 9.73453 411.119 9.94454C411.006 10.0121 410.895 10.099 410.803 10.2077L407.577 14.0387C407.178 14.5094 407.207 15.2143 407.649 15.6537L410.866 18.8667C411.182 19.1853 411.288 19.6537 411.134 20.0761C410.921 20.6868 410.733 21.3048 410.576 21.9421C410.279 23.137 410.098 24.3296 410.021 25.5124L410.019 25.5173C409.985 26.0121 409.662 26.4273 409.189 26.5746L404.78 27.9409L404.558 28.0109C403.991 28.1799 403.641 28.7713 403.769 29.3579L404.833 34.2584C404.965 34.8546 405.523 35.2602 406.131 35.195L410.663 34.7146C411.168 34.6591 411.65 34.9343 411.853 35.3929C412.746 37.3121 413.928 39.0888 415.364 40.6482C415.726 41.0489 415.77 41.6404 415.468 42.0918L413.212 45.4569C412.869 45.9711 412.97 46.647 413.436 47.0381L417.278 50.2801C417.734 50.6615 418.405 50.6301 418.82 50.2125L422.601 46.437C422.92 46.1159 423.395 46.0049 423.827 46.1473C424.358 46.3259 424.899 46.4853 425.449 46.6204C426.492 46.8787 427.532 47.0525 428.56 47.1467C429.028 47.1853 429.429 47.4991 429.561 47.9506L431.195 53.2541C431.378 53.8383 431.97 54.1811 432.563 54.0531L437.479 52.9862C437.998 52.8703 438.374 52.4116 438.396 51.8926C438.399 51.8395 438.401 51.7792 438.389 51.7236L437.858 46.6929C437.807 46.2245 438.032 45.7731 438.442 45.5462C438.478 45.5245 438.512 45.5028 438.551 45.4907C438.664 45.44 438.77 45.3965 438.884 45.3338C440.206 44.7279 441.463 43.9747 442.629 43.0984C443.015 42.7991 443.553 42.7894 443.963 43.0694L447.518 45.4521C448.02 45.7924 448.703 45.6911 449.094 45.2251L449.813 44.3754L452.313 41.4014C452.709 40.9379 452.678 40.2475 452.246 39.813L449.077 36.6482C448.737 36.3127 448.652 35.8009 448.85 35.3664C449.372 34.227 449.799 33.0103 450.112 31.743C450.344 30.8015 450.508 29.8504 450.605 28.9113L451.531 28.6265L455.327 27.4485C455.798 27.3084 456.119 26.8788 456.136 26.4056C456.143 26.3066 456.131 26.2077 456.109 26.1063L455.048 21.1721C454.917 20.5903 454.367 20.2016 453.778 20.2596L450.682 20.5927C450.161 20.6482 449.652 20.3368 449.468 19.8444C448.713 17.7973 447.644 15.8878 446.3 14.1908C445.981 13.7876 445.954 13.2372 446.242 12.8317L449.094 8.58063C449.41 8.10266 449.323 7.46537 448.882 7.09361L444.996 3.81057C444.535 3.42192 443.86 3.45089 443.445 3.87575L439.511 7.80574C439.176 8.14611 438.666 8.24267 438.225 8.05438C437.279 7.65124 436.282 7.32777 435.244 7.07188C434.687 6.93428 434.13 6.81841 433.572 6.72909C433.135 6.65668 432.776 6.34768 432.641 5.92523L431.072 0.84135C430.889 0.24992 430.292 -0.100111 429.689 0.025417ZM420.055 22.9922C420.526 21.72 421.24 20.4744 422.227 19.2891C422.435 19.0357 422.696 18.7774 422.98 18.5191C424.226 17.4231 426.045 16.431 427.459 16.1292C438.28 13.8383 445.455 25.5028 438.727 34.087C438.616 34.227 438.502 34.367 438.384 34.5046C437.291 35.8009 435.025 37.16 433.372 37.5269C432.505 37.72 431.661 37.8214 430.848 37.8456C422.712 38.0652 417.384 30.2366 420.055 22.9922Z" fill="#DFEDFB"/>
<path d="M502.843 16.6387L495.304 17.3194L495.125 17.3363C494.208 17.4256 493.504 18.1812 493.487 19.0985L493.369 25.4208C493.366 25.5246 493.357 25.6284 493.337 25.7249C493.197 26.4105 492.674 26.9778 491.974 27.1202C487.871 28.0279 483.998 29.737 480.569 32.1631C480.426 32.2621 480.272 32.3369 480.115 32.3924C479.519 32.5952 478.839 32.4673 478.346 32.0472L474.372 28.5783C473.846 28.1269 473.107 28.0231 472.492 28.2765C472.306 28.3586 472.12 28.4697 471.956 28.6193L466.28 33.8674C465.58 34.5119 465.488 35.5982 466.082 36.3562L470.395 41.8963C470.817 42.4443 470.889 43.1806 470.576 43.801C470.134 44.6966 469.729 45.6066 469.364 46.5529C468.681 48.3272 468.174 50.1184 467.829 51.9168L467.827 51.9241C467.682 52.6748 467.105 53.2518 466.352 53.3846L459.335 54.6302L458.982 54.6954C458.08 54.8474 457.431 55.6827 457.518 56.6097L458.21 64.32C458.302 65.2566 459.077 65.988 460.02 66.0049L467.055 66.1377C467.837 66.1498 468.522 66.664 468.746 67.4026C469.748 70.5167 471.218 73.4618 473.122 76.1244C473.599 76.8076 473.554 77.7225 473.003 78.355L468.903 83.0768C468.281 83.7985 468.307 84.8535 468.944 85.5414L474.21 91.2457C474.835 91.9192 475.87 91.9989 476.585 91.4388L483.1 86.3791C483.651 85.947 484.399 85.8722 485.033 86.1715C485.81 86.5481 486.609 86.8933 487.427 87.2095C488.974 87.8058 490.533 88.2693 492.092 88.6096C492.804 88.7593 493.357 89.3169 493.475 90.0339L494.964 98.4732C495.135 99.4026 495.973 100.042 496.907 99.9603L504.641 99.2675C505.459 99.1878 506.123 98.5601 506.255 97.7659C506.267 97.6839 506.284 97.5945 506.279 97.5052L506.432 89.6984C506.441 88.9717 506.873 88.3224 507.544 88.052C507.602 88.0255 507.66 88.0013 507.723 87.9868C507.906 87.9337 508.08 87.883 508.261 87.8106C510.401 87.1371 512.472 86.2222 514.429 85.1045C515.076 84.7207 515.906 84.8076 516.478 85.3169L521.466 89.6477C522.171 90.2632 523.235 90.2415 523.923 89.6042L525.187 88.4382L529.589 84.361C530.284 83.7261 530.366 82.6616 529.792 81.9132L525.544 76.4551C525.086 75.8758 525.057 75.0768 525.443 74.4467C526.459 72.8028 527.347 71.0212 528.071 69.1383C528.609 67.7406 529.041 66.3139 529.367 64.8921L530.839 64.6338L536.879 63.5572C537.628 63.4316 538.202 62.8378 538.318 62.1136C538.347 61.9615 538.349 61.8094 538.332 61.6501L537.649 53.8867C537.56 52.9693 536.793 52.2693 535.88 52.2451L531.073 52.1631C530.262 52.1486 529.543 51.5741 529.357 50.7823C528.592 47.5016 527.321 44.3707 525.588 41.5125C525.175 40.8366 525.243 39.9869 525.759 39.4172L530.943 33.4497C531.517 32.7787 531.508 31.7841 530.904 31.1299L525.573 25.3701C524.943 24.6869 523.901 24.6024 523.182 25.1697L516.403 30.4371C515.824 30.8957 515.028 30.944 514.383 30.5723C513.01 29.7756 511.545 29.0877 510.008 28.4938C509.18 28.1752 508.348 27.8927 507.51 27.6489C506.856 27.4534 506.364 26.9102 506.238 26.2367L504.807 18.1474C504.639 17.2156 503.794 16.5638 502.843 16.6387ZM483.687 49.9784C484.65 48.122 485.984 46.3477 487.724 44.7231C488.089 44.3731 488.54 44.0279 489.025 43.6875C491.144 42.2464 494.119 41.0756 496.344 40.8849C513.36 39.4509 522.118 58.6978 510.165 70.5578C509.967 70.7509 509.767 70.9416 509.559 71.1323C507.638 72.909 503.902 74.5553 501.303 74.8016C499.94 74.9295 498.625 74.9247 497.375 74.8064C484.864 73.5777 478.204 60.5662 483.687 49.9784Z" fill="#CDE3FD"/>
<path d="M613.194 316H3.8091C3.36451 316 3 315.55 3 315C3 314.451 3.36451 314 3.8091 314H613.191C613.635 314 614 314.451 614 315C614.003 315.55 613.638 316 613.194 316Z" fill="#2E3552"/>
</svg>
