<svg width="23" height="11" viewBox="0 0 23 11" fill="none" xmlns="http://www.w3.org/2000/svg">
<g filter="url(#filter0_b)">
<path fill-rule="evenodd" clip-rule="evenodd" d="M17.3012 0.00511378C17.2743 0.00834022 17.1894 0.0177446 17.1125 0.0260205C15.5868 0.190236 14.1405 1.1153 13.2663 2.48597C12.5134 3.66644 12.2286 5.09943 12.4742 6.47016C12.819 8.39382 14.1458 10.0004 15.9318 10.6569C16.3016 10.7928 16.6804 10.8834 17.1056 10.9375C17.2991 10.9621 18.0577 10.9622 18.2374 10.9376C18.9413 10.8413 19.4589 10.6811 20.0329 10.3821C20.9597 9.89926 21.7326 9.15457 22.2623 8.23403C23.2315 6.5498 23.2465 4.52518 22.3026 2.81774C21.7054 1.73751 20.7345 0.855389 19.6352 0.394225C19.2068 0.214471 18.7903 0.100735 18.3072 0.0315908C18.1545 0.00971468 17.4234 -0.0095137 17.3012 0.00511378ZM0.924545 5.46901V8.95231H1.70006H2.47557V7.89613V6.83994L2.79347 6.8404L3.11136 6.84086L3.31556 7.16232C3.42788 7.33912 3.7295 7.81094 3.98584 8.21081L4.45192 8.93785L5.20691 8.93722L5.9619 8.9366L6.05796 8.84303L6.15403 8.74947L6.04982 8.57961C5.9925 8.48619 5.68778 7.99306 5.37267 7.48378C5.05756 6.97449 4.79207 6.5429 4.78269 6.5247C4.76232 6.48516 4.75821 6.49144 4.95647 6.25922C5.1901 5.98557 5.29811 5.82468 5.41649 5.57396C5.59109 5.20415 5.67477 4.83425 5.67507 4.43096C5.67556 3.7822 5.49899 3.23191 5.16105 2.8289C4.81609 2.41753 4.26309 2.13275 3.60467 2.0274C3.44708 2.00218 3.13774 1.9959 1.7315 1.98942L0.924545 1.9857V5.46901ZM6.72344 5.46901V8.95231H7.49895H8.27447V7.89613V6.83994H8.58861H8.90276L9.27556 7.42229C9.48061 7.74259 9.78274 8.21462 9.94696 8.47124L10.2455 8.93785H11.0028H11.7601L11.8531 8.84228L11.9461 8.7467L11.7896 8.49143C11.7035 8.35101 11.5764 8.14498 11.5072 8.03358C11.438 7.92217 11.2867 7.67802 11.1711 7.49101C11.0555 7.30401 10.8691 7.00268 10.757 6.82137L10.5531 6.49176L10.6853 6.33839C10.9709 6.00692 11.0836 5.84157 11.216 5.55949C11.4156 5.13445 11.5009 4.66672 11.4628 4.20641C11.4222 3.71618 11.3067 3.34372 11.0905 3.00583C10.9948 2.85634 10.7285 2.5847 10.5738 2.47888C10.2854 2.28155 9.93766 2.13634 9.56699 2.05844C9.2898 2.00018 9.19941 1.99711 7.53039 1.98942L6.72344 1.9857V5.46901ZM17.9739 2.03709C18.4362 2.08537 18.9333 2.26009 19.3199 2.51016C20.1418 3.04187 20.678 3.89105 20.8387 4.91565C20.8801 5.17915 20.8835 5.73288 20.8454 5.98631C20.7338 6.72847 20.4597 7.34412 20.0064 7.87086C19.6081 8.33366 19.0798 8.66856 18.5168 8.81521C18.2485 8.88509 18.112 8.90059 17.7623 8.90082C17.4313 8.90104 17.2776 8.88576 17.0363 8.82864C15.792 8.53412 14.834 7.52144 14.5907 6.24357C14.5205 5.87467 14.4998 5.33713 14.5416 4.96714C14.6298 4.18715 14.9476 3.51959 15.4844 2.98699C16.0446 2.43115 16.7238 2.09605 17.4199 2.032C17.5471 2.02029 17.8387 2.02298 17.9739 2.03709ZM3.44586 3.57733C3.67905 3.6169 3.77729 3.66622 3.87441 3.79252C3.99899 3.95455 4.0714 4.18054 4.07199 4.40926C4.07305 4.8245 3.85521 5.13752 3.50117 5.22948C3.41979 5.25062 3.33307 5.2546 2.94368 5.25508L2.48256 5.25566L2.47893 4.42373C2.47694 3.96617 2.47831 3.58367 2.48199 3.57371C2.4922 3.54608 3.2791 3.54903 3.44586 3.57733ZM9.26849 3.58296C9.47039 3.62066 9.54346 3.65624 9.63953 3.76365C9.89141 4.04525 9.94089 4.55559 9.74915 4.89437C9.69512 4.98981 9.56604 5.11326 9.46918 5.1621C9.3019 5.24647 9.25966 5.25214 8.74606 5.25924L8.27447 5.26575V4.41069V3.55563H8.69829C9.05285 3.55563 9.14602 3.5601 9.26849 3.58296Z" fill="#6A8FB1"/>
</g>
<defs>
<filter id="filter0_b" x="-1.24955" y="-2.1741" width="26.4237" height="15.3042" filterUnits="userSpaceOnUse" color-interpolation-filters="sRGB">
<feFlood flood-opacity="0" result="BackgroundImageFix"/>
<feGaussianBlur in="BackgroundImage" stdDeviation="1.08705"/>
<feComposite in2="SourceAlpha" operator="in" result="effect1_backgroundBlur"/>
<feBlend mode="normal" in="SourceGraphic" in2="effect1_backgroundBlur" result="shape"/>
</filter>
</defs>
</svg>
