<svg width="14" height="14" viewBox="0 0 14 14" fill="none" xmlns="http://www.w3.org/2000/svg">
<path d="M10.2739 9.03665C10.9629 8.09586 11.3749 6.94027 11.3749 5.68752C11.3749 2.55153 8.82343 0 5.68746 0C2.55149 0 0 2.55153 0 5.68752C0 8.82351 2.55152 11.375 5.68749 11.375C6.94023 11.375 8.09592 10.9629 9.03671 10.274L12.7627 14L14 12.7627L10.2739 9.03665ZM5.68749 9.62503C3.51623 9.62503 1.75001 7.8588 1.75001 5.68752C1.75001 3.51625 3.51623 1.75002 5.68749 1.75002C7.85875 1.75002 9.62497 3.51625 9.62497 5.68752C9.62497 6.44579 9.40956 7.15467 9.03671 7.75616C8.34193 8.87702 7.10047 9.62503 5.68749 9.62503Z" fill="#1D2942"/>
</svg>
