<svg width="1157" height="688" viewBox="0 0 1157 688" fill="none" xmlns="http://www.w3.org/2000/svg">
<path d="M116.542 467.066C85.8808 461.269 54.4558 511.112 62.1158 537.026C69.7757 562.941 102.75 579.14 134.26 579.284C151.617 579.284 169.271 575.546 186.076 579.158C202.881 582.77 218.116 598.535 210.329 611.664C207.443 616.522 201.99 620.043 199.295 624.991C194.733 633.389 199.613 643.773 207.931 649.732C216.249 655.692 227.177 658.166 237.786 660.116C306.004 672.757 376.578 670.951 446.345 669.236L913.349 657.317C930.049 656.883 947.13 656.396 962.641 651.123C978.151 645.849 991.986 634.707 994.278 620.639C996.569 606.571 983.371 590.968 966.736 591.582C1015.59 573.245 1060.04 547.356 1097.8 515.229C1103.68 510.227 1109.56 504.845 1112.06 498.109C1114.57 491.373 1123.58 473.676 1116.54 469.938C1112.17 467.608 1106.72 467.481 1101.54 467.409C1035.76 466.56 960.052 466.398 894.21 466.398C635.723 466.398 434.548 467.066 116.584 467.066" fill="#DCEAFF"/>
<path d="M315.588 16.0554L391.103 16.3801C391.103 16.3801 383.887 0.0180398 368.661 0C357.007 0 356.502 7.21593 349.503 9.32659C342.503 11.4372 327.765 -1.28083 315.588 16.0554Z" fill="#F5F5F5"/>
<path d="M0 315.136L142.785 315.731C142.785 315.731 129.255 284.811 100.374 284.793C78.3469 284.793 77.3547 298.503 64.1496 302.418C50.9444 306.332 23.0008 282.267 0 315.136Z" fill="#DCEAFF"/>
<path d="M363.954 404.417C363.954 404.417 314.398 317.141 309.329 236.322L295.023 234.771C295.023 234.771 303.141 336.606 347.483 411.381L363.954 404.417Z" fill="#AFCDFB"/>
<path d="M298.342 235.419C287.681 226.976 274.89 219.345 261.415 220.59C251.439 221.51 242.383 227.265 235.636 234.643C228.889 242.021 224.126 251.023 219.725 260.025C228.954 261.943 238.531 261.319 247.434 258.221C255.876 255.245 263.489 250.103 272.166 247.939C280.843 245.774 289.737 246.712 298.523 247.632C303.61 251.546 302.13 243.771 298.342 235.491" fill="#AFCDFB"/>
<path d="M299.262 240.776C299.983 229.718 300.308 217.721 293.976 208.629C287.139 198.816 274.367 195.117 262.442 194.017C250.518 192.917 238.233 193.638 226.922 189.742C228.886 196.737 232.549 203.138 237.585 208.375C242.62 213.612 248.873 217.523 255.786 219.76" fill="#AFCDFB"/>
<path d="M290.964 242.473C293.062 238.057 295.691 233.913 298.793 230.134C301.939 226.328 306.365 223.801 311.241 223.026C317.627 222.323 323.869 225.804 328.252 230.495C332.636 235.185 336.587 255.029 358.83 266.574C361.211 267.819 324.843 278.354 311.493 261.162C306.082 254.037 299.136 247.578 290.838 244.079" fill="#AFCDFB"/>
<path d="M297.764 242.078C288.51 238.037 277.163 243.052 271.318 251.315C265.473 259.577 264.102 270.166 264.228 280.178C264.355 290.19 265.762 300.419 264.752 310.485C273.901 305.785 281.944 299.188 288.342 291.134C294.741 283.081 299.349 273.755 301.86 263.78C303.357 258.337 303.713 252.644 302.906 247.057C302.06 241.43 299.106 236.336 294.644 232.806" fill="#AFCDFB"/>
<path d="M290.711 230.349C297.927 216.26 306.333 201.161 320.837 194.703C335.341 188.244 352.642 192.123 368.12 188.118C358.651 209.069 341.49 225.578 320.188 234.228" fill="#AFCDFB"/>
<path d="M300.183 236.286C289.359 227.429 283.947 213.484 282.341 199.647C280.736 185.811 282.864 171.83 284.903 158.156C292.633 163.427 298.828 170.654 302.855 179.099C306.883 187.545 308.6 196.907 307.831 206.232" fill="#AFCDFB"/>
<path d="M556.04 466.672H273.014C273.014 466.672 298.053 362.041 370.699 366.713C443.346 371.385 435.895 409.143 469.052 416.611C502.21 424.08 540.887 415.511 556.04 466.672Z" fill="#AFCDFB"/>
<path d="M1118.96 467.104C1118.96 467.248 880.109 467.375 585.555 467.375C291.001 467.375 52.0996 467.248 52.0996 467.104C52.0996 466.96 290.893 466.815 585.555 466.815C880.217 466.815 1118.96 466.942 1118.96 467.104Z" fill="#E0E0E0"/>
<path d="M691.557 597.529C692.639 599.46 701.046 635.269 706.981 660.849C708.669 668.122 712.771 674.609 718.619 679.251C724.467 683.893 731.715 686.417 739.182 686.411H795.322C802.892 686.395 810.227 683.779 816.098 679.001C821.97 674.222 826.022 667.572 827.577 660.164L840.764 597.529H691.557Z" fill="#455A64"/>
<path d="M691.557 597.529C691.557 597.529 727.636 617.265 772.429 614.721C817.222 612.178 840.818 597.529 840.818 597.529H691.557Z" fill="#263238"/>
<path d="M790.306 613.928C790.306 613.928 790.541 614.144 790.793 614.631C791.154 615.364 791.438 616.131 791.641 616.922C792.455 619.86 792.59 622.944 792.038 625.942C791.279 630.438 789.171 634.596 785.995 637.867C781.964 641.845 776.523 644.069 770.859 644.054C765.208 644.122 759.737 642.069 755.526 638.3C752.287 635.14 749.914 631.202 748.634 626.862C747.725 624.03 747.121 621.109 746.83 618.149C746.624 617.07 746.624 615.962 746.83 614.884C747.268 615.88 747.542 616.94 747.642 618.023C748.219 620.845 749.009 623.619 750.005 626.321C751.397 630.3 753.73 633.884 756.806 636.766C760.686 640.104 765.652 641.907 770.769 641.835C775.881 641.861 780.808 639.924 784.534 636.423C787.512 633.462 789.573 629.703 790.469 625.599C791.098 622.817 791.196 619.94 790.757 617.121C790.595 616.111 790.433 615.317 790.306 614.794C790.18 614.27 790.234 613.946 790.306 613.928Z" fill="#263238"/>
<path d="M644.58 223.89L943.734 148.502L987.715 165.044L1156.21 393.104C1156.21 393.104 1032.31 339.976 987.102 377.806C987.102 377.806 920.048 291.359 808.977 318.275C808.977 318.275 770.498 236.771 644.58 223.89Z" fill="#144EF4"/>
<path opacity="0.2" d="M644.58 223.89L943.734 148.502L987.715 165.044L1156.21 393.104C1156.21 393.104 1032.31 339.976 987.102 377.806C987.102 377.806 920.048 291.359 808.977 318.275C808.977 318.275 770.498 236.771 644.58 223.89Z" fill="black"/>
<path d="M840.331 682.049C839.05 681.778 859.417 584.886 885.773 465.697C912.129 346.508 934.48 250.031 935.815 250.32C937.15 250.609 916.729 347.464 890.355 466.798C863.981 586.131 841.593 682.337 840.331 682.049Z" fill="#263238"/>
<path d="M891.69 245.937C892.7 245.125 908.701 263.814 927.408 287.645C927.643 287.97 927.896 288.294 928.13 288.583L925.514 287.807C953.692 278.174 976.657 271.409 977.072 272.618C977.487 273.826 955.208 282.558 927.048 292.245L925.46 292.786L924.432 291.487L923.71 290.549C905.003 266.719 890.715 246.731 891.69 245.937Z" fill="#263238"/>
<path d="M1156.21 393.105C1051.36 282.972 1007.98 305.648 1007.98 305.648C948.714 210.597 838.401 257.103 838.401 257.103C786.085 189.887 644.617 223.892 644.617 223.892L940.921 148.251L987.825 165.046L1156.21 393.105Z" fill="#144EF4"/>
<path d="M1011.02 331.895C1010.25 332.003 1004.08 294.714 997.204 248.641C990.331 202.567 985.406 165.062 986.182 164.954C986.958 164.846 993.145 202.116 1000 248.226C1006.86 294.336 1011.8 331.768 1011.02 331.895Z" fill="#263238"/>
<path d="M943.734 148.504C942.464 150.393 940.994 152.141 939.351 153.717C936.392 156.928 932.135 161.546 926.723 167.211C915.899 178.54 901.052 194.126 884.474 211.246C867.895 228.366 852.742 243.718 841.611 254.74C836.055 260.152 831.509 264.626 828.316 267.621C826.749 269.269 825.021 270.756 823.156 272.058C824.416 270.166 825.88 268.417 827.522 266.845C830.48 263.616 834.738 259.016 840.15 253.351C850.974 242.022 865.839 226.436 882.417 209.298C898.996 192.16 914.149 176.826 925.262 165.822C930.836 160.41 935.382 155.936 938.575 152.941C940.124 151.274 941.854 149.785 943.734 148.504Z" fill="#263238"/>
<path d="M935.815 248.387C937.078 248.694 934.011 266.03 928.942 287.1C923.873 308.171 919.777 328.394 918.515 328.087C917.252 327.78 920.319 307.179 925.316 286.09C930.313 265.002 934.552 248.116 935.815 248.387Z" fill="#263238"/>
<path d="M277.722 687.622C265.094 670.791 250.663 654.465 232.244 644.327C214.312 634.423 193.386 630.923 172.875 631.085C152.364 631.248 132.087 634.928 111.9 638.59C120.37 649.126 130.972 657.751 143.01 663.901C155.048 670.05 168.25 673.585 181.751 674.273L186.766 667.057C186.513 672.198 186.279 677.321 186.026 682.445C216.506 686.036 247.274 686.502 277.849 683.834" fill="#144EF4"/>
<path opacity="0.2" d="M277.722 687.622C265.094 670.791 250.663 654.465 232.244 644.327C214.312 634.423 193.386 630.923 172.875 631.085C152.364 631.248 132.087 634.928 111.9 638.59C120.37 649.126 130.972 657.751 143.01 663.901C155.048 670.05 168.25 673.585 181.751 674.273L186.766 667.057C186.513 672.198 186.279 677.321 186.026 682.445C216.506 686.036 247.274 686.502 277.849 683.834" fill="black"/>
<path d="M138.996 651.595C140.819 650.919 142.714 650.453 144.643 650.206C149.857 649.273 155.133 648.724 160.427 648.564C177.922 648.18 195.367 650.573 212.111 655.654C228.787 660.725 245.042 667.089 260.729 674.686C266.754 677.554 271.553 679.953 274.908 681.649C276.689 682.427 278.387 683.382 279.977 684.499C278.11 683.977 276.298 683.277 274.565 682.407L260.133 676.093C244.351 668.934 228.124 662.8 211.552 657.728C194.987 652.731 177.784 650.161 160.482 650.098C155.243 650.129 150.01 650.442 144.805 651.036C142.887 651.379 140.944 651.566 138.996 651.595Z" fill="#263238"/>
<path d="M280.446 688.001C288.906 673.708 293.541 657.477 293.904 640.873C294.267 624.268 290.347 607.85 282.52 593.201C278.756 601.331 274.992 609.479 271.228 617.645C275.81 590.73 262.316 563.219 242.508 544.44C222.7 525.66 197.264 514.097 172.153 503.562C166.902 541.529 174.659 580.157 194.161 613.153C213.59 645.787 244.907 674.759 280.518 688.001" fill="#144EF4"/>
<path d="M205.834 546.983C206.376 546.694 223.748 577.651 244.674 616.093C265.6 654.536 282.143 685.962 281.62 686.25C281.096 686.539 263.706 655.583 242.78 617.122C221.854 578.661 205.311 547.254 205.834 546.983Z" fill="#263238"/>
<path d="M1006.86 629.571C1000.59 626.628 993.537 625.769 986.742 627.117C983.134 627.731 979.274 628.813 976.802 631.555C974.331 634.297 973.844 639.132 976.694 641.495C978.541 642.733 980.759 643.294 982.972 643.083C988.275 643.083 994.193 642.073 998.432 645.284C1000.87 647.088 1002.47 650.136 1005.38 651.038C1006.83 651.374 1008.35 651.228 1009.71 650.623C1011.07 650.017 1012.2 648.985 1012.92 647.683C1014.3 645.017 1014.6 641.925 1013.77 639.042C1013.42 637.037 1012.62 635.139 1011.42 633.496C1010.22 631.853 1008.66 630.51 1006.86 629.571Z" fill="#144EF4"/>
<path d="M1020.89 602.493C1017.14 607.905 1009.87 606.101 1006.46 602.818C1003.05 599.535 1001.66 594.826 1000.36 590.316C997.403 579.997 994.408 569.192 996.609 558.692C997.146 555.515 998.544 552.545 1000.65 550.105C1001.72 548.902 1003.08 548.002 1004.61 547.495C1006.14 546.988 1007.77 546.893 1009.34 547.219C1012.95 548.175 1015.3 551.783 1016.94 555.193C1021.81 565.285 1024.36 576.334 1024.43 587.538C1024.43 592.752 1023.83 598.218 1020.82 602.511" fill="#144EF4"/>
<path d="M1031.17 610.157C1029.25 607.647 1027.96 604.704 1027.44 601.585C1026.91 598.466 1027.15 595.266 1028.14 592.262C1030.19 586.258 1033.86 580.938 1038.75 576.892C1044.28 571.957 1050.73 568.151 1057.73 565.689C1060.43 564.591 1063.34 564.093 1066.26 564.228C1067.73 564.31 1069.15 564.75 1070.41 565.507C1071.66 566.265 1072.72 567.318 1073.48 568.575C1075.48 572.382 1073.57 577 1071.49 580.77C1067.84 587.418 1063.67 593.769 1059.03 599.766C1055.29 604.583 1051 609.327 1045.32 611.51C1039.63 613.693 1033.7 613.44 1030.69 609.49" fill="#144EF4"/>
<path d="M1021.14 683.148C1020.95 682.35 1020.83 681.534 1020.8 680.712C1020.64 678.908 1020.42 676.726 1020.15 674.074C1019.82 670.809 1019.33 667.564 1018.67 664.35C1017.77 660.436 1016.57 656.6 1015.06 652.877C1013.61 649.159 1011.64 645.666 1009.2 642.504C1007.22 639.922 1004.69 637.814 1001.79 636.334C999.82 635.364 997.714 634.707 995.544 634.386C994.728 634.366 993.917 634.251 993.127 634.043C993.948 633.945 994.777 633.945 995.598 634.043C997.847 634.218 1000.05 634.792 1002.09 635.739C1005.15 637.169 1007.83 639.294 1009.92 641.945C1012.46 645.154 1014.5 648.723 1015.98 652.534C1017.49 656.315 1018.67 660.221 1019.5 664.206C1020.13 667.46 1020.56 670.749 1020.78 674.056C1021 676.87 1021.09 679.143 1021.12 680.73C1021.22 681.533 1021.23 682.344 1021.14 683.148Z" fill="#263238"/>
<path d="M1020.69 678.044C1020.64 677.667 1020.64 677.284 1020.69 676.907V673.696C1020.69 670.9 1020.69 666.841 1020.55 661.844C1020.31 651.85 1019.45 638.049 1017.79 622.878C1016.13 607.706 1013.89 594.014 1011.87 584.254C1011.38 581.801 1010.92 579.6 1010.45 577.67C1009.98 575.74 1009.65 574.062 1009.29 572.709C1008.93 571.356 1008.75 570.4 1008.55 569.57C1008.44 569.207 1008.37 568.831 1008.35 568.452C1008.51 568.795 1008.64 569.151 1008.73 569.516C1008.98 570.328 1009.29 571.32 1009.67 572.601C1010.05 573.882 1010.52 575.595 1011.01 577.526C1011.49 579.456 1012.03 581.657 1012.56 584.11C1015.33 596.875 1017.42 609.78 1018.8 622.77C1020.46 637.959 1021.22 651.814 1021.29 661.826C1021.29 666.841 1021.29 670.846 1021.11 673.696C1021.11 675.013 1020.96 676.077 1020.91 676.925C1020.87 677.303 1020.8 677.677 1020.69 678.044Z" fill="#263238"/>
<path d="M1020.6 651.344C1020.52 650.222 1020.52 649.094 1020.6 647.971C1020.73 645.806 1021.04 642.685 1021.63 638.861C1022.37 634.376 1023.36 629.937 1024.61 625.565C1026.08 620.197 1027.94 614.94 1030.16 609.835C1033.99 600.449 1039.49 591.836 1046.4 584.417C1047.6 583.135 1048.87 581.93 1050.22 580.809C1050.82 580.322 1051.34 579.817 1051.87 579.42L1053.36 578.409C1054.26 577.738 1055.21 577.135 1056.19 576.605C1052.93 579.167 1049.82 581.932 1046.9 584.886C1040.21 592.341 1034.83 600.882 1030.99 610.141C1028.78 615.207 1026.92 620.414 1025.4 625.728C1023.94 630.617 1022.98 635.109 1022.24 638.879C1021.5 642.649 1021.14 645.77 1020.91 647.899C1020.9 649.054 1020.8 650.206 1020.6 651.344Z" fill="#263238"/>
<path d="M684.845 392.148C684.845 392.148 634.55 534.248 572.836 571.175C572.836 571.175 643.191 607.255 684.845 571.175C721.394 539.443 781.088 428.553 790.053 392.148H684.845Z" fill="#455A64"/>
<path d="M440.713 556.042L558.423 561.959C558.423 561.959 598.002 585.05 644.779 586.962L535.512 587.089C512.232 588.152 488.964 584.753 466.961 577.077C455.957 573.198 448.326 562.284 440.713 556.042Z" fill="#263238"/>
<path d="M512.943 681.164C512.294 680.731 553.298 616.907 604.513 538.65C655.728 460.393 697.797 397.218 698.465 397.651C699.132 398.084 658.11 461.89 606.876 540.165C555.643 618.44 513.683 681.579 512.943 681.164Z" fill="#455A64"/>
<path d="M570.274 675.698C569.751 676.276 541.5 651.038 507.134 619.36C472.769 587.682 445.402 561.506 445.943 560.929C446.485 560.352 474.717 585.59 509.083 617.285C543.449 648.981 570.797 675.121 570.274 675.698Z" fill="#455A64"/>
<path d="M622.771 670.813C622.103 670.398 659.554 608.395 706.403 532.321C753.252 456.248 791.785 394.894 792.435 395.219C793.084 395.544 755.67 457.637 708.802 533.729C661.935 609.82 623.438 671.21 622.771 670.813Z" fill="#455A64"/>
<path d="M678.152 677.828C677.593 678.369 649.667 651.039 615.807 616.763C581.946 582.488 554.904 554.255 555.445 553.714C555.987 553.173 583.912 580.503 617.809 614.779C651.706 649.055 678.694 677.287 678.152 677.828Z" fill="#455A64"/>
<path d="M642.271 642.324C642.271 643.1 618.495 644.345 589.126 645.102C559.757 645.86 535.909 645.842 535.891 645.102C535.873 644.363 559.667 643.082 589.054 642.324C618.441 641.567 642.253 641.549 642.271 642.324Z" fill="#455A64"/>
<path d="M731.441 345.103C735.189 341.184 740.007 338.455 745.296 337.256C750.599 336.354 756.625 338.176 759.529 342.668C761.964 346.438 761.964 351.489 764.779 354.989C766.763 357.497 769.848 358.814 772.482 360.636C774.627 362.04 776.438 363.899 777.785 366.082C779.131 368.264 779.982 370.716 780.275 373.263C780.487 375.824 779.882 378.385 778.547 380.58C777.211 382.775 775.214 384.489 772.842 385.476L749.012 381.616L724.893 363.251L731.441 345.103Z" fill="#263238"/>
<path d="M595.115 565.889C584.959 567.693 535.872 549.13 500.532 544.44C492.27 543.339 478.578 552.269 475.655 552.071C461.891 551.115 456.046 519.599 472.751 508.288C490.791 496.111 599.03 518.643 599.03 518.643C599.03 518.643 616.835 525.967 615.139 545.378C613.389 566.214 595.115 565.889 595.115 565.889Z" fill="#EB996E"/>
<path d="M464.633 518.085L426.551 665.109C426.551 665.109 452.781 671.965 453.611 673.48C454.188 674.616 504.591 533.274 503.527 536.287L464.633 518.085Z" fill="#EB996E"/>
<path d="M428.987 661.846C428.987 661.846 402.703 656.254 407.339 660.511C411.976 664.768 451.411 680.192 451.411 680.192L453.575 672.724L428.987 661.846Z" fill="#EB996E"/>
<path d="M728.358 414.066C724.281 406.85 706.836 402.322 706.836 402.322L678.496 394.348L669.476 393.374C663.018 391.949 647.63 392.075 632.476 418.287C603.829 467.825 552.289 411.757 552.289 411.757C550.813 409.024 549.604 406.154 548.681 403.188C548.199 401.716 547.973 400.172 548.014 398.624C547.982 396.7 548.219 394.782 548.717 392.923C549.349 391.264 547.635 389.694 546.282 390.578C544.929 391.462 543.089 395.99 543.486 401.655C543.883 407.319 537.749 400.789 535.476 398.444C533.203 396.098 525.753 389.099 524.508 389.279C522.704 389.478 522.488 391.516 524.815 393.807C527.142 396.098 533.636 403.477 532.337 404.631C531.038 405.786 519.709 393.645 519.709 393.645C519.709 393.645 517.689 390.65 516.101 391.841C513.323 394.132 526.402 406.128 527.683 407.229C528.567 408.005 527.196 409.303 526.294 408.42C525.392 407.536 515.181 396.062 512.331 398.371C510.13 400.175 522.993 408.329 523.786 411.883C524.58 415.437 514.658 404.667 512.638 406.471C511.88 407.139 511.411 407.734 518.05 413.074C522.866 416.671 527.877 420.002 533.059 423.05C538.85 434.577 559.487 468.149 603.901 467.789C627.714 467.644 643.95 453.14 654.629 437.121L693.469 446.484L711.617 456.387C711.617 456.387 732.435 421.3 728.358 414.066Z" fill="#FFBE9D"/>
<path d="M702.037 397.361L757.546 402.322L714.575 374.884C714.575 374.884 722.097 360.722 724.677 356.754C725.2 355.924 796.259 396.441 803.114 402.322C809.627 407.914 806.83 428.985 788.231 429.616C769.632 430.248 719.68 429.616 719.68 429.616L702.037 397.361Z" fill="#FFBE9D"/>
<path d="M679.035 401.402C680.551 398.678 685.548 379.592 685.548 379.592C685.548 379.592 674.868 374.559 678.025 363.357C681.182 352.154 690.653 327.006 690.653 327.006L714.285 324.156L728.176 347.824L708.133 402.539L679.035 401.402Z" fill="#FFBE9D"/>
<path d="M692.494 360.96C691.609 360.894 690.742 360.674 689.932 360.31C689.7 360.238 689.476 360.141 689.265 360.022C689.117 359.929 688.994 359.801 688.906 359.651C688.818 359.5 688.768 359.33 688.76 359.156C688.801 358.55 689.05 357.977 689.463 357.532L691.556 354.718C693.242 352.227 695.183 349.917 697.347 347.827C695.931 350.487 694.238 352.99 692.296 355.295L690.167 358.055C689.863 358.345 689.644 358.714 689.536 359.12C689.536 359.336 689.77 359.516 690.167 359.679C691.646 360.364 692.548 360.833 692.494 360.96Z" fill="#263238"/>
<path d="M697.238 364.135C697.382 364.045 691.826 365.182 688.795 364.135C689.079 365.099 689.681 365.938 690.504 366.514C691.326 367.091 692.32 367.372 693.323 367.31C694.261 367.397 695.195 367.113 695.927 366.52C696.658 365.926 697.128 365.071 697.238 364.135Z" fill="white"/>
<path d="M685.549 379.594C690.838 381.178 696.468 381.228 701.784 379.738C701.784 379.738 695.669 386.665 684.791 382.372L685.549 379.594Z" fill="#EB996E"/>
<path d="M722.261 334.981C715.478 340.502 701.623 343.767 692.946 342.63C694.407 341.53 700.631 339.726 702.092 338.625C697.293 340.429 690.547 342.901 685.604 341.494C684.994 341.388 684.44 341.076 684.034 340.61C683.853 340.238 683.752 339.833 683.736 339.42C683.721 339.007 683.792 338.595 683.944 338.21C685.144 334.062 686.726 330.034 688.67 326.178C690.207 322.994 692.803 320.443 696.013 318.962C700.108 317.284 704.816 318.15 709.037 319.485C712.653 320.452 715.998 322.235 718.815 324.699C720.212 325.94 721.274 327.512 721.905 329.271C722.535 331.03 722.713 332.919 722.423 334.765" fill="#263238"/>
<path d="M716.451 332.87C716.451 332.87 707.954 346.869 717.263 359.93C717.263 359.93 712.067 372.99 715.784 381.577C715.784 381.577 724.551 368.03 727.113 361.914C729.674 355.799 743.348 334.854 721.953 329.442L716.451 332.87Z" fill="#263238"/>
<path d="M711.382 457.184C711.382 457.184 708.586 437.196 693.342 434.021C684.846 432.217 671.695 440.551 671.695 440.551L666.499 432.812C665.465 431.229 664.064 429.92 662.414 428.997C660.764 428.074 658.915 427.563 657.025 427.51C655.136 427.457 653.261 427.862 651.562 428.691C649.863 429.52 648.39 430.749 647.269 432.271C641.857 440.064 644.869 450.437 644.869 450.437L642.398 478.074L615.861 519.836C624.701 522.055 633.685 524.707 642.488 527.233L639.962 575.309C686.722 581.947 691.123 545.254 690.727 528.297L695.886 490.9L711.382 457.184Z" fill="#144EF4"/>
<g opacity="0.2">
<path opacity="0.2" d="M672.686 484.708C662.929 483.03 653.288 480.735 643.822 477.835C648.726 478.522 653.583 479.516 658.362 480.812C663.215 481.802 668 483.104 672.686 484.708Z" fill="black"/>
</g>
<g opacity="0.2">
<path opacity="0.2" d="M689.824 541.644C689.824 541.644 689.823 541.878 689.679 542.167C689.391 542.56 688.966 542.83 688.489 542.925C687.791 543.058 687.069 542.983 686.414 542.708C685.742 542.391 685.049 542.12 684.339 541.896C683.714 541.766 683.067 541.772 682.444 541.915C681.821 542.059 681.237 542.335 680.731 542.726C679.902 543.322 679.541 543.881 679.415 543.809C679.288 543.737 679.415 543.051 680.298 542.221C680.846 541.672 681.523 541.269 682.267 541.052C683.012 540.834 683.799 540.808 684.556 540.976C685.32 541.213 686.057 541.527 686.757 541.914C687.257 542.175 687.817 542.3 688.38 542.275C689.336 542.203 689.697 541.572 689.824 541.644Z" fill="white"/>
</g>
<g opacity="0.2">
<path opacity="0.2" d="M676.33 452.457C676.188 455.877 677.4 459.215 679.703 461.748C680.873 463.127 682.425 464.129 684.164 464.626C685.902 465.124 687.75 465.095 689.472 464.543C691.194 463.99 692.714 462.94 693.839 461.524C694.965 460.108 695.645 458.391 695.795 456.588C692.625 458.937 688.699 460.029 684.772 459.655C681.164 459.348 677.556 455.812 676.33 452.439" fill="black"/>
</g>
<g opacity="0.2">
<path opacity="0.2" d="M663.27 525.427C671.856 527.466 678.333 529.541 682.68 535.349C688.092 542.475 688.651 550.088 686.613 553.984C684.358 558.278 682.392 565.35 671.027 571.645C679.127 566.234 681.724 553.606 679.776 544.947C678.689 540.652 676.638 536.662 673.778 533.28C670.918 529.898 667.324 527.212 663.27 525.427Z" fill="black"/>
</g>
<path d="M518.627 373.819L529.054 423.97L547.815 421.119L541.682 371.853L518.627 373.819Z" fill="#E0E0E0"/>
<path d="M530.677 419.316L544.549 417.35L540.743 381.884C540.689 381.411 540.484 380.968 540.16 380.621C539.835 380.273 539.407 380.039 538.939 379.953C535.205 379.34 526.311 378.15 524.507 379.629L523.515 380.567C523.226 380.831 523.01 381.167 522.89 381.54C522.77 381.914 522.749 382.312 522.83 382.696L530.677 419.316Z" fill="#FFB93E"/>
<g opacity="0.4">
<path opacity="0.4" d="M522.576 381.992C524.904 383.283 527.391 384.265 529.973 384.914C532.576 385.562 535.313 385.424 537.838 384.518C538.704 384.221 539.46 383.667 540.003 382.93C540.263 382.554 540.392 382.103 540.369 381.646C540.346 381.189 540.173 380.753 539.876 380.404C539.36 379.995 538.73 379.756 538.072 379.719L531.704 378.853C529.92 378.505 528.088 378.475 526.292 378.763C525.445 378.898 524.654 379.275 524.014 379.847C523.374 380.42 522.913 381.164 522.684 381.992" fill="white"/>
</g>
<path d="M533.96 382.84C533.851 382.407 530.352 362.022 530.352 362.022L541.915 355.456L543.719 358.703L534.374 363.718L536.828 383.165L533.96 382.84Z" fill="#263238"/>
<path d="M528.872 382.875C528.125 381.719 527.52 380.477 527.068 379.177C526.058 376.868 524.723 373.621 523.315 370.031C521.638 365.755 520.213 361.949 519.383 359.568L519.906 359.369C520.274 360.243 520.506 361.168 520.591 362.111C520.074 361.317 519.667 360.455 519.383 359.55L519.906 359.351C520.934 361.66 522.504 365.413 524.181 369.688C525.607 373.296 526.833 376.561 527.681 378.943C528.216 380.208 528.615 381.526 528.872 382.875Z" fill="#263238"/>
<path d="M503.652 372.36L513.628 351.795L536.701 356.9C536.701 356.9 527.23 357.892 527.681 365.343C527.681 365.343 518.427 361.59 515.324 369.943C515.27 369.943 510.273 365.18 503.652 372.36Z" fill="#455A64"/>
<path d="M662.945 525.103C662.945 525.103 547.093 501.02 527.845 514.045C524.542 516.335 521.838 519.385 519.961 522.939L427.958 656.018C427.958 656.018 399.527 644.942 403.947 650.606C408.367 656.271 449.858 681.021 449.858 681.021L455.162 673.805C473.707 653.691 529.793 590.534 551.946 565.567C587.574 569.842 648.296 577.437 658.651 575.506C658.651 575.506 678.188 575.867 680.119 553.57C682.013 532.933 662.945 525.103 662.945 525.103Z" fill="#FFBE9D"/>
</svg>
