<svg width="32" height="34" viewBox="0 0 32 34" fill="none" xmlns="http://www.w3.org/2000/svg">
<path d="M18.2857 22.8574H14.8572V32.0003H12.5714V25.1431H9.14287V32.0003H6.85715V27.4289H3.42858V32.0003H1.14286V18.8574H0V33.1432H20.5715V32.0003H18.2857V22.8574Z" fill="#6A8FB1"/>
<path d="M12.5716 7.09375L8.80811 10.8572H12.5716V7.09375Z" fill="#6A8FB1"/>
<path d="M21.0658 9.14287H20.5714V0H18.2856V9.14287H17.7915L19.4285 11.1074L21.0658 9.14287Z" fill="#6A8FB1"/>
<path d="M26.2856 11.9995H28.5714V2.85659H29.0658L27.4285 0.892578L25.7915 2.85659H26.2856V11.9995Z" fill="#6A8FB1"/>
<path d="M29.7143 6.28516V13.1423H25.1429V6.28516H21.7143V7.99944H23.5059L19.4286 12.8926L15.3516 8H17.1429V6.28571H13.7143V12H8V24H13.7143V21.7143H19.4286V30.8572H21.7143V33.1429H32V6.28571H29.7143V6.28516ZM9.14286 14.2852H28.5715V15.428H9.14286V14.2852ZM27.4286 25.1423C28.6892 25.1423 29.7143 26.1674 29.7143 27.428C29.7143 28.4903 28.9836 29.3773 28 29.6326V30.8566H26.8572V29.6326C25.8736 29.3773 25.1429 28.4903 25.1429 27.428H26.2857C26.2857 28.0583 26.7983 28.5709 27.4286 28.5709C28.0589 28.5709 28.5715 28.0583 28.5715 27.428C28.5715 26.7977 28.0589 26.2852 27.4286 26.2852C26.168 26.2852 25.1429 25.2601 25.1429 23.9995C25.1429 22.9372 25.8736 22.0502 26.8572 21.7949V20.5709H28V21.7949C28.9836 22.0502 29.7143 22.9372 29.7143 23.9995H28.5715C28.5715 23.3692 28.0589 22.8566 27.4286 22.8566C26.7983 22.8566 26.2857 23.3692 26.2857 23.9995C26.2857 24.6298 26.7983 25.1423 27.4286 25.1423ZM30.8572 17.7137H9.14286V16.5709H30.8572V17.7137ZM30.8572 15.428H29.7143V14.2852H30.8572V15.428Z" fill="#6A8FB1"/>
</svg>
