<svg width="28" height="28" viewBox="0 0 28 28" fill="none" xmlns="http://www.w3.org/2000/svg">
<path fill-rule="evenodd" clip-rule="evenodd" d="M14 28C21.732 28 28 21.732 28 14C28 6.26801 21.732 0 14 0C6.26801 0 0 6.26801 0 14C0 21.732 6.26801 28 14 28ZM12.7353 20.8824C12.7353 21.8529 13.5294 22.6471 14.5 22.6471C15.4706 22.6471 16.2647 21.8529 16.2647 20.8824H12.7353ZM8.76471 12.5V17.3529L7 19.1176V20H22V19.1176L20.2353 17.3529V12.5C20.2353 9.76471 18.3824 7.55882 15.8235 6.94118V6.32353C15.8235 5.61765 15.2059 5 14.5 5C13.7941 5 13.1765 5.61765 13.1765 6.32353V6.94118C10.6176 7.55882 8.76471 9.76471 8.76471 12.5Z" fill="#E2EDF3"/>
</svg>
