<svg width="28" height="28" viewBox="0 0 28 28" fill="none" xmlns="http://www.w3.org/2000/svg">
<path fill-rule="evenodd" clip-rule="evenodd" d="M14 28C21.7319 28 28 21.7324 28 14C28 6.26758 21.7319 0 14 0C6.26807 0 0 6.26758 0 14C0 21.7324 6.26807 28 14 28ZM11.3335 8.25H15.6665C15.75 8.25 15.8291 8.26953 15.8994 8.30273C15.9463 8.32422 15.9893 8.35156 16.0278 8.38672C16.1387 8.48633 16.2085 8.63086 16.2085 8.79102C16.2085 9.08984 15.9658 9.33398 15.6665 9.33398H11.3335C11.0342 9.33398 10.7915 9.08984 10.7915 8.79102C10.7915 8.63281 10.8589 8.49219 10.9663 8.39258C11.063 8.30469 11.1919 8.25 11.3335 8.25ZM19.3989 16.25L16.1187 10.416H10.8813L7.60107 16.25C7.20801 16.9473 7 17.7402 7 18.541C7 20.6328 8.70068 22.334 10.7915 22.334H16.2085C18.2993 22.334 20 20.6328 20 18.541C20 18.25 19.9727 17.959 19.9189 17.6738C19.8247 17.1758 19.6494 16.6934 19.3989 16.25ZM13.5 15.834C14.396 15.834 15.125 16.5625 15.125 17.459C15.125 17.9238 14.9277 18.3418 14.6123 18.6367C14.4497 18.7891 14.2559 18.9082 14.0415 18.9844V19.625C14.0415 19.9238 13.7988 20.166 13.5 20.166C13.2012 20.166 12.9585 19.9238 12.9585 19.625V19.084H12.4165C12.1177 19.084 11.875 18.8398 11.875 18.541C11.875 18.2422 12.1177 18 12.4165 18H13.5C13.6343 18 13.7578 17.9512 13.853 17.8691C13.9683 17.7695 14.0415 17.623 14.0415 17.459C14.0415 17.1602 13.7979 16.916 13.5 16.916C12.604 16.916 11.875 16.1875 11.875 15.291C11.875 14.8379 12.0635 14.4297 12.3657 14.1348C12.5327 13.9727 12.7344 13.8457 12.9585 13.7656V13.125C12.9585 12.8262 13.2012 12.584 13.5 12.584C13.627 12.584 13.7437 12.6289 13.8359 12.7012C13.9609 12.8008 14.0415 12.9531 14.0415 13.125V13.666H14.5835C14.8823 13.666 15.125 13.9102 15.125 14.209C15.125 14.5078 14.8823 14.75 14.5835 14.75H13.5C13.2021 14.75 12.9585 14.9922 12.9585 15.291C12.9585 15.5898 13.2021 15.834 13.5 15.834ZM17.0015 5.0625C17.0957 5.11133 17.1748 5.18945 17.2266 5.28516C17.2725 5.37109 17.2939 5.46484 17.2915 5.55664C17.2886 5.65625 17.2583 5.75586 17.2007 5.8418L16.3179 7.16602H10.6821L9.79932 5.8418C9.68896 5.67578 9.67822 5.46094 9.77246 5.28516C9.82178 5.19531 9.89453 5.12109 9.98193 5.07031C10.062 5.02539 10.1543 5 10.25 5H16.75C16.8394 5 16.9253 5.02148 17.0015 5.0625Z" fill="#E2EDF3"/>
</svg>
