<svg width="12" height="12" viewBox="0 0 12 12" fill="none" xmlns="http://www.w3.org/2000/svg">
<path d="M5.83154 3.78381L4.74958 3.78345C4.69027 3.78344 4.64215 3.83152 4.64213 3.89084L4.64175 5.05093C4.64173 5.11024 4.68981 5.15836 4.74913 5.15838L5.84477 5.15874C6.21987 5.15886 6.52586 4.85699 6.53235 4.4834C6.53905 4.09881 6.21617 3.78394 5.83154 3.78381Z" fill="#6A8FB1"/>
<path d="M5.83046 5.84847L4.74851 5.84811C4.68919 5.8481 4.64107 5.89618 4.64106 5.9555L4.64067 7.11559C4.64065 7.1749 4.68874 7.22302 4.74805 7.22304L5.8437 7.2234C6.21879 7.22352 6.52479 6.92165 6.53127 6.54806C6.53797 6.16347 6.2151 5.8486 5.83046 5.84847Z" fill="#6A8FB1"/>
<path d="M9.3917 1.61389C8.35329 0.574796 6.97237 0.00228915 5.50335 0.00180656C4.03433 0.00132398 2.65303 0.572924 1.61394 1.61134C0.574845 2.64975 0.00233779 4.03067 0.0018552 5.49969C0.00137261 6.96871 0.572994 8.34998 1.61138 9.3891C2.64978 10.4282 4.03072 11.0007 5.49974 11.0012C6.96875 11.0017 8.35005 10.4301 9.38915 9.39165C10.4282 8.35324 11.0007 6.97232 11.0012 5.5033C11.0017 4.03428 10.4301 2.65301 9.3917 1.61389ZM7.21986 6.53325C7.21968 7.08507 6.89261 7.56161 6.42234 7.78015C6.38443 7.79775 6.3601 7.83558 6.36009 7.87736L6.35997 8.24191C6.35991 8.42701 6.21762 8.58622 6.03273 8.59486C5.83532 8.60407 5.67244 8.44674 5.6725 8.2514L5.67258 8.01508C5.6726 7.95577 5.62452 7.90765 5.5652 7.90763L5.09257 7.90747C5.03326 7.90745 4.98514 7.95554 4.98512 8.01485L4.98505 8.24146C4.98499 8.42656 4.84269 8.58577 4.65781 8.59441C4.4604 8.60362 4.29752 8.44629 4.29758 8.25094L4.29766 8.01463C4.29768 7.95531 4.24959 7.9072 4.19028 7.90718L3.61995 7.90699C3.43487 7.90693 3.27566 7.76464 3.267 7.57977C3.25776 7.38238 3.41509 7.21946 3.61046 7.21953L3.84678 7.2196C3.90609 7.21962 3.95421 7.17154 3.95423 7.11222L3.95529 3.88975C3.9553 3.83043 3.90722 3.78232 3.8479 3.7823L3.6213 3.78222C3.43622 3.78216 3.27702 3.63987 3.26835 3.45501C3.25912 3.25762 3.41645 3.0947 3.61182 3.09476L4.19186 3.09495C4.25118 3.09497 4.29929 3.04689 4.29931 2.98757L4.29939 2.76097C4.29945 2.57587 4.44174 2.41666 4.62663 2.40802C4.82404 2.3988 4.98691 2.55613 4.98685 2.75148L4.98677 2.9878C4.98675 3.04711 5.03484 3.09523 5.09415 3.09525L5.56678 3.0954C5.6261 3.09542 5.67421 3.04734 5.67423 2.98802L5.67431 2.76142C5.67437 2.57632 5.81666 2.41711 6.00155 2.40847C6.19896 2.39925 6.36184 2.55659 6.36177 2.75193L6.36165 3.12619C6.36164 3.16798 6.38594 3.20582 6.42383 3.22344C6.89396 3.4423 7.22072 3.91905 7.22053 4.47087C7.22041 4.84218 7.07215 5.17935 6.83198 5.42687C6.79127 5.46881 6.79125 5.535 6.83193 5.57697C7.07194 5.82467 7.21998 6.16194 7.21986 6.53325Z" fill="#6A8FB1"/>
</svg>
