<svg width="28" height="28" viewBox="0 0 28 28" fill="none" xmlns="http://www.w3.org/2000/svg">
<path fill-rule="evenodd" clip-rule="evenodd" d="M14 28C21.732 28 28 21.732 28 14C28 6.26801 21.732 0 14 0C6.26801 0 0 6.26801 0 14C0 21.732 6.26801 28 14 28ZM21.4546 9.19943C21.7206 8.93352 22.1516 8.93352 22.4175 9.19943C22.6834 9.46533 22.6834 9.89641 22.4175 10.1623L13.7791 18.8007C13.5134 19.0664 13.082 19.0665 12.8163 18.8007L9.19943 15.1839C8.93352 14.918 8.93352 14.4869 9.19943 14.2211C9.46535 13.9552 9.89641 13.9552 10.1623 14.2211L13.2977 17.3564L21.4546 9.19943Z" fill="#144EF4"/>
</svg>
