<svg width="40" height="40" viewBox="0 0 40 40" fill="none" xmlns="http://www.w3.org/2000/svg">
<path d="M34.1421 34.1421C30.3647 37.9197 25.342 40 20 40C14.6578 40 9.63539 37.9197 5.85789 34.1422C2.08039 30.3647 0 25.3422 0 20C0 14.6577 2.08031 9.63531 5.85789 5.85781C9.63531 2.08031 14.6578 0 19.9999 0C25.342 0 30.3647 2.08031 34.1421 5.85781C37.9196 9.63539 40 14.6578 40 20C40 25.3423 37.9196 30.3647 34.1421 34.1421ZM28.8166 12.8405C29.2742 12.3829 29.2742 11.6409 28.8166 11.1832C28.5877 10.9544 28.2879 10.84 27.988 10.84C27.6881 10.84 27.3881 10.9545 27.1595 11.1832L20 18.3427L12.8405 11.1832C12.6116 10.9544 12.3118 10.84 12.0119 10.84C11.712 10.84 11.412 10.9545 11.1834 11.1832C10.7257 11.6408 10.7257 12.3828 11.1834 12.8405L18.3427 19.9999L11.1834 27.1594C10.7257 27.617 10.7257 28.359 11.1834 28.8166C11.6409 29.2742 12.3829 29.2742 12.8406 28.8166L20 21.6572L27.1594 28.8166C27.617 29.2742 28.359 29.2742 28.8166 28.8166C29.2742 28.3591 29.2742 27.617 28.8166 27.1594L21.6572 19.9999L28.8166 12.8405Z" fill="#144EF4"/>
</svg>
