<svg width="28" height="28" viewBox="0 0 28 28" fill="none" xmlns="http://www.w3.org/2000/svg">
<path fill-rule="evenodd" clip-rule="evenodd" d="M14 28C21.732 28 28 21.732 28 14C28 6.26801 21.732 0 14 0C6.26801 0 0 6.26801 0 14C0 21.732 6.26801 28 14 28ZM15.875 5H12.175L12.775 16.7H15.25L15.875 5ZM12.575 22.125C12.9583 22.4917 13.4417 22.675 14.025 22.675C14.5917 22.675 15.0583 22.4917 15.425 22.125C15.8083 21.7417 16 21.275 16 20.725C16 20.175 15.8083 19.7167 15.425 19.35C15.0583 18.9833 14.5917 18.8 14.025 18.8C13.4417 18.8 12.9583 18.9833 12.575 19.35C12.1917 19.7167 12 20.175 12 20.725C12 21.275 12.1917 21.7417 12.575 22.125Z" fill="#EB5757"/>
</svg>
