<svg width="28" height="28" viewBox="0 0 28 28" fill="none" xmlns="http://www.w3.org/2000/svg">
<path fill-rule="evenodd" clip-rule="evenodd" d="M14 28C21.732 28 28 21.732 28 14C28 6.26801 21.732 0 14 0C6.26801 0 0 6.26801 0 14C0 21.732 6.26801 28 14 28ZM8.70161 20H18.2984C18.6012 20 18.8468 19.7534 18.8468 19.4492V17.8186C18.8468 17.0418 18.3904 16.3352 17.6842 16.0185L15.8063 15.1763C15.6934 15.1257 15.6488 15.1259 15.2513 15.1276C15.1633 15.128 15.058 15.1284 14.9309 15.1284C14.6785 15.1284 14.4587 15.3015 14.3984 15.5476C14.1684 16.4863 12.8315 16.4859 12.6016 15.5476C12.5413 15.3015 12.3215 15.1284 12.0691 15.1284H11.4173C11.3996 15.1284 11.3853 15.1281 11.371 15.1286C11.2557 15.1332 11.1429 15.1991 9.31581 16.0185C8.60955 16.3352 8.15323 17.0418 8.15323 17.8186V19.4492C8.15323 19.7534 8.39877 20 8.70161 20ZM10.1637 10.3643C10.1637 8.5092 11.6664 7 13.5134 7C15.3604 7 16.8631 8.5092 16.8631 10.3643C16.8631 12.2194 15.3604 13.7286 13.5134 13.7286C11.6664 13.7286 10.1637 12.2194 10.1637 10.3643ZM6.12015 12.7168C6.12015 11.5488 7.06629 10.5985 8.22925 10.5985C9.3922 10.5985 10.3383 11.5488 10.3384 12.7168C10.3384 13.8849 9.39224 14.8351 8.22925 14.8351C7.06629 14.8351 6.12015 13.8849 6.12015 12.7168ZM16.6616 12.7168C16.6616 11.5488 17.6078 10.5985 18.7708 10.5985C19.9337 10.5985 20.8799 11.5488 20.8799 12.7168C20.8799 13.8849 19.9337 14.8351 18.7708 14.8351C17.6078 14.8351 16.6616 13.8849 16.6616 12.7168ZM20.6543 15.3945C20.7997 15.4603 20.9807 15.5422 21.2083 15.6442C21.6891 15.8601 22 16.341 22 16.8701V17.7785C22 18.0825 21.7546 18.3293 21.4516 18.3293H19.6148C19.4255 18.3293 19.2721 18.1754 19.2722 17.9853C19.2723 17.4603 19.2212 16.8271 18.6727 16.2288C18.4847 16.0228 18.3265 15.906 18.0658 15.7691C17.7475 15.6018 17.8665 15.1179 18.2257 15.1197C18.3209 15.1201 18.428 15.1209 18.549 15.1217C18.888 15.1241 19.3365 15.1272 19.9384 15.1272C20.0634 15.1272 20.0708 15.1306 20.6543 15.3945ZM6.34254 15.396C6.93194 15.1294 6.93685 15.1272 7.06159 15.1272C7.58861 15.1272 7.99882 15.1252 8.32125 15.1237C8.49487 15.1228 8.64304 15.1221 8.7703 15.1219C9.12915 15.1213 9.24654 15.6038 8.92885 15.7714C8.67395 15.9059 8.51437 16.0238 8.32734 16.2288C7.77669 16.8294 7.72709 17.4582 7.72771 17.985C7.72795 18.1752 7.57447 18.3293 7.38507 18.3293H5.54839C5.2454 18.3293 5 18.0825 5 17.7785V16.8701C5 16.341 5.31087 15.8601 5.79173 15.6442C6.01759 15.5429 6.19771 15.4615 6.34254 15.396Z" fill="#E2EDF3"/>
</svg>
