<svg width="28" height="28" viewBox="0 0 28 28" fill="none" xmlns="http://www.w3.org/2000/svg">
<path fill-rule="evenodd" clip-rule="evenodd" d="M28 14C28 21.732 21.732 28 14 28C6.26801 28 0 21.732 0 14C0 6.26801 6.26801 0 14 0C21.732 0 28 6.26801 28 14ZM20.4152 9.45234C20.3989 9.45234 20.3827 9.45778 20.3664 9.4632C20.3581 9.46596 20.3499 9.46871 20.3416 9.47075C20.3295 9.46834 20.3182 9.46494 20.3076 9.46172C20.2915 9.45683 20.2767 9.45234 20.2619 9.45234H19.6488V7.61306C19.6488 7.27594 19.3729 7 19.0357 7H9.83929C8.93188 7 8.17782 7.66212 8.03065 8.5327C8.01224 8.58176 8 8.63082 8 8.68605V20.0282C8 20.9602 8.75406 21.7143 9.68605 21.7143H20.4152C20.6665 21.7143 20.875 21.5058 20.875 21.2545V9.91216C20.875 9.66081 20.6665 9.45234 20.4152 9.45234ZM14.4375 19.5684C12.2426 19.5684 10.4523 17.7782 10.4523 15.5834C10.4523 13.3884 12.2426 11.5982 14.4375 11.5982C16.6324 11.5982 18.4227 13.3884 18.4227 15.5834C18.4227 17.7782 16.6324 19.5684 14.4375 19.5684ZM18.4227 9.45234H9.83929C9.50205 9.45234 9.22623 9.17652 9.22623 8.83929C9.22623 8.50205 9.50205 8.22623 9.83929 8.22623H18.4227V9.45234ZM14.9236 16.9373C15.0432 17.0569 15.2001 17.1169 15.3571 17.1169C15.514 17.1169 15.671 17.0569 15.7905 16.9373C16.0303 16.6975 16.0303 16.3101 15.7905 16.0704L15.0505 15.3304V13.7449C15.0505 13.4059 14.7759 13.1318 14.4374 13.1318C14.099 13.1318 13.8244 13.4059 13.8244 13.7449V15.5842C13.8244 15.7472 13.8887 15.903 14.004 16.0177L14.9236 16.9373Z" fill="#E2EDF3"/>
</svg>
