<svg width="28" height="28" viewBox="0 0 28 28" fill="none" xmlns="http://www.w3.org/2000/svg">
<path fill-rule="evenodd" clip-rule="evenodd" d="M28 14C28 21.732 21.732 28 14 28C6.26801 28 0 21.732 0 14C0 6.26801 6.26801 0 14 0C21.732 0 28 6.26801 28 14ZM13.875 15.375C12.8412 15.375 12 14.5337 12 13.5C12 12.4663 12.8412 11.625 13.875 11.625H17V7.71875C17 6.77063 16.2294 6 15.2812 6H8.71875C7.77063 6 7 6.77063 7 7.71875V19.2812C7 20.2294 7.77063 21 8.71875 21H15.2812C16.2294 21 17 20.2294 17 19.2812V15.375H13.875ZM18.2379 16.034C18.2379 16.2899 18.3909 16.521 18.6248 16.6192C18.8593 16.7174 19.1289 16.6629 19.3082 16.4818L21.8161 13.9485C22.0612 13.7009 22.0612 13.3006 21.8161 13.053L19.3082 10.5198C19.1289 10.3387 18.8593 10.2842 18.6248 10.3824C18.3909 10.4805 18.2379 10.7117 18.2379 10.9675V12.8675H13.8491C13.503 12.8675 13.2222 13.1512 13.2222 13.5008C13.2222 13.8504 13.503 14.1341 13.8491 14.1341H18.2379V16.034Z" fill="#E2EDF3"/>
</svg>
