<svg width="12" height="11" viewBox="0 0 12 11" fill="none" xmlns="http://www.w3.org/2000/svg">
<path fill-rule="evenodd" clip-rule="evenodd" d="M5.07547 5.07532L8.93416 1.77383C8.1587 0.868893 7.08967 0.265515 5.9142 0.0693077C4.73872 -0.1269 3.53167 0.0965618 2.50434 0.70058C1.47701 1.3046 0.694844 2.25069 0.294741 3.37326C-0.105361 4.49583 -0.0979047 5.72336 0.315804 6.84098C0.729513 7.95861 1.52312 8.89513 2.55771 9.48663C3.5923 10.0781 4.80197 10.2869 5.97498 10.0764C7.14799 9.86596 8.20961 9.24964 8.97401 8.33535C9.73842 7.42107 10.1569 6.26706 10.1563 5.07532V5.05493L5.07547 5.07532ZM4.90296 3.50216C5.28977 3.50216 5.60334 3.18856 5.60334 2.80172C5.60334 2.41489 5.28977 2.10129 4.90296 2.10129C4.51615 2.10129 4.20258 2.41489 4.20258 2.80172C4.20258 3.18856 4.51615 3.50216 4.90296 3.50216ZM10.2594 3.6512C10.3866 3.74918 10.5449 3.80247 10.7081 3.80222C10.7755 3.80189 10.8425 3.79232 10.9071 3.77381L11.2069 4.54684L5.95366 4.72791L7.14768 3.81112C7.24035 3.90133 7.3646 3.95539 7.49642 3.96287C7.62824 3.97035 7.75827 3.93071 7.86138 3.85161C7.9645 3.77251 8.03337 3.65957 8.0547 3.53461C8.07603 3.40965 8.0483 3.28154 7.97686 3.17505L10.0553 1.57597L10.4091 2.49403C10.2608 2.55923 10.1402 2.67112 10.0674 2.81113C9.99459 2.95113 9.97392 3.11081 10.0088 3.26364C10.0438 3.41646 10.1322 3.55322 10.2594 3.6512ZM8.98595 4.29288C9.07291 4.34851 9.17513 4.37816 9.27967 4.37807C9.41975 4.37796 9.55405 4.32452 9.65306 4.22951C9.75207 4.13449 9.80769 4.00566 9.80769 3.87134C9.80769 3.7711 9.77668 3.67311 9.7186 3.58977C9.66051 3.50642 9.57795 3.44147 9.48136 3.40313C9.38477 3.36479 9.27849 3.35478 9.17596 3.37437C9.07344 3.39396 8.97928 3.44226 8.90539 3.51317C8.8315 3.58408 8.7812 3.67441 8.76086 3.77274C8.74052 3.87106 8.75105 3.97297 8.79112 4.06555C8.83118 4.15814 8.89898 4.23725 8.98595 4.29288Z" fill="#6A8FB1"/>
</svg>
