<svg width="28" height="28" viewBox="0 0 28 28" fill="none" xmlns="http://www.w3.org/2000/svg">
<path fill-rule="evenodd" clip-rule="evenodd" d="M28 14C28 21.732 21.732 28 14 28C6.26801 28 0 21.732 0 14C0 6.26801 6.26801 0 14 0C21.732 0 28 6.26801 28 14ZM13.2492 14.453C13.3789 14.587 13.596 14.672 13.828 14.6717C14.0597 14.6735 14.2774 14.5855 14.4007 14.4585L20.1229 8.69764C20.5057 8.31238 20.3757 8 19.8323 8H7.86451C7.32144 8 7.19049 8.31329 7.5718 8.69972L13.2492 14.453ZM10.5825 13.5512L6.68766 17.5334C6.30782 17.9216 6 17.7961 6 17.2533V9.891C6 9.34788 6.30934 9.22088 6.69095 9.60736L10.5825 13.5512ZM7.86007 19.1489H19.7404C20.2835 19.1489 20.4163 18.8338 20.0368 18.4455L16.162 14.4778L15.2977 15.3494C14.8925 15.7549 14.3537 15.9357 13.8275 15.9366C13.3031 15.936 12.7604 15.7543 12.35 15.343L11.4716 14.4525L7.56466 18.4462C7.18483 18.8341 7.317 19.1489 7.86007 19.1489ZM21.6008 9.98863V17.2533C21.6008 17.7964 21.2933 17.9216 20.9141 17.533L17.0553 13.5807L20.9078 9.70286C21.2906 9.31765 21.6008 9.44556 21.6008 9.98863Z" fill="#E2EDF3"/>
</svg>
