<svg width="18" height="12" viewBox="0 0 18 12" fill="none" xmlns="http://www.w3.org/2000/svg">
<path d="M17.8856 5.6338C17.7248 5.40371 13.8934 0 8.99992 0C4.10647 0 0.274852 5.40371 0.114223 5.63358C-0.0380743 5.85186 -0.0380743 6.14792 0.114223 6.3662C0.274852 6.59629 4.10647 12 8.99992 12C13.8934 12 17.7248 6.59625 17.8856 6.36638C18.0381 6.14814 18.0381 5.85186 17.8856 5.6338ZM8.99992 10.7586C6.26642 10.7586 3.81047 8.69603 2.38009 7.18782C1.74438 6.51753 1.74381 5.48116 2.37909 4.81047C3.80756 3.30238 6.26089 1.24137 8.99992 1.24137C11.7335 1.24137 14.1894 3.30387 15.6198 4.8122C16.2555 5.48248 16.256 6.51881 15.6208 7.18947C14.1923 8.69756 11.739 10.7586 8.99992 10.7586Z" fill="#1D2942"/>
<path d="M8.99991 2.27539C7.03671 2.27539 5.43945 3.94608 5.43945 5.99954C5.43945 8.053 7.03671 9.72369 8.99991 9.72369C10.9631 9.72369 12.5604 8.053 12.5604 5.99954C12.5604 3.94608 10.9631 2.27539 8.99991 2.27539ZM8.99991 8.48229C7.69104 8.48229 6.6263 7.36855 6.6263 5.99954C6.6263 4.63053 7.69108 3.5168 8.99991 3.5168C10.3087 3.5168 11.3735 4.63053 11.3735 5.99954C11.3735 7.36855 10.3088 8.48229 8.99991 8.48229Z" fill="#1D2942"/>
</svg>
