<svg width="28" height="28" viewBox="0 0 28 28" fill="none" xmlns="http://www.w3.org/2000/svg">
<path fill-rule="evenodd" clip-rule="evenodd" d="M14 28C21.732 28 28 21.732 28 14C28 6.26801 21.732 0 14 0C6.26801 0 0 6.26801 0 14C0 21.732 6.26801 28 14 28ZM11.3036 20.5762C11.1204 20.5702 10.9615 20.4475 10.9094 20.2716C10.9026 20.2484 10.8923 20.2149 10.8791 20.1716L10.879 20.1712L10.879 20.1712C10.813 19.9555 10.6724 19.4963 10.5083 18.8476L11.4544 18.8785C11.453 18.8973 11.4496 18.9141 11.4461 18.9309C11.4421 18.9507 11.4381 18.9705 11.4373 18.9935C11.4177 19.594 11.4264 20.1156 11.4506 20.581L11.3036 20.5762ZM14.8392 19.1043C14.8196 19.7063 14.7782 20.226 14.7254 20.6877L14.9246 20.6942C15.1094 20.7002 15.277 20.5863 15.3391 20.4121C15.3568 20.3625 15.377 20.3074 15.4005 20.2438L15.4005 20.2436C15.4875 20.0072 15.6182 19.6523 15.8203 19.0206L14.8297 18.9884C14.8299 19.0071 14.8322 19.024 14.8345 19.0409C14.8372 19.061 14.8399 19.0812 14.8392 19.1043ZM12.2879 19.0207C12.3066 18.4466 12.7491 17.6543 13.1836 17.6684L13.1841 17.6684C13.5967 17.6819 14.0093 18.4445 13.9889 19.076C13.9256 21.0193 13.6489 22.1157 13.4277 22.6929C13.3627 22.8621 13.1979 22.9719 13.0164 22.966C12.8354 22.9601 12.678 22.8402 12.6242 22.6673C12.4363 22.0638 12.2254 20.9412 12.2879 19.0207ZM7.84221 18.1552L7.78691 19.8561C7.78066 20.0484 7.9043 20.2211 8.08872 20.277C8.26993 20.3328 8.47103 20.2593 8.5735 20.0945C8.92883 19.5226 9.29603 19.0775 9.64479 18.8862C9.3784 17.8001 9.19479 16.7426 9.09278 15.7214C8.67129 15.7993 7.88924 16.7087 7.84221 18.1552ZM18.458 20.1753C18.4521 20.3588 18.3292 20.5178 18.153 20.5694C17.9794 20.621 17.7888 20.5563 17.6832 20.4036C17.137 19.6157 16.9437 19.3518 16.6716 19.1481C16.9674 18.2073 17.2438 17.1556 17.4387 16.0342C17.8536 16.1679 18.556 17.1573 18.5134 18.4744L18.458 20.1753ZM13.8621 5.32032C13.7071 5.17725 13.4711 5.17044 13.3073 5.30236C12.4911 5.95941 11.8195 6.76484 11.2884 7.69006C11.8236 8.149 12.6068 8.45461 13.4816 8.48305C14.3668 8.51175 15.1831 8.24348 15.75 7.80517C15.2921 6.91466 14.6821 6.07305 13.8621 5.32032ZM10.8909 8.46976C11.5574 8.97819 12.4535 9.3022 13.4541 9.33474C14.4711 9.3678 15.4062 9.08513 16.1117 8.59944C17.3545 11.7164 16.859 15.3987 16.0735 18.1773L14.6718 18.1318C14.4181 17.4717 13.9261 16.8418 13.2112 16.8185C12.4973 16.7953 11.9643 17.3912 11.6677 18.0341L10.3106 17.99C9.52296 14.323 9.74307 10.9812 10.8909 8.46976ZM13.2882 14.4374C14.4604 14.4754 15.4452 13.5526 15.4833 12.3805C15.5214 11.2081 14.5987 10.2234 13.4263 10.1852C12.2542 10.1471 11.2694 11.0699 11.2312 12.2422C11.193 13.4144 12.1158 14.3993 13.2882 14.4374Z" fill="#E2EDF3"/>
</svg>
