<svg width="28" height="28" viewBox="0 0 28 28" fill="none" xmlns="http://www.w3.org/2000/svg">
<path fill-rule="evenodd" clip-rule="evenodd" d="M14 28C21.732 28 28 21.732 28 14C28 6.26801 21.732 0 14 0C6.26801 0 0 6.26801 0 14C0 21.732 6.26801 28 14 28ZM13.5313 17.7208V16.7733C12.3554 16.5755 11.4247 15.6449 11.2269 14.469H10.2794C10.4913 16.1627 11.8376 17.509 13.5313 17.7208ZM12.125 14C12.125 13.1281 12.7234 12.3931 13.5312 12.1844V14H14.4688V12.1844C15.2766 12.3931 15.875 13.1281 15.875 14C15.875 15.0338 15.0338 15.875 14 15.875C12.9662 15.875 12.125 15.0338 12.125 14ZM11.2269 13.5312C11.4504 12.2028 12.6088 11.1875 14.0001 11.1875C15.3913 11.1875 16.5497 12.2028 16.7732 13.5312H17.7207C17.4894 11.6838 15.9091 10.25 14.0001 10.25C12.091 10.25 10.5107 11.6838 10.2794 13.5312H11.2269ZM22 12.6947V15.3053L20.3309 15.7144C20.1844 16.2547 19.9681 16.7734 19.6862 17.2625L20.5566 18.7131L18.7131 20.5566L17.2625 19.6863C16.7734 19.9681 16.2547 20.1844 15.7144 20.3309L15.3053 22H12.6947L12.2856 20.3309C11.7453 20.1844 11.2266 19.9681 10.7375 19.6863L9.28687 20.5566L7.44344 18.7131L8.31375 17.2625C8.03187 16.7734 7.81563 16.2547 7.66906 15.7144L6 15.3053V12.6947L7.66906 12.2856C7.81563 11.7453 8.03187 11.2266 8.31375 10.7375L7.44344 9.28687L9.28687 7.44344L10.7375 8.31375C11.2266 8.03188 11.7453 7.81563 12.2856 7.66906L12.6947 6H15.3053L15.7144 7.66906C16.2547 7.81563 16.7734 8.03188 17.2625 8.31375L18.7131 7.44344L20.5566 9.28687L19.6862 10.7375C19.9681 11.2266 20.1844 11.7453 20.3309 12.2856L22 12.6947ZM14 9.3125C11.4153 9.3125 9.3125 11.4153 9.3125 14C9.3125 16.5847 11.4153 18.6875 14 18.6875C16.5847 18.6875 18.6875 16.5847 18.6875 14C18.6875 11.4153 16.5847 9.3125 14 9.3125ZM14.4688 16.7733V17.7208C16.1625 17.509 17.5087 16.1627 17.7206 14.469H16.7731C16.5753 15.6449 15.6447 16.5755 14.4688 16.7733Z" fill="#E2EDF3"/>
</svg>
