<svg width="34" height="33" viewBox="0 0 34 33" fill="none" xmlns="http://www.w3.org/2000/svg">
<path d="M16.0732 0V5.62435L20.6589 1.0387C19.2047 0.430867 17.6505 0.0769405 16.0732 0Z" fill="#6A8FB1"/>
<path d="M25.2441 4.34766L16.8652 12.7496H21.2739L27.0829 6.90977C26.5674 5.98649 25.9519 5.12475 25.2441 4.34766Z" fill="#6A8FB1"/>
<path d="M21.813 1.60742L16.0732 7.36257V11.779L24.4059 3.43861C23.6134 2.73075 22.744 2.11523 21.813 1.60742Z" fill="#6A8FB1"/>
<path d="M27.66 8.10156L23.0205 12.7488H28.7295C28.6602 11.1484 28.2909 9.57882 27.66 8.10156Z" fill="#6A8FB1"/>
<path d="M32.3075 18.2109H22.9207C21.982 18.2109 21.228 18.965 21.228 19.9036V30.7522C21.228 31.6909 21.982 32.4449 22.9207 32.4449H32.3075C33.2461 32.4449 34.0001 31.6909 34.0001 30.7522V19.9036C34.0001 18.965 33.2461 18.2109 32.3075 18.2109ZM22.0744 19.6728C22.0744 19.3343 22.3514 19.0573 22.6899 19.0573H32.4613C32.7999 19.0573 33.0769 19.3343 33.0769 19.6728V22.058C33.0769 22.3965 32.7999 22.6735 32.4613 22.6735H22.6899C22.3514 22.6735 22.0744 22.3965 22.0744 22.058V19.6728ZM24.5288 31.2908H22.7207C22.3821 31.2908 22.1051 31.0138 22.1051 30.6753C22.1051 30.3367 22.3821 30.0598 22.7207 30.0598H24.5288C24.8673 30.0598 25.1443 30.3367 25.1443 30.6753C25.1443 31.0138 24.8673 31.2908 24.5288 31.2908ZM24.5288 28.2132H22.7207C22.3821 28.2132 22.1051 27.9362 22.1051 27.5977C22.1051 27.2591 22.3821 26.9821 22.7207 26.9821H24.5288C24.8673 26.9821 25.1443 27.2591 25.1443 27.5977C25.1443 27.9362 24.8673 28.2132 24.5288 28.2132ZM24.5288 25.0586H22.7207C22.3821 25.0586 22.1051 24.7816 22.1051 24.4431C22.1051 24.1046 22.3821 23.8276 22.7207 23.8276H24.5288C24.8673 23.8276 25.1443 24.1046 25.1443 24.4431C25.1443 24.7816 24.8673 25.0586 24.5288 25.0586ZM28.4912 31.2908H26.6831C26.3446 31.2908 26.0676 31.0138 26.0676 30.6753C26.0676 30.3367 26.3446 30.0598 26.6831 30.0598H28.4912C28.8297 30.0598 29.1067 30.3367 29.1067 30.6753C29.1067 31.0138 28.8297 31.2908 28.4912 31.2908ZM28.4912 28.2132H26.6831C26.3446 28.2132 26.0676 27.9362 26.0676 27.5977C26.0676 27.2591 26.3446 26.9821 26.6831 26.9821H28.4912C28.8297 26.9821 29.1067 27.2591 29.1067 27.5977C29.1067 27.9362 28.8297 28.2132 28.4912 28.2132ZM28.4912 25.0586H26.6831C26.3446 25.0586 26.0676 24.7816 26.0676 24.4431C26.0676 24.1046 26.3446 23.8276 26.6831 23.8276H28.4912C28.8297 23.8276 29.1067 24.1046 29.1067 24.4431C29.1067 24.7816 28.8297 25.0586 28.4912 25.0586ZM32.469 31.2908H30.6609C30.3224 31.2908 30.0454 31.0138 30.0454 30.6753C30.0454 30.3367 30.3224 30.0598 30.6609 30.0598H32.469C32.8076 30.0598 33.0846 30.3367 33.0846 30.6753C33.0846 31.0138 32.8153 31.2908 32.469 31.2908ZM32.469 28.2132H30.6609C30.3224 28.2132 30.0454 27.9362 30.0454 27.5977C30.0454 27.2591 30.3224 26.9821 30.6609 26.9821H32.469C32.8076 26.9821 33.0846 27.2591 33.0846 27.5977C33.0846 27.9362 32.8153 28.2132 32.469 28.2132ZM32.469 25.0586H30.6609C30.3224 25.0586 30.0454 24.7816 30.0454 24.4431C30.0454 24.1046 30.3224 23.8276 30.6609 23.8276H32.469C32.8076 23.8276 33.0846 24.1046 33.0846 24.4431C33.0846 24.7816 32.8153 25.0586 32.469 25.0586Z" fill="#6A8FB1"/>
<path d="M31.8456 20.2891H23.3052V21.4432H31.8456V20.2891Z" fill="#6A8FB1"/>
<path d="M26.6368 15.9802H13.3261C12.9876 15.9802 12.6875 15.6571 12.6875 15.3185V2.00781C9.37135 2.154 6.23218 3.53893 3.88549 5.89331C1.37723 8.44773 0 11.7946 0 15.3185C0 22.6663 5.97828 28.6446 13.3261 28.6446C15.6651 28.6523 17.9656 28.0368 19.9891 26.875V19.8811C19.9891 18.2807 21.2817 16.9881 22.8821 16.9804C22.8898 16.9804 22.8975 16.9804 22.8975 16.9804H26.5522C26.5906 16.6727 26.6214 16.288 26.6368 15.9802Z" fill="#6A8FB1"/>
</svg>
