<svg width="34" height="33" viewBox="0 0 34 33" fill="none" xmlns="http://www.w3.org/2000/svg">
<path d="M10.2004 14.7637C6.40316 15.0549 3.40039 18.2311 3.40039 22.1014C3.40039 23.2399 3.66786 24.3148 4.13082 25.2782L10.2004 21.7739V14.7637Z" fill="#6A8FB1"/>
<path d="M7.93359 7.93359H13.6003V9.06693H7.93359V7.93359Z" fill="#6A8FB1"/>
<path d="M13.8659 6.80143C14.7742 5.52927 15.4412 4.07633 15.7931 2.55313C14.1124 1.6238 12.2203 1.13477 10.2959 1.13477H9.07471C9.12797 3.06257 9.46004 4.96373 10.0505 6.80143H13.8659Z" fill="#6A8FB1"/>
<path d="M8.85981 6.80059C8.43878 5.41056 8.16054 3.98652 8.02738 2.54492C7.04591 2.85659 6.19137 3.35526 5.75391 3.63972C6.11317 4.82519 6.75521 5.90582 7.61484 6.80059H8.85981Z" fill="#6A8FB1"/>
<path d="M4.69336 26.2604C6.02219 28.1939 8.24806 29.4661 10.7663 29.4661C13.1979 29.4661 15.4759 28.2506 16.8427 26.2616L10.7663 22.7539L4.69336 26.2604Z" fill="#6A8FB1"/>
<path d="M13.9202 10.2012H7.61317L2.79933 15.3595C0.993933 17.293 0 19.8147 0 22.4604C0 28.1991 4.66877 32.8678 10.4074 32.8678H11.1259C16.8646 32.8678 21.5333 28.1991 21.5333 22.4604C21.5333 19.8147 20.5394 17.293 18.734 15.3595L13.9202 10.2012ZM19.1103 26.919L18.8269 27.4086L17.829 26.8323C16.2582 29.1703 13.6023 30.6012 10.7667 30.6012C6.07977 30.6012 2.26667 26.7881 2.26667 22.1012C2.26667 17.6052 5.77717 13.9236 10.2 13.6301V12.4678H10.7667C16.0786 12.4678 20.4 16.7892 20.4 22.1012C20.4 23.7949 19.954 25.4615 19.1103 26.919Z" fill="#6A8FB1"/>
<path d="M11.3335 13.6191V21.7735L18.3964 25.8506C18.9676 24.6901 19.2668 23.4055 19.2668 22.1004C19.2668 17.6039 15.7575 13.9121 11.3335 13.6191Z" fill="#6A8FB1"/>
<path d="M27.2004 0L20.4004 9.63333H22.6671V32.8667H31.7337V9.63333H34.0004L27.2004 0ZM27.7671 30.6H26.6337V29.4667H27.7671V30.6ZM27.7671 28.3333H26.6337V27.2H27.7671V28.3333ZM30.0337 18.1333H28.9004V16.4333C28.9004 15.4961 28.1377 14.7333 27.2004 14.7333H25.5004V16.4333C25.5004 17.3706 26.2631 18.1333 27.2004 18.1333C28.7627 18.1333 30.0337 19.4044 30.0337 20.9667V23.8H27.7671V26.0667H26.6337V23.7428C25.3423 23.4793 24.3671 22.3352 24.3671 20.9667V19.2667H25.5004V20.9667C25.5004 21.9039 26.2631 22.6667 27.2004 22.6667H28.9004V20.9667C28.9004 20.0294 28.1377 19.2667 27.2004 19.2667C25.6381 19.2667 24.3671 17.9956 24.3671 16.4333V13.6H26.6337V11.3333H27.7671V13.6572C29.0585 13.9207 30.0337 15.0648 30.0337 16.4333V18.1333Z" fill="#6A8FB1"/>
</svg>
