<svg width="30" height="32" viewBox="0 0 30 32" fill="none" xmlns="http://www.w3.org/2000/svg">
<path d="M29.0396 14.9797C29.0509 15.5023 28.6322 15.9378 28.1014 15.9378C27.5933 15.9378 27.1758 15.5316 27.1645 15.0209C27.1339 13.6059 26.7545 11.6671 25.1201 10.4677C22.4963 8.54136 17.9076 9.41563 14.7812 10.3233C14.6099 10.3725 14.4302 10.3725 14.2587 10.3233C11.1334 9.41601 6.54393 8.54111 3.91969 10.4677C2.28528 11.6671 1.9059 13.6059 1.87527 15.0209C1.86683 15.4062 1.62789 15.7299 1.29713 15.8666C0.663244 16.1259 -0.0143321 15.6506 0.000230668 14.9797C0.0676696 11.9037 1.44782 9.26507 4.38095 8.09517C5.44197 7.68222 6.76593 7.41309 8.53041 7.44828C8.52416 7.44203 8.58035 7.51415 6.40911 4.60884C4.88752 2.77912 6.18798 0 8.57291 0C8.83416 0 9.08354 0.108752 9.26105 0.300631C9.26917 0.309381 10.2798 1.36315 12.0042 1.90191C12.8067 0.596887 14.1562 0.133128 14.2237 0.110627C14.4155 0.046251 14.6243 0.046251 14.8162 0.110627C14.8837 0.133128 16.2331 0.596887 17.0356 1.90191C18.76 1.36315 19.7706 0.309381 19.7819 0.297506C19.9594 0.105627 20.2057 0 20.4669 0C22.8561 0 24.1495 2.78243 22.6307 4.60884C21.3564 6.31394 22.2924 5.06142 20.5107 7.44703C20.4972 7.46047 22.3638 7.33784 24.1776 7.92329C27.3757 8.95256 28.9671 11.6703 29.0396 14.9797Z" fill="#6A8FB1"/>
<path d="M26.2995 17.6608C26.2859 17.6414 26.4554 17.875 21.6251 11.2238C20.1126 11.099 18.4396 11.352 16.9731 11.6882C17.145 11.9113 17.3462 12.1176 17.5825 12.2945C17.9969 12.6051 18.0806 13.1926 17.77 13.607C17.458 14.0226 16.8712 14.104 16.4575 13.7945C15.8468 13.3364 15.3931 12.7707 15.0568 12.1832C14.7013 12.2523 14.3392 12.2524 13.983 12.1832C13.6468 12.7707 13.193 13.3364 12.5824 13.7945C12.1694 14.1035 11.5823 14.0233 11.2699 13.607C10.9592 13.1926 11.043 12.6051 11.4574 12.2945C11.6936 12.1176 11.8949 11.9113 12.0661 11.6882C10.5835 11.3483 8.918 11.0998 7.41478 11.2238C2.58918 17.8685 2.75387 17.6415 2.74031 17.6608C-0.226569 21.9764 1.4079 27.9264 6.14663 30.0973C11.5501 32.573 17.2252 32.6941 22.8932 30.0973C27.6349 27.9251 29.2642 21.9732 26.2995 17.6608ZM15.4587 25.3136V25.5004C15.4587 26.044 15.0261 26.4473 14.5212 26.4473C14.0034 26.4473 13.5837 26.0275 13.5837 25.5098V25.4196C13.1514 25.3439 12.7567 25.1822 12.2583 24.8561C11.8141 24.5653 11.7097 23.9732 11.9872 23.5491C12.2707 23.1158 12.8516 22.9943 13.285 23.2778C13.742 23.5767 13.8885 23.6002 14.5149 23.5957C15.1179 23.5917 15.3583 23.1183 15.4052 22.8393C15.4614 22.5047 15.3181 22.2358 14.9354 22.1004C14.2219 21.8479 13.3815 21.5274 12.7933 21.0662C11.5044 20.0556 11.8939 17.7407 13.5837 17.1266V17.0002C13.5837 16.4566 14.0163 16.0533 14.5212 16.0533C15.039 16.0533 15.4588 16.4731 15.4588 16.9908V17.0699C15.9369 17.209 16.3053 17.4432 16.5155 17.6371C16.5087 17.6446 16.508 17.6417 16.5143 17.6472C16.8926 17.9974 16.9175 18.5878 16.5688 18.9684C16.2196 19.3494 15.6283 19.3758 15.2465 19.0281C15.0046 18.849 14.6359 18.7717 14.2476 18.8894C14.0257 18.9562 13.9055 19.1937 13.9042 19.4066C13.9053 19.5044 13.9334 19.568 13.9506 19.5815C14.3042 19.8589 14.9628 20.1123 15.5604 20.3235C18.0166 21.1917 17.7442 24.4875 15.4587 25.3136Z" fill="#6A8FB1"/>
</svg>
