<svg width="28" height="28" viewBox="0 0 28 28" fill="none" xmlns="http://www.w3.org/2000/svg">
<path fill-rule="evenodd" clip-rule="evenodd" d="M14 28C21.7319 28 28 21.7324 28 14C28 6.26758 21.7319 0 14 0C6.26807 0 0 6.26758 0 14C0 21.7324 6.26807 28 14 28ZM9.54834 20H19.145C19.4482 20 19.6934 19.7539 19.6934 19.4492V17.8184C19.6934 17.041 19.2373 16.3359 18.5308 16.0176L16.6528 15.1758C16.5151 15.1152 16.479 15.1289 15.7778 15.1289C15.5254 15.1289 15.3057 15.3008 15.2451 15.5469C15.0151 16.4863 13.6782 16.4863 13.4482 15.5469C13.3882 15.3008 13.1685 15.1289 12.916 15.1289H12.2642H12.2183C12.1025 15.1328 11.9897 15.1992 10.1626 16.0176C9.45654 16.3359 9 17.041 9 17.8184V19.4492C9 19.7539 9.24561 20 9.54834 20ZM11.9668 8.01367C12.5752 7.38867 13.4233 7 14.3604 7C16.207 7 17.71 8.50977 17.71 10.3652C17.71 12.2188 16.207 13.7285 14.3604 13.7285C12.5132 13.7285 11.0103 12.2188 11.0103 10.3652C11.0103 9.45117 11.3755 8.62109 11.9668 8.01367Z" fill="#E2EDF3"/>
</svg>
