<svg width="28" height="28" viewBox="0 0 28 28" fill="none" xmlns="http://www.w3.org/2000/svg">
<path fill-rule="evenodd" clip-rule="evenodd" d="M28 14C28 21.732 21.732 28 14 28C6.26801 28 0 21.732 0 14C0 6.26801 6.26801 0 14 0C21.732 0 28 6.26801 28 14ZM16.7209 11.5814H20.3023V9.9186C20.3023 8.86068 19.4417 8 18.3837 8H8.9186C7.86068 8 7 8.86068 7 9.9186V17.0814C7 18.1393 7.86068 19 8.9186 19H18.3837C19.4417 19 20.3023 18.1393 20.3023 17.0814V15.4186H16.7209C15.663 15.4186 14.8023 14.5579 14.8023 13.5C14.8023 12.4421 15.663 11.5814 16.7209 11.5814ZM15.5694 13.5001C15.5694 12.8654 16.0859 12.349 16.7206 12.349V12.349H20.302V14.6513H16.7206C16.0858 14.6513 15.5694 14.1349 15.5694 13.5001ZM16.7206 13.8838H17.2322C17.4442 13.8838 17.616 13.712 17.616 13.5001C17.616 13.2882 17.4442 13.1164 17.2322 13.1164H16.7206C16.5087 13.1164 16.3369 13.2882 16.3369 13.5001C16.3369 13.712 16.5087 13.8838 16.7206 13.8838Z" fill="#E2EDF3"/>
</svg>
