<svg width="622" height="520" viewBox="0 0 622 520" fill="none" xmlns="http://www.w3.org/2000/svg">
<path d="M452.588 191.955C451.769 191.955 451.106 191.266 451.106 190.417C451.106 189.568 451.769 188.879 452.588 188.879C453.407 188.879 454.07 189.568 454.07 190.417C454.07 191.266 453.407 191.955 452.588 191.955Z" fill="#144EF4"/>
<path d="M374.797 54.1719C443.479 59.3437 518.479 68.7837 573.469 90.7015L556.09 212.653C556.09 212.653 449.519 173.066 362.791 175.816L374.797 54.1719Z" fill="#144EF4"/>
<g opacity="0.8">
<path opacity="0.8" d="M374.797 54.1719C443.479 59.3437 518.479 68.7837 573.469 90.7015L556.09 212.653C556.09 212.653 449.519 173.066 362.791 175.816L374.797 54.1719Z" fill="white"/>
</g>
<path d="M379.814 159.725L380.481 159.84L382.426 160.129L389.837 161.09C393.098 161.494 397.081 161.994 401.695 162.686C406.308 163.378 411.57 164.07 417.351 165.07C440.529 168.78 472.433 174.914 507.08 184.296C519.123 187.526 530.74 190.852 541.356 194.313L541.894 194.467V193.909C545.599 165.954 549.193 141.845 551.954 124.695C553.362 116.197 554.492 109.314 555.271 104.681C555.66 102.393 555.956 100.605 556.178 99.3356C556.178 98.7589 556.327 98.2974 556.382 97.9514C556.406 97.7921 556.406 97.6299 556.382 97.4707C556.321 97.6183 556.277 97.7733 556.252 97.9321C556.252 98.2782 556.086 98.7396 555.956 99.2972C555.715 100.566 555.363 102.335 554.9 104.623C554.011 109.256 552.769 116.043 551.324 124.58C548.397 141.652 544.691 165.762 540.912 193.794L541.523 193.409C530.87 189.91 519.29 186.565 507.191 183.335C477.577 175.416 447.583 169.114 417.332 164.455C411.533 163.512 406.216 162.878 401.639 162.244C397.063 161.609 393.024 161.148 389.763 160.802L382.241 160.013L380.277 159.84C380.126 159.787 379.971 159.748 379.814 159.725Z" fill="#144EF4"/>
<path d="M377.414 130.07C377.414 130.07 377.673 129.224 378.21 127.628C379.095 125.368 380.287 123.251 381.749 121.341C384.062 118.307 386.887 115.734 390.087 113.747C390.976 113.132 392.032 112.67 393.051 112.113C394.141 111.619 395.261 111.201 396.405 110.863C398.874 110.049 401.482 109.787 404.057 110.094C406.876 110.414 409.563 111.509 411.838 113.266C414.293 115.209 416.4 117.585 418.063 120.284C421.769 125.84 424.011 132.608 426.79 139.625C428.147 143.335 430.368 146.638 433.256 149.239C434.8 150.576 436.64 151.494 438.611 151.911C440.65 152.268 442.745 152.015 444.651 151.18C452.469 147.97 455.952 138.606 463.864 135.799C467.748 134.521 471.961 134.88 475.592 136.799C477.364 137.712 478.944 138.98 480.242 140.529C481.472 142.11 482.511 143.84 483.336 145.682C485.096 149.296 486.43 153.372 489.413 156.16C490.878 157.577 492.755 158.449 494.749 158.64C496.675 158.76 498.596 158.335 500.308 157.41C503.501 155.571 506.152 152.866 507.978 149.585C509.563 146.491 510.92 143.278 512.036 139.972C513.075 136.941 514.423 134.034 516.056 131.301C517.581 128.817 519.692 126.779 522.189 125.379C524.348 124.193 526.74 123.538 529.182 123.465C531.623 123.392 534.049 123.902 536.27 124.956C539.716 126.428 542.782 128.72 545.219 131.647C546.741 133.51 547.882 135.675 548.572 138.01C549.054 139.606 549.109 140.51 549.184 140.491C549.139 139.63 548.996 138.778 548.757 137.953C548.143 135.551 547.037 133.315 545.515 131.397C543.079 128.371 539.987 125.986 536.492 124.437C534.196 123.318 531.682 122.766 529.146 122.822C526.61 122.879 524.121 123.544 521.874 124.764C519.256 126.196 517.036 128.301 515.426 130.878C513.748 133.65 512.363 136.603 511.295 139.683C510.17 142.93 508.814 146.085 507.237 149.123C505.472 152.267 502.908 154.848 499.826 156.583C498.258 157.433 496.497 157.825 494.731 157.717C492.935 157.527 491.249 156.73 489.932 155.449C487.19 152.853 485.856 148.931 484.096 145.259C483.238 143.334 482.155 141.526 480.872 139.875C479.492 138.229 477.81 136.882 475.925 135.915C472.066 133.87 467.584 133.49 463.456 134.857C459.25 136.299 456.23 139.664 453.433 142.702C450.909 145.922 447.75 148.544 444.169 150.392C442.416 151.164 440.487 151.397 438.611 151.065C436.793 150.676 435.095 149.831 433.664 148.604C430.896 146.099 428.759 142.932 427.438 139.376C424.678 132.435 422.251 125.571 418.545 119.938C416.833 117.155 414.649 114.719 412.098 112.747C409.708 110.942 406.903 109.821 403.964 109.498C401.304 109.209 398.615 109.504 396.071 110.363C394.901 110.724 393.756 111.167 392.644 111.69C388.191 113.937 384.303 117.228 381.286 121.303C379.836 123.272 378.681 125.456 377.858 127.782C377.664 128.413 377.503 129.055 377.377 129.705C377.384 129.827 377.396 129.949 377.414 130.07Z" fill="#144EF4"/>
<path d="M559.441 114.063C559.441 114.332 560.294 114.736 561.442 114.966C562.591 115.197 563.573 115.159 563.61 114.966C563.647 114.774 562.776 114.293 561.628 114.063C560.479 113.832 559.534 113.794 559.441 114.063Z" fill="#144EF4"/>
<path d="M556.41 136.261C556.299 136.53 556.966 137.088 557.911 137.549C558.856 138.01 559.764 138.164 559.764 137.914C559.764 137.664 559.189 137.107 558.244 136.645C557.299 136.184 556.521 136.069 556.41 136.261Z" fill="#144EF4"/>
<path d="M552.607 160.659C552.607 160.929 553.218 161.409 554.163 161.755C555.108 162.101 556.016 162.159 556.016 161.909C556.016 161.659 555.404 161.159 554.459 160.813C553.514 160.467 552.699 160.41 552.607 160.659Z" fill="#144EF4"/>
<path d="M548.048 184.585C548.048 184.854 548.77 185.354 549.9 185.681C551.031 186.008 551.864 186.104 551.938 185.835C552.013 185.566 551.234 185.085 550.197 184.739C549.159 184.393 548.14 184.335 548.048 184.585Z" fill="#144EF4"/>
<path d="M418.527 69.6693C417.804 69.3973 417.051 69.2166 416.286 69.1309C414.803 68.881 412.58 68.5349 409.894 68.1312C404.335 67.3237 396.535 66.2086 387.179 65.0742H386.734V65.5356C386.011 73.726 385.159 83.1468 384.27 93.1444V93.5673V94.048H384.733L415.433 97.8932H415.859V97.4702C416.712 89.1069 417.434 82.0893 417.953 77.1098C418.175 74.7642 418.342 72.8993 418.49 71.4765C418.564 70.8385 418.601 70.1965 418.602 69.5539C418.451 70.2257 418.34 70.9063 418.268 71.5919C418.064 73.0146 417.823 74.918 417.508 77.3597C416.897 82.3201 416.063 89.203 415.044 97.4702L415.507 97.0857L384.807 93.029L385.233 93.5673V93.1636C386.086 83.166 386.882 73.726 387.586 65.5356L387.105 65.9394L418.527 69.6693Z" fill="#144EF4"/>
<path d="M389.989 74.5115C389.989 74.8192 395.27 74.7999 401.717 75.5305C408.165 76.2611 413.334 77.4531 413.408 77.0878C405.86 74.5465 397.883 73.669 389.989 74.5115Z" fill="#144EF4"/>
<path d="M389.654 81.6632C389.654 81.9516 394.582 82.1438 400.604 82.7591C406.625 83.3743 411.517 84.1433 411.572 83.855C408.049 82.6728 404.394 81.9684 400.697 81.7593C397.036 81.2265 393.323 81.1941 389.654 81.6632Z" fill="#144EF4"/>
<path d="M397.015 87.8869C399.022 88.6699 401.136 89.1177 403.278 89.2135C405.368 89.6534 407.51 89.7701 409.633 89.5595C407.629 88.7887 405.523 88.3413 403.389 88.2329C401.292 87.793 399.145 87.6764 397.015 87.8869Z" fill="#144EF4"/>
<path d="M39.9595 90.1227C107.215 68.8586 163.965 50.6899 240.058 51.1898L251.693 175.448C172.562 182.716 146.086 188.099 73.0498 215.535L39.9595 90.1227Z" fill="#144EF4"/>
<g opacity="0.8">
<path opacity="0.8" d="M39.9614 90.1227C107.217 68.8586 163.967 50.6899 240.06 51.1898L251.695 175.448C172.564 182.716 146.088 188.099 73.0518 215.535L39.9614 90.1227Z" fill="white"/>
</g>
<path d="M192.225 111.405L189.26 85.0464C196.646 84.2785 204.041 86.4044 209.993 91.0065C213.936 94.0042 217.145 97.9224 219.359 102.445C221.573 106.967 222.731 111.966 222.74 117.039C222.772 118.321 222.741 119.605 222.647 120.884L193.003 117.423L192.225 111.405Z" fill="#144EF4"/>
<path d="M161.561 107.103C162.975 101.992 165.681 97.366 169.398 93.7049C173.115 90.0438 177.708 87.4808 182.701 86.2816L183.59 86.0893L184.164 85.9547L185.906 85.6855H186.054L188.981 111.929L189.686 118.12L161.672 128.733C160.966 126.542 160.481 124.28 160.227 121.984C159.671 116.982 160.126 111.914 161.561 107.103Z" fill="#144EF4"/>
<g opacity="0.3">
<path opacity="0.3" d="M161.561 107.103C162.975 101.992 165.681 97.366 169.398 93.7049C173.115 90.0438 177.708 87.4808 182.701 86.2816L183.59 86.0893L184.164 85.9547L185.906 85.6855H186.054L188.981 111.929L189.686 118.12L161.672 128.733C160.966 126.542 160.481 124.28 160.227 121.984C159.671 116.982 160.126 111.914 161.561 107.103Z" fill="black"/>
</g>
<path d="M191.797 121.072L221.441 124.533C220.2 139.452 209.713 151.815 195.632 153.622C181.551 155.429 168.341 145.932 163.709 131.704L191.723 121.091" fill="#144EF4"/>
<path d="M65.9595 113.736C66.8597 113.451 67.7339 113.084 68.5719 112.64C70.2209 111.851 72.6295 110.717 75.631 109.467C83.4148 106.089 91.383 103.187 99.4946 100.777C107.618 98.3586 115.871 96.4328 124.21 95.0094C127.397 94.471 130.01 94.0865 131.807 93.8366C132.747 93.7649 133.678 93.5974 134.586 93.3367C133.64 93.2982 132.692 93.3368 131.751 93.4521C129.898 93.5866 127.323 93.875 124.099 94.3172C107.272 96.6915 90.8575 101.547 75.3531 108.737C72.3886 110.121 70.0171 111.313 68.4052 112.198C67.549 112.637 66.7308 113.151 65.9595 113.736Z" fill="#144EF4"/>
<path d="M67.9947 126.647C68.8929 126.348 69.7665 125.975 70.6071 125.531C72.2561 124.762 74.6647 123.609 77.6662 122.378C93.2428 115.574 109.554 110.745 126.246 107.997C129.432 107.459 132.045 107.074 133.842 106.824C134.779 106.728 135.708 106.561 136.621 106.325C135.675 106.261 134.725 106.3 133.786 106.44C131.934 106.555 129.358 106.844 126.134 107.286C117.733 108.48 109.424 110.292 101.27 112.708C93.1169 115.132 85.1368 118.145 77.3882 121.725C74.4238 123.109 72.0522 124.301 70.4403 125.185C69.579 125.584 68.7596 126.074 67.9947 126.647Z" fill="#144EF4"/>
<path d="M70.0318 139.668C70.932 139.384 71.8062 139.017 72.6442 138.572C74.2932 137.803 76.7017 136.65 79.7032 135.4C87.489 132.01 95.4568 129.09 103.567 126.652C111.693 124.243 119.945 122.317 128.283 120.884C131.469 120.365 134.063 119.962 135.879 119.712C136.819 119.64 137.75 119.472 138.658 119.212C137.712 119.173 136.764 119.212 135.823 119.327C133.971 119.462 131.395 119.75 128.172 120.192C119.77 121.386 111.461 123.198 103.307 125.614C95.1486 128.021 87.1673 131.035 79.4253 134.631C76.4609 136.015 74.0894 137.207 72.4775 138.092C71.6143 138.533 70.7952 139.061 70.0318 139.668Z" fill="#144EF4"/>
<path d="M74.1099 152.641C74.9814 152.342 75.8299 151.976 76.6482 151.545C78.2415 150.756 80.576 149.622 83.4663 148.392C98.5472 141.598 114.378 136.762 130.601 133.991C133.713 133.453 136.159 133.068 138.012 132.818C138.927 132.745 139.833 132.578 140.717 132.319C139.795 132.268 138.871 132.306 137.956 132.434C136.196 132.549 133.658 132.838 130.545 133.299C122.369 134.492 114.288 136.304 106.367 138.721C98.4412 141.166 90.6953 144.199 83.1884 147.796C80.3166 149.18 78.0192 150.372 76.4814 151.256C75.6507 151.639 74.8567 152.103 74.1099 152.641Z" fill="#144EF4"/>
<path d="M82.9622 162.986C83.7467 162.741 84.5092 162.426 85.2411 162.044L91.3738 159.218C104.795 152.903 119.042 148.685 133.654 146.702L140.305 145.74C141.125 145.662 141.936 145.514 142.732 145.298C141.914 145.198 141.087 145.198 140.268 145.298C138.675 145.298 136.396 145.606 133.58 145.932C118.826 147.553 104.453 151.807 91.0959 158.506C88.5205 159.775 86.4825 160.852 85.0744 161.64C84.3263 162.01 83.6182 162.461 82.9622 162.986Z" fill="#144EF4"/>
<path d="M112.857 164.453C114.474 164.242 116.072 163.902 117.637 163.434C120.565 162.723 124.622 161.8 129.143 161.012C133.664 160.224 137.796 159.608 140.779 159.089C142.405 158.944 144.017 158.655 145.596 158.224C143.965 158.091 142.325 158.143 140.704 158.378C137.684 158.647 133.534 159.108 128.976 159.935C125.095 160.62 121.253 161.531 117.471 162.665C115.872 163.076 114.324 163.676 112.857 164.453Z" fill="#144EF4"/>
<path d="M228.49 65.8476L226.933 65.7515L222.301 65.5977C218.225 65.5977 212.296 65.5977 204.737 66.0014C183.821 67.4455 163.127 71.3148 143.04 77.5371L142.707 77.6524V78.0177C147.338 105.569 152.86 138.311 158.752 173.341C158.992 174.764 159.233 176.186 159.474 177.571V178.109L159.993 177.974C173.564 174.287 187.311 171.341 201.18 169.15C214.464 167.035 227.119 165.535 238.939 164.766H239.402V164.305C236.16 134.908 233.436 110.298 231.528 92.9757C230.565 84.4008 229.786 77.5948 229.268 72.9805C229.008 70.7118 228.786 68.9622 228.656 67.7318C228.656 67.1742 228.527 66.732 228.49 66.3859C228.453 66.0399 228.49 65.9437 228.49 65.963C228.473 66.1227 228.473 66.2838 228.49 66.4436C228.49 66.7897 228.49 67.2511 228.619 67.8279C228.73 69.0776 228.916 70.8656 229.138 73.1728C229.601 77.8639 230.305 84.7084 231.176 93.2833C233.029 110.587 235.549 135.1 238.587 164.42L238.995 163.939C227.156 164.67 214.446 166.15 201.143 168.246C187.238 170.43 173.453 173.369 159.845 177.052L160.438 177.455C160.197 176.071 159.956 174.648 159.715 173.226C153.768 138.196 148.209 105.473 143.54 77.9408L143.262 78.4215C163.278 72.1781 183.893 68.226 204.737 66.6359C212.259 66.1168 218.225 65.9822 222.227 66.0014H228.453L228.49 65.8476Z" fill="#144EF4"/>
<path d="M301.923 319.749L236.336 334.822L226.312 319.749L227.924 300.35L237.892 290.891H272.242L304.332 320.883" fill="#144EF4"/>
<g opacity="0.3">
<path opacity="0.3" d="M301.916 319.747L236.328 334.82L226.304 319.747L227.916 300.348L237.884 290.889H272.234L304.324 320.881" fill="black"/>
</g>
<path d="M201.954 179.593L119.154 168.058L106.185 164.213C106.185 164.213 76.337 157.407 73.5579 156.368C70.3341 155.176 69 156.503 68.6665 157.753C68.1292 159.675 69.945 161.925 72.6871 163.04C73.6134 163.424 88.7505 168.808 88.7505 168.808C87.0126 169.192 85.3037 169.706 83.6369 170.346C80.024 171.615 76.5593 176.46 74.8177 182.112C73.0761 187.765 73.0576 189.495 75.1512 190.302C75.553 190.428 75.9763 190.463 76.392 190.403C76.8078 190.343 77.2061 190.191 77.5598 189.956C78.732 189.221 79.6126 188.076 80.0425 186.726C82.9514 177.709 88.38 176.998 88.38 176.998L90.0845 177.498C90.0845 177.498 84.5262 181.555 84.5262 186.476C84.5404 187.199 84.6914 187.911 84.9708 188.572C84.5592 189.795 84.4625 191.108 84.69 192.382C84.9175 193.655 85.4615 194.845 86.2681 195.834C87.0747 196.822 88.116 197.575 89.289 198.018C90.462 198.461 91.7262 198.578 92.9563 198.358C94.1421 198.127 95.439 197.397 95.6057 196.166C95.6387 195.501 95.5046 194.839 95.2167 194.244C95.0984 193.911 94.9994 193.57 94.9202 193.225L99.8856 193.936C99.8856 193.936 111.132 194.897 115.968 195.859L193.487 220.084C196.036 220.887 198.712 221.157 201.362 220.876C204.012 220.596 206.581 219.772 208.921 218.451C211.261 217.131 213.324 215.341 214.991 213.185C216.657 211.029 217.894 208.551 218.629 205.895C219.411 203.021 219.589 200.006 219.149 197.055C218.71 194.104 217.664 191.286 216.082 188.791C214.501 186.296 212.421 184.184 209.983 182.597C207.545 181.01 204.807 179.986 201.954 179.593Z" fill="#FFBE9D"/>
<path d="M117.209 170.213C117.033 171.1 116.593 171.907 115.952 172.521C115.31 173.135 114.499 173.525 113.633 173.635C111.929 174 110.15 173.769 108.427 174C103.276 174.731 99.2557 179.595 94.0865 180.056C93.3639 180.056 92.4375 180.056 92.2337 179.249C92.0299 178.441 92.5857 177.961 93.086 177.499L106.055 165.637" fill="#FFBE9D"/>
<path d="M105.998 165.637C105.454 165.958 104.945 166.339 104.478 166.771C103.552 167.559 102.199 168.694 100.569 170.155L94.844 175.25L93.2135 176.73C92.7133 177.249 91.861 177.692 91.7128 178.922C91.7079 179.224 91.7899 179.521 91.9483 179.774C92.1067 180.028 92.3344 180.226 92.6021 180.345C93.0415 180.533 93.5175 180.612 93.9917 180.575C94.8366 180.508 95.6704 180.334 96.4744 180.056C99.3297 178.811 102.097 177.359 104.756 175.711C105.921 175.092 107.171 174.664 108.462 174.442C109.666 174.25 110.852 174.288 111.926 174.212C112.815 174.238 113.698 174.062 114.514 173.697C115.33 173.331 116.06 172.785 116.651 172.097C117.411 171.001 117.262 170.174 117.225 170.174C117.023 170.759 116.729 171.305 116.355 171.789C115.767 172.373 115.067 172.822 114.301 173.107C113.535 173.392 112.719 173.506 111.908 173.443C110.721 173.418 109.534 173.456 108.351 173.558C106.976 173.763 105.639 174.185 104.386 174.808C101.742 176.396 99.0071 177.815 96.1965 179.057C95.4668 179.291 94.7154 179.446 93.9546 179.518C93.232 179.518 92.6206 179.307 92.6948 178.922C92.7689 178.537 93.2876 177.922 93.8435 177.422L95.4739 175.923L101.032 170.655L104.738 167.04C105.609 166.194 106.053 165.694 105.998 165.637Z" fill="#EB996E"/>
<path d="M90.1398 177.377C89.068 177.11 87.9507 177.11 86.8789 177.377C85.7595 177.685 84.7655 178.359 84.0441 179.299C83.161 180.516 82.4729 181.873 82.0061 183.318C81.5266 184.801 80.9059 186.23 80.1534 187.586C79.4981 188.721 78.5647 189.657 77.4483 190.297C77.0556 190.506 76.6206 190.615 76.1792 190.615C75.7378 190.615 75.3027 190.506 74.91 190.297C74.3727 190.008 74.169 189.72 74.1875 189.701C74.206 189.682 74.4839 189.855 75.0027 190.066C75.371 190.193 75.761 190.239 76.1473 190.199C76.5336 190.159 76.9075 190.035 77.2445 189.835C78.242 189.182 79.0691 188.284 79.6531 187.221C80.3974 185.881 81.0177 184.471 81.5059 183.01C82.0048 181.508 82.7439 180.104 83.6922 178.857C84.4949 177.813 85.6095 177.076 86.8604 176.762C87.694 176.548 88.5651 176.548 89.3987 176.762C89.8804 177.146 90.1583 177.338 90.1398 177.377Z" fill="#EB996E"/>
<path d="M71.5365 162.598C72.5738 162.848 73.5852 163.202 74.5565 163.655L81.7453 166.404L88.934 169.038C89.9583 169.323 90.9517 169.716 91.8984 170.211C90.8386 170.085 89.795 169.84 88.7858 169.481C86.933 168.923 84.3021 168.077 81.4859 167.02C78.6697 165.962 76.1314 164.924 74.3342 164.097C73.3501 163.709 72.4116 163.205 71.5365 162.598Z" fill="#EB996E"/>
<path d="M92.3125 182.168C92.3125 182.168 92.0903 182.475 91.6641 182.956C91.3512 183.256 91.1048 183.623 90.9416 184.031C90.7785 184.439 90.7026 184.879 90.7192 185.321C90.7618 185.603 90.8748 185.868 91.0471 186.091C91.2194 186.314 91.4449 186.486 91.7012 186.59C92.3442 186.862 93.0157 187.056 93.7021 187.166C94.5702 187.275 95.3689 187.713 95.944 188.397C96.2128 188.806 96.3861 189.274 96.4504 189.765C96.5148 190.255 96.4682 190.755 96.3145 191.223C96.1581 191.682 95.9131 192.103 95.5945 192.46C95.2759 192.817 94.8905 193.103 94.4618 193.3C93.6919 193.689 92.825 193.824 91.9791 193.684C90.6381 193.387 89.3461 192.888 88.1438 192.204C87.3145 191.768 86.5627 191.19 85.9205 190.493C85.6795 190.24 85.5014 189.929 85.4018 189.589C85.4018 189.589 85.6426 189.877 86.1058 190.3C86.7807 190.903 87.5357 191.402 88.3477 191.781C89.5207 192.387 90.7671 192.827 92.0532 193.088C92.8035 193.224 93.5761 193.095 94.2477 192.723C94.9194 192.35 95.4513 191.754 95.7587 191.031C95.8849 190.661 95.9272 190.265 95.8822 189.875C95.8372 189.485 95.7062 189.111 95.4993 188.782C95.0209 188.22 94.3626 187.858 93.6465 187.763C92.9179 187.622 92.2085 187.39 91.5344 187.07C91.2155 186.915 90.9396 186.678 90.7324 186.382C90.5251 186.087 90.3931 185.741 90.3486 185.378C90.3435 184.876 90.4494 184.379 90.6582 183.926C90.8669 183.473 91.173 183.075 91.553 182.764C91.9791 182.398 92.294 182.129 92.3125 182.168Z" fill="#EB996E"/>
<path d="M94.1033 192.877C94.1033 192.877 94.4554 192.877 94.9185 193.281C95.2401 193.577 95.4911 193.946 95.6518 194.36C95.8126 194.773 95.8787 195.22 95.8449 195.665C95.7658 196.329 95.5207 196.961 95.134 197.497C94.7473 198.033 94.2324 198.455 93.6401 198.722C92.2013 199.321 90.5953 199.321 89.1564 198.722C87.7065 198.196 86.4546 197.206 85.5806 195.895C84.88 194.836 84.4643 193.601 84.3763 192.319C84.3087 191.463 84.4031 190.601 84.6542 189.782C84.7146 189.474 84.8413 189.185 85.0248 188.936C84.8232 190.031 84.7547 191.148 84.821 192.262C84.9902 193.564 85.5039 194.793 86.3052 195.811C87.1065 196.829 88.1639 197.597 89.3603 198.03C90.659 198.555 92.1006 198.555 93.3993 198.03C93.9137 197.819 94.3676 197.475 94.7178 197.031C95.0681 196.586 95.303 196.057 95.4002 195.492C95.4462 195.106 95.4122 194.714 95.3004 194.342C95.1885 193.971 95.0015 193.629 94.7518 193.338C94.3813 193.05 94.0663 192.935 94.1033 192.877Z" fill="#EB996E"/>
<path d="M107.864 185.814C107.864 185.814 107.864 185.199 108.401 184.314C109.11 183.141 110.171 182.243 111.421 181.757V182.334C110.78 182.022 110.161 181.662 109.569 181.258C107.377 179.939 105.582 178.016 104.381 175.701C106.06 177.564 107.923 179.24 109.939 180.7C110.569 181.104 111.181 181.469 111.792 181.777L112.422 182.123L111.755 182.353C110.602 182.777 109.591 183.539 108.846 184.545C108.161 185.295 107.957 185.833 107.864 185.814Z" fill="#EB996E"/>
<path d="M82.0928 176.63C82.204 176.515 83.0748 177.515 83.186 179.11C83.2971 180.706 82.556 181.802 82.4078 181.706C82.2596 181.61 82.6486 180.533 82.5375 179.149C82.4263 177.764 81.9261 176.745 82.0928 176.63Z" fill="#EB996E"/>
<path d="M468.413 206.529C468.413 206.529 480.493 186.207 482.642 184.476C484.791 182.746 503.93 175.478 505.561 176.017C507.191 176.555 530.388 180.65 527.794 183.515C525.2 186.38 508.951 183.265 508.951 183.265L506.765 184.399C506.765 184.399 520.753 186.706 523.699 188.475C526.645 190.244 525.552 193.532 522.903 193.263C520.253 192.993 508.21 190.552 507.488 191.071C506.765 191.59 520.698 194.474 522.199 195.377C524.218 196.627 524.422 200.338 521.865 200.165C520.364 200.049 507.228 196.531 507.228 196.531C511.107 198.019 514.905 199.726 518.604 201.645C520.179 203.202 518.938 205.49 516.751 205.029C515.195 204.683 507.84 201.03 505.765 200.568C505.765 200.568 503.912 201.107 502.059 205.183C501.244 207.105 497.501 218.929 490.665 218.776C484.606 218.641 478.659 223.813 478.659 223.813L468.413 206.529Z" fill="#FFBE9D"/>
<path d="M527.678 183.575C526.366 184.28 524.927 184.693 523.453 184.787C521.871 185.022 520.269 185.092 518.673 184.998C516.821 184.787 514.968 184.517 512.93 184.21L508.594 183.556H508.854C505.615 184.937 502.268 186.024 498.849 186.805C501.948 185.109 505.176 183.682 508.502 182.537H508.613H508.761L513.059 183.133L518.747 183.998C520.289 184.122 521.838 184.122 523.379 183.998C526.01 183.806 527.641 183.402 527.678 183.575Z" fill="#EB996E"/>
<path d="M477.471 204.124C478.259 204.705 479.201 205.017 480.167 205.017C481.133 205.017 482.075 204.705 482.863 204.124C484.512 203.085 485.79 201.509 487.365 200.278C492.071 196.818 498.871 197.644 503.428 193.953C504.058 193.453 504.688 192.607 504.336 191.857C503.984 191.108 503.113 191.088 502.354 191.108L483.252 191.569" fill="#FFBE9D"/>
<path d="M483.25 191.65C483.923 191.476 484.613 191.386 485.307 191.381C486.64 191.381 488.567 191.17 490.865 191.073L499.221 190.727H501.648C502.13 190.633 502.626 190.638 503.106 190.744C503.587 190.849 504.042 191.053 504.446 191.343C504.683 191.59 504.84 191.908 504.897 192.252C504.953 192.596 504.906 192.95 504.761 193.265C504.545 193.77 504.215 194.212 503.797 194.553C503.057 195.149 502.255 195.659 501.407 196.072C498.173 197.292 494.861 198.275 491.495 199.014C490.107 199.449 488.789 200.097 487.585 200.937C486.474 201.725 485.547 202.686 484.602 203.474C483.895 204.18 483.048 204.718 482.12 205.05C481.192 205.382 480.206 205.5 479.229 205.397C477.803 205.128 477.377 204.32 477.377 204.32C477.955 204.643 478.581 204.863 479.229 204.974C480.131 204.974 481.024 204.783 481.852 204.412C482.68 204.042 483.427 203.501 484.047 202.821C484.917 202.032 485.899 201.033 487.011 200.129C488.276 199.218 489.67 198.518 491.143 198.053C494.44 197.27 497.688 196.281 500.87 195.092C501.642 194.717 502.375 194.26 503.056 193.727C503.667 193.208 503.964 192.496 503.63 192.227C503.297 191.958 502.426 191.9 501.611 191.919H499.202H490.828C488.456 191.919 486.529 191.919 485.269 191.919C484.588 191.922 483.909 191.831 483.25 191.65Z" fill="#EB996E"/>
<path d="M329.529 686.459L293.159 387.589L304.795 318.105L373.347 321.951L381.925 680.941C381.965 682.237 381.557 683.505 380.776 684.516C379.995 685.528 378.891 686.217 377.664 686.459L337.718 692.861C336.774 693.01 335.81 692.962 334.884 692.719C333.958 692.477 333.088 692.044 332.325 691.448C331.563 690.852 330.922 690.103 330.442 689.246C329.962 688.389 329.651 687.442 329.529 686.459Z" fill="#263238"/>
<path d="M294.218 397.601L228.056 465.546L323.232 489.56L316.47 539.394L187.629 521.206C182.181 520.431 176.942 518.517 172.228 515.579C167.515 512.641 163.425 508.741 160.208 504.114C155.335 497.106 152.66 488.71 152.547 480.069C152.435 471.428 154.889 462.96 159.578 455.818L259.96 302.932L304.797 318.101L294.218 397.601Z" fill="#263238"/>
<path d="M297.859 380.318C296.782 383.063 296.011 385.928 295.562 388.855C294.779 391.705 294.325 394.641 294.209 397.603C295.274 394.853 296.044 391.99 296.507 389.066C297.268 386.211 297.722 383.277 297.859 380.318Z" fill="#455A64"/>
<path d="M307.555 495.779L305.981 495.24L301.349 493.741L283.599 488.146L219.012 467.997L219.178 468.631L298.588 380.864L297.754 380.595C299.329 394.38 300.978 408.78 302.646 423.469C310.835 494.606 318.542 559.052 324.49 605.618C327.454 628.9 330.048 647.723 331.901 660.72C332.957 667.18 333.753 672.255 334.383 675.62C334.717 677.293 334.995 678.561 335.18 679.465C335.365 680.369 335.477 680.772 335.477 680.772C335.477 680.772 335.477 680.311 335.273 679.446C335.069 678.581 334.865 677.254 334.569 675.601C333.902 672.217 333.272 667.16 332.271 660.681C330.418 647.665 327.973 628.843 325.12 605.541C319.32 558.975 311.743 494.548 303.553 423.373C301.867 408.684 300.218 394.284 298.644 380.499L298.532 379.441L297.828 380.21L218.623 468.132L218.215 468.593L218.789 468.766L283.469 488.607L301.293 494.01L305.943 495.394C306.944 495.779 307.555 495.779 307.555 495.779Z" fill="#455A64"/>
<path d="M328.921 680.82C329.181 680.82 321.621 617.373 312.043 539.142C302.464 460.911 294.478 397.561 294.219 397.6C293.96 397.638 301.5 461.046 311.079 539.277C320.658 617.508 328.643 680.839 328.921 680.82Z" fill="#455A64"/>
<path d="M304.945 348.684C304.282 350.168 303.773 351.721 303.426 353.317C302.611 356.201 301.573 360.258 300.647 364.757C299.721 369.256 298.998 373.37 298.572 376.292C298.246 377.891 298.09 379.522 298.109 381.157C298.635 379.616 299.013 378.025 299.239 376.408C299.924 373.12 300.721 369.217 301.592 364.872C302.463 360.527 303.445 356.682 304.075 353.336C304.518 351.821 304.81 350.261 304.945 348.684Z" fill="#455A64"/>
<path d="M300.704 342.824C300.704 342.824 299.778 341.882 298.018 342.516C297.507 342.711 297.053 343.04 296.703 343.472C296.352 343.903 296.115 344.422 296.017 344.977C295.888 345.672 295.963 346.391 296.23 347.041C296.497 347.692 296.945 348.245 297.517 348.63C298.103 348.956 298.769 349.092 299.43 349.02C300.091 348.948 300.715 348.671 301.223 348.227C301.641 347.854 301.945 347.362 302.097 346.812C302.248 346.261 302.241 345.677 302.075 345.131C301.89 344.416 301.445 343.802 300.834 343.42C300.408 343.17 300.13 343.17 300.111 343.228C300.749 343.748 301.204 344.471 301.408 345.285C301.498 345.693 301.474 346.12 301.34 346.514C301.205 346.909 300.966 347.256 300.648 347.515C300.264 347.828 299.8 348.019 299.313 348.063C298.826 348.107 298.338 348.004 297.906 347.765C297.503 347.477 297.186 347.078 296.989 346.612C296.793 346.147 296.726 345.634 296.795 345.131C296.862 344.716 297.025 344.325 297.27 343.99C297.515 343.655 297.836 343.387 298.203 343.209C298.99 342.858 299.852 342.725 300.704 342.824Z" fill="#455A64"/>
<path d="M208.565 477.18C208.769 477.392 212.493 473.835 217.829 470.643C223.165 467.452 227.982 465.798 227.889 465.51C224.131 466.193 220.542 467.644 217.329 469.778C213.97 471.629 210.993 474.143 208.565 477.18Z" fill="#455A64"/>
<path d="M351.557 114.358L389.539 133.392L373.161 251.978L379.59 305.196C380.002 308.573 379.607 312.004 378.441 315.186C377.274 318.367 375.372 321.203 372.901 323.442L311.556 322.192L268.646 297.756L248.914 294.295L256.992 253.786L253.287 196.319L208.394 221.178C204.936 223.1 200.908 223.601 197.111 222.582L114.867 200.414L119.147 167.499L193.665 176.247L250.415 124.221L292.658 114.358L300.143 101.457H343.368L346.462 103.803C347.906 104.929 348.996 106.475 349.593 108.244L351.557 114.358Z" fill="#144EF4"/>
<path d="M389.546 133.398C397.441 139.033 403.425 147.106 406.647 156.47C410.983 170.466 420.784 227.049 420.784 227.049L463.935 199.325L488.799 226.453L431.363 279.094C427.05 283.043 421.711 285.585 416.013 286.402C410.316 287.219 404.512 286.276 399.329 283.689C394.976 281.51 391.211 278.248 388.369 274.192C385.528 270.136 383.698 265.413 383.043 260.445L375.984 206.785L389.546 133.398Z" fill="#144EF4"/>
<path d="M259.954 302.927L262.622 298.852L291.025 304.293L296.25 316.847L259.954 302.927Z" fill="#FFBE9D"/>
<path d="M372.904 323.447C347.521 334.04 320.415 330.137 296.255 316.852C288.956 312.834 282.193 307.854 274.856 303.894C267.519 299.933 259.404 297.03 251.159 297.626C242.914 298.222 234.614 302.932 231.316 310.796C228.018 318.659 231.316 329.349 239.079 332.291L236.337 334.829C224.942 329.33 219.532 313.411 225.091 301.702C229.352 292.743 238.319 287.378 244.878 280.053C254.531 269.287 255.532 248.446 255.606 232.219" fill="#144EF4"/>
<path d="M317.228 137.297C317.844 137.348 318.464 137.348 319.081 137.297C320.78 137.438 322.376 138.201 323.583 139.45C325.198 141.583 325.996 144.26 325.825 146.967C325.809 150.442 325.109 153.877 323.768 157.061L323.045 158.714L324.435 157.638C327.864 154.998 331.069 152.059 334.014 148.851C340.317 142.11 345.311 134.172 348.725 125.473C349.728 122.838 350.527 120.125 351.115 117.359C351.332 116.34 351.475 115.305 351.541 114.264C350.615 117.982 349.464 121.636 348.095 125.203C344.527 133.72 339.506 141.497 333.273 148.159C330.365 151.319 327.218 154.232 323.861 156.869L324.546 157.465C325.285 155.739 325.814 153.924 326.121 152.062C326.44 150.385 326.583 148.677 326.547 146.967C326.682 144.078 325.747 141.244 323.935 139.046C322.622 137.741 320.88 137.005 319.062 136.989C318.441 137.018 317.826 137.121 317.228 137.297Z" fill="#263238"/>
<path d="M314.973 137.29C311.841 135.887 307.21 137.944 304.968 140.597C303.486 142.366 302.652 144.788 300.706 145.942C298.761 147.095 292.573 147.999 290.776 146.576C290.776 146.576 289.682 141.097 289.09 138.886C287.027 130.246 285.621 121.452 284.884 112.584C290.85 109.566 289.201 105.605 299.965 106.374C298.412 111.474 298.277 116.926 299.576 122.101" fill="#144EF4"/>
<path d="M299.553 122.05C299.664 122.05 299.163 120.569 298.941 117.839C298.695 113.986 299.147 110.119 300.275 106.438L300.405 105.977H299.96C297.297 105.616 294.59 105.866 292.03 106.707C290.638 107.371 289.38 108.304 288.325 109.457C287.23 110.536 285.98 111.431 284.619 112.11L284.323 112.264V112.591C284.805 117.262 285.342 122.357 286.176 127.625C286.731 131.067 287.398 134.393 288.177 137.565C288.955 140.738 289.566 143.795 290.215 146.678V146.871L290.326 146.967C291.295 147.537 292.4 147.81 293.513 147.755C294.504 147.769 295.495 147.705 296.477 147.563C297.417 147.424 298.346 147.212 299.256 146.928C300.157 146.677 300.988 146.209 301.683 145.563C302.762 144.306 303.718 142.941 304.536 141.487C305.327 140.379 306.322 139.444 307.464 138.738C309.058 137.669 310.903 137.071 312.8 137.008C313.475 137.044 314.145 137.147 314.801 137.315C314.193 136.943 313.505 136.738 312.8 136.719C310.843 136.664 308.912 137.198 307.241 138.257C306.009 138.971 304.931 139.94 304.073 141.103C303.25 142.476 302.3 143.764 301.239 144.948C299.825 145.99 298.153 146.591 296.421 146.678C295.482 146.807 294.534 146.859 293.587 146.832C292.659 146.864 291.74 146.646 290.919 146.198L291.085 146.467C290.455 143.564 289.863 140.449 289.103 137.296C288.343 134.143 287.676 130.836 287.139 127.414C286.287 122.184 285.731 117.109 285.286 112.456L285.027 112.937C286.493 112.214 287.843 111.261 289.029 110.11C289.984 109.018 291.136 108.13 292.419 107.496C294.856 106.677 297.432 106.402 299.979 106.688L299.664 106.207C298.575 109.988 298.216 113.953 298.608 117.878C298.742 118.937 298.952 119.985 299.238 121.012C299.301 121.37 299.407 121.718 299.553 122.05Z" fill="#263238"/>
<path d="M236.264 303.525C236.264 303.525 236.264 302.775 236.264 301.333C236.429 299.23 237.063 297.196 238.116 295.392C239.806 292.564 242.15 290.218 244.935 288.567C248.69 286.495 252.841 285.313 257.089 285.106C261.795 284.664 267.02 284.933 272.633 284.529C278.631 284.187 284.543 282.89 290.161 280.684C296.423 278.195 301.894 273.948 305.965 268.418C308.076 265.464 309.617 262.115 310.504 258.555C311.388 254.893 311.738 251.115 311.542 247.346C311.264 239.655 309.578 232.523 308.559 225.524C307.541 218.802 306.922 212.022 306.706 205.221C306.162 185.87 308.839 166.566 314.617 148.158C315.395 145.524 316.118 143.525 316.581 142.16C316.803 141.506 316.97 140.987 317.1 140.583C317.17 140.411 317.22 140.23 317.248 140.045C317.248 140.045 317.155 140.199 317.007 140.545C316.859 140.891 316.655 141.448 316.396 142.083C315.877 143.429 315.099 145.409 314.247 148.043C311.789 155.423 309.857 162.98 308.466 170.653C306.428 182.062 305.541 193.66 305.816 205.26C306.024 212.106 306.642 218.932 307.669 225.697C308.67 232.734 310.337 239.925 310.615 247.404C311.178 254.664 309.278 261.9 305.242 267.86C301.287 273.256 295.962 277.404 289.864 279.838C284.338 282.028 278.521 283.325 272.615 283.683C267.057 284.106 261.832 283.895 257.052 284.395C252.67 284.651 248.401 285.933 244.564 288.144C241.733 289.871 239.373 292.319 237.709 295.257C236.668 297.12 236.082 299.219 236.004 301.371C235.978 301.931 236.009 302.491 236.097 303.044C236.208 303.409 236.245 303.525 236.264 303.525Z" fill="#263238"/>
<path d="M263.975 268.51C264.614 269.346 265.328 270.119 266.106 270.817C266.81 271.528 267.699 272.393 268.774 273.336C269.848 274.278 271.034 275.412 272.479 276.508C275.746 279.178 279.167 281.637 282.725 283.871C291.464 289.34 300.927 293.453 310.813 296.08C314.843 297.145 318.933 297.948 323.06 298.483C324.82 298.772 326.413 298.868 327.821 298.983C329.229 299.099 330.434 299.175 331.434 299.195C332.457 299.286 333.486 299.286 334.51 299.195C333.501 298.997 332.479 298.875 331.453 298.829C330.471 298.829 329.266 298.656 327.877 298.464C326.487 298.272 324.894 298.156 323.152 297.83C319.071 297.184 315.026 296.311 311.035 295.215C306.164 293.843 301.38 292.154 296.713 290.158C292.064 288.11 287.546 285.753 283.188 283.102C279.634 280.924 276.195 278.55 272.887 275.989C271.46 274.931 270.237 273.855 269.181 272.951C268.125 272.047 267.162 271.24 266.421 270.567C265.654 269.822 264.836 269.134 263.975 268.51Z" fill="#263238"/>
<path d="M275.909 205.471C275.915 205.83 275.971 206.186 276.076 206.528L276.724 209.527C277.045 211.114 277.453 212.68 277.947 214.219C278.503 216.026 279.04 218.064 279.911 220.332C280.337 221.448 280.763 222.62 281.208 223.832C281.653 225.043 282.264 226.254 282.801 227.542C283.876 230.138 285.284 232.753 286.711 235.54C293.212 247.534 301.807 258.168 312.057 266.898C314.465 268.821 316.707 270.743 318.986 272.281C320.098 273.07 321.154 273.877 322.228 274.569L325.322 276.492C327.175 277.78 329.158 278.703 330.788 279.587C332.16 280.349 333.57 281.036 335.012 281.645L337.754 282.837C338.071 282.983 338.399 283.099 338.736 283.183C338.455 282.968 338.15 282.787 337.828 282.644L335.179 281.299C334.012 280.741 332.604 280.03 331.029 279.088C329.454 278.145 327.583 277.165 325.674 275.896L322.636 273.973C321.58 273.281 320.542 272.455 319.431 271.666C317.207 270.109 315.002 268.206 312.631 266.244C307.625 261.85 302.971 257.04 298.717 251.863C294.551 246.613 290.797 241.026 287.489 235.156C286.044 232.387 284.617 229.811 283.542 227.254C282.968 225.985 282.375 224.774 281.894 223.582L280.56 220.121C279.633 217.948 279.059 215.891 278.466 214.103C277.873 212.315 277.41 210.758 277.076 209.47L276.261 206.528C276.194 206.16 276.076 205.803 275.909 205.471Z" fill="#263238"/>
<path d="M354.039 333.093C355.32 332.454 356.471 331.566 357.43 330.478C359.882 327.994 361.83 325.024 363.157 321.745C364.484 318.465 365.164 314.943 365.156 311.386C365.226 309.921 365.037 308.455 364.6 307.061C364.433 307.061 364.6 308.733 364.47 311.367C364.098 318.293 361.435 324.873 356.929 329.997C355.206 331.939 353.872 332.958 354.039 333.093Z" fill="#263238"/>
<path d="M355.395 318.117C355.118 318.117 355.636 320.674 355.395 323.693C355.155 326.711 354.247 329.076 354.506 329.211C355.547 327.591 356.176 325.725 356.335 323.785C356.494 321.845 356.177 319.896 355.414 318.117H355.395Z" fill="#263238"/>
<path d="M373.688 249.292C373.806 249.004 373.881 248.7 373.91 248.388C374.04 247.677 374.188 246.812 374.373 245.774C374.762 243.351 375.3 240.006 375.93 236.161C377.227 228.028 379.079 216.8 381.303 204.438C383.526 192.075 385.694 180.885 387.232 172.791C388.01 168.946 388.658 165.639 389.084 163.178C389.288 162.14 389.436 161.256 389.566 160.583C389.653 160.277 389.69 159.959 389.677 159.641C389.542 159.921 389.443 160.218 389.381 160.525C389.195 161.236 388.992 162.082 388.732 163.101C388.176 165.332 387.417 168.581 386.527 172.599C384.675 180.636 382.47 191.825 380.228 204.168C377.986 216.512 376.282 227.816 375.151 235.968C374.577 240.064 374.151 243.37 373.892 245.581C373.78 246.639 373.688 247.504 373.614 248.235C373.579 248.589 373.604 248.947 373.688 249.292Z" fill="#263238"/>
<path d="M255.111 249.291C255.168 248.981 255.199 248.666 255.203 248.349C255.203 247.6 255.203 246.696 255.203 245.619C255.203 243.235 255.203 239.851 255.203 235.564C255.203 227.085 254.758 215.377 253.814 202.476C252.869 189.575 251.627 177.924 250.664 169.503C250.164 165.408 249.756 162.043 249.441 159.544C249.293 158.467 249.163 157.564 249.052 156.833C249.022 156.52 248.959 156.21 248.867 155.91C248.818 156.229 248.818 156.553 248.867 156.871C248.867 157.602 248.996 158.506 249.07 159.582C249.293 162.101 249.608 165.466 249.978 169.58C250.775 178.001 251.831 189.652 252.85 202.553C253.869 215.453 254.258 227.124 254.518 235.583C254.629 239.698 254.721 243.081 254.796 245.619L254.888 248.349C254.914 248.674 254.989 248.991 255.111 249.291Z" fill="#263238"/>
<path d="M403.25 254.249C403.565 254.384 406.011 247.385 410.661 239.772C415.312 232.158 420.944 227.371 420.703 227.121C419.337 227.956 418.09 228.985 416.998 230.178C414.273 232.902 411.85 235.933 409.772 239.214C407.732 242.512 405.995 246 404.584 249.635C403.957 251.109 403.508 252.659 403.25 254.249Z" fill="#263238"/>
<path d="M400.066 245.846C400.832 244.608 401.524 243.324 402.141 242.001C403.837 239.074 406.006 236.473 408.552 234.31C411.152 232.169 413.996 230.368 417.019 228.946C418.305 228.415 419.544 227.772 420.725 227.023C419.334 227.23 417.98 227.644 416.704 228.254C413.517 229.512 410.541 231.283 407.885 233.503C405.233 235.754 403.057 238.548 401.493 241.712C400.787 242.992 400.304 244.392 400.066 245.846Z" fill="#263238"/>
<path d="M380.983 199.703C380.983 199.703 381.076 200.011 381.372 200.549C381.821 201.326 382.391 202.021 383.058 202.606C384.305 203.684 385.763 204.469 387.33 204.907C388.897 205.345 390.537 205.426 392.137 205.144C394.489 204.633 396.715 203.628 398.678 202.189C400.641 200.751 402.299 198.91 403.55 196.781C405.043 194.36 406.285 191.782 407.255 189.09C407.774 187.687 408.293 186.264 408.738 184.765C409.229 183.204 409.406 181.554 409.256 179.92C409.071 178.218 408.261 176.655 406.996 175.555C406.343 175.066 405.593 174.736 404.801 174.59C404.009 174.444 403.195 174.484 402.42 174.709C401.01 175.12 399.719 175.88 398.656 176.926C397.594 177.971 396.794 179.269 396.324 180.708C395.867 181.992 395.698 183.368 395.829 184.731C395.961 186.093 396.39 187.406 397.084 188.571C398.294 190.592 400.171 192.088 402.364 192.782C404.192 193.351 406.153 193.256 407.922 192.513C409.227 191.984 410.399 191.156 411.35 190.09C411.959 189.437 412.449 188.675 412.795 187.841C413.036 187.264 413.11 186.956 413.073 186.937C412.55 187.993 411.882 188.964 411.091 189.821C410.134 190.784 408.991 191.524 407.737 191.994C406.096 192.604 404.307 192.645 402.642 192.109C400.635 191.431 398.931 190.025 397.843 188.148C397.229 187.088 396.855 185.897 396.749 184.664C396.643 183.432 396.808 182.191 397.232 181.035C397.664 179.736 398.397 178.568 399.366 177.633C400.335 176.698 401.511 176.024 402.79 175.671C403.419 175.495 404.077 175.466 404.718 175.586C405.358 175.705 405.966 175.971 406.496 176.363C407.546 177.301 408.209 178.623 408.348 180.054C408.682 183.034 407.385 185.957 406.496 188.725C405.541 191.424 404.299 194.004 402.79 196.416C401.615 198.462 400.054 200.242 398.201 201.649C396.349 203.056 394.242 204.062 392.007 204.606C390.488 204.896 388.928 204.854 387.425 204.483C385.923 204.112 384.511 203.421 383.281 202.453C382.407 201.64 381.635 200.716 380.983 199.703Z" fill="#FAFAFA"/>
<path d="M308.133 229.179L308.651 229.621C309.022 229.948 309.541 230.352 310.189 230.871C312.186 232.455 314.32 233.845 316.563 235.023C318.207 235.877 319.96 236.486 321.769 236.831C323.939 237.232 326.171 237.08 328.272 236.389C333.271 234.348 337.422 230.551 340 225.66C343.569 219.477 345.427 212.392 345.368 205.184C345.309 197.976 343.336 190.925 339.667 184.805C337.637 181.144 334.598 178.198 330.94 176.345C328.975 175.466 326.811 175.179 324.696 175.519C322.503 175.826 320.51 177.005 319.138 178.806C317.791 180.69 317.17 183.028 317.396 185.362C317.56 187.674 318.245 189.913 319.397 191.899C321.815 195.89 325.437 198.939 329.699 200.57C333.92 202.203 338.473 202.693 342.927 201.993C347.238 201.3 351.325 199.539 354.841 196.86C361.386 191.686 366.274 184.583 368.866 176.48C370.333 172.789 370.917 168.785 370.571 164.81C370.286 162.881 369.541 161.057 368.403 159.503C367.296 157.957 365.692 156.873 363.882 156.446C362.191 156.12 360.447 156.257 358.823 156.844C357.198 157.43 355.749 158.446 354.618 159.792C353.604 161.055 352.876 162.538 352.488 164.132C352.1 165.726 352.062 167.39 352.377 169.001C352.865 171.904 354.189 174.585 356.175 176.691C357.952 178.547 360.086 179.995 362.437 180.94C366.182 182.443 370.193 183.098 374.202 182.863C376.685 182.741 379.159 182.478 381.613 182.075L383.559 181.748L384.207 181.613H383.54L381.595 181.844C379.89 182.017 377.37 182.363 374.184 182.44C370.243 182.633 366.307 181.978 362.622 180.517C360.355 179.581 358.303 178.16 356.601 176.345C354.709 174.299 353.462 171.704 353.025 168.905C352.741 167.398 352.785 165.844 353.153 164.358C353.522 162.871 354.206 161.488 355.156 160.311C356.217 159.081 357.565 158.156 359.071 157.624C360.576 157.092 362.189 156.971 363.753 157.273C365.381 157.784 366.825 158.79 367.899 160.161C368.972 161.532 369.625 163.204 369.774 164.963C370.105 168.795 369.519 172.651 368.069 176.192C365.528 184.103 360.751 191.036 354.359 196.091C350.95 198.661 346.999 200.348 342.835 201.012C338.549 201.694 334.167 201.224 330.106 199.647C326.044 198.111 322.59 195.216 320.287 191.419C319.223 189.556 318.589 187.464 318.434 185.305C318.218 183.219 318.767 181.125 319.972 179.441C321.21 177.826 323.003 176.771 324.974 176.499C326.919 176.186 328.909 176.446 330.718 177.249C334.203 179.022 337.1 181.833 339.037 185.324C342.939 191.689 344.908 199.124 344.688 206.665C344.555 213.237 342.787 219.661 339.555 225.314C337.083 230.095 333.079 233.828 328.235 235.869C324.439 237.018 320.363 236.598 316.859 234.697C314.614 233.556 312.464 232.225 310.43 230.717L308.837 229.563C308.619 229.404 308.382 229.275 308.133 229.179Z" fill="#FAFAFA"/>
<path d="M359.243 121.305C359.363 121.902 359.562 122.478 359.836 123.017C360.499 124.534 361.3 125.982 362.226 127.342C365.251 131.91 369.38 135.57 374.2 137.956C379.02 140.342 384.36 141.37 389.684 140.935C391.279 140.828 392.861 140.564 394.409 140.147C394.993 140.036 395.556 139.828 396.076 139.532C396.076 139.359 393.631 140.089 389.647 140.243C384.461 140.464 379.301 139.367 374.616 137.048C369.931 134.73 365.863 131.259 362.763 126.939C360.373 123.632 359.428 121.209 359.243 121.305Z" fill="#FAFAFA"/>
<path d="M331.878 129.467C333.755 130.041 335.522 130.945 337.103 132.139C338.501 133.563 339.648 135.228 340.494 137.061C340.605 137.061 340.642 136.292 340.271 135.138C339.757 133.667 338.882 132.361 337.731 131.349C336.581 130.338 335.196 129.656 333.713 129.371C332.583 129.198 331.878 129.351 331.878 129.467Z" fill="#FAFAFA"/>
<path d="M292.733 140.771C293.304 140.644 293.842 140.388 294.307 140.021C295.657 139.146 296.838 138.018 297.791 136.695C299.253 134.725 300.146 132.365 300.366 129.889C300.49 128.351 300.083 126.818 299.217 125.563C298.759 124.847 298.111 124.285 297.352 123.944C296.592 123.602 295.753 123.497 294.937 123.64C294.142 123.849 293.413 124.269 292.822 124.859C292.231 125.449 291.798 126.189 291.565 127.005C291.329 127.756 291.283 128.557 291.433 129.332C291.582 130.107 291.921 130.828 292.418 131.427C293.203 132.433 294.272 133.159 295.474 133.504C296.677 133.848 297.953 133.795 299.125 133.35C300.653 132.737 301.952 131.632 302.83 130.197C303.181 129.709 303.416 129.143 303.516 128.543C303.516 128.543 303.182 129.101 302.515 129.966C301.604 131.212 300.361 132.154 298.939 132.677C297.916 133.03 296.813 133.052 295.777 132.739C294.741 132.427 293.822 131.795 293.14 130.927C292.75 130.44 292.486 129.858 292.372 129.236C292.259 128.614 292.3 127.971 292.492 127.37C292.687 126.727 293.036 126.144 293.505 125.677C293.975 125.21 294.55 124.873 295.178 124.698C295.814 124.589 296.467 124.672 297.058 124.938C297.65 125.204 298.155 125.641 298.513 126.197C299.239 127.268 299.591 128.563 299.514 129.87C299.345 132.194 298.57 134.427 297.272 136.33C296.002 138.057 294.469 139.557 292.733 140.771Z" fill="#FAFAFA"/>
<path d="M285.325 118.337C287.128 116.526 289.198 115.027 291.458 113.896C293.847 113.06 296.348 112.619 298.869 112.588C298.869 112.473 298.072 112.127 296.646 112.031C294.748 111.888 292.843 112.211 291.088 112.973C289.348 113.715 287.791 114.852 286.53 116.299C285.566 117.414 285.214 118.279 285.325 118.337Z" fill="#FAFAFA"/>
<path d="M234.372 140.714C234.372 140.714 234.483 140.81 234.724 140.944L235.836 141.56C236.836 142.06 238.318 142.752 240.301 143.482C245.897 145.611 251.795 146.761 257.754 146.885C259.746 146.928 261.736 146.728 263.683 146.289C265.839 145.832 267.847 144.813 269.519 143.329C270.409 142.498 271.124 141.484 271.618 140.353C272.112 139.221 272.375 137.996 272.391 136.753C272.417 134.117 271.544 131.557 269.927 129.524C268.058 127.497 265.674 126.06 263.051 125.379C260.428 124.699 257.673 124.803 255.104 125.679C252.335 126.479 249.803 127.985 247.739 130.061C245.674 132.136 244.143 134.714 243.284 137.561C242.458 140.422 242.35 143.455 242.969 146.372C243.589 149.289 244.915 151.993 246.823 154.23C250.525 158.191 255.311 160.876 260.533 161.92C265.169 162.843 269.875 163.338 274.596 163.401C278.666 163.477 282.724 163.889 286.731 164.631C292.563 165.619 297.857 168.751 301.646 173.456C302.941 175.252 303.908 177.278 304.499 179.435C304.524 179.289 304.524 179.139 304.499 178.993C304.499 178.705 304.369 178.262 304.203 177.724C303.704 176.115 302.966 174.598 302.016 173.225C298.253 168.31 292.878 165.004 286.916 163.939C282.884 163.133 278.794 162.677 274.688 162.574C270.022 162.488 265.372 161.973 260.792 161.036C255.764 160.014 251.155 157.425 247.582 153.614C245.787 151.502 244.54 148.949 243.96 146.197C243.38 143.445 243.485 140.585 244.266 137.888C245.073 135.204 246.512 132.772 248.453 130.812C250.394 128.851 252.776 127.424 255.382 126.659C257.778 125.858 260.343 125.768 262.785 126.4C265.228 127.032 267.451 128.36 269.204 130.236C270.703 132.094 271.517 134.445 271.501 136.869C271.499 137.995 271.27 139.108 270.829 140.137C270.389 141.167 269.747 142.09 268.945 142.848C267.353 144.264 265.44 145.237 263.386 145.674C261.502 146.117 259.575 146.33 257.643 146.309C251.743 146.242 245.891 145.21 240.301 143.252C238.337 142.54 236.836 141.906 235.817 141.464C235.354 141.177 234.871 140.926 234.372 140.714Z" fill="#FAFAFA"/>
<path d="M280.58 216.213C280.746 216.213 281.376 214.598 283.081 212.367C285.247 209.416 288.169 207.156 291.515 205.847C294.86 204.538 298.493 204.232 301.998 204.965C304.684 205.504 306.24 206.311 306.314 206.157C305.086 205.192 303.659 204.534 302.146 204.235C298.507 203.269 294.671 203.489 291.157 204.865C287.643 206.241 284.623 208.706 282.506 211.925C281.554 213.181 280.895 214.648 280.58 216.213Z" fill="#FAFAFA"/>
<path d="M258.938 230.76C259.459 232.243 260.332 233.566 261.477 234.605C264.105 237.394 267.618 239.1 271.365 239.407C275.112 239.715 278.839 238.603 281.857 236.278C283.145 235.42 284.208 234.244 284.951 232.855C284.821 232.721 283.765 234.163 281.468 235.682C278.508 237.678 275.004 238.623 271.482 238.373C267.964 238.035 264.645 236.532 262.014 234.086C259.92 232.24 259.087 230.644 258.938 230.76Z" fill="#FAFAFA"/>
<path d="M253.307 192.489C253.307 192.643 254.511 191.932 256.475 191.393C259.025 190.66 261.727 190.715 264.248 191.552C266.769 192.389 269 193.971 270.667 196.104C271.964 197.738 272.52 198.969 272.631 198.911C272.439 197.722 271.947 196.607 271.204 195.681C269.578 193.276 267.238 191.489 264.542 190.594C261.845 189.698 258.941 189.743 256.271 190.721C255.15 191.029 254.128 191.64 253.307 192.489Z" fill="#FAFAFA"/>
<path d="M184.27 174.808C184.125 175.273 184.014 175.748 183.936 176.23C183.813 176.812 183.738 177.404 183.714 177.999C183.646 178.812 183.646 179.629 183.714 180.441C183.943 185.687 185.81 190.714 189.031 194.764C191.166 197.613 193.863 199.953 196.943 201.628C200.523 203.509 204.492 204.453 208.504 204.378C213.094 204.291 217.61 203.151 221.726 201.04C225.842 198.93 229.457 195.9 232.312 192.169C233.838 190.193 234.977 187.927 235.666 185.497C236.324 183.098 236.286 180.549 235.554 178.172C234.854 175.824 233.299 173.851 231.219 172.674C229.195 171.648 226.894 171.37 224.697 171.885C222.599 172.303 220.666 173.353 219.139 174.904C217.756 176.377 216.716 178.159 216.1 180.114C215.052 183.613 215.084 187.364 216.193 190.842C217.081 193.712 218.575 196.339 220.565 198.533C222.045 200.163 223.765 201.539 225.661 202.609C226.84 203.265 228.082 203.793 229.366 204.185C229.828 204.313 230.299 204.403 230.774 204.454C229.042 203.903 227.366 203.175 225.772 202.282C221.503 199.719 218.296 195.611 216.767 190.746C215.748 187.412 215.748 183.833 216.767 180.499C217.346 178.673 218.33 177.013 219.639 175.654C221.04 174.248 222.803 173.293 224.716 172.904C226.715 172.452 228.803 172.709 230.645 173.635C232.506 174.701 233.889 176.482 234.498 178.595C235.177 180.785 235.209 183.135 234.591 185.344C233.942 187.65 232.859 189.8 231.404 191.669C228.635 195.282 225.136 198.22 221.154 200.276C217.171 202.332 212.803 203.457 208.356 203.57C204.722 203.675 201.114 202.908 197.813 201.327C194.512 199.746 191.608 197.395 189.328 194.457C186.154 190.528 184.243 185.668 183.862 180.556C183.86 178.632 183.996 176.711 184.27 174.808Z" fill="#FAFAFA"/>
<path d="M169.995 214.625C170.439 214.25 170.82 213.802 171.125 213.298C172.039 211.984 172.722 210.513 173.144 208.953C173.704 206.614 173.799 204.18 173.422 201.801C172.987 198.929 172.368 196.09 171.57 193.303C169.959 188.296 167.73 183.526 164.937 179.114C163.899 177.422 163.084 176.057 162.38 175.154C162.086 174.647 161.731 174.182 161.324 173.77C162.197 175.764 163.206 177.692 164.344 179.537C166.934 183.988 169.047 188.721 170.643 193.649C171.406 196.394 172.025 199.179 172.496 201.994C172.918 204.254 172.918 206.578 172.496 208.838C171.897 210.867 171.056 212.811 169.995 214.625Z" fill="#FAFAFA"/>
<path d="M134.893 170.385C134.638 170.812 134.45 171.28 134.337 171.769C133.922 173.053 133.612 174.372 133.411 175.71C131.986 184.7 133.972 193.912 138.951 201.416C139.677 202.544 140.495 203.605 141.396 204.588C142.045 205.28 142.415 205.645 142.471 205.607C142.527 205.569 141.23 203.896 139.525 201.031C137.31 197.284 135.701 193.186 134.763 188.9C133.863 184.607 133.657 180.189 134.152 175.826C134.467 172.461 135.06 170.442 134.893 170.385Z" fill="#FAFAFA"/>
<path d="M256.141 260.3C256.421 260.183 256.688 260.035 256.937 259.858C257.668 259.393 258.423 258.969 259.198 258.589C262.039 257.166 265.1 256.274 268.239 255.955C272.885 255.499 277.565 256.28 281.839 258.224C284.352 259.355 286.653 260.936 288.638 262.896C289.691 263.888 290.591 265.042 291.306 266.318C292.047 267.587 292.372 269.071 292.233 270.548C292.171 271.26 291.965 271.951 291.626 272.575C291.287 273.198 290.825 273.739 290.269 274.162C289.711 274.502 289.082 274.696 288.437 274.726C287.791 274.756 287.148 274.622 286.563 274.335C285.411 273.689 284.469 272.704 283.855 271.503C283.242 270.302 282.985 268.939 283.117 267.587C283.196 265.21 283.872 262.895 285.078 260.872C286.283 258.849 287.977 257.187 289.991 256.051C292.786 254.554 295.997 254.118 299.069 254.821C300.187 255.124 301.288 255.49 302.367 255.917C302.133 255.706 301.871 255.531 301.589 255.398C300.813 254.994 300 254.672 299.162 254.436C295.988 253.562 292.616 253.917 289.676 255.436C287.516 256.607 285.694 258.349 284.392 260.486C283.091 262.623 282.357 265.08 282.265 267.606C282.221 269.097 282.493 270.581 283.061 271.951C283.677 273.427 284.8 274.613 286.211 275.277C286.95 275.645 287.767 275.815 288.585 275.771C289.404 275.728 290.199 275.472 290.899 275.027C291.575 274.527 292.14 273.882 292.556 273.136C292.971 272.39 293.228 271.559 293.307 270.701C293.477 269.016 293.106 267.32 292.251 265.876C291.492 264.509 290.529 263.277 289.398 262.223C287.325 260.198 284.922 258.571 282.302 257.416C277.883 255.459 273.051 254.723 268.276 255.282C265.073 255.659 261.971 256.678 259.142 258.281C258.371 258.7 257.634 259.183 256.937 259.723C256.363 260.05 256.104 260.262 256.141 260.3Z" fill="#FAFAFA"/>
<path d="M249.431 276.201C249.886 277.81 250.648 279.307 251.672 280.604C253.136 282.892 254.489 284.622 254.711 284.449C254.255 282.84 253.493 281.343 252.469 280.046C251.005 277.777 249.653 276.047 249.431 276.201Z" fill="#FAFAFA"/>
<path d="M225.91 303.718C226.058 303.718 226.317 303.045 226.966 302.045C227.808 300.76 228.929 299.697 230.238 298.942C231.548 298.187 233.01 297.762 234.507 297.7C235.655 297.7 236.359 297.796 236.359 297.7C236.359 297.604 235.711 297.181 234.507 297.046C232.852 296.912 231.195 297.287 229.745 298.124C228.295 298.962 227.115 300.226 226.354 301.757C225.836 302.872 225.799 303.699 225.91 303.718Z" fill="#FAFAFA"/>
<path d="M302.45 293.912C302.45 294.047 304.674 295.219 308.249 297.354C312.94 300 317.194 303.408 320.848 307.447C324.433 311.547 326.761 316.66 327.537 322.136C327.718 324.422 327.681 326.721 327.426 329C327.693 328.431 327.868 327.82 327.944 327.193C328.273 325.51 328.361 323.787 328.204 322.078C327.617 316.381 325.293 311.026 321.571 306.794C317.864 302.657 313.471 299.245 308.601 296.719C306.749 295.739 305.229 295.008 304.173 294.527C303.634 294.23 303.052 294.022 302.45 293.912Z" fill="#FAFAFA"/>
<path d="M275.224 303.314C275.224 303.314 276.261 302.68 277.243 301.007C278.453 298.766 278.988 296.2 278.78 293.641C278.572 291.081 277.63 288.645 276.076 286.645C275.481 285.788 274.666 285.122 273.723 284.723C273.612 284.876 274.52 285.588 275.576 287.087C276.877 289.061 277.662 291.351 277.853 293.734C278.045 296.117 277.637 298.51 276.669 300.68C275.872 302.315 275.094 303.199 275.224 303.314Z" fill="#FAFAFA"/>
<path d="M317.768 268.47C317.768 268.47 318.102 268.047 318.843 267.355C319.942 266.402 321.278 265.789 322.697 265.586C324.942 265.243 327.232 265.733 329.163 266.97C331.675 268.699 333.772 271.001 335.295 273.699C337.148 276.622 338.667 280.14 341.02 283.562C343.513 287.274 347.093 290.052 351.229 291.484C355.836 293.076 360.857 292.774 365.255 290.638C369.994 288.367 373.696 284.271 375.575 279.217C376.547 276.631 376.658 273.782 375.89 271.123C375.046 268.55 373.335 266.379 371.072 265.009C368.944 263.615 366.422 263.012 363.921 263.298C361.546 263.651 359.33 264.744 357.566 266.432C355.956 267.968 354.677 269.839 353.812 271.923C352.947 274.006 352.515 276.256 352.545 278.525C352.624 282.457 353.823 286.277 355.991 289.503C357.747 292.158 360.035 294.388 362.698 296.04C364.688 297.28 366.824 298.249 369.053 298.924C370.456 299.339 371.886 299.648 373.333 299.847L374.463 299.981H374.87C374.378 299.835 373.877 299.726 373.37 299.655C371.945 299.381 370.54 299.008 369.164 298.54C366.989 297.821 364.909 296.819 362.976 295.559C360.421 293.911 358.235 291.715 356.565 289.119C354.516 285.99 353.396 282.307 353.341 278.525C353.334 276.381 353.759 274.26 354.589 272.296C355.418 270.333 356.634 268.571 358.159 267.124C359.789 265.57 361.838 264.571 364.032 264.259C366.327 264.005 368.637 264.56 370.591 265.836C372.644 267.105 374.2 269.087 374.982 271.431C375.677 273.885 375.566 276.509 374.667 278.89C372.865 283.69 369.347 287.581 364.847 289.753C360.67 291.802 355.893 292.105 351.507 290.599C347.53 289.253 344.08 286.61 341.669 283.062C339.353 279.775 337.76 276.256 335.87 273.315C334.259 270.553 332.051 268.216 329.422 266.49C327.383 265.232 324.977 264.775 322.641 265.201C321.179 265.431 319.814 266.099 318.713 267.124C318.326 267.513 318.006 267.968 317.768 268.47Z" fill="#FAFAFA"/>
<path d="M317.154 298.428C318.313 297.858 319.333 297.023 320.137 295.986C322.248 293.615 323.808 290.775 324.697 287.683C325.587 284.59 325.783 281.327 325.269 278.144C325.147 276.786 324.736 275.472 324.065 274.299C323.898 274.299 324.343 275.779 324.584 278.144C324.901 281.224 324.628 284.339 323.779 287.309C322.93 290.279 321.522 293.045 319.637 295.448C318.173 297.351 317.043 298.293 317.154 298.428Z" fill="#FAFAFA"/>
<path d="M310.336 254.108C310.336 254.108 311.633 253.455 314.042 252.474C322.519 248.956 331.834 248.231 340.721 250.398C343.819 251.143 346.809 252.306 349.615 253.859C350.313 254.236 350.933 254.753 351.439 255.38C351.944 256.007 352.325 256.731 352.561 257.512C352.708 258.275 352.606 259.068 352.27 259.764C351.935 260.461 351.385 261.021 350.708 261.357C350.374 261.43 350.028 261.412 349.703 261.304C349.378 261.196 349.086 261.002 348.855 260.741C348.314 260.141 347.931 259.406 347.743 258.607C347.361 256.933 347.218 255.21 347.317 253.493C347.445 250.206 348.254 246.986 349.689 244.053C350.959 241.385 352.736 239.011 354.914 237.074C356.83 235.401 359.02 234.099 361.38 233.229C364.817 231.968 368.497 231.585 372.107 232.114C374.664 232.537 376.017 233.133 376.035 233.037C375.743 232.837 375.425 232.682 375.09 232.575C370.581 230.892 365.648 230.892 361.139 232.575C358.688 233.43 356.405 234.733 354.395 236.42C352.095 238.405 350.204 240.851 348.837 243.611C347.322 246.658 346.463 250.01 346.317 253.436C346.209 255.256 346.359 257.082 346.761 258.857C347.003 259.818 347.467 260.702 348.114 261.434C348.478 261.832 348.937 262.123 349.446 262.275C349.954 262.427 350.492 262.435 351.004 262.299C351.488 262.132 351.934 261.863 352.314 261.509C352.693 261.155 352.998 260.724 353.209 260.242C353.63 259.32 353.772 258.288 353.617 257.281C353.356 256.362 352.92 255.508 352.334 254.768C351.749 254.028 351.025 253.418 350.208 252.974C347.319 251.378 344.233 250.201 341.036 249.475C335.652 248.194 330.083 247.979 324.621 248.841C320.958 249.418 317.388 250.504 314.005 252.071C313.064 252.501 312.148 252.989 311.263 253.532C310.62 253.878 310.311 254.07 310.336 254.108Z" fill="#FAFAFA"/>
<path d="M454.721 259.631C454.721 259.631 453.573 258.708 451.738 256.785C449.158 254.051 447.174 250.772 445.921 247.172C444.945 244.567 444.483 241.785 444.563 238.991C444.642 236.197 445.261 233.448 446.384 230.907C447.741 227.928 449.768 225.33 452.294 223.332C454.956 221.175 458.187 219.908 461.558 219.698C463.246 219.645 464.922 220.007 466.449 220.756C467.922 221.426 469.089 222.658 469.71 224.197C469.948 224.942 470.012 225.735 469.896 226.511C469.78 227.287 469.488 228.023 469.043 228.658C468.185 229.927 466.958 230.877 465.542 231.369C464.185 231.755 462.764 231.827 461.378 231.581C459.992 231.336 458.675 230.777 457.519 229.946C455.409 228.532 453.721 226.534 452.646 224.178C451.188 220.691 450.401 216.942 450.33 213.142C450.33 211.873 450.33 210.835 450.201 210.008C450.222 209.647 450.191 209.284 450.108 208.932C450.056 209.289 450.056 209.651 450.108 210.008C450.108 210.739 450.108 211.796 450.108 213.142C449.965 217.095 450.635 221.034 452.072 224.697C453.171 227.182 454.916 229.299 457.111 230.811C458.362 231.729 459.793 232.348 461.302 232.624C462.811 232.9 464.36 232.826 465.838 232.407C467.457 231.877 468.863 230.809 469.84 229.369C470.373 228.612 470.724 227.733 470.863 226.807C471.001 225.88 470.924 224.932 470.637 224.043C469.958 222.255 468.626 220.818 466.931 220.044C465.26 219.221 463.426 218.82 461.577 218.872C457.982 219.071 454.535 220.413 451.701 222.717C449.062 224.824 446.951 227.561 445.55 230.696C444.271 233.513 443.636 236.599 443.697 239.713C443.757 242.412 444.271 245.08 445.217 247.595C446.571 251.239 448.691 254.523 451.423 257.208C452.143 257.922 452.925 258.565 453.758 259.131C454.388 259.477 454.703 259.669 454.721 259.631Z" fill="#FAFAFA"/>
<path d="M416.321 288.24C416.879 287.789 417.367 287.25 417.766 286.645C418.982 285.089 420.049 283.415 420.953 281.646C424.004 275.775 425.398 269.131 424.975 262.476C424.552 255.821 422.33 249.424 418.563 244.02C417.467 242.397 416.226 240.885 414.857 239.502C414.356 238.977 413.789 238.524 413.171 238.156C413.042 238.31 415.358 240.348 418.026 244.482C421.546 249.858 423.619 256.112 424.033 262.597C424.447 269.083 423.185 275.566 420.379 281.377C419.145 283.738 417.79 286.029 416.321 288.24Z" fill="#FAFAFA"/>
<path d="M380.11 246.419C380.277 246.419 381.055 243.536 383.353 239.287C386.322 233.747 390.532 229.031 395.627 225.534C400.722 222.037 406.552 219.863 412.626 219.195C417.295 218.657 420.223 219.08 420.223 218.888C419.562 218.673 418.877 218.55 418.185 218.522C416.335 218.365 414.476 218.365 412.626 218.522C406.383 219.007 400.363 221.143 395.141 224.728C389.919 228.312 385.669 233.225 382.797 238.998C381.921 240.722 381.196 242.524 380.629 244.382C380.367 245.033 380.192 245.719 380.11 246.419Z" fill="#FAFAFA"/>
<g opacity="0.3">
<path opacity="0.3" d="M329.471 300.235C331.324 301.024 331.083 303.946 329.601 305.215C327.958 306.324 325.978 306.762 324.043 306.445C313.147 305.81 302.536 302.597 293.021 297.052C283.506 291.507 275.339 283.777 269.145 274.453C285.82 288.7 307.868 294.102 329.008 299.063" fill="black"/>
</g>
<g opacity="0.3">
<path opacity="0.3" d="M332.787 280.623C334.64 277.72 333.38 273.644 330.934 271.183C328.374 268.955 325.483 267.169 322.375 265.896C311.383 260.231 302.575 250.854 297.399 239.306C294.027 231.731 291.489 222.445 284.022 219.33C286.103 232.7 291.628 245.237 300.014 255.614C308.399 265.991 319.333 273.822 331.657 278.277" fill="black"/>
</g>
<g opacity="0.3">
<path opacity="0.3" d="M385.372 180.939C383.503 201.984 384.942 223.204 389.633 243.77C390.857 248.078 391.548 252.529 391.689 257.017C391.537 259.417 390.912 261.758 389.854 263.897C388.797 266.037 387.328 267.929 385.538 269.457C382.463 262.093 382.407 254.998 381.11 247.077C379.943 239.944 377.979 223.275 377.979 223.025C377.701 208.452 381.018 195.955 386.428 182.824" fill="black"/>
</g>
<g opacity="0.3">
<path opacity="0.3" d="M350.463 117.815C347.687 133.342 340.363 147.603 329.49 158.651C325.396 162.785 320.226 166.611 314.575 166.342C317.862 159.311 318.869 151.367 317.447 143.694C312.637 147.068 307.525 149.952 302.18 152.307C296.796 154.638 290.877 155.305 285.135 154.229L281.615 122.449C281.362 121.251 281.472 120.002 281.93 118.873C282.06 118.605 282.244 118.371 282.47 118.185C282.696 117.999 282.959 117.867 283.239 117.798C283.52 117.728 283.811 117.723 284.094 117.782C284.377 117.842 284.643 117.965 284.876 118.142C285.178 118.552 285.376 119.035 285.45 119.545C287.525 128.87 288.692 137.234 290.786 146.577C292.287 148.115 296.9 147.481 299.939 146.308C302.588 145.289 303.644 143.021 305.349 140.733C307.053 138.445 306.794 138.81 309.388 137.695C314.168 135.599 323.339 137.272 325.34 141.713C327.341 146.154 325.822 152.018 324.488 156.402C337.842 147.364 347.478 133.493 351.52 117.488" fill="black"/>
</g>
<g opacity="0.3">
<path opacity="0.3" d="M249.431 162.914C249.802 163.683 237.889 205.365 237.889 205.365L253.322 196.233L249.431 162.914Z" fill="black"/>
</g>
<path d="M345.329 42.0486V108.398C345.315 112.199 344.002 115.871 341.624 118.761C338.015 123.214 333.658 126.953 328.766 129.797L315.796 137.353L305.124 127.451C303.574 126.012 302.318 124.265 301.43 122.313C300.542 120.362 300.04 118.245 299.955 116.088C299.77 111.243 299.788 106.475 299.788 106.475C299.788 106.475 281.705 105.13 280.001 86.634C279.204 77.9053 278.945 60.0635 278.908 43.6252C278.834 34.5136 282.094 25.7122 288.029 18.9968C293.964 12.2814 302.132 8.15192 310.887 7.4416H311.387C315.823 7.33081 320.236 8.14567 324.364 9.83783C328.491 11.53 332.249 14.065 335.414 17.2925C338.58 20.5201 341.089 24.3744 342.792 28.6269C344.495 32.8794 345.358 37.4435 345.329 42.0486Z" fill="#FFBE9D"/>
<path d="M299.942 106.326C308.181 105.591 316.045 102.422 322.602 97.1934C322.602 97.1934 317.933 111.228 299.979 111.094L299.942 106.326Z" fill="#EB996E"/>
<path d="M284.339 55.3676C284.387 56.0578 284.693 56.7014 285.191 57.1611C285.689 57.6209 286.341 57.8604 287.007 57.8285C287.333 57.8261 287.655 57.7561 287.955 57.6227C288.254 57.4892 288.525 57.295 288.751 57.0514C288.977 56.8077 289.154 56.5197 289.272 56.2041C289.389 55.8886 289.444 55.5518 289.434 55.2138C289.387 54.5235 289.081 53.8799 288.583 53.4202C288.084 52.9604 287.433 52.721 286.766 52.7528C286.44 52.7526 286.116 52.8208 285.816 52.9533C285.515 53.0858 285.243 53.28 285.017 53.5242C284.79 53.7683 284.613 54.0574 284.497 54.3742C284.38 54.6909 284.327 55.0288 284.339 55.3676Z" fill="#263238"/>
<path d="M283.622 50.9549C283.955 51.2625 285.771 49.6091 288.513 49.3783C291.255 49.1476 293.386 50.4166 293.645 50.032C293.905 49.6475 293.423 49.2822 292.478 48.6862C291.227 47.9389 289.784 47.61 288.346 47.7441C286.916 47.8578 285.559 48.444 284.474 49.4168C283.677 50.1666 283.474 50.8011 283.622 50.9549Z" fill="#263238"/>
<path d="M310.208 54.027C310.256 54.7172 310.561 55.3608 311.06 55.8205C311.558 56.2803 312.21 56.5197 312.876 56.4879C313.203 56.4854 313.526 56.4155 313.826 56.2823C314.127 56.1491 314.399 55.9551 314.626 55.7118C314.854 55.4685 315.033 55.1806 315.152 54.865C315.271 54.5493 315.329 54.2121 315.322 53.8731C315.269 53.1847 314.963 52.544 314.465 52.0852C313.968 51.6264 313.319 51.3852 312.654 51.4122C312.326 51.412 312.002 51.4801 311.7 51.6125C311.399 51.7448 311.126 51.9386 310.898 52.1825C310.669 52.4264 310.491 52.7153 310.372 53.0321C310.254 53.349 310.198 53.6873 310.208 54.027Z" fill="#263238"/>
<path d="M310.617 49.1604C310.969 49.4681 312.785 47.8338 315.527 47.6031C318.269 47.3724 320.382 48.6221 320.659 48.2376C320.937 47.8531 320.419 47.4878 319.492 46.8918C318.239 46.1276 316.791 45.7787 315.342 45.892C313.914 46.0135 312.559 46.5987 311.47 47.5647C310.692 48.3722 310.451 49.0066 310.617 49.1604Z" fill="#263238"/>
<path d="M302.352 71.1143C300.87 70.76 299.351 70.6049 297.831 70.6529C297.127 70.6529 296.441 70.6529 296.293 70.0761C296.172 69.3312 296.276 68.5659 296.589 67.8843C297.108 65.9617 297.646 64.1544 298.22 62.1165C300.462 53.9838 301.925 47.3316 301.703 47.2354C301.481 47.1393 299.313 53.657 297.071 61.7896C296.534 63.7122 296.015 65.6348 295.533 67.5574C295.156 68.4702 295.104 69.4922 295.385 70.4414C295.513 70.6851 295.69 70.8972 295.904 71.0631C296.119 71.229 296.365 71.3449 296.627 71.4027C297.026 71.4568 297.431 71.4568 297.831 71.4027C299.343 71.4927 300.861 71.3959 302.352 71.1143Z" fill="#263238"/>
<path d="M310.573 72.392C310.129 72.392 310.37 75.5067 307.998 77.9099C305.627 80.3132 302.44 80.2555 302.44 80.6785C302.44 81.1015 303.181 81.236 304.533 81.1591C306.28 81.0339 307.927 80.2711 309.184 79.0058C310.392 77.7913 311.096 76.1362 311.148 74.3916C311.166 73.1034 310.777 72.3536 310.573 72.392Z" fill="#263238"/>
<path d="M309.021 38.0729C309.355 38.8227 312.06 38.2267 315.302 38.3421C318.544 38.4575 321.231 39.1496 321.601 38.3421C321.768 37.996 321.268 37.3039 320.156 36.6502C318.682 35.849 317.051 35.4082 315.388 35.3616C313.724 35.3149 312.073 35.6636 310.559 36.381C309.41 37.054 308.873 37.7076 309.021 38.0729Z" fill="#263238"/>
<path d="M283.966 42.6207C284.503 43.2167 286.338 42.39 288.598 42.1593C290.858 41.9286 292.822 42.1593 293.211 41.5248C293.397 41.1788 293.026 40.5443 292.137 40.006C290.955 39.3804 289.621 39.1307 288.303 39.288C286.984 39.4453 285.74 40.0027 284.726 40.8904C283.929 41.6209 283.725 42.3131 283.966 42.6207Z" fill="#263238"/>
<path d="M324.34 23.3408H324.451C327.506 25.4499 329.646 28.7127 330.417 32.4348V32.8193C331.547 38.0296 331.844 43.4129 333.011 48.6232C334.178 53.8335 333.956 57.8133 338.996 58.9861C340.313 59.2881 341.687 59.1687 342.937 58.6435C344.188 58.1183 345.255 57.2121 345.999 56.0445C346.364 55.2823 346.524 54.4322 346.462 53.5835C346.462 40.7405 348.871 35.7609 347.796 22.4372C347.657 20.6507 347.111 18.9241 346.203 17.3997C345.294 15.8754 344.05 14.597 342.571 13.6701C339.718 11.9013 336.272 10.094 333.308 11.7475C330.343 13.4009 327.008 19.611 324.896 22.2834" fill="#263238"/>
<path d="M340.004 50.8676C340.282 50.7138 351.954 46.0611 352.584 58.7504C353.214 71.4396 340.782 69.4785 340.745 69.1133C340.708 68.748 340.004 50.8676 340.004 50.8676Z" fill="#FFBE9D"/>
<path d="M344.247 64.0988C344.247 64.0988 344.47 64.2526 344.84 64.4064C345.093 64.5153 345.363 64.5714 345.637 64.5714C345.91 64.5714 346.181 64.5153 346.434 64.4064C347.203 63.845 347.813 63.0798 348.201 62.1905C348.589 61.3012 348.74 60.3203 348.638 59.3499C348.62 58.2587 348.36 57.1864 347.879 56.2161C347.745 55.8252 347.522 55.4739 347.228 55.1925C346.934 54.9112 346.579 54.7082 346.193 54.6011C345.945 54.5496 345.688 54.5885 345.466 54.7111C345.243 54.8338 345.068 55.0326 344.97 55.274C344.822 55.6393 344.97 55.8892 344.859 55.9085C344.748 55.9277 344.581 55.7162 344.655 55.1971C344.702 54.8747 344.86 54.581 345.1 54.3704C345.256 54.2282 345.438 54.1208 345.636 54.0547C345.833 53.9885 346.042 53.9651 346.248 53.9858C346.766 54.0658 347.254 54.2855 347.664 54.6229C348.073 54.9604 348.39 55.4037 348.583 55.9085C349.15 56.9831 349.461 58.1828 349.491 59.4076C349.606 60.5346 349.398 61.6717 348.894 62.6769C348.39 63.6822 347.611 64.5111 346.656 65.0601C346.332 65.173 345.989 65.2109 345.649 65.1711C345.31 65.1312 344.983 65.0146 344.692 64.8294C344.284 64.4064 344.21 64.1372 344.247 64.0988Z" fill="#EB996E"/>
<path d="M334.02 13.6706C336.632 8.34499 327.813 1.78888 321.643 0.32769C315.474 -1.1335 307.766 2.6156 301.93 5.19191C298.224 6.8069 294.63 9.03713 290.647 9.03713C287.965 8.9867 285.306 8.52674 282.754 7.67207C280.192 6.80759 277.489 6.4872 274.805 6.72999C273.448 6.87453 272.155 7.40518 271.07 8.26347C269.985 9.12176 269.149 10.2743 268.654 11.5942C268.451 12.2543 268.388 12.9523 268.47 13.64C268.552 14.3276 268.777 14.9886 269.13 15.5773C269.482 16.1659 269.953 16.6682 270.511 17.0494C271.069 17.4305 271.699 17.6815 272.36 17.785C271.47 17.3724 270.498 17.1899 269.526 17.2532C268.553 17.3164 267.61 17.6235 266.778 18.148C265.945 18.6726 265.247 19.399 264.744 20.2649C264.242 21.1308 263.949 22.1104 263.891 23.1195C263.834 24.1286 264.013 25.1372 264.413 26.0587C264.814 26.9802 265.424 27.7871 266.191 28.4101C266.958 29.0331 267.86 29.4537 268.818 29.6358C269.776 29.8178 270.763 29.7559 271.693 29.4553C269.84 28.2248 267.357 30.705 267.765 32.9352C268.086 34.0198 268.674 34.9993 269.469 35.7778C270.265 36.5563 271.242 37.1071 272.304 37.3764C277.585 39.299 283.421 38.0109 288.571 35.723C293.722 33.4351 298.354 30.1474 303.394 27.7249C308.433 25.3024 316.919 20.9958 322.31 22.4762C326.294 23.5529 329.351 28.1479 331.444 26.879C332.422 26.2277 333.237 25.3472 333.826 24.3086C334.415 23.27 334.761 22.1023 334.835 20.8996C334.942 18.4727 334.666 16.044 334.02 13.7091" fill="#263238"/>
<path d="M270.814 17.5753C270.907 17.5753 271.518 18.4405 272.945 19.8055C274.981 21.7122 277.436 23.072 280.096 23.7661C284.003 24.8592 288.166 24.3209 291.695 22.2665C295.678 19.9978 298.92 15.8257 302.719 11.8267C306.218 7.82535 310.816 5.03384 315.892 3.82862C318.001 3.37181 320.182 3.42193 322.27 3.97512C324.357 4.52832 326.295 5.56992 327.935 7.02016C328.993 8.03385 329.841 9.26077 330.427 10.626C331.013 11.9912 331.325 13.4661 331.344 14.9606C331.346 15.7616 331.233 16.5585 331.01 17.3254C330.941 17.5992 330.828 17.8592 330.677 18.0944C330.826 17.0637 330.895 16.022 330.881 14.9798C330.67 12.1614 329.407 9.53991 327.36 7.67385C325.802 6.38196 323.985 5.46803 322.042 4.99898C320.1 4.52993 318.08 4.51762 316.133 4.96296C311.308 6.16288 306.944 8.84273 303.608 12.6534C299.902 16.4986 296.549 20.8245 292.269 23.2086C289.111 24.9351 285.502 25.5643 281.973 25.0036C278.445 24.443 275.182 22.722 272.667 20.0939C272.131 19.4991 271.647 18.8557 271.222 18.1713C270.907 17.8445 270.777 17.5945 270.814 17.5753Z" fill="#455A64"/>
<path d="M343.064 50.0702C343.064 50.0702 342.508 49.7626 341.97 48.8013C341.246 47.4119 340.906 45.8414 340.988 44.2639C340.988 40.1495 344.064 35.4776 344.064 29.8059C344.16 27.1754 343.474 24.5781 342.1 22.3654C340.911 20.6089 339.189 19.3161 337.209 18.6932C335.88 18.247 334.463 18.1675 333.096 18.4625C332.114 18.7124 331.614 19.0008 331.558 18.9047C331.502 18.8085 331.966 18.4048 332.947 18.001C334.391 17.4774 335.954 17.4171 337.431 17.828C339.658 18.4023 341.622 19.7615 342.989 21.6732C344.566 24.0613 345.359 26.9133 345.25 29.8059C345.156 32.6152 344.572 35.3835 343.527 37.977C342.692 39.9914 342.119 42.112 341.822 44.2831C341.656 46.2985 342.089 48.3185 343.064 50.0702Z" fill="#455A64"/>
<path d="M185.924 426.568C257.755 446.294 326.993 444.795 402.456 426.568L411.312 283.372C333.33 299.118 255.05 297.119 185.961 279.988L185.924 426.568Z" fill="#144EF4"/>
<g opacity="0.8">
<path opacity="0.8" d="M185.924 426.572C257.755 446.298 326.993 444.799 402.456 426.572L411.312 283.376C333.33 299.122 255.05 297.123 185.961 279.992L185.924 426.572Z" fill="white"/>
</g>
<path d="M197.06 404.758C197.203 404.857 197.359 404.934 197.523 404.989L198.876 405.585C200.08 406.084 201.822 406.892 204.137 407.757C210.651 410.27 217.287 412.426 224.018 414.217C246.289 420.021 269.203 422.736 292.162 422.292C315.094 421.814 337.944 419.28 360.455 414.717C369.108 413.006 376.056 411.429 380.836 410.276C383.226 409.718 385.078 409.238 386.394 408.911L387.821 408.526C388.136 408.43 388.302 408.372 388.284 408.353H387.784L386.338 408.642L380.78 409.814C375.981 410.853 368.996 412.333 360.4 413.929C337.902 418.284 315.099 420.721 292.218 421.215C269.335 421.667 246.491 419.083 224.24 413.525C215.736 411.295 208.955 409.064 204.323 407.353C201.988 406.565 200.228 405.815 199.005 405.431L197.616 404.931C197.444 404.833 197.255 404.774 197.06 404.758Z" fill="#144EF4"/>
<path d="M302.615 410.573C311.714 413.134 321.344 412.799 330.258 409.612V358.663C321.137 356.74 311.736 356.74 302.615 358.663V410.573Z" fill="#144EF4"/>
<path d="M257.962 407.55C257.975 407.416 257.975 407.281 257.962 407.146C257.962 406.858 257.962 406.493 257.962 406.051C257.962 405.012 257.962 403.59 258.092 401.782C258.092 398.033 258.258 392.669 258.388 385.959C258.573 372.501 258.851 353.525 259.166 331.588L258.796 332.049C268.248 330.135 277.968 330.135 287.421 332.049L287.032 331.569V332.568C286.735 362.676 286.457 389.881 286.272 409.3L286.55 408.954C282.583 409.849 278.546 410.364 274.488 410.492C271.438 410.547 268.39 410.283 265.391 409.704C263.508 409.328 261.651 408.82 259.833 408.185L258.444 407.685C258.278 407.609 258.104 407.557 257.925 407.531L258.369 407.742L259.778 408.377C261.587 409.089 263.445 409.661 265.336 410.088C268.352 410.738 271.426 411.054 274.507 411.03C278.604 410.979 282.687 410.516 286.698 409.646H286.958V409.261C287.236 389.843 287.606 362.657 288.014 332.549V331.107H287.606C278.04 329.144 268.195 329.144 258.629 331.107L258.258 331.203V331.588C258.092 353.621 257.962 372.636 257.851 386.209C257.851 392.881 257.851 398.206 257.851 401.955C257.851 403.724 257.851 405.108 257.851 406.127C257.851 406.55 257.851 406.916 257.851 407.204C257.851 407.492 257.943 407.55 257.962 407.55Z" fill="#144EF4"/>
<path d="M215.457 401.587C222.868 405.74 232.595 406.297 243.119 405.663V321.491C234.028 319.222 224.548 319.222 215.457 321.491V401.587Z" fill="#144EF4"/>
<path d="M346.465 406.429C346.465 406.429 346.465 405.641 346.558 404.256C346.651 402.872 346.558 400.815 346.669 398.373C346.669 393.259 346.799 386.165 346.873 377.724L346.614 378.128C355.054 374.58 364.145 373.011 373.238 373.533L372.793 373.033C372.793 383.55 372.793 393.374 372.793 401.738L373.034 401.353C369.596 402.799 366.018 403.856 362.362 404.506C359.083 405.122 356.211 405.468 353.821 405.718L348.263 406.198C347.604 406.237 346.948 406.314 346.299 406.429C346.952 406.475 347.609 406.475 348.263 406.429C349.559 406.429 351.431 406.429 353.821 406.179C356.211 405.929 359.12 405.718 362.418 405.16C366.149 404.575 369.804 403.549 373.312 402.103L373.553 401.988V401.699C373.553 393.336 373.553 383.511 373.553 372.995V372.533H373.071C363.834 371.996 354.599 373.633 346.058 377.321L345.78 377.417V377.724C345.78 386.28 345.947 393.471 346.002 398.662C346.002 401.065 346.002 402.988 346.113 404.43C346.174 405.105 346.292 405.775 346.465 406.429Z" fill="#144EF4"/>
<path d="M333.491 331.963C335.279 332.261 337.091 332.377 338.901 332.309C342.255 332.309 346.887 332.309 351.982 331.983C357.077 331.656 361.672 331.175 364.951 330.714C366.757 330.564 368.545 330.23 370.287 329.714C368.485 329.668 366.682 329.771 364.896 330.021C361.561 330.291 356.966 330.675 351.926 330.983C346.887 331.29 342.236 331.483 338.957 331.598C337.129 331.576 335.302 331.698 333.491 331.963Z" fill="#144EF4"/>
<path d="M337.627 338.225C339.204 338.388 340.793 338.388 342.37 338.225C345.298 338.071 349.337 337.802 353.802 337.456C358.267 337.11 362.306 336.725 365.215 336.398C366.797 336.32 368.368 336.075 369.902 335.668C368.325 335.504 366.736 335.504 365.159 335.668C362.213 335.822 358.193 336.091 353.728 336.437C349.263 336.783 345.242 337.167 342.333 337.494C340.745 337.577 339.169 337.822 337.627 338.225Z" fill="#144EF4"/>
<path d="M327.517 346.44C327.517 346.44 327.517 345.786 327.517 344.651C327.517 343.517 327.424 341.768 327.331 339.691C327.146 335.346 326.868 329.232 326.516 321.715L326.164 322.118C343.272 322.28 360.372 321.291 377.356 319.158L376.819 318.696V319.465V320.273L376.911 321.888C376.911 322.964 377.023 324.041 377.097 325.099C377.208 327.233 377.319 329.328 377.449 331.385C377.69 335.519 377.912 339.518 378.134 343.344L378.523 342.844C363.701 344.767 350.936 345.536 341.876 345.901L331.259 346.228L328.48 346.324H327.461C327.769 346.352 328.079 346.352 328.387 346.324C329.017 346.324 330.018 346.324 331.259 346.42C333.742 346.42 337.355 346.42 341.894 346.42C350.973 346.228 363.794 345.536 378.634 343.709H379.061V343.248C378.857 339.403 378.634 335.423 378.412 331.289C378.301 329.232 378.19 327.136 378.06 325.002L377.893 321.792V320.177V319.369V318.6L377.356 318.139C360.343 320.263 343.225 321.348 326.09 321.388H325.719V321.772C326.22 329.348 326.627 335.538 326.924 339.922C327.072 341.96 327.202 343.594 327.294 344.786C327.316 345.343 327.391 345.897 327.517 346.44Z" fill="#144EF4"/>
<path d="M321.188 357.221C322.605 355.692 323.808 353.964 324.764 352.088C325.986 350.382 326.913 348.47 327.506 346.436C326.089 347.965 324.885 349.693 323.93 351.569C322.708 353.275 321.781 355.187 321.188 357.221Z" fill="#144EF4"/>
<path d="M621.342 170.867L597.867 318.293C597.867 318.293 562.016 387.93 466.784 403.619L482.144 272.035C482.144 272.035 570.224 243.734 621.342 170.867Z" fill="#144EF4"/>
<g opacity="0.8">
<path opacity="0.8" d="M621.342 170.867L597.867 318.293C597.867 318.293 562.016 387.93 466.784 403.619L482.144 272.035C482.144 272.035 570.224 243.734 621.342 170.867Z" fill="white"/>
</g>
<path d="M479.077 393.077L479.669 392.923L481.522 392.404L488.229 390.27C491.138 389.308 494.751 388.347 498.771 386.617L505.238 384.06C507.554 383.156 509.981 382.137 512.445 380.983C517.392 378.638 522.894 376.215 528.49 372.947C534.085 369.678 540.051 366.16 546.128 362.142C559.233 353.212 571.133 342.512 581.516 330.323C586.381 324.643 590.659 318.45 594.281 311.846L605.027 239.748C606.324 230.75 607.38 223.541 608.103 218.484L608.881 212.716L609.066 211.236C609.087 211.064 609.087 210.889 609.066 210.717C609.008 210.878 608.971 211.046 608.955 211.217L608.677 212.697L607.732 218.465C606.936 223.502 605.88 230.712 604.379 239.614C601.6 257.725 597.709 282.949 593.262 311.654V311.519C589.662 318.039 585.428 324.159 580.627 329.784C570.283 341.909 558.448 352.568 545.424 361.488C539.384 365.526 533.622 369.313 527.915 372.332C522.209 375.35 516.891 378.099 511.963 380.445C509.517 381.695 507.09 382.675 504.811 383.579L498.401 386.194C494.417 387.943 490.823 388.981 487.951 390.039L481.3 392.346L479.577 392.961C479.407 392.982 479.239 393.021 479.077 393.077Z" fill="#144EF4"/>
<path d="M487.442 350.281C487.442 350.281 487.442 350.396 487.757 350.589L488.776 351.435L492.722 354.626L507.655 366.527L507.878 366.719L508.063 366.45C513.103 359.24 519.309 350.32 526.35 340.187L525.794 340.284L539.819 350.666L540.283 351.012L540.486 350.435C546.045 335.054 552.103 317.75 558.569 299.543L561.163 292.218H560.292L571.706 315.751L572.206 316.77L572.558 315.693C582.507 285.97 590.937 260.707 596.421 244.307H595.921C597.422 250.882 598.608 256.054 599.423 259.688C599.83 261.418 600.164 262.764 600.386 263.725L600.646 264.763C600.671 264.885 600.715 265.002 600.775 265.109V264.744C600.775 264.475 600.664 264.129 600.59 263.706L599.756 259.63C598.997 255.996 597.904 250.805 596.495 244.249L596.292 243.326L595.977 244.23C590.418 260.591 581.84 285.797 571.743 315.463H572.595L561.2 291.93L560.7 290.892L560.311 291.968L557.717 299.293C551.288 317.52 545.174 334.804 539.727 350.223L540.394 350.012L526.313 339.707L525.998 339.476L525.757 339.803L507.655 366.104H508.082L492.944 354.434L488.905 351.358L487.849 350.589L487.442 350.281Z" fill="#144EF4"/>
<path d="M490.725 279.596C491.407 279.525 492.079 279.37 492.726 279.135C493.986 278.77 495.82 278.193 498.043 277.424C503.833 275.415 509.516 273.092 515.07 270.464C520.662 267.849 526.122 264.942 531.43 261.755C533.45 260.524 535.136 259.486 536.173 258.736C536.77 258.391 537.324 257.971 537.822 257.486C537.171 257.716 536.549 258.026 535.97 258.409L531.078 261.139C526.947 263.427 521.184 266.503 514.663 269.56C508.141 272.617 502.119 275.059 497.728 276.77C495.672 277.539 494.023 278.212 492.522 278.693C491.887 278.908 491.282 279.212 490.725 279.596Z" fill="#144EF4"/>
<path d="M486.949 285.699C488.508 285.612 490.051 285.328 491.544 284.853C495.199 283.937 498.804 282.82 502.345 281.508C505.884 280.191 509.353 278.683 512.739 276.99C514.176 276.369 515.538 275.575 516.797 274.625C515.297 275.062 513.84 275.641 512.443 276.355C509.793 277.49 506.125 279.028 502.012 280.566C497.899 282.104 494.119 283.315 491.358 284.18C489.847 284.545 488.371 285.054 486.949 285.699Z" fill="#144EF4"/>
<path d="M524.457 340.221C524.457 341.451 525.179 342.432 526.069 342.432C526.958 342.432 527.662 341.451 527.662 340.221C527.662 338.99 526.94 338.01 526.069 338.01C525.198 338.01 524.457 339.01 524.457 340.221Z" fill="#144EF4"/>
<path d="M560.903 295.836C560.023 295.836 559.309 294.846 559.309 293.625C559.309 292.404 560.023 291.414 560.903 291.414C561.783 291.414 562.496 292.404 562.496 293.625C562.496 294.846 561.783 295.836 560.903 295.836Z" fill="#144EF4"/>
<path d="M594.497 245.006C594.497 246.217 595.219 247.217 596.09 247.217C596.961 247.217 597.684 246.217 597.684 245.006C597.684 243.795 596.98 242.795 596.09 242.795C595.201 242.795 594.497 243.795 594.497 245.006Z" fill="#144EF4"/>
<path d="M0.000442505 197.086L11.7655 346.857C11.7655 346.857 46.1713 410.9 140.811 413.341L129.12 262.551C129.12 262.551 46.5419 259.071 0.000442505 197.086Z" fill="#144EF4"/>
<path d="M1.84738 189.285C4.92297 178.922 12.4081 164.137 30.1947 161.061L51.168 362.512C51.168 362.512 11.6855 354.341 10.6295 331.885C10.5368 329.962 2.64404 229.813 0.661579 204.992C0.0642548 199.726 0.467129 194.39 1.84738 189.285Z" fill="#144EF4"/>
<g opacity="0.8">
<path opacity="0.8" d="M0.000442505 197.088L11.7655 346.859C11.7655 346.859 46.1713 410.902 140.811 413.343L129.12 262.553C129.12 262.553 46.5419 259.073 0.000442505 197.088Z" fill="white"/>
</g>
<path d="M2.86485 235.27C12.3362 249.54 17.5727 266.376 17.9278 283.7C18.0205 288.68 17.7426 293.813 19.5768 298.408C21.4111 303.003 26.1541 306.848 30.6934 305.541C35.2327 304.234 37.6783 298.235 41.9026 295.467C43.8504 294.335 46.0545 293.765 48.2863 293.816C50.518 293.866 52.6959 294.536 54.5941 295.755C58.3677 298.266 61.2846 301.945 62.9315 306.272C66.3591 314.481 66.637 323.748 69.1197 332.304C71.6024 340.859 77.8648 349.492 86.4987 349.876C89.6484 350.011 92.761 349.031 95.9107 349.127C102.562 349.338 108.343 354.472 111.437 360.662C114.531 366.853 115.476 373.794 116.365 380.638C116.365 380.638 65.933 385.637 9.33105 316.269L2.86485 235.27Z" fill="#144EF4"/>
<path d="M83.038 326.117C83.038 328.039 83.9273 329.481 85.0204 329.481C86.1136 329.481 86.9844 327.981 86.9844 326.117C86.9844 324.252 86.1136 322.752 85.0204 322.752C83.9273 322.752 83.038 324.271 83.038 326.117Z" fill="#144EF4"/>
<path d="M59.2899 263.865C59.2899 265.787 60.1793 267.229 61.2724 267.229C62.3655 267.229 63.2363 265.71 63.2363 263.865C63.2363 262.019 62.3655 260.5 61.2724 260.5C60.1793 260.5 59.2899 262 59.2899 263.865Z" fill="#144EF4"/>
<path d="M4.00083 242.502C4.0788 242.794 4.18427 243.077 4.31577 243.348L5.3904 245.79C6.3909 247.962 7.78046 251.038 9.54058 254.922L24.585 287.433L24.7889 287.876L25.1965 287.606L60.8622 264.189L60.1581 263.958C60.6213 265.15 61.1401 266.438 61.6403 267.804L84.6702 326.27L84.837 326.674L85.189 326.462C94.0823 321.271 101.345 317.099 106.385 314.254C108.923 312.831 110.887 311.735 112.239 311.024L113.777 310.255L114.314 310.005C111.488 310.991 108.769 312.28 106.199 313.85C101.086 316.58 93.7858 320.656 84.837 325.77L85.3557 325.963L62.5297 267.342C62.0294 266.054 61.5107 264.766 61.0475 263.497L60.8251 262.939L60.3434 263.266L24.7333 286.799L25.3447 286.972C19.0267 273.648 13.7279 262.516 9.98528 254.634L5.55715 245.655L4.37135 243.29C4.26893 243.017 4.14503 242.754 4.00083 242.502Z" fill="#144EF4"/>
</svg>
