<svg width="1915" height="993" viewBox="0 0 1915 993" fill="none" xmlns="http://www.w3.org/2000/svg">
<g opacity="0.1">
<path d="M601.797 53.5742H72.4805V999.678H601.797V53.5742Z" fill="#407BFF"/>
<path opacity="0.4" d="M505.587 53.5742H72.4805V999.678H505.587V53.5742Z" fill="white"/>
<path d="M608.039 53.5742H61.084V68.995H608.039V53.5742Z" fill="#407BFF"/>
<path d="M608.039 22.6738H61.084V38.1435H608.039V22.6738Z" fill="#407BFF"/>
<path d="M596.559 38.1504H72.4805V53.5713H596.559V38.1504Z" fill="#F0F0F0"/>
<path d="M194.933 109.289H113.582V183.799H194.933V109.289Z" fill="#407BFF"/>
<path opacity="0.2" d="M194.933 109.289H120.744V183.799H194.933V109.289Z" fill="white"/>
<path d="M318.14 109.289H236.789V183.799H318.14V109.289Z" fill="#407BFF"/>
<path opacity="0.2" d="M318.128 109.289H243.939V183.799H318.128V109.289Z" fill="white"/>
<path d="M441.285 109.289H359.934V183.799H441.285V109.289Z" fill="#407BFF"/>
<path opacity="0.2" d="M441.273 109.289H367.084V183.799H441.273V109.289Z" fill="white"/>
<path d="M194.933 218.988H113.582V293.498H194.933V218.988Z" fill="#407BFF"/>
<path opacity="0.2" d="M194.933 218.988H120.744V293.498H194.933V218.988Z" fill="white"/>
<path d="M318.14 218.988H236.789V293.498H318.14V218.988Z" fill="#407BFF"/>
<path opacity="0.2" d="M318.128 218.988H243.939V293.498H318.128V218.988Z" fill="white"/>
<path d="M441.285 218.988H359.934V293.498H441.285V218.988Z" fill="#407BFF"/>
<path opacity="0.2" d="M441.273 218.988H367.084V293.498H441.273V218.988Z" fill="white"/>
<path d="M194.933 419.855H113.582V494.365H194.933V419.855Z" fill="#407BFF"/>
<path opacity="0.2" d="M194.933 419.855H120.744V494.365H194.933V419.855Z" fill="white"/>
<path d="M318.14 419.855H236.789V494.365H318.14V419.855Z" fill="#407BFF"/>
<path opacity="0.2" d="M318.128 419.855H243.939V494.365H318.128V419.855Z" fill="white"/>
<path d="M441.285 419.855H359.934V494.365H441.285V419.855Z" fill="#407BFF"/>
<path opacity="0.2" d="M441.273 419.855H367.084V494.365H441.273V419.855Z" fill="white"/>
<path d="M194.933 529.566H113.582V604.076H194.933V529.566Z" fill="#407BFF"/>
<path opacity="0.2" d="M194.933 529.566H120.744V604.076H194.933V529.566Z" fill="white"/>
<path d="M318.14 529.566H236.789V604.076H318.14V529.566Z" fill="#407BFF"/>
<path opacity="0.2" d="M318.128 529.566H243.939V604.076H318.128V529.566Z" fill="white"/>
<path d="M441.285 529.566H359.934V604.076H441.285V529.566Z" fill="#407BFF"/>
<path opacity="0.2" d="M441.273 529.566H367.084V604.076H441.273V529.566Z" fill="white"/>
<path d="M194.933 752.846H113.582V827.355H194.933V752.846Z" fill="#407BFF"/>
<path opacity="0.2" d="M194.933 752.846H120.744V827.355H194.933V752.846Z" fill="white"/>
<path d="M318.14 752.846H236.789V827.355H318.14V752.846Z" fill="#407BFF"/>
<path opacity="0.2" d="M318.128 752.846H243.939V827.355H318.128V752.846Z" fill="white"/>
<path d="M441.285 752.846H359.934V827.355H441.285V752.846Z" fill="#407BFF"/>
<path opacity="0.2" d="M441.273 752.846H367.084V827.355H441.273V752.846Z" fill="white"/>
<path d="M194.933 862.551H113.582V937.06H194.933V862.551Z" fill="#407BFF"/>
<path opacity="0.2" d="M194.933 862.551H120.744V937.06H194.933V862.551Z" fill="white"/>
<path d="M318.14 862.551H236.789V937.06H318.14V862.551Z" fill="#407BFF"/>
<path opacity="0.2" d="M318.128 862.551H243.939V937.06H318.128V862.551Z" fill="white"/>
<path d="M441.285 862.551H359.934V937.06H441.285V862.551Z" fill="#407BFF"/>
<path opacity="0.2" d="M441.273 862.551H367.084V937.06H441.273V862.551Z" fill="white"/>
<path opacity="0.2" d="M601.797 345.883H72.4805V352.785H601.797V345.883Z" fill="white"/>
<path opacity="0.2" d="M601.797 689.252H72.4805V696.155H601.797V689.252Z" fill="white"/>
<path d="M1330.57 183.789H964.49V999.673H1330.57V183.789Z" fill="#407BFF"/>
<path opacity="0.4" d="M1242.97 183.789H964.49V999.673H1242.97V183.789Z" fill="white"/>
<path d="M1088.94 250.809H991.496V294.134H1088.94V250.809Z" fill="#407BFF"/>
<path opacity="0.2" d="M1088.93 250.809H997.953V294.134H1088.93V250.809Z" fill="white"/>
<path d="M1201.66 250.809H1104.22V294.134H1201.66V250.809Z" fill="#407BFF"/>
<path opacity="0.2" d="M1201.66 250.809H1110.69V294.134H1201.66V250.809Z" fill="white"/>
<path d="M1088.94 332.361H991.496V375.687H1088.94V332.361Z" fill="#407BFF"/>
<path opacity="0.2" d="M1088.93 332.361H997.953V375.687H1088.93V332.361Z" fill="white"/>
<path d="M1201.66 332.361H1104.22V375.687H1201.66V332.361Z" fill="#407BFF"/>
<path opacity="0.2" d="M1201.66 332.361H1110.69V375.687H1201.66V332.361Z" fill="white"/>
<path d="M1088.94 436.598H991.496V479.923H1088.94V436.598Z" fill="#407BFF"/>
<path opacity="0.2" d="M1088.93 436.598H997.953V479.923H1088.93V436.598Z" fill="white"/>
<path d="M1201.66 436.598H1104.22V479.923H1201.66V436.598Z" fill="#407BFF"/>
<path opacity="0.2" d="M1201.66 436.598H1110.69V479.923H1201.66V436.598Z" fill="white"/>
<path d="M1088.94 496.473H991.496V539.798H1088.94V496.473Z" fill="#407BFF"/>
<path opacity="0.2" d="M1088.93 496.473H997.953V539.798H1088.93V496.473Z" fill="white"/>
<path d="M1201.66 496.473H1104.22V539.798H1201.66V496.473Z" fill="#407BFF"/>
<path opacity="0.2" d="M1201.66 496.473H1110.69V539.798H1201.66V496.473Z" fill="white"/>
<path d="M1088.94 594.867H991.496V638.192H1088.94V594.867Z" fill="#407BFF"/>
<path opacity="0.2" d="M1088.93 594.867H997.953V638.192H1088.93V594.867Z" fill="white"/>
<path d="M1201.66 594.867H1104.22V638.192H1201.66V594.867Z" fill="#407BFF"/>
<path opacity="0.2" d="M1201.66 594.867H1110.69V638.192H1201.66V594.867Z" fill="white"/>
<path d="M1088.94 654.746H991.496V698.071H1088.94V654.746Z" fill="#407BFF"/>
<path opacity="0.2" d="M1088.93 654.746H997.953V698.071H1088.93V654.746Z" fill="white"/>
<path d="M1201.66 654.746H1104.22V698.071H1201.66V654.746Z" fill="#407BFF"/>
<path opacity="0.2" d="M1201.66 654.746H1110.69V698.071H1201.66V654.746Z" fill="white"/>
<path d="M1088.94 761.797H991.496V805.122H1088.94V761.797Z" fill="#407BFF"/>
<path opacity="0.2" d="M1088.93 761.797H997.953V805.122H1088.93V761.797Z" fill="white"/>
<path d="M1201.66 761.797H1104.22V805.122H1201.66V761.797Z" fill="#407BFF"/>
<path opacity="0.2" d="M1201.66 761.797H1110.69V805.122H1201.66V761.797Z" fill="white"/>
<path d="M1088.94 840.918H991.496V884.243H1088.94V840.918Z" fill="#407BFF"/>
<path opacity="0.2" d="M1088.93 840.918H997.953V884.243H1088.93V840.918Z" fill="white"/>
<path d="M1201.66 840.918H1104.22V884.243H1201.66V840.918Z" fill="#407BFF"/>
<path opacity="0.2" d="M1201.66 840.918H1110.69V884.243H1201.66V840.918Z" fill="white"/>
<path d="M1330.64 159.658H947.295V185.702H1330.64V159.658Z" fill="#407BFF"/>
<path opacity="0.2" d="M1330.64 159.658H1243.03V185.702H1330.64V159.658Z" fill="black"/>
<path d="M964.501 544.047H930.025V593.442H964.501V544.047Z" fill="#E0E0E0"/>
<path d="M964.501 624.877H930.025V674.273H964.501V624.877Z" fill="#E0E0E0"/>
<path d="M964.501 703.449H930.025V752.845H964.501V703.449Z" fill="#E0E0E0"/>
<path d="M964.501 786.529H930.025V835.925H964.501V786.529Z" fill="#E0E0E0"/>
<path d="M964.501 867.354H930.025V916.749H964.501V867.354Z" fill="#E0E0E0"/>
<path d="M964.497 494.418H601.785V999.682H964.497V494.418Z" fill="#407BFF"/>
<path opacity="0.3" d="M903.244 494.355H601.785V999.669H903.244V494.355Z" fill="white"/>
<path d="M874.007 544.047H628.885V593.442H874.007V544.047Z" fill="#407BFF"/>
<path d="M874.007 624.877H628.885V674.273H874.007V624.877Z" fill="#407BFF"/>
<path d="M874.007 705.699H628.885V755.095H874.007V705.699Z" fill="#407BFF"/>
<path d="M874.007 786.529H628.885V835.925H874.007V786.529Z" fill="#407BFF"/>
<path d="M874.007 867.354H628.885V916.749H874.007V867.354Z" fill="#407BFF"/>
<g opacity="0.1">
<path opacity="0.1" d="M874.005 544.047H637.916V593.442H874.005V544.047Z" fill="white"/>
<path opacity="0.1" d="M874.005 624.871H637.916V674.267H874.005V624.871Z" fill="white"/>
<path opacity="0.1" d="M874.005 705.693H637.916V755.089H874.005V705.693Z" fill="white"/>
<path opacity="0.1" d="M874.005 786.512H637.916V835.907H874.005V786.512Z" fill="white"/>
<path opacity="0.1" d="M874.005 867.348H637.916V916.743H874.005V867.348Z" fill="white"/>
</g>
<path d="M72.4783 494.355H0V999.669H72.4783V494.355Z" fill="#407BFF"/>
<path opacity="0.7" d="M72.4783 494.355H0V999.669H72.4783V494.355Z" fill="white"/>
<path opacity="0.7" d="M601.783 69H505.52V999.683H601.783V69Z" fill="white"/>
<path opacity="0.6" d="M964.51 494.355H903.256V999.669H964.51V494.355Z" fill="white"/>
<path opacity="0.7" d="M1330.64 185.699H1243.03V999.674H1330.64V185.699Z" fill="white"/>
<path opacity="0.5" d="M1381.89 45.8398H1368.1V97.9769H1381.89V45.8398Z" fill="white"/>
<path opacity="0.5" d="M1381.89 133.564H1368.1V185.701H1381.89V133.564Z" fill="white"/>
<path opacity="0.5" d="M1381.89 224.779H1368.1V276.916H1381.89V224.779Z" fill="white"/>
<path opacity="0.5" d="M1381.89 315.971H1368.1V368.108H1381.89V315.971Z" fill="white"/>
<path opacity="0.5" d="M1381.89 407.127H1368.1V459.264H1381.89V407.127Z" fill="white"/>
<path opacity="0.5" d="M1381.89 498.318H1368.1V550.455H1381.89V498.318Z" fill="white"/>
<path opacity="0.5" d="M1381.89 598.83H1368.1V650.967H1381.89V598.83Z" fill="white"/>
<path opacity="0.5" d="M1381.89 699.336H1368.1V751.473H1381.89V699.336Z" fill="white"/>
<path opacity="0.5" d="M1381.89 799.783H1368.1V851.92H1381.89V799.783Z" fill="white"/>
<path opacity="0.5" d="M1381.89 900.295H1368.1V952.432H1381.89V900.295Z" fill="white"/>
<path d="M1919.66 -23.6328H1489.76V999.673H1919.66V-23.6328Z" fill="#407BFF"/>
<path d="M1760.47 -23.6328H1330.57V999.673H1760.47V-23.6328Z" fill="#407BFF"/>
<path opacity="0.7" d="M1919.65 -8.94922H1760.53V999.67H1919.65V-8.94922Z" fill="white"/>
<path d="M1919.66 45.8398H1799.88V97.9769H1919.66V45.8398Z" fill="#407BFF"/>
<path d="M1919.66 131.598H1799.88V183.735H1919.66V131.598Z" fill="#407BFF"/>
<path d="M1919.66 217.432H1799.88V269.569H1919.66V217.432Z" fill="#407BFF"/>
<path d="M1919.66 315.924H1799.88V368.061H1919.66V315.924Z" fill="#407BFF"/>
<path d="M1919.66 407.127H1799.88V459.264H1919.66V407.127Z" fill="#407BFF"/>
<path d="M1919.66 498.318H1799.88V550.455H1919.66V498.318Z" fill="#407BFF"/>
<path d="M1919.66 598.777H1799.88V650.914H1919.66V598.777Z" fill="#407BFF"/>
<path d="M1919.66 699.289H1799.88V751.426H1919.66V699.289Z" fill="#407BFF"/>
<path d="M1919.66 799.783H1799.88V851.92H1919.66V799.783Z" fill="#407BFF"/>
<path d="M1919.66 900.295H1799.88V952.432H1919.66V900.295Z" fill="#407BFF"/>
<path opacity="0.3" d="M1919.66 45.8398H1799.88V97.9769H1919.66V45.8398Z" fill="white"/>
<path opacity="0.3" d="M1919.66 131.598H1799.88V183.735H1919.66V131.598Z" fill="white"/>
<path opacity="0.3" d="M1919.66 217.432H1799.88V269.569H1919.66V217.432Z" fill="white"/>
<path opacity="0.3" d="M1919.66 315.924H1799.88V368.061H1919.66V315.924Z" fill="white"/>
<path opacity="0.3" d="M1919.66 407.127H1799.88V459.264H1919.66V407.127Z" fill="white"/>
<path opacity="0.3" d="M1919.66 498.318H1799.88V550.455H1919.66V498.318Z" fill="white"/>
<path opacity="0.3" d="M1919.66 598.777H1799.88V650.914H1919.66V598.777Z" fill="white"/>
<path opacity="0.3" d="M1919.66 699.289H1799.88V751.426H1919.66V699.289Z" fill="white"/>
<path opacity="0.3" d="M1919.66 799.783H1799.88V851.92H1919.66V799.783Z" fill="white"/>
<path opacity="0.3" d="M1919.66 900.295H1799.88V952.432H1919.66V900.295Z" fill="white"/>
<path opacity="0.4" d="M1760.47 -23.6328H1330.57V999.673H1760.47V-23.6328Z" fill="white"/>
<path d="M1723.01 45.8398H1368.1V97.9769H1723.01V45.8398Z" fill="#407BFF"/>
<path opacity="0.2" d="M1723.01 45.8398H1381.89V97.9769H1723.01V45.8398Z" fill="white"/>
<path d="M1723.01 133.564H1368.1V185.701H1723.01V133.564Z" fill="#407BFF"/>
<path opacity="0.2" d="M1723.01 133.564H1381.89V185.701H1723.01V133.564Z" fill="white"/>
<path d="M1723.01 224.779H1368.1V276.916H1723.01V224.779Z" fill="#407BFF"/>
<path opacity="0.2" d="M1723.01 224.779H1381.89V276.916H1723.01V224.779Z" fill="white"/>
<path d="M1723.01 315.971H1368.1V368.108H1723.01V315.971Z" fill="#407BFF"/>
<path opacity="0.2" d="M1723.01 315.971H1381.89V368.108H1723.01V315.971Z" fill="white"/>
<path d="M1723.01 407.127H1368.1V459.264H1723.01V407.127Z" fill="#407BFF"/>
<path opacity="0.2" d="M1723.01 407.127H1381.89V459.264H1723.01V407.127Z" fill="white"/>
<path d="M1723.01 498.318H1368.1V550.455H1723.01V498.318Z" fill="#407BFF"/>
<path opacity="0.2" d="M1723.01 498.318H1381.89V550.455H1723.01V498.318Z" fill="white"/>
<path d="M1723.01 598.83H1368.1V650.967H1723.01V598.83Z" fill="#407BFF"/>
<path opacity="0.2" d="M1723.01 598.83H1381.89V650.967H1723.01V598.83Z" fill="white"/>
<path d="M1723.01 699.336H1368.1V751.473H1723.01V699.336Z" fill="#407BFF"/>
<path opacity="0.2" d="M1723.01 699.336H1381.89V751.473H1723.01V699.336Z" fill="white"/>
<path d="M1723.01 799.783H1368.1V851.92H1723.01V799.783Z" fill="#407BFF"/>
<path opacity="0.2" d="M1723.01 799.783H1381.89V851.92H1723.01V799.783Z" fill="white"/>
<path d="M1723.01 900.295H1368.1V952.432H1723.01V900.295Z" fill="#407BFF"/>
<path opacity="0.2" d="M1723.01 900.295H1381.89V952.432H1723.01V900.295Z" fill="white"/>
<path opacity="0.2" d="M1330.57 401.203H964.49V408.644H1330.57V401.203Z" fill="white"/>
<path opacity="0.2" d="M1330.57 562.41H964.49V569.851H1330.57V562.41Z" fill="white"/>
<path opacity="0.2" d="M1330.57 724.982H964.49V732.424H1330.57V724.982Z" fill="white"/>
<path opacity="0.2" d="M607.983 53.5742H505.52V68.995H607.983V53.5742Z" fill="black"/>
<path opacity="0.2" d="M607.983 22.6738H505.52V38.0946H607.983V22.6738Z" fill="black"/>
</g>
</svg>
