<svg xmlns="http://www.w3.org/2000/svg" viewBox="0 0 124.64 33.74"><defs><style>.cls-1{fill:#ffb93e;}.cls-1,.cls-2{fill-rule:evenodd;}.cls-2{fill:#1d2942;}</style></defs><title>logo_bend</title><g id="Слой_2" data-name="Слой 2"><g id="Слой_1-2" data-name="Слой 1"><path class="cls-1" d="M16.86,16.86l12.82-11a16.87,16.87,0,1,0,4.06,11v-.07ZM16.69,12a2.33,2.33,0,1,0-2.32-2.33A2.33,2.33,0,0,0,16.69,12Zm17.8.5A2.47,2.47,0,0,0,36,13a2.51,2.51,0,0,0,.66-.1l1,2.57-17.46.6,4-3a1.83,1.83,0,0,0,2.37.13,1.69,1.69,0,0,0,.64-1,1.65,1.65,0,0,0-.26-1.2l6.91-5.31L35,8.67a2.34,2.34,0,0,0-1.14,1.05,2.2,2.2,0,0,0-.19,1.51A2.26,2.26,0,0,0,34.49,12.52Zm-4.23,2.13a1.85,1.85,0,0,0,1,.28,1.81,1.81,0,0,0,1.24-.49,1.62,1.62,0,0,0,.22-2.13,1.77,1.77,0,0,0-1.8-.71,1.69,1.69,0,0,0-.9.46,1.63,1.63,0,0,0-.38,1.83A1.71,1.71,0,0,0,30.26,14.65Z"/><path class="cls-2" d="M57.4,15.37c.13-.73.19-.8.19-.94,0-.51,0-1.26-.05-2.27s-.06-1.77-.06-2.27,0-1.36.05-2.45.06-1.9.06-2.45a.18.18,0,0,0-.2-.17l-.51,0-.51,0h0c-.13,0-.33,0-.59,0s-.46,0-.59,0-.17.09-.24.27q-1.32,2.94-2,4.4c-.16.34-.26.52-.31.52s-.21-.15-.35-.45L50.34,5.14a1.8,1.8,0,0,1-.21-.77h-.05c-.24.48-.59.48-1,.5s-.86,0-1.1,0,.21.14.21.14v.12a10.81,10.81,0,0,0-.43,1.72c0,1.47.07,2.48.07,3s0,1.26-.07,2.27-.07,1.77-.07,2.27a.22.22,0,0,0,0,.16s.07,0,.16-.22h2.23c.12.26.19.18.19,0,0-.45,0-1.14,0-2s0-1.59,0-2a.35.35,0,0,1,0-.2l.06.08c.21.46.53,1.2.94,2.23s.71,1.71,1,2.22c0,.09.18.14.42.14h.26c.07,0,.12-.08.17-.19l1-2.46a19.67,19.67,0,0,1,.9-2.15s.06.08.06.22c0,.46,0,1.17-.06,2.1s0,1.64,0,2.1c0,.16.19,1,.19,1Zm9.42-2a4.83,4.83,0,0,0,1.39-3.53,4.86,4.86,0,0,0-1.4-3.52A5,5,0,0,0,65.17,5.2a5.14,5.14,0,0,0-3.88,0,5.06,5.06,0,0,0-1.64,1.09,5.14,5.14,0,0,0,0,7,5.14,5.14,0,0,0,1.64,1.08,5.23,5.23,0,0,0,3.89,0A4.9,4.9,0,0,0,66.82,13.34ZM64.93,8.08a2.49,2.49,0,0,1,.63,1.72,2.4,2.4,0,0,1-.65,1.68,2.21,2.21,0,0,1-.76.56,2.47,2.47,0,0,1-.93.21,2.28,2.28,0,0,1-.93-.19,2.07,2.07,0,0,1-.77-.54,2.57,2.57,0,0,1-.62-1.71,2.65,2.65,0,0,1,.66-1.71,2.23,2.23,0,0,1,.75-.57,2.05,2.05,0,0,1,.92-.19,2.15,2.15,0,0,1,1.7.74ZM78.27,4.8c0,.53,0,1.33-.06,2.39s-.07,1.87-.07,2.4v4.59a.17.17,0,0,1-.19.19h-.51c-.22,0-.39,0-.5,0a4.15,4.15,0,0,1-.54,0,4.2,4.2,0,0,0-.55,0h0c-.08,0-.18-.07-.29-.23l-2.26-3c-.32-.44-.8-1.07-1.46-1.92a.39.39,0,0,0-.1-.08.18.18,0,0,0,0,.07.25.25,0,0,0,0,.08c0,.54,0,1.35,0,2.43s0,1.89,0,2.43c0,.16-.06.24-.19.24h-2.4c-.14,0-.2-.07-.2-.21,0-.51,0-1.26.07-2.28s.08-1.77.08-2.28,0-1.33-.07-2.4S69,5.34,69,4.8q0-.15.27-.15c.27,0,.59,0,1-.05a5.24,5.24,0,0,0,.55-.1,5.14,5.14,0,0,1,.55-.06c.06,0,.14.08.26.24l2.59,3.56q.34.48,1,1.41.18.21.3.21c.09,0,.09-.18.09-.54s0-1.22-.08-2.2-.08-1.72-.08-2.22c0-.17,0-.25.15-.25.27,0,.69,0,1.25,0l1.26,0C78.23,4.58,78.27,4.65,78.27,4.8Zm9.13,8.54a4.83,4.83,0,0,0,1.39-3.53,4.86,4.86,0,0,0-1.4-3.52A5.06,5.06,0,0,0,85.75,5.2a5.14,5.14,0,0,0-3.88,0,5,5,0,0,0-1.64,1.09,5.11,5.11,0,0,0,0,7,5,5,0,0,0,1.64,1.08,5.23,5.23,0,0,0,3.89,0A5.11,5.11,0,0,0,87.4,13.34ZM85.51,8.08a2.49,2.49,0,0,1,.63,1.72,2.41,2.41,0,0,1-.66,1.68,2.08,2.08,0,0,1-.75.56,2.47,2.47,0,0,1-.93.21,2.28,2.28,0,0,1-.93-.19,2,2,0,0,1-.77-.54,2.6,2.6,0,0,1,0-3.42,2.19,2.19,0,0,1,.74-.57,2.12,2.12,0,0,1,.93-.19,2.15,2.15,0,0,1,1.7.74Zm12.26.52a4.09,4.09,0,0,1-.91,2.77,3.36,3.36,0,0,1-2.69,1.12l-.86,0-.86,0c-.2,0-.31.08-.31.26s0,.54.06,1,.06.75.06,1,0,.16-.15.16l-1.31,0-1.31,0h-.08l-.07,0a.1.1,0,0,1,0-.07.11.11,0,0,1,0-.08c0-.52,0-1.31,0-2.36s0-1.83,0-2.35c0-1.48-.07-3-.2-4.67V5.06c0-.09.06-.15.21-.17.37,0,1.19-.07,2.46-.07h0c.75,0,1.47,0,2.16,0A3.92,3.92,0,0,1,96.71,5.9,3.68,3.68,0,0,1,97.77,8.6Zm-2.55.11A1.44,1.44,0,0,0,93.6,7.07c-.77,0-1.17,0-1.21.12a12,12,0,0,0,0,1.64c0,.14,0,.36,0,.64s0,.5,0,.65.43.14,1.29.14A1.37,1.37,0,0,0,95.22,8.71Zm12.1,4.63a4.86,4.86,0,0,0,1.38-3.53,4.82,4.82,0,0,0-1.4-3.52,5,5,0,0,0-1.63-1.09,5.17,5.17,0,0,0-3.89,0,5.06,5.06,0,0,0-1.64,1.09,5.14,5.14,0,0,0,0,7,5.14,5.14,0,0,0,1.64,1.08,5.21,5.21,0,0,0,2,.38,5.15,5.15,0,0,0,1.94-.37A5,5,0,0,0,107.32,13.34Zm-1.9-5.26a2.45,2.45,0,0,1,.63,1.72,2.4,2.4,0,0,1-.65,1.68,2.21,2.21,0,0,1-.76.56,2.43,2.43,0,0,1-.93.21,2.31,2.31,0,0,1-.93-.19,2.16,2.16,0,0,1-.77-.54,2.57,2.57,0,0,1-.62-1.71,2.65,2.65,0,0,1,.66-1.71,2.23,2.23,0,0,1,.75-.57,2.08,2.08,0,0,1,.92-.19,2.13,2.13,0,0,1,.94.18A2.21,2.21,0,0,1,105.42,8.08Zm10,6.7h0c-.38,0-.88,0-1.49,0l-1.49-.38-3,0c-.2,0-.49,0-.86,0h-.08l-.07-.05,0-.07a.27.27,0,0,1,0-.09c0-.51,0-1.28,0-2.31s0-1.8,0-2.32,0-1.37,0-2.46,0-1.92,0-2.47c0-.1.06-.15.2-.15s.33,0,.6,0,.46,0,.59,0a6.2,6.2,0,0,0,.66,0c.27,0,.48,0,.63,0h0c.07,0,.1,0,.09.14v.54a15.49,15.49,0,0,1,1,4v3.17c-.19,0-.18.07-.18.1s0,0,0,.06a.11.11,0,0,0,0,.08s0,0,.07-.05h.17a7.88,7.88,0,0,0,1.79,0c.79,0,1.39-.06,1.79-.06.12,0,.19,0,.19.16a12,12,0,0,1-.17,2.07c0,.12-.07.2-.14.21A1.32,1.32,0,0,1,115.42,14.78Zm9.1-6.39a1.24,1.24,0,0,0,.12-.53c0-.26,0-.63,0-1.13s0-.88,0-1.13,0-.31-.14-.31l-1.3,0c-.57,0-1,0-1.29,0h-.18s-.06.07-.06.17,0,.59.05,1.07,0,.84,0,1.07a3.46,3.46,0,0,1-.6,1c-.33.45-.59.79-.78,1-.22-.24-.49-.58-.82-1a3.17,3.17,0,0,1-.63-1.06q0-.36,0-1.08c0-.49,0-.85,0-1.09,0-.07,0-.11-.16-.11l-1.33,0c-.59,0-1,0-1.32,0-.1,0-.14.08-.14.24s0,.71,0,1.27,0,1,0,1.27a.76.76,0,0,0,.11.38c1.1,1.71,2,3,2.53,3.78a.9.9,0,0,1,.17.52c0,.25,0,.62-.07,1.11s-.06.9-.06,1.14a.19.19,0,0,0,.2.2,11.74,11.74,0,0,0,1.33.05,11,11,0,0,0,1.28-.05l.19,0s.06-.07.06-.16c0-.24,0-.61,0-1.11s-.05-.88-.05-1.13a1,1,0,0,1,.23-.53A23.35,23.35,0,0,0,124.52,8.39Zm-52.38,13v7h3v1h-4v-8Zm9,8v-8h-1v8Zm6-4v4h-1v-8h5v1h-4v2h3v1Zm8,3v-3h5v-1h-5v-2h5v-1h-6v8h6v-1Z"/></g></g></svg>