<svg xmlns="http://www.w3.org/2000/svg" viewBox="0 0 133.78 113.99"><defs><style>.cls-1{fill:#6a8fb1;fill-rule:evenodd;opacity:0.5;isolation:isolate;}</style></defs><title>logo_muted</title><g id="Слой_2" data-name="Слой 2"><g id="Слой_1-2" data-name="Слой 1"><path class="cls-1" d="M17,88.38c.22,0,.33-.13.33-.38,0-.88,0-2.19-.09-4S17.1,81,17.1,80.11s0-2.37.1-4.25.1-3.31.1-4.26c0-.19-.16-.29-.35-.29s-.49,0-.89.06a7,7,0,0,1-.88.07h0c-.24,0-.58,0-1,0s-.79,0-1,0-.29.16-.43.47c-1.53,3.4-2.68,6-3.47,7.64q-.4.9-.54.9t-.6-.78L4.7,71.86c-.15-.34-.28-.51-.36-.51H4.26c-.43,0-1,0-1.83,0s-1.49,0-1.92,0-.49.07-.49.24v.2c.07,1.32.11,2.31.11,3,.08,2.56.11,4.31.11,5.25s0,2.19-.12,4S0,87.13,0,88a.52.52,0,0,0,.05.27.38.38,0,0,0,.29.08H4.21c.22,0,.33-.15.33-.43,0-.78,0-2-.06-3.54s-.06-2.76-.06-3.55a.66.66,0,0,1,.08-.34.45.45,0,0,1,.11.13c.37.8.92,2.09,1.64,3.87s1.23,3,1.65,3.86c.06.16.31.24.72.24a3.53,3.53,0,0,0,.46,0c.12,0,.21-.14.29-.32C9.93,86.86,10.49,85.43,11,84a33,33,0,0,1,1.56-3.73c.07,0,.1.14.1.37q0,1.23-.09,3.66c0,1.63-.08,2.84-.08,3.65,0,.29.11.43.33.43ZM33.34,86.1A8.39,8.39,0,0,0,35.75,80a8.5,8.5,0,0,0-2.44-6.13A8.69,8.69,0,0,0,30.47,72a9,9,0,0,0-6.75,0,8.69,8.69,0,0,0-2.84,1.88,8.91,8.91,0,0,0,0,12.23A8.65,8.65,0,0,0,23.73,88a8.84,8.84,0,0,0,3.37.66A9.07,9.07,0,0,0,30.48,88,8.77,8.77,0,0,0,33.34,86.1ZM30,77a4.46,4.46,0,0,1,0,5.92,3.72,3.72,0,0,1-1.32,1,4,4,0,0,1-1.61.36,3.91,3.91,0,0,1-1.62-.32A3.8,3.8,0,0,1,24.12,83,4.53,4.53,0,0,1,24.19,77a3.73,3.73,0,0,1,2.91-1.33,3.61,3.61,0,0,1,1.62.32A3.54,3.54,0,0,1,30,77Zm23-5c0,.92,0,2.3-.12,4.15s-.11,3.24-.11,4.16v8c0,.22-.11.32-.34.32s-.48,0-.87,0-.69,0-.88,0a7.49,7.49,0,0,1-.94,0,9.42,9.42,0,0,0-.95,0h0c-.14,0-.31-.14-.51-.4l-3.92-5.21c-.55-.75-1.4-1.86-2.53-3.32a.58.58,0,0,0-.19-.15.37.37,0,0,0-.07.12.26.26,0,0,0,0,.15c0,.94,0,2.34.08,4.21s.07,3.28.07,4.22c0,.28-.1.42-.32.42H37.25c-.24,0-.35-.12-.35-.37,0-.87.05-2.19.13-4s.13-3.08.13-4,0-2.32-.11-4.17-.12-3.24-.14-4.17c0-.17.16-.26.47-.26a17.17,17.17,0,0,0,1.72-.1c.16,0,.48-.07.95-.16a6,6,0,0,1,1-.11c.09,0,.24.14.44.42L46,77.91c.4.56,1,1.37,1.82,2.45.2.25.38.37.52.37s.16-.31.16-.94c0-.85-.05-2.13-.14-3.83s-.14-3-.14-3.84c0-.3.09-.45.25-.45q.72,0,2.19-.06t2.19-.06Q53.05,71.55,53.05,71.94Zm16,14.16A8.39,8.39,0,0,0,71.5,80a8.49,8.49,0,0,0-2.43-6.13A8.91,8.91,0,0,0,66.23,72a9,9,0,0,0-6.76,0,8.8,8.8,0,0,0-2.84,1.88,8.91,8.91,0,0,0,0,12.23A8.65,8.65,0,0,0,59.48,88a8.89,8.89,0,0,0,3.38.66A9,9,0,0,0,66.23,88,8.57,8.57,0,0,0,69.09,86.1ZM65.8,77a4.47,4.47,0,0,1,0,5.92,3.77,3.77,0,0,1-1.31,1,4.11,4.11,0,0,1-1.62.36,3.94,3.94,0,0,1-1.62-.32A3.77,3.77,0,0,1,59.88,83,4.53,4.53,0,0,1,60,77a4,4,0,0,1,4.53-1A3.62,3.62,0,0,1,65.8,77Zm21.85.9a7.13,7.13,0,0,1-1.58,4.81,5.84,5.84,0,0,1-4.67,2c-.34,0-.83,0-1.51-.06s-1.16,0-1.49,0-.54.14-.54.45,0,.94.11,1.68a16.36,16.36,0,0,1,.11,1.67c0,.19-.08.28-.26.28-.5,0-1.26,0-2.28,0s-1.76,0-2.28,0a.36.36,0,0,1-.14,0,.47.47,0,0,1-.12-.07.37.37,0,0,1-.07-.12.24.24,0,0,1,0-.14c0-.91,0-2.28,0-4.1S73,80.9,73,80q0-3.85-.33-8.1v-.17c0-.16.1-.25.35-.29q1-.12,4.29-.12h0c1.3,0,2.55,0,3.75,0a6.9,6.9,0,0,1,4.76,1.83A6.35,6.35,0,0,1,87.65,77.87Zm-5,.2c0-1.91-.94-2.86-2.82-2.86-1.33,0-2,.07-2.1.22a20.08,20.08,0,0,0-.08,2.84c0,.25,0,.62,0,1.12s0,.87,0,1.12.75.25,2.24.25A2.39,2.39,0,0,0,82.68,78.07Zm21,8A8.39,8.39,0,0,0,106.1,80a8.49,8.49,0,0,0-2.43-6.13A8.84,8.84,0,0,0,100.82,72a9,9,0,0,0-6.75,0,8.8,8.8,0,0,0-2.84,1.88,8.91,8.91,0,0,0,0,12.23A8.65,8.65,0,0,0,94.08,88a8.84,8.84,0,0,0,3.37.66,9.07,9.07,0,0,0,3.38-.65A8.77,8.77,0,0,0,103.69,86.1ZM100.4,77a4.47,4.47,0,0,1,0,5.92,3.72,3.72,0,0,1-1.32,1,4,4,0,0,1-1.61.36,3.94,3.94,0,0,1-1.62-.32A3.9,3.9,0,0,1,94.47,83,4.54,4.54,0,0,1,94.55,77a3.69,3.69,0,0,1,2.9-1.33,3.82,3.82,0,0,1,3,1.29Zm17.36,11.64h0c-.65,0-1.52,0-2.58,0l-2.58-.06-3.45,0c-.34,0-.84,0-1.48,0a.32.32,0,0,1-.14,0l-.11-.08a.75.75,0,0,1-.07-.12.38.38,0,0,1,0-.15c0-.88,0-2.21,0-4s0-3.09,0-4,0-2.36-.08-4.24-.08-3.29-.08-4.24c0-.17.11-.26.34-.26s.58,0,1,0,.8,0,1,0a11.23,11.23,0,0,0,1.14-.05c.46,0,.82,0,1.07,0h0c.12,0,.17.08.17.23v.16q-.14,2.3-.33,6.89v5.5c0,.06,0,.12,0,.18a.41.41,0,0,1,0,.11.22.22,0,0,0,.06.13.17.17,0,0,0,.12,0h.3c.69,0,1.72,0,3.1-.11s2.42-.12,3.11-.12c.21,0,.33.1.33.28a19.73,19.73,0,0,1-.29,3.6c0,.21-.12.34-.24.37A2.1,2.1,0,0,1,117.76,88.61Zm15.83-11.93a2.05,2.05,0,0,0,.19-.92c0-.44,0-1.09,0-2s0-1.53,0-2-.08-.53-.24-.53c-.51,0-1.26,0-2.25.07s-1.75.07-2.24.07h-.31c-.08,0-.12.12-.12.29,0,.41,0,1,.1,1.86s.09,1.45.09,1.86a5.76,5.76,0,0,1-1.06,1.78c-.56.79-1,1.37-1.35,1.77-.37-.42-.84-1-1.43-1.78a5.57,5.57,0,0,1-1.09-1.84q0-.63.06-1.89c0-.84.06-1.46.06-1.88,0-.13-.1-.19-.29-.19q-.77,0-2.31-.06c-1,0-1.79-.06-2.29-.06-.17,0-.25.14-.25.41,0,.49,0,1.23.07,2.21s.08,1.71.08,2.21a1.57,1.57,0,0,0,.28.78q2.79,4.35,4.29,6.44a1.46,1.46,0,0,1,.3.84c0,.45,0,1.11-.11,2s-.11,1.55-.11,2c0,.2.12.32.35.35a22.1,22.1,0,0,0,2.3.08,20.68,20.68,0,0,0,2.23-.08,1.86,1.86,0,0,0,.34-.06c.06,0,.1-.12.1-.27,0-.43,0-1.07-.08-1.94s-.07-1.52-.07-2a1.53,1.53,0,0,1,.39-.93A40.33,40.33,0,0,0,133.59,76.68Zm-91,23.47v12.12h5.26V114H40.93V100.15ZM58.23,114V100.15h-2.3V114Zm9.88-6.18V114h-1.8V100.15h8.07v1.68H68.09v4.3H74v1.68Zm14.47,4.46v-4.63h8.21V106H82.58v-4.14h8.73v-1.68H80.15V114H91.68v-1.72Z"/><path class="cls-1" d="M64.76,29.3,87,10.24a29.32,29.32,0,1,0,7,19.06v-.12Zm-1-9.09a4,4,0,1,0-4-4A4,4,0,0,0,63.76,20.21Zm30.92.87a4.27,4.27,0,0,0,2.59.87,4.49,4.49,0,0,0,1.15-.16l1.73,4.46-30.32,1L76.72,22a3.16,3.16,0,0,0,4.12.23A2.9,2.9,0,0,0,82,20.41a2.79,2.79,0,0,0-.45-2.08l12-9.23,2,5.3a4.08,4.08,0,0,0-2,1.83,3.82,3.82,0,0,0-.34,2.61A3.93,3.93,0,0,0,94.68,21.08Zm-7.35,3.7a3.17,3.17,0,0,0,3.85-.36,2.86,2.86,0,0,0,.38-3.7,3,3,0,0,0-1.37-1.07,3.12,3.12,0,0,0-1.76-.17,3.07,3.07,0,0,0-1.57.8,3,3,0,0,0-.83,1.5,2.8,2.8,0,0,0,.17,1.69A3,3,0,0,0,87.33,24.78Z"/></g></g></svg>