<svg width="77" height="25" viewBox="0 0 77 25" fill="none" xmlns="http://www.w3.org/2000/svg">
<path fill-rule="evenodd" clip-rule="evenodd" d="M9.76669 9.82072C9.89168 9.82072 9.95606 9.74984 9.95606 9.60612C9.96111 9.09946 9.94344 8.34145 9.90304 7.33207C9.86264 6.3227 9.84244 5.566 9.84244 5.06196C9.84244 4.51724 9.86138 3.70148 9.89925 2.61466C9.93713 1.52784 9.95606 0.71207 9.95606 0.167349C9.95606 0.0570924 9.86706 0 9.75533 0C9.6436 0 9.47317 0.0118118 9.24403 0.0354382C9.01489 0.0590647 8.86907 0.0708765 8.73462 0.0708765H8.73456C8.60011 0.0708765 8.40508 0.0708765 8.14378 0.0492218C7.88245 0.0275642 7.68739 0.0275611 7.55862 0.0275611C7.46962 0.0275611 7.38819 0.11813 7.31244 0.299266C6.43123 2.25632 5.76528 3.72116 5.31457 4.69379C5.1555 5.04031 5.05134 5.21357 5.00211 5.21357C4.90742 5.21357 4.7919 5.06394 4.65366 4.7627L2.70503 0.31305C2.61603 0.118132 2.54596 0.0216547 2.49862 0.0216547L2.44936 0.021638C2.20465 0.0215152 1.85523 0.0213399 1.39648 0.0452802C0.906003 0.0708755 0.538624 0.0708765 0.294335 0.0708765C0.10307 0.0708765 0.014063 0.116163 0.014063 0.2087V0.326827C0.0544623 1.08681 0.0746633 1.65844 0.0746633 2.04172C0.11885 3.51706 0.140942 4.52381 0.140942 5.06196C0.140942 5.56206 0.116324 6.32204 0.070875 7.33404C0.0254259 8.34604 0.000808512 9.10406 0.000808512 9.60809C-0.00312726 9.66185 0.00735938 9.7157 0.0311057 9.76363C0.0519366 9.79513 0.106856 9.80891 0.195861 9.80891H2.42287C2.54912 9.80891 2.61224 9.72819 2.61224 9.56674C2.61224 9.1139 2.59898 8.43071 2.57815 7.52502C2.55732 6.61934 2.54596 5.93811 2.54596 5.48527C2.5412 5.41634 2.55707 5.34756 2.59141 5.28838C2.61674 5.30829 2.63745 5.33386 2.65201 5.3632C2.86537 5.82129 3.18099 6.56421 3.59887 7.59197C3.98897 8.56459 4.30459 9.30488 4.54572 9.81285C4.5817 9.90539 4.72752 9.95264 4.96045 9.95264C5.04937 9.95833 5.13854 9.95833 5.22746 9.95264C5.29374 9.93492 5.34866 9.87191 5.39411 9.76559C5.71478 8.94654 6.03481 8.12553 6.35422 7.30254C6.90214 5.89939 7.20071 5.18404 7.24995 5.15647C7.28972 5.17419 7.31054 5.2372 7.31054 5.37108C7.30928 5.83967 7.29224 6.54125 7.25942 7.4758C7.22659 8.41036 7.21018 9.11128 7.21018 9.57856C7.21018 9.74 7.2733 9.82072 7.39955 9.82072H9.76669ZM19.1889 8.51338C20.1159 7.5615 20.6145 6.29379 20.5753 4.98784C20.6071 3.68062 20.104 2.41397 19.175 1.46231C18.7102 0.999657 18.154 0.631823 17.5392 0.380629C16.9244 0.129435 16.2635 0 15.5959 0C14.9283 0 14.2675 0.129435 13.6527 0.380629C13.0379 0.631823 12.4816 0.999657 12.0169 1.46231C11.1178 2.42892 10.6206 3.68213 10.6206 4.98115C10.6206 6.28018 11.1178 7.53338 12.0169 8.5C12.4841 8.96015 13.0416 9.32594 13.6567 9.57607C14.2719 9.8262 14.9325 9.95565 15.6 9.9569C16.2675 9.95814 16.9286 9.83115 17.5447 9.58332C18.1609 9.33549 18.7198 8.97178 19.1889 8.51338ZM17.2934 3.25375C17.7181 3.73178 17.9439 4.34492 17.9272 4.97446C17.9334 5.59568 17.6997 6.19687 17.2716 6.66075C17.0636 6.89658 16.8056 7.08669 16.5152 7.2183C16.2247 7.3499 15.9084 7.41996 15.5876 7.42377C15.2667 7.42757 14.9487 7.36503 14.655 7.24034C14.3613 7.11566 14.0986 6.93173 13.8846 6.7009C13.476 6.21541 13.2563 5.60707 13.2639 4.98154C13.2715 4.35601 13.5059 3.75281 13.9262 3.2767C14.1267 3.0359 14.3811 2.84201 14.6703 2.70957C14.9594 2.57713 15.2759 2.50957 15.5959 2.51194C15.9184 2.50456 16.2385 2.56742 16.5324 2.69584C16.8262 2.82427 17.0863 3.01496 17.2934 3.25375ZM30.5344 0.361959C30.5344 0.889407 30.5121 1.68585 30.4674 2.7513C30.4227 3.81674 30.401 4.61517 30.4023 5.14657V9.74131C30.4023 9.8679 30.3353 9.92921 30.2051 9.92921C30.075 9.92921 29.9271 9.92921 29.7023 9.94306C29.4775 9.9569 29.308 9.95691 29.1975 9.95691C29.0871 9.95691 28.8959 9.9569 28.6553 9.92921C28.4148 9.90152 28.2334 9.90152 28.1131 9.90152H28.1131C28.0302 9.90152 27.9297 9.82438 27.8153 9.67208C27.4801 9.22111 26.7288 8.2216 25.5615 6.67354C25.2421 6.24103 24.7557 5.60414 24.1024 4.76286C24.0744 4.72697 24.0387 4.6979 23.9979 4.67781C23.9782 4.69807 23.9631 4.72232 23.9536 4.74894C23.9441 4.77555 23.9404 4.8039 23.9427 4.83208C23.9427 5.37272 23.9578 6.18169 23.988 7.259C24.0183 8.33632 24.0327 9.1453 24.0314 9.68593C24.0314 9.84812 23.9703 9.92921 23.8441 9.92921H21.4385C21.3044 9.92921 21.2413 9.85801 21.2413 9.71362C21.2413 9.21122 21.2656 8.45368 21.3143 7.44098C21.3629 6.42828 21.3872 5.66809 21.3872 5.16042C21.3872 4.62374 21.3655 3.824 21.3222 2.76119C21.2788 1.69838 21.2532 0.898637 21.2453 0.361959C21.2453 0.261084 21.336 0.20966 21.5174 0.20966C21.7855 0.20966 22.1089 0.191859 22.5033 0.154278C22.5959 0.144389 22.7793 0.114715 23.0514 0.0632892C23.2328 0.0270079 23.4168 0.00584234 23.6016 0C23.6568 0 23.7435 0.0791136 23.8579 0.237348L26.4508 3.79762C26.6835 4.11805 27.0338 4.58748 27.5018 5.20591C27.6181 5.3503 27.7167 5.4215 27.8015 5.4215C27.8863 5.4215 27.8902 5.24151 27.8902 4.87757C27.8902 4.38968 27.8639 3.65521 27.8114 2.67416C27.7588 1.69311 27.7318 0.955999 27.7305 0.462835C27.7305 0.290755 27.7798 0.205701 27.8764 0.205701C28.1538 0.205701 28.5731 0.193834 29.1344 0.170099C29.6964 0.146364 30.1204 0.136472 30.3944 0.136472C30.4891 0.13845 30.5344 0.209658 30.5344 0.361959ZM39.7665 8.51338C40.6936 7.5615 41.1921 6.29379 41.153 4.98784C41.1864 3.68034 40.6831 2.41307 39.7526 1.46231C39.2879 0.999657 38.7316 0.631823 38.1168 0.380629C37.502 0.129435 36.8412 0 36.1736 0C35.506 0 34.8452 0.129435 34.2304 0.380629C33.6155 0.631823 33.0593 0.999657 32.5945 1.46231C31.6955 2.42892 31.1982 3.68213 31.1982 4.98115C31.1982 6.28018 31.6955 7.53338 32.5945 8.5C33.0618 8.96015 33.6192 9.32594 34.2344 9.57607C34.8495 9.8262 35.5101 9.95565 36.1776 9.9569C36.8451 9.95814 37.5062 9.83115 38.1224 9.58332C38.7385 9.33549 39.2974 8.97178 39.7665 8.51338ZM37.871 3.25375C38.2971 3.73112 38.5238 4.34455 38.5068 4.97446C38.5123 5.5959 38.2779 6.19705 37.8492 6.66075C37.6412 6.89658 37.3833 7.08669 37.0928 7.2183C36.8023 7.3499 36.4861 7.41996 36.1652 7.42377C35.8444 7.42757 35.5264 7.36503 35.2327 7.24034C34.9389 7.11566 34.6763 6.93173 34.4623 6.7009C34.0536 6.21541 33.834 5.60707 33.8416 4.98154C33.8492 4.35601 34.0835 3.75281 34.5039 3.2767C34.7046 3.03611 34.959 2.84237 35.2481 2.70995C35.5372 2.57753 35.8536 2.50985 36.1736 2.51194C36.4961 2.50456 36.8161 2.56742 37.11 2.69584C37.4039 2.82427 37.664 3.01496 37.871 3.25375ZM50.4483 3.7752C50.4483 4.91469 50.1446 5.83777 49.5373 6.54444C48.8893 7.29386 47.9932 7.66858 46.849 7.66858C46.6578 7.66858 46.3711 7.65655 45.9847 7.63651C45.5984 7.61648 45.3137 7.60445 45.1225 7.60445C44.9314 7.60445 44.8134 7.69062 44.8134 7.86495C44.8134 8.08336 44.8358 8.40597 44.8785 8.83278C44.9212 9.25959 44.9415 9.5822 44.9415 9.7946C44.9415 9.9028 44.8927 9.95691 44.791 9.95691C44.5009 9.95691 44.0637 9.94889 43.4794 9.93286C42.8958 9.91683 42.4627 9.90681 42.1678 9.90681C42.1403 9.91003 42.1124 9.90707 42.0863 9.89814C42.0601 9.88921 42.0364 9.87455 42.0168 9.85525C41.9972 9.83596 41.9823 9.81255 41.9733 9.78677C41.9642 9.76099 41.9612 9.73352 41.9645 9.70643C41.9645 9.18277 41.9726 8.39729 41.9889 7.34997C42.0051 6.30266 42.0133 5.51717 42.0133 4.99351C42.0133 3.51471 41.9489 1.96043 41.8201 0.330679V0.232489C41.8092 0.142986 41.877 0.0888842 42.0234 0.0701821C42.3976 0.022091 43.2198 -0.0012817 44.4901 5.41671e-05H44.4903C45.2406 5.41668e-05 45.9604 5.41664e-05 46.6497 0.0281041C47.783 0.0601648 48.6954 0.410829 49.3868 1.0801C50.0782 1.74936 50.432 2.64773 50.4483 3.7752ZM47.5892 3.88742C47.5892 2.79067 47.0469 2.2423 45.9623 2.2423C45.1977 2.2423 44.7965 2.28438 44.7585 2.36854C44.7239 2.43065 44.7077 2.96967 44.7077 4.00163C44.7077 4.1479 44.7077 4.36231 44.726 4.64685C44.7443 4.93139 44.7443 5.1478 44.7443 5.29408C44.7443 5.38759 45.174 5.43501 46.0335 5.43634C47.0693 5.43367 47.5878 4.91737 47.5892 3.88742ZM59.6803 8.51338C60.6073 7.5615 61.1059 6.29379 61.0667 4.98784C61.1002 3.68034 60.5969 2.41307 59.6664 1.46231C59.2017 0.999657 58.6454 0.631823 58.0306 0.380629C57.4158 0.129435 56.755 0 56.0873 0C55.4197 0 54.7589 0.129435 54.1441 0.380629C53.5293 0.631823 52.973 0.999657 52.5083 1.46231C51.6093 2.42892 51.112 3.68213 51.112 4.98115C51.112 6.28018 51.6093 7.53338 52.5083 8.5C52.9755 8.96015 53.533 9.32594 54.1481 9.57607C54.7633 9.8262 55.4239 9.95565 56.0914 9.9569C56.7589 9.95814 57.42 9.83115 58.0361 9.58332C58.6523 9.33549 59.2112 8.97178 59.6803 8.51338ZM57.7848 3.25375C58.2095 3.73178 58.4353 4.34492 58.4186 4.97446C58.4248 5.59568 58.1911 6.19687 57.763 6.66075C57.555 6.89658 57.297 7.08669 57.0066 7.2183C56.7161 7.3499 56.3998 7.41996 56.079 7.42377C55.7581 7.42757 55.4401 7.36503 55.1464 7.24034C54.8527 7.11566 54.59 6.93173 54.3761 6.7009C53.9674 6.21541 53.7477 5.60707 53.7553 4.98154C53.7629 4.35601 53.9973 3.75281 54.4176 3.2767C54.6182 3.0359 54.8725 2.84201 55.1617 2.70957C55.4508 2.57713 55.7673 2.50957 56.0873 2.51194C56.4098 2.50456 56.7299 2.56742 57.0238 2.69584C57.3176 2.82427 57.5777 3.01496 57.7848 3.25375ZM67.7805 9.95435H67.7804C67.404 9.95435 66.9052 9.95435 66.2954 9.92649L64.8084 9.89267L62.8245 9.86282C62.6249 9.86282 62.3388 9.86282 61.968 9.83496C61.9418 9.83508 61.9159 9.8294 61.8918 9.8183C61.8678 9.8072 61.8463 9.79093 61.8286 9.77051C61.8108 9.75009 61.7973 9.72599 61.7889 9.69974C61.7805 9.67349 61.7774 9.64569 61.7798 9.61809C61.7798 9.10874 61.7873 8.34537 61.8024 7.32799C61.8174 6.3106 61.825 5.54723 61.825 5.03788C61.825 4.49403 61.8099 3.68092 61.7798 2.59854C61.7497 1.51616 61.734 0.703714 61.7327 0.161198C61.7327 0.059725 61.7986 0.00799579 61.9323 0.00799579C62.0659 0.00799579 62.2617 0.00799701 62.5252 0.0278937C62.7887 0.0477904 62.9845 0.0497771 63.1125 0.0497771C63.2404 0.0497771 63.4757 0.0497762 63.7637 0.0239105C64.0331 -0.000283428 64.2399 -0.000105535 64.3841 1.85303e-05L64.4131 3.54191e-05C64.4809 3.54191e-05 64.511 0.0458005 64.5072 0.133346V0.224869C64.4545 1.1043 64.3918 2.42544 64.319 4.18829V6.04067V7.35186C64.319 7.38688 64.3227 7.42269 64.3264 7.45829C64.3286 7.47933 64.3308 7.50029 64.3322 7.52099C64.3343 7.5482 64.3455 7.57372 64.3638 7.59303C64.382 7.61234 64.4062 7.62418 64.4319 7.62644H64.6051C65.0029 7.62644 65.599 7.60389 66.3933 7.55879C67.1876 7.51502 67.7824 7.49313 68.1815 7.49313C68.3 7.49313 68.3697 7.54685 68.3697 7.65429C68.3789 8.34812 68.3234 9.04121 68.204 9.72354C68.1815 9.84491 68.1363 9.92251 68.0648 9.94042C67.9707 9.95572 67.8755 9.96039 67.7805 9.95435ZM76.8863 3.09073C76.9649 2.92539 77.0037 2.74427 76.9997 2.56158C76.9997 2.30703 76.9896 1.93421 76.9754 1.43111C76.9612 0.928018 76.9612 0.553201 76.9612 0.302655C76.9612 0.100214 76.9146 0 76.8195 0C76.5292 0 76.0972 0.0126887 75.5234 0.0380773C74.9496 0.063466 74.5196 0.0761608 74.2334 0.0761608H74.0552C74.0126 0.0901913 73.9904 0.148319 73.9904 0.246533C73.9904 0.483048 74.0086 0.83782 74.045 1.31686C74.0815 1.79591 74.0977 2.15268 74.0977 2.38719C74.0977 2.50612 73.8952 2.8482 73.4902 3.41344C73.1661 3.86375 72.9069 4.20248 72.7125 4.42964C72.4992 4.18912 72.2251 3.84771 71.8903 3.40542C71.4718 2.84018 71.2625 2.48675 71.2625 2.3451C71.2625 2.10458 71.2747 1.74379 71.2949 1.26074C71.3152 0.77769 71.3273 0.416903 71.3273 0.176379C71.3273 0.104222 71.2726 0.0701479 71.1633 0.0701479C70.8676 0.0701479 70.4261 0.0581232 69.8348 0.0340708C69.2435 0.0100184 68.804 0 68.5144 0C68.4192 0 68.3707 0.0761605 68.3707 0.232501C68.3707 0.517121 68.3848 0.94138 68.4132 1.50527C68.4415 2.06917 68.4557 2.49276 68.4557 2.77604C68.4707 2.93835 68.5272 3.09423 68.6197 3.22903C69.6917 4.89666 70.5153 6.13136 71.0904 6.9331C71.1948 7.07523 71.2546 7.24461 71.2625 7.42016C71.2612 7.67405 71.2396 8.05688 71.1977 8.56866C71.1559 9.08045 71.1349 9.4606 71.1349 9.70914C71.1349 9.82339 71.2038 9.89154 71.3374 9.90958C71.7771 9.94855 72.2186 9.96328 72.6599 9.95368C73.0883 9.96408 73.5171 9.94935 73.9438 9.90958C74.0085 9.90162 74.0727 9.89025 74.1362 9.87551C74.1746 9.85547 74.1949 9.80335 74.1949 9.71917C74.1949 9.47464 74.1787 9.10182 74.1503 8.60274C74.122 8.10365 74.1078 7.72883 74.1078 7.48029C74.1234 7.28145 74.2037 7.09297 74.3366 6.94312C75.3132 5.7456 76.1672 4.45515 76.8863 3.09073ZM24.8479 16.5953V23.5712H27.8794V24.5608H23.8966V16.5953H24.8479ZM33.8535 24.56V16.5945H32.5259V24.56H33.8535ZM39.5402 21.0044V24.56H38.5001V16.5945H43.1467V17.5626H39.5289V20.0387H42.9047V21.0069L39.5402 21.0044ZM47.8656 23.5707V20.9099L52.5922 20.9026V19.9471H47.8656V17.5621H52.8905V16.5945H46.4656V24.56H53.1035V23.5707H47.8656Z" fill="#1D2942"/>
</svg>
