<svg width="134" height="118" viewBox="0 0 134 118" fill="none" xmlns="http://www.w3.org/2000/svg">
<path fill-rule="evenodd" clip-rule="evenodd" d="M16.969 91.391C17.1862 91.391 17.298 91.2679 17.298 91.0181C17.3068 90.1379 17.2761 88.8209 17.2059 87.0671C17.1357 85.3134 17.1006 83.9987 17.1006 83.123C17.1006 82.1765 17.1335 80.7592 17.1993 78.8709C17.2651 76.9827 17.298 75.5653 17.298 74.6189C17.298 74.4273 17.1434 74.3281 16.9493 74.3281C16.7551 74.3281 16.459 74.3486 16.0609 74.3897C15.6628 74.4307 15.4094 74.4513 15.1758 74.4513H15.1758C14.9422 74.4513 14.6033 74.4513 14.1493 74.4136C13.6953 74.376 13.3564 74.376 13.1326 74.376C12.978 74.376 12.8365 74.5334 12.7049 74.8481C11.1739 78.2483 10.0168 80.7934 9.23373 82.4833C8.95735 83.0853 8.77639 83.3864 8.69084 83.3864C8.52633 83.3864 8.32563 83.1264 8.08544 82.603L4.69982 74.872C4.54518 74.5334 4.42345 74.3657 4.34119 74.3657L4.25561 74.3657C3.83043 74.3655 3.22335 74.3652 2.42629 74.4068C1.57412 74.4513 0.935825 74.4513 0.511388 74.4513C0.179077 74.4513 0.0244336 74.53 0.0244336 74.6907V74.896C0.0946247 76.2164 0.129723 77.2096 0.129723 77.8755C0.206494 80.4388 0.244877 82.188 0.244877 83.123C0.244877 83.9918 0.202106 85.3123 0.123141 87.0706C0.0441758 88.8288 0.00140474 90.1458 0.00140474 91.0216C-0.00543342 91.115 0.0127865 91.2085 0.0540443 91.2918C0.0902366 91.3465 0.185656 91.3705 0.340296 91.3705H4.20958C4.42893 91.3705 4.5386 91.2302 4.5386 90.9497C4.5386 90.163 4.51557 88.9759 4.47938 87.4024C4.44319 85.8288 4.42345 84.6452 4.42345 83.8584C4.41517 83.7387 4.44275 83.6192 4.50241 83.5164C4.54642 83.5509 4.5824 83.5954 4.6077 83.6463C4.97839 84.4423 5.52676 85.733 6.2528 87.5187C6.93058 89.2086 7.47895 90.4948 7.8979 91.3773C7.96042 91.5381 8.21377 91.6202 8.61846 91.6202C8.77295 91.6301 8.92788 91.6301 9.08238 91.6202C9.19753 91.5894 9.29295 91.4799 9.37192 91.2952C9.92906 89.8722 10.4851 88.4457 11.0401 87.0158C11.992 84.5779 12.5108 83.3351 12.5963 83.2872C12.6654 83.318 12.7016 83.4274 12.7016 83.66C12.6994 84.4742 12.6698 85.6931 12.6128 87.3169C12.5557 88.9406 12.5272 90.1584 12.5272 90.9703C12.5272 91.2508 12.6369 91.391 12.8562 91.391H16.969ZM33.3382 89.1197C34.9489 87.4658 35.8151 85.2633 35.7471 82.9943C35.8023 80.7231 34.9281 78.5223 33.3141 76.8689C32.5066 76.0651 31.5402 75.426 30.472 74.9895C29.4038 74.5531 28.2557 74.3282 27.0957 74.3282C25.9358 74.3282 24.7877 74.5531 23.7195 74.9895C22.6513 75.426 21.6848 76.0651 20.8773 76.8689C19.3153 78.5483 18.4513 80.7257 18.4513 82.9826C18.4513 85.2396 19.3153 87.417 20.8773 89.0964C21.6892 89.8959 22.6577 90.5314 23.7265 90.966C24.7953 91.4006 25.943 91.6255 27.1027 91.6277C28.2625 91.6299 29.4111 91.4092 30.4816 90.9786C31.5521 90.548 32.5232 89.9161 33.3382 89.1197ZM30.0449 79.9814C30.7828 80.8119 31.1752 81.8772 31.1461 82.971C31.1569 84.0504 30.7508 85.0949 30.007 85.9009C29.6456 86.3106 29.1975 86.6409 28.6928 86.8695C28.1882 87.0982 27.6386 87.2199 27.0812 87.2265C26.5237 87.2331 25.9713 87.1245 25.4609 86.9079C24.9506 86.6912 24.4942 86.3716 24.1225 85.9706C23.4124 85.1271 23.0308 84.0701 23.044 82.9833C23.0572 81.8965 23.4644 80.8485 24.1947 80.0213C24.5431 79.6029 24.9851 79.266 25.4874 79.0359C25.9898 78.8058 26.5397 78.6884 27.0957 78.6926C27.656 78.6797 28.2121 78.7889 28.7227 79.0121C29.2333 79.2352 29.6852 79.5665 30.0449 79.9814ZM53.0511 74.9571C53.0511 75.8735 53.0123 77.2573 52.9347 79.1084C52.857 80.9596 52.8193 82.3468 52.8216 83.2701V91.2531C52.8216 91.4731 52.7051 91.5796 52.479 91.5796C52.2529 91.5796 51.996 91.5796 51.6054 91.6036C51.2149 91.6277 50.9202 91.6277 50.7284 91.6277C50.5365 91.6277 50.2042 91.6277 49.7863 91.5796C49.3684 91.5315 49.0532 91.5315 48.8442 91.5315H48.8441C48.7003 91.5315 48.5255 91.3975 48.3268 91.1328C47.7444 90.3493 46.4392 88.6127 44.4111 85.9231C43.8561 85.1716 43.011 84.065 41.8759 82.6034C41.8272 82.541 41.7652 82.4905 41.6943 82.4556C41.6602 82.4908 41.6339 82.533 41.6174 82.5792C41.6008 82.6254 41.5944 82.6747 41.5984 82.7237C41.5984 83.663 41.6247 85.0685 41.6772 86.9403C41.7297 88.812 41.7548 90.2176 41.7526 91.1569C41.7526 91.4387 41.6464 91.5796 41.4271 91.5796H37.2475C37.0146 91.5796 36.9049 91.4559 36.9049 91.205C36.9049 90.3321 36.9472 89.0159 37.0317 87.2564C37.1162 85.4969 37.1585 84.1762 37.1585 83.2941C37.1585 82.3617 37.1208 80.9722 37.0454 79.1256C36.97 77.279 36.9255 75.8895 36.9118 74.9571C36.9118 74.7818 37.0694 74.6925 37.3846 74.6925C37.8505 74.6925 38.4123 74.6616 39.0975 74.5963C39.2585 74.5791 39.5771 74.5275 40.0499 74.4382C40.3649 74.3751 40.6846 74.3384 41.0057 74.3282C41.1017 74.3282 41.2524 74.4657 41.4511 74.7406L45.9561 80.9263C46.3604 81.4831 46.969 82.2987 47.7821 83.3732C47.9842 83.624 48.1556 83.7477 48.3029 83.7477C48.4502 83.7477 48.457 83.435 48.457 82.8027C48.457 81.955 48.4113 80.6789 48.32 78.9744C48.2286 77.2699 48.1818 75.9892 48.1795 75.1324C48.1795 74.8334 48.2652 74.6856 48.433 74.6856C48.9149 74.6856 49.6435 74.665 50.6188 74.6238C51.5951 74.5825 52.3317 74.5653 52.8079 74.5653C52.9723 74.5688 53.0511 74.6925 53.0511 74.9571ZM69.0913 89.1197C70.702 87.4658 71.5682 85.2633 71.5002 82.9943C71.5584 80.7226 70.6838 78.5208 69.0672 76.8689C68.2597 76.0651 67.2933 75.426 66.2251 74.9895C65.1569 74.5531 64.0088 74.3282 62.8488 74.3282C61.6889 74.3282 60.5408 74.5531 59.4726 74.9895C58.4044 75.426 57.4379 76.0651 56.6305 76.8689C55.0684 78.5483 54.2044 80.7257 54.2044 82.9826C54.2044 85.2396 55.0684 87.417 56.6305 89.0964C57.4423 89.8959 58.4108 90.5314 59.4796 90.966C60.5484 91.4006 61.6961 91.6255 62.8558 91.6277C64.0156 91.6299 65.1642 91.4092 66.2347 90.9786C67.3052 90.548 68.2763 89.9161 69.0913 89.1197ZM65.798 79.9814C66.5383 80.8108 66.9321 81.8766 66.9026 82.971C66.9122 84.0507 66.5049 85.0952 65.7601 85.9009C65.3987 86.3106 64.9506 86.6409 64.4459 86.8695C63.9413 87.0982 63.3917 87.2199 62.8343 87.2265C62.2768 87.2331 61.7244 87.1245 61.214 86.9079C60.7037 86.6912 60.2473 86.3716 59.8756 85.9706C59.1655 85.1271 58.7839 84.0701 58.7971 82.9833C58.8103 81.8965 59.2175 80.8485 59.9478 80.0213C60.2965 79.6033 60.7386 79.2667 61.2409 79.0366C61.7432 78.8065 62.2929 78.6889 62.8488 78.6926C63.4091 78.6797 63.9652 78.7889 64.4758 79.0121C64.9864 79.2352 65.4383 79.5665 65.798 79.9814ZM87.6498 80.8874C87.6498 82.8672 87.1222 84.471 86.067 85.6988C84.9411 87.0008 83.3842 87.6519 81.3962 87.6519C81.0641 87.6519 80.5659 87.631 79.8946 87.5962C79.2234 87.5614 78.7287 87.5405 78.3966 87.5405C78.0645 87.5405 77.8596 87.6902 77.8596 87.9931C77.8596 88.3725 77.8984 88.9331 77.9726 89.6746C78.0468 90.4162 78.0822 90.9767 78.0822 91.3457C78.0822 91.5337 77.9974 91.6277 77.8207 91.6277C77.3167 91.6277 76.557 91.6138 75.5419 91.5859C74.5279 91.5581 73.7753 91.5407 73.263 91.5407C73.2152 91.5463 73.1668 91.5411 73.1214 91.5256C73.0759 91.5101 73.0346 91.4846 73.0006 91.4511C72.9666 91.4176 72.9407 91.3769 72.925 91.3321C72.9092 91.2873 72.904 91.2396 72.9097 91.1925C72.9097 90.2827 72.9238 88.918 72.9521 87.0983C72.9804 85.2787 72.9945 83.9139 72.9945 83.0041C72.9945 80.4348 72.8826 77.7343 72.6588 74.9027V74.7321C72.64 74.5766 72.7578 74.4826 73.0122 74.4502C73.6622 74.3666 75.0908 74.326 77.2978 74.3283H77.2982C78.6018 74.3283 79.8524 74.3283 81.05 74.377C83.0191 74.4327 84.6043 75.042 85.8055 76.2048C87.0068 77.3676 87.6215 78.9285 87.6498 80.8874ZM82.6823 81.0824C82.6823 79.1768 81.7401 78.2241 79.8558 78.2241C78.5273 78.2241 77.8301 78.2972 77.7642 78.4434C77.7041 78.5513 77.6759 79.4878 77.6759 81.2808C77.6759 81.5349 77.6759 81.9075 77.7076 82.4018C77.7394 82.8962 77.7394 83.2722 77.7394 83.5263C77.7394 83.6888 78.4861 83.7712 79.9794 83.7735C81.779 83.7689 82.6799 82.8718 82.6823 81.0824ZM103.69 89.1197C105.301 87.4658 106.167 85.2633 106.099 82.9943C106.157 80.7226 105.283 78.5208 103.666 76.8689C102.859 76.0651 101.892 75.426 100.824 74.9895C99.7558 74.5531 98.6077 74.3282 97.4478 74.3282C96.2878 74.3282 95.1397 74.5531 94.0715 74.9895C93.0034 75.426 92.0369 76.0651 91.2294 76.8689C89.6674 78.5483 88.8034 80.7257 88.8034 82.9826C88.8034 85.2396 89.6674 87.417 91.2294 89.0964C92.0412 89.8959 93.0097 90.5314 94.0785 90.966C95.1473 91.4006 96.295 91.6255 97.4548 91.6277C98.6145 91.6299 99.7631 91.4092 100.834 90.9786C101.904 90.548 102.875 89.9161 103.69 89.1197ZM100.397 79.9814C101.135 80.8119 101.527 81.8772 101.498 82.971C101.509 84.0504 101.103 85.0949 100.359 85.9009C99.9977 86.3106 99.5496 86.6409 99.0449 86.8695C98.5402 87.0982 97.9907 87.2199 97.4332 87.2265C96.8758 87.2331 96.3233 87.1245 95.813 86.9079C95.3026 86.6912 94.8463 86.3716 94.4745 85.9706C93.7644 85.1271 93.3829 84.0701 93.3961 82.9833C93.4093 81.8965 93.8164 80.8485 94.5468 80.0213C94.8952 79.6029 95.3371 79.266 95.8395 79.0359C96.3419 78.8058 96.8917 78.6884 97.4478 78.6926C98.0081 78.6797 98.5642 78.7889 99.0748 79.0121C99.5853 79.2352 100.037 79.5665 100.397 79.9814ZM117.764 91.6233H117.763C117.109 91.6233 116.243 91.6233 115.183 91.5749L112.6 91.5161L109.153 91.4642C108.806 91.4642 108.309 91.4642 107.665 91.4158C107.619 91.416 107.574 91.4062 107.532 91.3869C107.491 91.3676 107.453 91.3393 107.422 91.3039C107.392 91.2684 107.368 91.2265 107.354 91.1809C107.339 91.1353 107.334 91.087 107.338 91.039C107.338 90.1541 107.351 88.8278 107.377 87.0601C107.403 85.2925 107.416 83.9662 107.416 83.0812C107.416 82.1363 107.39 80.7236 107.338 78.843C107.285 76.9624 107.258 75.5509 107.256 74.6083C107.256 74.432 107.37 74.3421 107.603 74.3421C107.835 74.3421 108.175 74.3421 108.633 74.3767C109.091 74.4112 109.431 74.4147 109.653 74.4147C109.875 74.4147 110.284 74.4147 110.785 74.3698C111.253 74.3277 111.612 74.328 111.862 74.3282L111.913 74.3283C112.031 74.3283 112.083 74.4078 112.076 74.5599V74.7189C111.985 76.2469 111.876 78.5423 111.749 81.6051V84.8235V87.1016C111.749 87.1625 111.756 87.2247 111.762 87.2865C111.766 87.3231 111.77 87.3595 111.772 87.3954C111.776 87.4427 111.795 87.4871 111.827 87.5206C111.859 87.5542 111.901 87.5747 111.946 87.5787H112.246C112.938 87.5787 113.973 87.5395 115.353 87.4611C116.733 87.3851 117.767 87.347 118.46 87.347C118.666 87.347 118.787 87.4404 118.787 87.6271C118.803 88.8325 118.707 90.0367 118.499 91.2223C118.46 91.4331 118.382 91.5679 118.257 91.5991C118.094 91.6256 117.928 91.6338 117.764 91.6233ZM133.585 79.6982C133.721 79.4109 133.789 79.0962 133.782 78.7788C133.782 78.3365 133.764 77.6888 133.739 76.8147C133.715 75.9406 133.715 75.2894 133.715 74.8541C133.715 74.5023 133.634 74.3282 133.468 74.3282C132.964 74.3282 132.214 74.3503 131.217 74.3944C130.22 74.4385 129.473 74.4605 128.975 74.4605H128.666C128.592 74.4849 128.553 74.5859 128.553 74.7565C128.553 75.1675 128.585 75.7839 128.648 76.6162C128.711 77.4485 128.74 78.0684 128.74 78.4758C128.74 78.6824 128.388 79.2768 127.684 80.2588C127.121 81.0412 126.671 81.6298 126.333 82.0244C125.962 81.6065 125.486 81.0134 124.904 80.2449C124.177 79.2629 123.814 78.6488 123.814 78.4027C123.814 77.9848 123.835 77.3579 123.87 76.5187C123.905 75.6794 123.926 75.0526 123.926 74.6347C123.926 74.5093 123.831 74.4501 123.641 74.4501C123.128 74.4501 122.361 74.4292 121.333 74.3874C120.306 74.3456 119.542 74.3282 119.039 74.3282C118.874 74.3282 118.789 74.4605 118.789 74.7322C118.789 75.2267 118.814 75.9638 118.863 76.9435C118.912 77.9233 118.937 78.6592 118.937 79.1514C118.963 79.4334 119.061 79.7042 119.222 79.9384C121.084 82.8359 122.515 84.9811 123.515 86.374C123.696 86.621 123.8 86.9153 123.814 87.2203C123.811 87.6614 123.774 88.3265 123.701 89.2157C123.628 90.1049 123.592 90.7654 123.592 91.1972C123.592 91.3957 123.712 91.5141 123.944 91.5455C124.708 91.6132 125.475 91.6388 126.241 91.6221C126.986 91.6402 127.731 91.6146 128.472 91.5455C128.585 91.5316 128.696 91.5119 128.806 91.4863C128.873 91.4515 128.908 91.3609 128.908 91.2147C128.908 90.7898 128.88 90.1421 128.831 89.2749C128.782 88.4078 128.757 87.7566 128.757 87.3247C128.784 86.9793 128.924 86.6518 129.155 86.3914C130.851 84.3108 132.335 82.0688 133.585 79.6982ZM42.5869 103.162V115.282H47.8539V117.001H40.9341V103.162H42.5869ZM58.2347 117.001V103.162H55.9281V117.001H58.2347ZM68.1133 110.824V117.001H66.3061V103.162H74.3792V104.844H68.0936V109.146H73.9589V110.828L68.1133 110.824ZM82.5802 115.283V110.66L90.7924 110.647V108.987H82.5802V104.843H91.3106V103.162H80.1478V117.001H91.6808V115.283H82.5802Z" fill="white"/>
<path fill-rule="evenodd" clip-rule="evenodd" d="M64.0026 29.2957L86.2757 10.2389C81.7996 5.01541 75.629 1.5326 68.8439 0.400057C62.0588 -0.732491 55.0915 0.557372 49.1616 4.04388C43.2316 7.53038 38.7168 12.9914 36.4074 19.4711C34.0979 25.9508 34.1409 33.0363 36.5289 39.4874C38.9169 45.9386 43.4978 51.3443 49.4696 54.7586C55.4415 58.1728 62.4239 59.3779 69.1947 58.163C75.9655 56.9481 82.0934 53.3906 86.5057 48.1132C90.918 42.8358 93.3337 36.1746 93.3299 29.2957V29.178L64.0026 29.2957ZM63.008 20.2149C65.2409 20.2149 67.051 18.4048 67.051 16.1719C67.051 13.939 65.2409 12.1289 63.008 12.1289C60.7751 12.1289 58.965 13.939 58.965 16.1719C58.965 18.4048 60.7751 20.2149 63.008 20.2149ZM93.9246 21.0781C94.6588 21.6437 95.5727 21.9513 96.5145 21.9499C96.9036 21.9479 97.2904 21.8927 97.6632 21.7859L99.3939 26.248L69.0712 27.2931L75.9633 22.0013C76.4982 22.5219 77.2154 22.834 77.9763 22.8772C78.7372 22.9203 79.4877 22.6915 80.0829 22.2349C80.6781 21.7784 81.0757 21.1264 81.1988 20.4052C81.3219 19.6839 81.1618 18.9444 80.7495 18.3297L92.7468 9.09953L94.7889 14.3988C93.9328 14.7751 93.2368 15.421 92.8165 16.2291C92.3962 17.0372 92.2769 17.9589 92.4785 18.8411C92.6801 19.7232 93.1904 20.5126 93.9246 21.0781ZM86.5741 24.782C87.0761 25.1031 87.6661 25.2743 88.2695 25.2738C89.0781 25.2732 89.8533 24.9647 90.4248 24.4162C90.9963 23.8678 91.3174 23.1242 91.3174 22.3488C91.3174 21.7702 91.1384 21.2046 90.8031 20.7235C90.4678 20.2425 89.9913 19.8676 89.4337 19.6463C88.8762 19.4249 88.2627 19.3672 87.6709 19.4802C87.0791 19.5933 86.5356 19.8721 86.1091 20.2814C85.6826 20.6907 85.3923 21.2121 85.2749 21.7797C85.1575 22.3472 85.2183 22.9354 85.4495 23.4699C85.6808 24.0043 86.0722 24.4609 86.5741 24.782Z" fill="white"/>
</svg>
