<svg width="38" height="34" viewBox="0 0 38 34" fill="none" xmlns="http://www.w3.org/2000/svg">
<path fill-rule="evenodd" clip-rule="evenodd" d="M16.8619 16.8614L29.6814 5.89309C27.1052 2.88667 23.5536 0.882107 19.6484 0.230257C15.7432 -0.421593 11.7331 0.320802 8.32004 2.3275C4.907 4.33419 2.30844 7.47734 0.979202 11.2068C-0.350033 14.9362 -0.325263 19.0144 1.04918 22.7274C2.42362 26.4404 5.06016 29.5518 8.49733 31.5169C11.9345 33.482 15.9533 34.1756 19.8503 33.4763C23.7473 32.7771 27.2743 30.7295 29.8138 27.6921C32.3534 24.6546 33.7438 20.8207 33.7416 16.8614V16.7937L16.8619 16.8614ZM16.2891 11.6351C17.5743 11.6351 18.6161 10.5932 18.6161 9.30805C18.6161 8.02288 17.5743 6.98105 16.2891 6.98105C15.0039 6.98105 13.9621 8.02288 13.9621 9.30805C13.9621 10.5932 15.0039 11.6351 16.2891 11.6351ZM34.0841 12.1303C34.5067 12.4558 35.0327 12.6328 35.5748 12.632C35.7987 12.6309 36.0213 12.5991 36.2359 12.5376L37.232 15.1058L19.7795 15.7074L23.7463 12.6616C24.0542 12.9612 24.467 13.1409 24.9049 13.1657C25.3428 13.1905 25.7748 13.0588 26.1174 12.7961C26.46 12.5333 26.6888 12.158 26.7596 11.7429C26.8305 11.3278 26.7384 10.9022 26.501 10.5484L33.4062 5.23584L34.5816 8.28586C34.0888 8.50246 33.6882 8.8742 33.4463 9.33933C33.2044 9.80446 33.1358 10.335 33.2518 10.8427C33.3678 11.3504 33.6615 11.8047 34.0841 12.1303ZM29.8535 14.2621C30.1424 14.4469 30.482 14.5454 30.8293 14.5451C31.2947 14.5447 31.7408 14.3672 32.0698 14.0515C32.3987 13.7358 32.5835 13.3079 32.5835 12.8616C32.5835 12.5286 32.4805 12.203 32.2875 11.9262C32.0945 11.6493 31.8202 11.4335 31.4993 11.3061C31.1784 11.1787 30.8254 11.1455 30.4847 11.2106C30.1441 11.2756 29.8313 11.4361 29.5858 11.6717C29.3404 11.9073 29.1733 12.2074 29.1057 12.534C29.0381 12.8607 29.0731 13.1992 29.2062 13.5068C29.3393 13.8144 29.5646 14.0773 29.8535 14.2621Z" fill="#FFB93E"/>
</svg>
