<svg width="40" height="29" viewBox="0 0 40 29" fill="none" xmlns="http://www.w3.org/2000/svg">
<path d="M35.7143 0H4.28571C1.91878 0 0 1.91878 0 4.28571V24.2857C0 26.6526 1.91878 28.5714 4.28571 28.5714H35.7143C38.0812 28.5714 40 26.6526 40 24.2857V4.28571C40 1.91878 38.0812 0 35.7143 0ZM37.1428 16.5514C37.1428 16.5514 37.1428 16.5514 37.1428 16.5514L28.1529 7.56143C27.595 7.00371 26.6907 7.00371 26.1329 7.56143L17.8213 15.873C15.8686 17.8256 12.7028 17.8256 10.7502 15.873L9.58141 14.7042C9.0236 14.1464 8.11925 14.1464 7.56143 14.7042C5.82542 16.4402 2.85711 15.2107 2.85711 12.7556V4.28571C2.85711 3.49671 3.49671 2.85711 4.28571 2.85711H35.7143C36.5033 2.85711 37.1429 3.49671 37.1429 4.28571V16.5513C37.1429 16.5514 37.1429 16.5514 37.1428 16.5514Z" fill="#6A8FB1"/>
</svg>
