<svg width="11" height="11" viewBox="0 0 11 11" fill="none" xmlns="http://www.w3.org/2000/svg">
<path fill-rule="evenodd" clip-rule="evenodd" d="M10.9766 6.01367C10.9922 5.84448 11 5.6731 11 5.5C11 2.4624 8.53711 0 5.5 0C2.46289 0 0 2.4624 0 5.5C0 5.67358 0.0078125 5.84521 0.0234375 6.01465C0.0078125 6.05078 0 6.08521 0 6.12207C0 6.17749 0.0205078 6.23291 0.0556641 6.28638C0.381836 8.56421 2.10352 10.3918 4.32715 10.8748V10.8943C4.59961 10.9441 4.87891 10.9771 5.16406 10.9915C5.27051 10.9968 5.375 11 5.48242 11C5.08594 10.9988 4.69922 10.9556 4.32715 10.8748V7.25732C2.09961 7.15503 0.376953 6.7688 0.0556641 6.28638C0.0429688 6.19653 0.0322266 6.10596 0.0234375 6.01465C0.248047 5.50732 2.01758 5.09277 4.32715 4.98682V3.81543H1.26465V2H9.63281V3.81543H6.56934V4.98242C8.93066 5.08081 10.751 5.49854 10.9766 6.01367ZM10.9434 6.29053C10.957 6.19897 10.9678 6.10669 10.9766 6.01367C10.9922 6.04932 11 6.08545 11 6.12207C11 6.17944 10.9814 6.23535 10.9434 6.29053ZM6.56934 10.896V7.26172C8.83789 7.16748 10.6074 6.77783 10.9434 6.29053C10.6104 8.60156 8.84082 10.4482 6.56934 10.896ZM5.50879 11C5.87109 10.9995 6.22656 10.9636 6.56934 10.896V10.9121C6.22559 10.9695 5.87109 10.9995 5.50879 11ZM0.50293 6.00635C0.50293 6.46655 2.74023 6.83936 5.5 6.83936C8.25977 6.83936 10.4961 6.46655 10.4971 6.00635C10.4971 5.71973 9.62988 5.46704 8.30859 5.31689C7.79004 5.25806 7.20215 5.21509 6.56934 5.19214V6.53052C6.19824 6.57861 5.82324 6.60278 5.44824 6.60278C5.07422 6.60278 4.69922 6.57861 4.32715 6.53052V5.19604C2.13379 5.28394 0.50293 5.61328 0.50293 6.00635Z" fill="#6A8FB1"/>
</svg>
