<svg width="47" height="45" viewBox="0 0 47 45" fill="none" xmlns="http://www.w3.org/2000/svg">
<path d="M34.8777 33.4679C41.045 27.3067 41.045 17.3173 34.8777 11.1561C28.7103 4.9949 18.7112 4.9949 12.5439 11.1561C6.37654 17.3174 6.37654 27.3067 12.5439 33.4679C18.7112 39.6291 28.7103 39.6291 34.8777 33.4679Z" fill="#E2810E"/>
<path d="M33.5007 33.4674C39.668 27.3062 39.668 17.3169 33.5007 11.1556C27.3334 4.99442 17.3342 4.99442 11.1669 11.1556C4.99959 17.3169 4.99959 27.3062 11.1669 33.4674C17.3342 39.6286 27.3334 39.6286 33.5007 33.4674Z" fill="#FFB93E"/>
<path d="M22.3344 36.8724C18.4913 36.8724 14.8778 35.3775 12.1598 32.6621C9.44176 29.9468 7.94531 26.3369 7.94531 22.4975C7.94531 18.6582 9.44176 15.0482 12.1598 12.3329C14.8778 9.61753 18.4913 8.12256 22.3344 8.12256C26.1776 8.12256 29.7911 9.61753 32.5091 12.3329C35.2271 15.0482 36.7236 18.6582 36.7236 22.4975C36.7236 26.3369 35.2271 29.9468 32.5091 32.6621C29.7919 35.3775 26.1784 36.8724 22.3344 36.8724ZM22.3344 8.98048C14.8735 8.98048 8.80408 15.044 8.80408 22.4975C8.80408 29.9511 14.8735 36.0145 22.3344 36.0145C29.7953 36.0145 35.8648 29.9511 35.8648 22.4975C35.8657 15.0448 29.7953 8.98048 22.3344 8.98048Z" fill="#FFA412"/>
<path d="M24.3165 26.671C24.3532 26.3606 24.3421 26.0826 24.2823 25.8361C24.2226 25.5896 24.1048 25.3585 23.9289 25.1428C23.753 24.927 23.5174 24.7198 23.2229 24.5202C22.9276 24.3207 22.5631 24.1168 22.1285 23.9079C21.3816 23.542 20.7072 23.1719 20.1071 22.7984C19.5061 22.424 19.0025 22.0147 18.5953 21.5695C18.1881 21.1243 17.891 20.6254 17.7024 20.0711C17.5137 19.5176 17.4625 18.8789 17.5487 18.1557C17.623 17.528 17.8023 16.9694 18.0865 16.4791C18.3708 15.9887 18.7421 15.5768 19.2014 15.2417C19.6606 14.9065 20.1925 14.6541 20.7977 14.4818C21.4029 14.3104 22.0671 14.2336 22.791 14.2524L23.0727 11.8833L24.9815 12.1093L24.6963 14.5117C25.3699 14.6814 25.9683 14.9355 26.4933 15.2749C27.0174 15.6143 27.4485 16.0245 27.7865 16.5064C28.1246 16.9882 28.3636 17.5383 28.5036 18.1574C28.6436 18.7766 28.6701 19.4554 28.5821 20.1931L25.1343 19.7846C25.2393 18.8994 25.1214 18.2128 24.78 17.7267C24.4385 17.2415 23.9374 16.9592 23.2776 16.8808C22.9199 16.8381 22.6057 16.8518 22.3351 16.9208C22.0645 16.9899 21.8357 17.1016 21.6479 17.2543C21.4601 17.4078 21.3125 17.598 21.2049 17.8248C21.0973 18.0517 21.0273 18.3015 20.9949 18.5744C20.9625 18.8473 20.9727 19.0998 21.0265 19.33C21.0794 19.5611 21.1921 19.782 21.3654 19.9935C21.5378 20.205 21.7751 20.4122 22.0773 20.6169C22.3795 20.8216 22.7594 21.0399 23.2152 21.2744C23.9519 21.6539 24.6195 22.0326 25.2162 22.4095C25.8121 22.7873 26.314 23.2001 26.7203 23.6487C27.1267 24.0972 27.4237 24.5987 27.6124 25.1522C27.8002 25.7065 27.8523 26.341 27.7669 27.0565C27.6901 27.7063 27.5074 28.276 27.2189 28.7655C26.9303 29.2559 26.5573 29.6644 26.0989 29.991C25.6405 30.3185 25.1052 30.5624 24.494 30.7218C23.8828 30.8813 23.2144 30.9521 22.4905 30.9333L22.2284 33.1361L20.3316 32.911L20.592 30.7184C19.9398 30.5735 19.3183 30.3543 18.7285 30.0601C18.1386 29.7658 17.6298 29.3812 17.2021 28.9079C16.7745 28.4346 16.4552 27.8632 16.2443 27.1946C16.0335 26.526 15.9806 25.7491 16.0856 24.8631L19.5335 25.2715C19.4711 25.7952 19.4925 26.242 19.5983 26.6096C19.7033 26.978 19.8672 27.2816 20.0892 27.5212C20.3111 27.7609 20.5732 27.9417 20.878 28.0636C21.1819 28.1856 21.4969 28.2658 21.8229 28.305C22.1968 28.3493 22.5306 28.3399 22.8243 28.2777C23.1179 28.2154 23.3706 28.1105 23.5815 27.963C23.7923 27.8163 23.9596 27.6313 24.0826 27.4104C24.2063 27.1912 24.284 26.9439 24.3165 26.671Z" fill="#FFA412"/>
</svg>
