<svg xmlns="http://www.w3.org/2000/svg" width="512" height="512" viewBox="0 0 512 512" version="1.1">
	<path d="M 214 29.617 C 160.724 34.449, 112.149 56.621, 74.134 93.456 C 37.964 128.504, 15.295 172.818, 7.354 224 C 5.170 238.076, 4.869 271.984, 6.807 285.500 C 21.497 387.920, 98.462 466.073, 199.438 481.103 C 215.644 483.515, 244.923 483.997, 259 482.084 C 303.327 476.060, 345.004 458.236, 376.500 431.833 C 417.447 397.508, 444.511 352.613, 454.955 301.691 C 456.887 292.268, 458.474 279.078, 459.497 263.930 L 460.075 255.360 346.288 255.779 C 233.121 256.195, 232.511 256.187, 234.500 254.230 C 235.600 253.148, 274.075 220.189, 320 180.986 C 365.925 141.784, 403.904 109.349, 404.398 108.907 C 405.509 107.914, 384.055 86.332, 374.436 78.767 C 343.037 54.073, 305.260 37.616, 266 31.526 C 255.903 29.960, 223.381 28.766, 214 29.617 M 408.321 135.588 L 362.176 171.110 363.560 173.778 C 369.091 184.440, 363.946 198.459, 352.460 204.019 C 345.833 207.228, 335.026 206.607, 329.087 202.676 C 326.372 200.879, 324.433 200.194, 323.677 200.764 C 308.698 212.064, 272.046 240.349, 272.238 240.461 C 272.382 240.544, 325.038 238.800, 389.250 236.585 C 466.164 233.932, 505.982 232.207, 505.948 231.529 C 505.919 230.963, 503.082 223.308, 499.644 214.517 L 493.393 198.534 485.942 198.845 C 476.669 199.232, 469.209 196.696, 462.659 190.931 C 447.556 177.637, 449.527 153.866, 466.632 143.019 L 470.803 140.374 463.316 120.937 C 459.199 110.247, 455.523 101.177, 455.148 100.783 C 454.772 100.388, 433.700 116.051, 408.321 135.588 M 214.332 124.790 C 187.624 134.336, 185.850 170.886, 211.525 182.640 C 221.990 187.431, 233.130 186.447, 242.663 179.888 C 254.352 171.846, 259.028 154.675, 253.094 141.579 C 246.544 127.122, 229.032 119.536, 214.332 124.790 M 411.182 181.519 C 405.336 184.059, 402.006 187.054, 399.472 192.055 C 391.331 208.121, 404.382 226.582, 422.555 224.706 C 441.698 222.731, 450.642 201.592, 438.183 187.773 C 436.158 185.526, 432.700 182.868, 430.500 181.866 C 425.641 179.653, 415.882 179.478, 411.182 181.519" stroke="none" fill="black" fill-rule="evenodd"/>
</svg>