<svg width="66" height="59" viewBox="0 0 66 59" fill="none" xmlns="http://www.w3.org/2000/svg">
<path opacity="0.5" fill-rule="evenodd" clip-rule="evenodd" d="M30.0036 29.2957L52.2766 10.2389C47.8006 5.01541 41.6299 1.5326 34.8449 0.400057C28.0598 -0.732491 21.0925 0.557372 15.1626 4.04388C9.23262 7.53038 4.7178 12.9914 2.40833 19.4711C0.0988705 25.9508 0.141907 33.0363 2.52991 39.4874C4.91791 45.9386 9.49874 51.3443 15.4706 54.7586C21.4425 58.1728 28.4249 59.3779 35.1957 58.163C41.9665 56.9481 48.0944 53.3906 52.5067 48.1132C56.919 42.8358 59.3347 36.1746 59.3309 29.2957V29.178L30.0036 29.2957ZM29.009 20.2149C31.2419 20.2149 33.052 18.4048 33.052 16.1719C33.052 13.939 31.2419 12.1289 29.009 12.1289C26.7761 12.1289 24.966 13.939 24.966 16.1719C24.966 18.4048 26.7761 20.2149 29.009 20.2149ZM59.9256 21.0781C60.6598 21.6437 61.5737 21.9513 62.5155 21.9499C62.9046 21.9479 63.2914 21.8927 63.6642 21.7859L65.3949 26.248L35.0722 27.2931L41.9643 22.0013C42.4992 22.5219 43.2164 22.834 43.9773 22.8772C44.7382 22.9203 45.4887 22.6915 46.0839 22.2349C46.6791 21.7784 47.0767 21.1264 47.1998 20.4052C47.3229 19.6839 47.1628 18.9444 46.7505 18.3297L58.7478 9.09953L60.7899 14.3988C59.9338 14.7751 59.2378 15.421 58.8175 16.2291C58.3971 17.0372 58.2779 17.9589 58.4795 18.8411C58.681 19.7232 59.1913 20.5126 59.9256 21.0781ZM52.5751 24.782C53.0771 25.1031 53.6671 25.2743 54.2705 25.2738C55.0791 25.2732 55.8543 24.9647 56.4258 24.4162C56.9973 23.8678 57.3183 23.1242 57.3183 22.3488C57.3183 21.7702 57.1394 21.2046 56.8041 20.7235C56.4688 20.2425 55.9922 19.8676 55.4347 19.6463C54.8772 19.4249 54.2637 19.3672 53.6719 19.4802C53.0801 19.5933 52.5366 19.8721 52.1101 20.2814C51.6836 20.6907 51.3933 21.2121 51.2759 21.7797C51.1585 22.3472 51.2192 22.9354 51.4505 23.4699C51.6818 24.0043 52.0731 24.4609 52.5751 24.782Z" fill="#6A8FB1"/>
</svg>
