<svg width="134" height="44" viewBox="0 0 134 44" fill="none" xmlns="http://www.w3.org/2000/svg">
<path opacity="0.5" fill-rule="evenodd" clip-rule="evenodd" d="M16.969 17.391C17.1862 17.391 17.298 17.2679 17.298 17.0181C17.3068 16.1379 17.2761 14.8209 17.2059 13.0671C17.1357 11.3134 17.1006 9.99869 17.1006 9.12297C17.1006 8.17655 17.1335 6.75921 17.1993 4.87093C17.2651 2.98266 17.298 1.5653 17.298 0.618884C17.298 0.427319 17.1434 0.328125 16.9493 0.328125C16.7551 0.328125 16.459 0.348647 16.0609 0.389697C15.6628 0.430746 15.4094 0.451268 15.1758 0.451268H15.1758C14.9422 0.451268 14.6033 0.451268 14.1493 0.413645C13.6953 0.376016 13.3564 0.376011 13.1326 0.376011C12.978 0.376011 12.8365 0.533368 12.7049 0.848081C11.1739 4.24834 10.0168 6.79341 9.23373 8.48328C8.95735 9.08534 8.77639 9.38636 8.69084 9.38636C8.52633 9.38636 8.32563 9.12639 8.08544 8.60301L4.69982 0.872029C4.54518 0.533371 4.42345 0.365749 4.34119 0.365749L4.25561 0.36572C3.83043 0.365506 3.22335 0.365202 2.42629 0.406796C1.57412 0.451267 0.935825 0.451268 0.511388 0.451268C0.179077 0.451268 0.0244336 0.529951 0.0244336 0.690728V0.895967C0.0946247 2.21639 0.129723 3.20957 0.129723 3.87548C0.206494 6.43879 0.244877 8.18795 0.244877 9.12297C0.244877 9.99185 0.202106 11.3123 0.123141 13.0706C0.0441758 14.8288 0.00140474 16.1458 0.00140474 17.0216C-0.00543342 17.115 0.0127865 17.2085 0.0540443 17.2918C0.0902366 17.3465 0.185656 17.3705 0.340296 17.3705H4.20958C4.42893 17.3705 4.5386 17.2302 4.5386 16.9497C4.5386 16.163 4.51557 14.9759 4.47938 13.4024C4.44319 11.8288 4.42345 10.6452 4.42345 9.85843C4.41517 9.73867 4.44275 9.61917 4.50241 9.51636C4.54642 9.55095 4.5824 9.59537 4.6077 9.64635C4.97839 10.4423 5.52676 11.733 6.2528 13.5187C6.93058 15.2086 7.47895 16.4948 7.8979 17.3773C7.96042 17.5381 8.21377 17.6202 8.61846 17.6202C8.77295 17.6301 8.92788 17.6301 9.08238 17.6202C9.19753 17.5894 9.29295 17.4799 9.37192 17.2952C9.92906 15.8722 10.4851 14.4457 11.0401 13.0158C11.992 10.5779 12.5108 9.33506 12.5963 9.28717C12.6654 9.31796 12.7016 9.42742 12.7016 9.66003C12.6994 10.4742 12.6698 11.6931 12.6128 13.3169C12.5557 14.9406 12.5272 16.1584 12.5272 16.9703C12.5272 17.2508 12.6369 17.391 12.8562 17.391H16.969ZM33.3382 15.1197C34.9489 13.4658 35.8151 11.2633 35.7471 8.99428C35.8023 6.72307 34.9281 4.52233 33.3141 2.86888C32.5066 2.06505 31.5402 1.42597 30.472 0.989533C29.4038 0.553099 28.2557 0.328214 27.0957 0.328214C25.9358 0.328214 24.7877 0.553099 23.7195 0.989533C22.6513 1.42597 21.6848 2.06505 20.8773 2.86888C19.3153 4.54831 18.4513 6.72568 18.4513 8.98265C18.4513 11.2396 19.3153 13.417 20.8773 15.0964C21.6892 15.8959 22.6577 16.5314 23.7265 16.966C24.7953 17.4006 25.943 17.6255 27.1027 17.6277C28.2625 17.6299 29.4111 17.4092 30.4816 16.9786C31.5521 16.548 32.5232 15.9161 33.3382 15.1197ZM30.0449 5.9814C30.7828 6.81194 31.1752 7.87724 31.1461 8.97102C31.1569 10.0504 30.7508 11.0949 30.007 11.9009C29.6456 12.3106 29.1975 12.6409 28.6928 12.8695C28.1882 13.0982 27.6386 13.2199 27.0812 13.2265C26.5237 13.2331 25.9713 13.1245 25.4609 12.9079C24.9506 12.6912 24.4942 12.3716 24.1225 11.9706C23.4124 11.1271 23.0308 10.0701 23.044 8.98333C23.0572 7.89651 23.4644 6.84849 24.1947 6.02127C24.5431 5.60289 24.9851 5.26603 25.4874 5.03593C25.9898 4.80582 26.5397 4.68843 27.0957 4.69255C27.656 4.67973 28.2121 4.78894 28.7227 5.01207C29.2333 5.23521 29.6852 5.56652 30.0449 5.9814ZM53.0511 0.957094C53.0511 1.8735 53.0123 3.25727 52.9347 5.10842C52.857 6.95956 52.8193 8.34678 52.8216 9.27006V17.2531C52.8216 17.4731 52.7051 17.5796 52.479 17.5796C52.2529 17.5796 51.996 17.5796 51.6054 17.6036C51.2149 17.6277 50.9202 17.6277 50.7284 17.6277C50.5365 17.6277 50.2042 17.6277 49.7863 17.5796C49.3684 17.5315 49.0532 17.5315 48.8442 17.5315H48.8441C48.7003 17.5315 48.5255 17.3975 48.3268 17.1328C47.7444 16.3493 46.4392 14.6127 44.4111 11.9231C43.8561 11.1716 43.011 10.065 41.8759 8.60337C41.8272 8.54103 41.7652 8.49052 41.6943 8.45561C41.6602 8.49081 41.6339 8.53295 41.6174 8.57919C41.6008 8.62543 41.5944 8.67469 41.5984 8.72365C41.5984 9.66297 41.6247 11.0685 41.6772 12.9403C41.7297 14.812 41.7548 16.2176 41.7526 17.1569C41.7526 17.4387 41.6464 17.5796 41.4271 17.5796H37.2475C37.0146 17.5796 36.9049 17.4559 36.9049 17.205C36.9049 16.3321 36.9472 15.0159 37.0317 13.2564C37.1162 11.4969 37.1585 10.1762 37.1585 9.29412C37.1585 8.36167 37.1208 6.97217 37.0454 5.12561C36.97 3.27904 36.9255 1.88954 36.9118 0.957094C36.9118 0.781831 37.0694 0.692485 37.3846 0.692485C37.8505 0.692485 38.4123 0.661557 39.0975 0.596263C39.2585 0.57908 39.5771 0.527525 40.0499 0.438175C40.3649 0.375139 40.6846 0.338365 41.0057 0.328214C41.1017 0.328214 41.2524 0.465669 41.4511 0.740591L45.9561 6.92635C46.3604 7.48306 46.969 8.29866 47.7821 9.37315C47.9842 9.62402 48.1556 9.74773 48.3029 9.74773C48.4502 9.74773 48.457 9.43501 48.457 8.80269C48.457 7.95501 48.4113 6.67892 48.32 4.9744C48.2286 3.26988 48.1818 1.9892 48.1795 1.13236C48.1795 0.833383 48.2652 0.685606 48.433 0.685606C48.9149 0.685606 49.6435 0.664989 50.6188 0.623751C51.5951 0.582512 52.3317 0.565325 52.8079 0.565325C52.9723 0.568762 53.0511 0.692482 53.0511 0.957094ZM69.0913 15.1197C70.702 13.4658 71.5682 11.2633 71.5002 8.99428C71.5584 6.72257 70.6838 4.52077 69.0672 2.86888C68.2597 2.06505 67.2933 1.42597 66.2251 0.989533C65.1569 0.553099 64.0088 0.328214 62.8488 0.328214C61.6889 0.328214 60.5408 0.553099 59.4726 0.989533C58.4044 1.42597 57.4379 2.06505 56.6305 2.86888C55.0684 4.54831 54.2044 6.72568 54.2044 8.98265C54.2044 11.2396 55.0684 13.417 56.6305 15.0964C57.4423 15.8959 58.4108 16.5314 59.4796 16.966C60.5484 17.4006 61.6961 17.6255 62.8558 17.6277C64.0156 17.6299 65.1642 17.4092 66.2347 16.9786C67.3052 16.548 68.2763 15.9161 69.0913 15.1197ZM65.798 5.9814C66.5383 6.8108 66.9321 7.8766 66.9026 8.97102C66.9122 10.0507 66.5049 11.0952 65.7601 11.9009C65.3987 12.3106 64.9506 12.6409 64.4459 12.8695C63.9413 13.0982 63.3917 13.2199 62.8343 13.2265C62.2768 13.2331 61.7244 13.1245 61.214 12.9079C60.7037 12.6912 60.2473 12.3716 59.8756 11.9706C59.1655 11.1271 58.7839 10.0701 58.7971 8.98333C58.8103 7.89651 59.2175 6.84849 59.9478 6.02127C60.2965 5.60326 60.7386 5.26666 61.2409 5.03659C61.7432 4.80651 62.2929 4.68892 62.8488 4.69255C63.4091 4.67973 63.9652 4.78894 64.4758 5.01207C64.9864 5.23521 65.4383 5.56652 65.798 5.9814ZM87.6498 6.88739C87.6498 8.86718 87.1222 10.471 86.067 11.6988C84.9411 13.0008 83.3842 13.6519 81.3962 13.6519C81.0641 13.6519 80.5659 13.631 79.8946 13.5962C79.2234 13.5614 78.7287 13.5405 78.3966 13.5405C78.0645 13.5405 77.8596 13.6902 77.8596 13.9931C77.8596 14.3725 77.8984 14.9331 77.9726 15.6746C78.0468 16.4162 78.0822 16.9767 78.0822 17.3457C78.0822 17.5337 77.9974 17.6277 77.8207 17.6277C77.3167 17.6277 76.557 17.6138 75.5419 17.5859C74.5279 17.5581 73.7753 17.5407 73.263 17.5407C73.2152 17.5463 73.1668 17.5411 73.1214 17.5256C73.0759 17.5101 73.0346 17.4846 73.0006 17.4511C72.9666 17.4176 72.9407 17.3769 72.925 17.3321C72.9092 17.2873 72.904 17.2396 72.9097 17.1925C72.9097 16.2827 72.9238 14.918 72.9521 13.0983C72.9804 11.2787 72.9945 9.91394 72.9945 9.00412C72.9945 6.43479 72.8826 3.73434 72.6588 0.902748V0.732149C72.64 0.576643 72.7578 0.482645 73.0122 0.450151C73.6622 0.366596 75.0908 0.325987 77.2978 0.328308H77.2982C78.6018 0.328308 79.8524 0.328308 81.05 0.377043C83.0191 0.432747 84.6043 1.042 85.8055 2.20481C87.0068 3.36762 87.6215 4.92848 87.6498 6.88739ZM82.6823 7.08235C82.6823 5.17683 81.7401 4.22406 79.8558 4.22406C78.5273 4.22406 77.8301 4.29717 77.7642 4.44339C77.7041 4.55132 77.6759 5.48783 77.6759 7.28079C77.6759 7.53493 77.6759 7.90745 77.7076 8.40182C77.7394 8.89619 77.7394 9.27219 77.7394 9.52634C77.7394 9.6888 78.4861 9.7712 79.9794 9.77352C81.779 9.76888 82.6799 8.87182 82.6823 7.08235ZM103.69 15.1197C105.301 13.4658 106.167 11.2633 106.099 8.99428C106.157 6.72257 105.283 4.52077 103.666 2.86888C102.859 2.06505 101.892 1.42597 100.824 0.989533C99.7558 0.553099 98.6077 0.328214 97.4478 0.328214C96.2878 0.328214 95.1397 0.553099 94.0715 0.989533C93.0034 1.42597 92.0369 2.06505 91.2294 2.86888C89.6674 4.54831 88.8034 6.72568 88.8034 8.98265C88.8034 11.2396 89.6674 13.417 91.2294 15.0964C92.0412 15.8959 93.0097 16.5314 94.0785 16.966C95.1473 17.4006 96.295 17.6255 97.4548 17.6277C98.6145 17.6299 99.7631 17.4092 100.834 16.9786C101.904 16.548 102.875 15.9161 103.69 15.1197ZM100.397 5.9814C101.135 6.81194 101.527 7.87724 101.498 8.97102C101.509 10.0504 101.103 11.0949 100.359 11.9009C99.9977 12.3106 99.5496 12.6409 99.0449 12.8695C98.5402 13.0982 97.9907 13.2199 97.4332 13.2265C96.8758 13.2331 96.3233 13.1245 95.813 12.9079C95.3026 12.6912 94.8463 12.3716 94.4745 11.9706C93.7644 11.1271 93.3829 10.0701 93.3961 8.98333C93.4093 7.89651 93.8164 6.84849 94.5468 6.02127C94.8952 5.60289 95.3371 5.26603 95.8395 5.03593C96.3419 4.80582 96.8917 4.68843 97.4478 4.69255C98.0081 4.67973 98.5642 4.78894 99.0748 5.01207C99.5853 5.23521 100.037 5.56652 100.397 5.9814ZM117.764 17.6233H117.763C117.109 17.6233 116.243 17.6233 115.183 17.5749L112.6 17.5161L109.153 17.4642C108.806 17.4642 108.309 17.4642 107.665 17.4158C107.619 17.416 107.574 17.4062 107.532 17.3869C107.491 17.3676 107.453 17.3393 107.422 17.3039C107.392 17.2684 107.368 17.2265 107.354 17.1809C107.339 17.1353 107.334 17.087 107.338 17.039C107.338 16.1541 107.351 14.8278 107.377 13.0601C107.403 11.2925 107.416 9.96618 107.416 9.0812C107.416 8.13631 107.39 6.72358 107.338 4.84301C107.285 2.96245 107.258 1.55087 107.256 0.608285C107.256 0.431982 107.37 0.342106 107.603 0.342106C107.835 0.342106 108.175 0.342108 108.633 0.376678C109.091 0.411247 109.431 0.414699 109.653 0.414699C109.875 0.414699 110.284 0.414697 110.785 0.369757C111.253 0.327722 111.612 0.328031 111.862 0.328246L111.913 0.328276C112.031 0.328276 112.083 0.407789 112.076 0.559894V0.718909C111.985 2.24687 111.876 4.54227 111.749 7.6051V10.8235V13.1016C111.749 13.1625 111.756 13.2247 111.762 13.2865C111.766 13.3231 111.77 13.3595 111.772 13.3954C111.776 13.4427 111.795 13.4871 111.827 13.5206C111.859 13.5542 111.901 13.5747 111.946 13.5787H112.246C112.938 13.5787 113.973 13.5395 115.353 13.4611C116.733 13.3851 117.767 13.347 118.46 13.347C118.666 13.347 118.787 13.4404 118.787 13.6271C118.803 14.8325 118.707 16.0367 118.499 17.2223C118.46 17.4331 118.382 17.5679 118.257 17.5991C118.094 17.6256 117.928 17.6338 117.764 17.6233ZM133.585 5.69816C133.721 5.41089 133.789 5.0962 133.782 4.7788C133.782 4.33652 133.764 3.68878 133.739 2.81468C133.715 1.94059 133.715 1.28937 133.715 0.854058C133.715 0.50233 133.634 0.328214 133.468 0.328214C132.964 0.328214 132.214 0.35026 131.217 0.394371C130.22 0.438482 129.473 0.460539 128.975 0.460539H128.666C128.592 0.484916 128.553 0.585909 128.553 0.75655C128.553 1.16748 128.585 1.78387 128.648 2.61618C128.711 3.44849 128.74 4.06837 128.74 4.47581C128.74 4.68244 128.388 5.27679 127.684 6.25884C127.121 7.04123 126.671 7.62976 126.333 8.02444C125.962 7.60654 125.486 7.01337 124.904 6.24491C124.177 5.26285 123.814 4.64878 123.814 4.40268C123.814 3.98479 123.835 3.35795 123.87 2.51867C123.905 1.6794 123.926 1.05256 123.926 0.634662C123.926 0.509293 123.831 0.450092 123.641 0.450092C123.128 0.450092 122.361 0.429199 121.333 0.38741C120.306 0.34562 119.542 0.328214 119.039 0.328214C118.874 0.328214 118.789 0.460538 118.789 0.73217C118.789 1.22668 118.814 1.9638 118.863 2.94353C118.912 3.92326 118.937 4.65922 118.937 5.15141C118.963 5.43341 119.061 5.70423 119.222 5.93845C121.084 8.83586 122.515 10.9811 123.515 12.374C123.696 12.621 123.8 12.9153 123.814 13.2203C123.811 13.6614 123.774 14.3265 123.701 15.2157C123.628 16.1049 123.592 16.7654 123.592 17.1972C123.592 17.3957 123.712 17.5141 123.944 17.5455C124.708 17.6132 125.475 17.6388 126.241 17.6221C126.986 17.6402 127.731 17.6146 128.472 17.5455C128.585 17.5316 128.696 17.5119 128.806 17.4863C128.873 17.4515 128.908 17.3609 128.908 17.2147C128.908 16.7898 128.88 16.1421 128.831 15.2749C128.782 14.4078 128.757 13.7566 128.757 13.3247C128.784 12.9793 128.924 12.6518 129.155 12.3914C130.851 10.3108 132.335 8.06876 133.585 5.69816ZM42.5869 29.1615V41.2817H47.8539V43.0011H40.9341V29.1615H42.5869ZM58.2347 43.0015V29.1619H55.9281V43.0015H58.2347ZM68.1133 36.8239V43.0015H66.3061V29.1619H74.3792V30.844H68.0936V35.146H73.9589V36.8281L68.1133 36.8239ZM82.5802 41.2826V36.6596L90.7924 36.6469V34.9869H82.5802V30.843H91.3106V29.1619H80.1478V43.0015H91.6808V41.2826H82.5802Z" fill="#6A8FB1"/>
</svg>
