<svg width="188" height="127" viewBox="0 0 188 127" fill="none" xmlns="http://www.w3.org/2000/svg">
<circle r="3" transform="matrix(1 0 -5.28408e-05 1 14.9998 3)" fill="#144EF4"/>
<circle r="3" transform="matrix(0 -1 1 5.28395e-05 183 16.0002)" fill="#144EF4"/>
<circle r="3" transform="matrix(1 0 -5.28408e-05 1 111 3)" fill="#144EF4"/>
<circle r="3" transform="matrix(0 -1 1 5.28395e-05 184.605 111.986)" fill="#144EF4"/>
<circle r="3" transform="matrix(1 0 -5.28408e-05 1 62.9998 3)" fill="#144EF4"/>
<circle r="3" transform="matrix(1 0 -5.28408e-05 1 159 3)" fill="#144EF4"/>
<circle r="3" transform="matrix(0 -1 1 5.28395e-05 183.803 63.9943)" fill="#144EF4"/>
<circle r="3" transform="matrix(1 0 -5.28408e-05 1 26.9998 3)" fill="#144EF4"/>
<circle r="3" transform="matrix(1 0 -5.28408e-05 1 123 3)" fill="#144EF4"/>
<circle r="3" transform="matrix(0 -1 1 5.28395e-05 184.404 99.9884)" fill="#144EF4"/>
<circle r="3" transform="matrix(1 0 -5.28408e-05 1 74.9998 3)" fill="#144EF4"/>
<circle r="3" transform="matrix(1 0 -5.28408e-05 1 171 3)" fill="#144EF4"/>
<circle r="3" transform="matrix(0 -1 1 5.28395e-05 183.602 51.9943)" fill="#144EF4"/>
<circle r="3" transform="matrix(1 0 -5.28408e-05 1 38.9998 3)" fill="#144EF4"/>
<circle r="3" transform="matrix(1 0 -5.28408e-05 1 135 3)" fill="#144EF4"/>
<circle r="3" transform="matrix(0 -1 1 5.28395e-05 184.203 87.9904)" fill="#144EF4"/>
<circle r="3" transform="matrix(1 0 -5.28408e-05 1 86.9998 3)" fill="#144EF4"/>
<circle r="3" transform="matrix(1 0 -5.28408e-05 1 183 3)" fill="#144EF4"/>
<circle r="3" transform="matrix(0 -1 1 5.28395e-05 183.402 39.9982)" fill="#144EF4"/>
<circle r="3" transform="matrix(1 0 -5.28408e-05 1 2.99984 3)" fill="#144EF4"/>
<circle r="3" transform="matrix(0 -1 1 5.28395e-05 183.199 27.9982)" fill="#144EF4"/>
<circle r="3" transform="matrix(1 0 -5.28408e-05 1 98.9998 3)" fill="#144EF4"/>
<circle r="3" transform="matrix(0 -1 1 5.28395e-05 184.805 123.986)" fill="#144EF4"/>
<circle r="3" transform="matrix(1 0 -5.28408e-05 1 50.9998 3)" fill="#144EF4"/>
<circle r="3" transform="matrix(1 0 -5.28408e-05 1 147 3)" fill="#144EF4"/>
<circle r="3" transform="matrix(0 -1 1 5.28395e-05 184.004 75.9923)" fill="#144EF4"/>
</svg>
