<svg width="570" height="6" viewBox="0 0 570 6" fill="none" xmlns="http://www.w3.org/2000/svg">
<circle r="3" transform="matrix(1 0 -5.28408e-05 1 14.9998 3)" fill="#144EF4"/>
<circle r="3" transform="matrix(1 0 -5.28408e-05 1 207 3)" fill="#144EF4"/>
<circle r="3" transform="matrix(1 0 -5.28408e-05 1 399 3)" fill="#144EF4"/>
<circle r="3" transform="matrix(1 0 -5.28408e-05 1 111 3)" fill="#144EF4"/>
<circle r="3" transform="matrix(1 0 -5.28408e-05 1 303 3)" fill="#144EF4"/>
<circle r="3" transform="matrix(1 0 -5.28408e-05 1 495 3)" fill="#144EF4"/>
<circle r="3" transform="matrix(1 0 -5.28408e-05 1 62.9998 3)" fill="#144EF4"/>
<circle r="3" transform="matrix(1 0 -5.28408e-05 1 255 3)" fill="#144EF4"/>
<circle r="3" transform="matrix(1 0 -5.28408e-05 1 447 3)" fill="#144EF4"/>
<circle r="3" transform="matrix(1 0 -5.28408e-05 1 159 3)" fill="#144EF4"/>
<circle r="3" transform="matrix(1 0 -5.28408e-05 1 351 3)" fill="#144EF4"/>
<circle r="3" transform="matrix(1 0 -5.28408e-05 1 543 3)" fill="#144EF4"/>
<circle r="3" transform="matrix(1 0 -5.28408e-05 1 26.9998 3)" fill="#144EF4"/>
<circle r="3" transform="matrix(1 0 -5.28408e-05 1 219 3)" fill="#144EF4"/>
<circle r="3" transform="matrix(1 0 -5.28408e-05 1 411 3)" fill="#144EF4"/>
<circle r="3" transform="matrix(1 0 -5.28408e-05 1 123 3)" fill="#144EF4"/>
<circle r="3" transform="matrix(1 0 -5.28408e-05 1 315 3)" fill="#144EF4"/>
<circle r="3" transform="matrix(1 0 -5.28408e-05 1 507 3)" fill="#144EF4"/>
<circle r="3" transform="matrix(1 0 -5.28408e-05 1 74.9998 3)" fill="#144EF4"/>
<circle r="3" transform="matrix(1 0 -5.28408e-05 1 267 3)" fill="#144EF4"/>
<circle r="3" transform="matrix(1 0 -5.28408e-05 1 459 3)" fill="#144EF4"/>
<circle r="3" transform="matrix(1 0 -5.28408e-05 1 171 3)" fill="#144EF4"/>
<circle r="3" transform="matrix(1 0 -5.28408e-05 1 363 3)" fill="#144EF4"/>
<circle r="3" transform="matrix(1 0 -5.28408e-05 1 555 3)" fill="#144EF4"/>
<circle r="3" transform="matrix(1 0 -5.28408e-05 1 38.9998 3)" fill="#144EF4"/>
<circle r="3" transform="matrix(1 0 -5.28408e-05 1 231 3)" fill="#144EF4"/>
<circle r="3" transform="matrix(1 0 -5.28408e-05 1 423 3)" fill="#144EF4"/>
<circle r="3" transform="matrix(1 0 -5.28408e-05 1 135 3)" fill="#144EF4"/>
<circle r="3" transform="matrix(1 0 -5.28408e-05 1 327 3)" fill="#144EF4"/>
<circle r="3" transform="matrix(1 0 -5.28408e-05 1 519 3)" fill="#144EF4"/>
<circle r="3" transform="matrix(1 0 -5.28408e-05 1 86.9998 3)" fill="#144EF4"/>
<circle r="3" transform="matrix(1 0 -5.28408e-05 1 279 3)" fill="#144EF4"/>
<circle r="3" transform="matrix(1 0 -5.28408e-05 1 471 3)" fill="#144EF4"/>
<circle r="3" transform="matrix(1 0 -5.28408e-05 1 183 3)" fill="#144EF4"/>
<circle r="3" transform="matrix(1 0 -5.28408e-05 1 375 3)" fill="#144EF4"/>
<circle r="3" transform="matrix(1 0 -5.28408e-05 1 567 3)" fill="#144EF4"/>
<circle r="3" transform="matrix(1 0 -5.28408e-05 1 2.99984 3)" fill="#144EF4"/>
<circle r="3" transform="matrix(1 0 -5.28408e-05 1 195 3)" fill="#144EF4"/>
<circle r="3" transform="matrix(1 0 -5.28408e-05 1 387 3)" fill="#144EF4"/>
<circle r="3" transform="matrix(1 0 -5.28408e-05 1 98.9998 3)" fill="#144EF4"/>
<circle r="3" transform="matrix(1 0 -5.28408e-05 1 291 3)" fill="#144EF4"/>
<circle r="3" transform="matrix(1 0 -5.28408e-05 1 483 3)" fill="#144EF4"/>
<circle r="3" transform="matrix(1 0 -5.28408e-05 1 50.9998 3)" fill="#144EF4"/>
<circle r="3" transform="matrix(1 0 -5.28408e-05 1 243 3)" fill="#144EF4"/>
<circle r="3" transform="matrix(1 0 -5.28408e-05 1 435 3)" fill="#144EF4"/>
<circle r="3" transform="matrix(1 0 -5.28408e-05 1 147 3)" fill="#144EF4"/>
<circle r="3" transform="matrix(1 0 -5.28408e-05 1 339 3)" fill="#144EF4"/>
<circle r="3" transform="matrix(1 0 -5.28408e-05 1 531 3)" fill="#144EF4"/>
</svg>
