<svg width="176" height="177" viewBox="0 0 176 177" fill="none" xmlns="http://www.w3.org/2000/svg">
<path fill-rule="evenodd" clip-rule="evenodd" d="M149.202 70.0319L87.6366 88.2738L145.676 114.555L145.567 114.792C139.233 128.65 128.32 139.881 114.739 146.521C101.158 153.16 85.7733 154.784 71.2788 151.109C56.7842 147.433 44.1028 138.693 35.4542 126.416C26.8056 114.14 22.7408 99.1107 23.9712 83.9585C25.2017 68.8064 31.6491 54.4969 42.1849 43.5348C52.7207 32.5726 66.6736 25.6562 81.6014 23.9961C96.5293 22.336 111.481 26.038 123.84 34.4542C136.198 42.8703 145.176 55.4643 149.202 70.0319ZM105.756 64.5993C103.697 69.0964 98.4528 71.1054 94.0421 69.0864C89.6314 67.0674 87.7247 61.785 89.7833 57.2878C91.8419 52.7906 97.0863 50.7817 101.497 52.8007C105.908 54.8197 107.814 60.1021 105.756 64.5993Z" fill="#FFB93E"/>
<path d="M110.648 71.52C117.921 65.083 118.81 54.1754 112.632 47.1573C106.454 40.1391 95.5503 39.668 88.277 46.105C81.0036 52.542 80.1154 63.4496 86.293 70.4677C92.4706 77.4859 103.375 77.957 110.648 71.52Z" fill="#E2810E"/>
<path d="M109.146 71.6191C116.419 65.1821 117.308 54.2745 111.13 47.2564C104.953 40.2382 94.0484 39.7671 86.775 46.2041C79.5017 52.6411 78.6134 63.5487 84.791 70.5669C90.9686 77.585 101.873 78.0561 109.146 71.6191Z" fill="#FFBE4B"/>
<path d="M98.2442 75.1522C94.2143 75.5497 90.3976 74.2543 87.497 71.5064C84.5966 68.7576 82.9601 64.8849 82.8882 60.6011C82.8164 56.3174 84.319 52.1351 87.1177 48.8247C89.9172 45.5144 93.678 43.4729 97.7079 43.0754C101.738 42.6779 105.554 43.9732 108.455 46.7212C111.355 49.47 112.992 53.3426 113.064 57.6264C113.136 61.9102 111.633 66.0925 108.834 69.4028C106.035 72.7131 102.274 74.7555 98.2442 75.1522ZM97.7243 44.0322C89.9006 44.8034 83.6492 52.1962 83.7883 60.5128C83.9273 68.8294 90.4048 74.9674 98.2285 74.1962C106.051 73.4249 112.304 66.0322 112.164 57.7156C112.025 49.399 105.547 43.2609 97.7243 44.0322Z" fill="#FFA412"/>
<path d="M100.072 63.5163C100.104 63.1702 100.087 62.8647 100.021 62.5989C99.9556 62.333 99.8314 62.0894 99.6483 61.8698C99.4652 61.6501 99.2212 61.4445 98.9176 61.2546C98.6133 61.0648 98.2382 60.8764 97.7914 60.6903C97.0236 60.3633 96.3307 60.0236 95.7119 59.6719C95.093 59.3202 94.572 58.9192 94.1495 58.4697C93.727 58.0202 93.4142 57.4999 93.2124 56.9079C93.01 56.3159 92.946 55.6167 93.0198 54.8094C93.0838 54.1099 93.2554 53.4745 93.5351 52.904C93.8149 52.3343 94.1853 51.8411 94.6464 51.4251C95.1075 51.0091 95.6445 50.6756 96.2569 50.4245C96.87 50.1734 97.5448 50.0213 98.2821 49.9682L98.5237 47.3251L100.471 47.38L100.227 50.0604C100.915 50.1788 101.53 50.3986 102.071 50.719C102.611 51.0394 103.057 51.4491 103.411 51.9457C103.764 52.4431 104.018 53.0264 104.173 53.6947C104.328 54.3639 104.367 55.1102 104.292 55.9336L100.774 55.8343C100.864 54.8462 100.731 54.1014 100.374 53.5998C100.017 53.099 99.5011 52.8381 98.8282 52.8195C98.4631 52.8095 98.1431 52.8557 97.8695 52.9597C97.5953 53.0628 97.3644 53.2098 97.1763 53.3982C96.9882 53.5874 96.8412 53.8122 96.736 54.0735C96.6308 54.3348 96.5644 54.6178 96.5368 54.9226C96.5092 55.2273 96.5245 55.5044 96.5827 55.7537C96.6409 56.003 96.7602 56.2358 96.94 56.4513C97.1198 56.6668 97.3654 56.8716 97.6773 57.0667C97.9893 57.2617 98.3794 57.4645 98.8483 57.6757C99.6056 58.0194 100.292 58.3687 100.906 58.7242C101.52 59.0806 102.039 59.4848 102.462 59.9384C102.884 60.3919 103.196 60.9147 103.399 61.5067C103.601 62.0987 103.666 62.7939 103.593 63.593C103.526 64.3176 103.351 64.9651 103.068 65.5347C102.783 66.105 102.411 66.5933 101.951 67.0012C101.491 67.4091 100.951 67.7328 100.331 67.9714C99.7107 68.21 99.0328 68.3555 98.2955 68.4094L98.0712 70.8677L96.1354 70.8133L96.3584 68.3679C95.6912 68.2747 95.0547 68.0956 94.4489 67.8314C93.8425 67.5663 93.3171 67.1945 92.8729 66.7157C92.4288 66.237 92.0929 65.6393 91.8655 64.922C91.6381 64.2055 91.5697 63.3533 91.6597 62.3652L95.1774 62.4646C95.1239 63.049 95.154 63.5396 95.2686 63.9349C95.3831 64.3302 95.5551 64.6487 95.785 64.8912C96.0151 65.1329 96.2861 65.3061 96.5981 65.4092C96.9101 65.5132 97.232 65.5696 97.5651 65.5791C97.9465 65.5897 98.2863 65.5458 98.5839 65.4468C98.8816 65.3478 99.1365 65.2065 99.3487 65.0223C99.5608 64.8388 99.7275 64.618 99.8486 64.3613C99.97 64.1022 100.044 63.8219 100.072 63.5163Z" fill="#FFA412"/>
</svg>
